M48
; DRILL file {KiCad 8.0.4} date 2024-11-12T14:35:13-0800
; FORMAT={-:-/ absolute / metric / decimal}
; #@! TF.CreationDate,2024-11-12T14:35:13-08:00
; #@! TF.GenerationSoftware,Kicad,Pcbnew,8.0.4
; #@! TF.FileFunction,Plated,1,2,PTH
FMAT,2
METRIC
; #@! TA.AperFunction,Plated,PTH,ComponentDrill
T1C0.800
; #@! TA.AperFunction,Plated,PTH,ComponentDrill
T2C0.950
; #@! TA.AperFunction,Plated,PTH,ComponentDrill
T3C1.000
%
G90
G05
T1
X129.5Y-120.5
X129.5Y-125.5
X134.4Y-78.8
X135.5Y-120.5
X135.5Y-125.5
X136.4Y-78.8
T2
X130.0Y-87.9
X130.0Y-96.6
X132.5Y-87.9
X132.5Y-96.6
X135.0Y-87.9
X135.0Y-96.6
T3
X129.3Y-77.36
X129.3Y-79.9
X129.92Y-113.5
X129.96Y-105.0
X132.46Y-113.5
X132.5Y-105.0
X135.0Y-113.5
X135.04Y-105.0
X140.5Y-81.64
X140.5Y-84.18
X140.5Y-86.72
X140.5Y-89.26
X140.5Y-91.8
X140.5Y-94.34
X140.5Y-96.88
X140.5Y-99.42
X140.5Y-101.96
X140.5Y-104.5
X140.5Y-107.04
X140.5Y-109.58
X140.5Y-112.12
X140.5Y-114.66
X140.5Y-117.2
X155.74Y-81.64
X155.74Y-84.18
X155.74Y-86.72
X155.74Y-89.26
X155.74Y-91.8
X155.74Y-94.34
X155.74Y-96.88
X155.74Y-99.42
X155.74Y-101.96
X155.74Y-104.5
X155.74Y-107.04
X155.74Y-109.58
X155.74Y-112.12
X155.74Y-114.66
X155.74Y-117.2
M30
