G04 #@! TF.GenerationSoftware,KiCad,Pcbnew,8.0.4*
G04 #@! TF.CreationDate,2024-11-12T14:35:11-08:00*
G04 #@! TF.ProjectId,Engine Control Unit,456e6769-6e65-4204-936f-6e74726f6c20,rev?*
G04 #@! TF.SameCoordinates,Original*
G04 #@! TF.FileFunction,Copper,L1,Top*
G04 #@! TF.FilePolarity,Positive*
%FSLAX46Y46*%
G04 Gerber Fmt 4.6, Leading zero omitted, Abs format (unit mm)*
G04 Created by KiCad (PCBNEW 8.0.4) date 2024-11-12 14:35:11*
%MOMM*%
%LPD*%
G01*
G04 APERTURE LIST*
G04 Aperture macros list*
%AMRoundRect*
0 Rectangle with rounded corners*
0 $1 Rounding radius*
0 $2 $3 $4 $5 $6 $7 $8 $9 X,Y pos of 4 corners*
0 Add a 4 corners polygon primitive as box body*
4,1,4,$2,$3,$4,$5,$6,$7,$8,$9,$2,$3,0*
0 Add four circle primitives for the rounded corners*
1,1,$1+$1,$2,$3*
1,1,$1+$1,$4,$5*
1,1,$1+$1,$6,$7*
1,1,$1+$1,$8,$9*
0 Add four rect primitives between the rounded corners*
20,1,$1+$1,$2,$3,$4,$5,0*
20,1,$1+$1,$4,$5,$6,$7,0*
20,1,$1+$1,$6,$7,$8,$9,0*
20,1,$1+$1,$8,$9,$2,$3,0*%
G04 Aperture macros list end*
G04 #@! TA.AperFunction,ComponentPad*
%ADD10R,1.700000X1.700000*%
G04 #@! TD*
G04 #@! TA.AperFunction,ComponentPad*
%ADD11O,1.700000X1.700000*%
G04 #@! TD*
G04 #@! TA.AperFunction,ComponentPad*
%ADD12C,1.600000*%
G04 #@! TD*
G04 #@! TA.AperFunction,ComponentPad*
%ADD13R,1.600000X1.600000*%
G04 #@! TD*
G04 #@! TA.AperFunction,ComponentPad*
%ADD14O,1.700000X1.950000*%
G04 #@! TD*
G04 #@! TA.AperFunction,ComponentPad*
%ADD15RoundRect,0.250000X0.600000X0.725000X-0.600000X0.725000X-0.600000X-0.725000X0.600000X-0.725000X0*%
G04 #@! TD*
G04 #@! TA.AperFunction,ComponentPad*
%ADD16O,1.600000X1.600000*%
G04 #@! TD*
G04 #@! TA.AperFunction,Conductor*
%ADD17C,0.150000*%
G04 #@! TD*
G04 #@! TA.AperFunction,Conductor*
%ADD18C,0.400000*%
G04 #@! TD*
G04 APERTURE END LIST*
D10*
X135040000Y-105000000D03*
D11*
X132500000Y-105000000D03*
X129960000Y-105000000D03*
D12*
X135500000Y-125500000D03*
X135500000Y-120500000D03*
D13*
X134400000Y-78800000D03*
D12*
X136400000Y-78800000D03*
D14*
X130000000Y-87900000D03*
X132500000Y-87900000D03*
D15*
X135000000Y-87900000D03*
D12*
X129500000Y-125500000D03*
X129500000Y-120500000D03*
D10*
X135000000Y-113500000D03*
D11*
X132460000Y-113500000D03*
X129920000Y-113500000D03*
D14*
X130000000Y-96600000D03*
X132500000Y-96600000D03*
D15*
X135000000Y-96600000D03*
D13*
X140500000Y-81640000D03*
D16*
X140500000Y-84180000D03*
X140500000Y-86720000D03*
X140500000Y-89260000D03*
X140500000Y-91800000D03*
X140500000Y-94340000D03*
X140500000Y-96880000D03*
X140500000Y-99420000D03*
X140500000Y-101960000D03*
X140500000Y-104500000D03*
X140500000Y-107040000D03*
X140500000Y-109580000D03*
X140500000Y-112120000D03*
X140500000Y-114660000D03*
X140500000Y-117200000D03*
X155740000Y-117200000D03*
X155740000Y-114660000D03*
X155740000Y-112120000D03*
X155740000Y-109580000D03*
X155740000Y-107040000D03*
X155740000Y-104500000D03*
X155740000Y-101960000D03*
X155740000Y-99420000D03*
X155740000Y-96880000D03*
X155740000Y-94340000D03*
X155740000Y-91800000D03*
X155740000Y-89260000D03*
X155740000Y-86720000D03*
X155740000Y-84180000D03*
X155740000Y-81640000D03*
D11*
X129300000Y-77360000D03*
D10*
X129300000Y-79900000D03*
D17*
X129960000Y-105000000D02*
X131000000Y-105000000D01*
X131000000Y-105000000D02*
X139120000Y-96880000D01*
X139120000Y-96880000D02*
X140500000Y-96880000D01*
X129920000Y-113500000D02*
X133988000Y-109432000D01*
X133988000Y-109432000D02*
X133988000Y-103948000D01*
X133988000Y-103948000D02*
X138516000Y-99420000D01*
X138516000Y-99420000D02*
X140500000Y-99420000D01*
X132500000Y-96600000D02*
X132500000Y-95000000D01*
X133160000Y-94340000D02*
X140500000Y-94340000D01*
X132500000Y-95000000D02*
X133160000Y-94340000D01*
X132500000Y-87900000D02*
X132500000Y-90000000D01*
X132500000Y-90000000D02*
X134300000Y-91800000D01*
X134300000Y-91800000D02*
X140500000Y-91800000D01*
D18*
X134400000Y-78800000D02*
X134400000Y-77100000D01*
X134400000Y-77100000D02*
X135000000Y-76500000D01*
X135000000Y-76500000D02*
X142980000Y-76500000D01*
X142980000Y-76500000D02*
X155740000Y-89260000D01*
G04 #@! TA.AperFunction,Conductor*
G36*
X158442539Y-75520185D02*
G01*
X158488294Y-75572989D01*
X158499500Y-75624500D01*
X158499500Y-131375500D01*
X158479815Y-131442539D01*
X158427011Y-131488294D01*
X158375500Y-131499500D01*
X126624500Y-131499500D01*
X126557461Y-131479815D01*
X126511706Y-131427011D01*
X126500500Y-131375500D01*
X126500500Y-125499997D01*
X128195034Y-125499997D01*
X128195034Y-125500002D01*
X128214858Y-125726599D01*
X128214860Y-125726610D01*
X128273730Y-125946317D01*
X128273735Y-125946331D01*
X128369863Y-126152478D01*
X128420974Y-126225472D01*
X129100000Y-125546446D01*
X129100000Y-125552661D01*
X129127259Y-125654394D01*
X129179920Y-125745606D01*
X129254394Y-125820080D01*
X129345606Y-125872741D01*
X129447339Y-125900000D01*
X129453553Y-125900000D01*
X128774526Y-126579025D01*
X128847513Y-126630132D01*
X128847521Y-126630136D01*
X129053668Y-126726264D01*
X129053682Y-126726269D01*
X129273389Y-126785139D01*
X129273400Y-126785141D01*
X129499998Y-126804966D01*
X129500002Y-126804966D01*
X129726599Y-126785141D01*
X129726610Y-126785139D01*
X129946317Y-126726269D01*
X129946331Y-126726264D01*
X130152478Y-126630136D01*
X130225471Y-126579024D01*
X129546447Y-125900000D01*
X129552661Y-125900000D01*
X129654394Y-125872741D01*
X129745606Y-125820080D01*
X129820080Y-125745606D01*
X129872741Y-125654394D01*
X129900000Y-125552661D01*
X129900000Y-125546447D01*
X130579024Y-126225471D01*
X130630136Y-126152478D01*
X130726264Y-125946331D01*
X130726269Y-125946317D01*
X130785139Y-125726610D01*
X130785141Y-125726599D01*
X130804966Y-125500002D01*
X130804966Y-125499997D01*
X134195034Y-125499997D01*
X134195034Y-125500002D01*
X134214858Y-125726599D01*
X134214860Y-125726610D01*
X134273730Y-125946317D01*
X134273735Y-125946331D01*
X134369863Y-126152478D01*
X134420974Y-126225472D01*
X135100000Y-125546446D01*
X135100000Y-125552661D01*
X135127259Y-125654394D01*
X135179920Y-125745606D01*
X135254394Y-125820080D01*
X135345606Y-125872741D01*
X135447339Y-125900000D01*
X135453553Y-125900000D01*
X134774526Y-126579025D01*
X134847513Y-126630132D01*
X134847521Y-126630136D01*
X135053668Y-126726264D01*
X135053682Y-126726269D01*
X135273389Y-126785139D01*
X135273400Y-126785141D01*
X135499998Y-126804966D01*
X135500002Y-126804966D01*
X135726599Y-126785141D01*
X135726610Y-126785139D01*
X135946317Y-126726269D01*
X135946331Y-126726264D01*
X136152478Y-126630136D01*
X136225471Y-126579024D01*
X135546447Y-125900000D01*
X135552661Y-125900000D01*
X135654394Y-125872741D01*
X135745606Y-125820080D01*
X135820080Y-125745606D01*
X135872741Y-125654394D01*
X135900000Y-125552661D01*
X135900000Y-125546447D01*
X136579024Y-126225471D01*
X136630136Y-126152478D01*
X136726264Y-125946331D01*
X136726269Y-125946317D01*
X136785139Y-125726610D01*
X136785141Y-125726599D01*
X136804966Y-125500002D01*
X136804966Y-125499997D01*
X136785141Y-125273400D01*
X136785139Y-125273389D01*
X136726269Y-125053682D01*
X136726264Y-125053668D01*
X136630136Y-124847521D01*
X136630132Y-124847513D01*
X136579025Y-124774526D01*
X135900000Y-125453551D01*
X135900000Y-125447339D01*
X135872741Y-125345606D01*
X135820080Y-125254394D01*
X135745606Y-125179920D01*
X135654394Y-125127259D01*
X135552661Y-125100000D01*
X135546448Y-125100000D01*
X136225472Y-124420974D01*
X136152478Y-124369863D01*
X135946331Y-124273735D01*
X135946317Y-124273730D01*
X135726610Y-124214860D01*
X135726599Y-124214858D01*
X135500002Y-124195034D01*
X135499998Y-124195034D01*
X135273400Y-124214858D01*
X135273389Y-124214860D01*
X135053682Y-124273730D01*
X135053673Y-124273734D01*
X134847516Y-124369866D01*
X134847512Y-124369868D01*
X134774526Y-124420973D01*
X134774526Y-124420974D01*
X135453553Y-125100000D01*
X135447339Y-125100000D01*
X135345606Y-125127259D01*
X135254394Y-125179920D01*
X135179920Y-125254394D01*
X135127259Y-125345606D01*
X135100000Y-125447339D01*
X135100000Y-125453552D01*
X134420974Y-124774526D01*
X134420973Y-124774526D01*
X134369868Y-124847512D01*
X134369866Y-124847516D01*
X134273734Y-125053673D01*
X134273730Y-125053682D01*
X134214860Y-125273389D01*
X134214858Y-125273400D01*
X134195034Y-125499997D01*
X130804966Y-125499997D01*
X130785141Y-125273400D01*
X130785139Y-125273389D01*
X130726269Y-125053682D01*
X130726264Y-125053668D01*
X130630136Y-124847521D01*
X130630132Y-124847513D01*
X130579025Y-124774526D01*
X129900000Y-125453551D01*
X129900000Y-125447339D01*
X129872741Y-125345606D01*
X129820080Y-125254394D01*
X129745606Y-125179920D01*
X129654394Y-125127259D01*
X129552661Y-125100000D01*
X129546448Y-125100000D01*
X130225472Y-124420974D01*
X130152478Y-124369863D01*
X129946331Y-124273735D01*
X129946317Y-124273730D01*
X129726610Y-124214860D01*
X129726599Y-124214858D01*
X129500002Y-124195034D01*
X129499998Y-124195034D01*
X129273400Y-124214858D01*
X129273389Y-124214860D01*
X129053682Y-124273730D01*
X129053673Y-124273734D01*
X128847516Y-124369866D01*
X128847512Y-124369868D01*
X128774526Y-124420973D01*
X128774526Y-124420974D01*
X129453553Y-125100000D01*
X129447339Y-125100000D01*
X129345606Y-125127259D01*
X129254394Y-125179920D01*
X129179920Y-125254394D01*
X129127259Y-125345606D01*
X129100000Y-125447339D01*
X129100000Y-125453552D01*
X128420974Y-124774526D01*
X128420973Y-124774526D01*
X128369868Y-124847512D01*
X128369866Y-124847516D01*
X128273734Y-125053673D01*
X128273730Y-125053682D01*
X128214860Y-125273389D01*
X128214858Y-125273400D01*
X128195034Y-125499997D01*
X126500500Y-125499997D01*
X126500500Y-120499998D01*
X128194532Y-120499998D01*
X128194532Y-120500001D01*
X128214364Y-120726686D01*
X128214366Y-120726697D01*
X128273258Y-120946488D01*
X128273261Y-120946497D01*
X128369431Y-121152732D01*
X128369432Y-121152734D01*
X128499954Y-121339141D01*
X128660858Y-121500045D01*
X128660861Y-121500047D01*
X128847266Y-121630568D01*
X129053504Y-121726739D01*
X129273308Y-121785635D01*
X129435230Y-121799801D01*
X129499998Y-121805468D01*
X129500000Y-121805468D01*
X129500002Y-121805468D01*
X129556673Y-121800509D01*
X129726692Y-121785635D01*
X129946496Y-121726739D01*
X130152734Y-121630568D01*
X130339139Y-121500047D01*
X130500047Y-121339139D01*
X130630568Y-121152734D01*
X130726739Y-120946496D01*
X130785635Y-120726692D01*
X130805468Y-120500000D01*
X130805468Y-120499998D01*
X134194532Y-120499998D01*
X134194532Y-120500001D01*
X134214364Y-120726686D01*
X134214366Y-120726697D01*
X134273258Y-120946488D01*
X134273261Y-120946497D01*
X134369431Y-121152732D01*
X134369432Y-121152734D01*
X134499954Y-121339141D01*
X134660858Y-121500045D01*
X134660861Y-121500047D01*
X134847266Y-121630568D01*
X135053504Y-121726739D01*
X135273308Y-121785635D01*
X135435230Y-121799801D01*
X135499998Y-121805468D01*
X135500000Y-121805468D01*
X135500002Y-121805468D01*
X135556673Y-121800509D01*
X135726692Y-121785635D01*
X135946496Y-121726739D01*
X136152734Y-121630568D01*
X136339139Y-121500047D01*
X136500047Y-121339139D01*
X136630568Y-121152734D01*
X136726739Y-120946496D01*
X136785635Y-120726692D01*
X136805468Y-120500000D01*
X136785635Y-120273308D01*
X136726739Y-120053504D01*
X136630568Y-119847266D01*
X136500047Y-119660861D01*
X136500045Y-119660858D01*
X136339141Y-119499954D01*
X136152734Y-119369432D01*
X136152732Y-119369431D01*
X135946497Y-119273261D01*
X135946488Y-119273258D01*
X135726697Y-119214366D01*
X135726693Y-119214365D01*
X135726692Y-119214365D01*
X135726691Y-119214364D01*
X135726686Y-119214364D01*
X135500002Y-119194532D01*
X135499998Y-119194532D01*
X135273313Y-119214364D01*
X135273302Y-119214366D01*
X135053511Y-119273258D01*
X135053502Y-119273261D01*
X134847267Y-119369431D01*
X134847265Y-119369432D01*
X134660858Y-119499954D01*
X134499954Y-119660858D01*
X134369432Y-119847265D01*
X134369431Y-119847267D01*
X134273261Y-120053502D01*
X134273258Y-120053511D01*
X134214366Y-120273302D01*
X134214364Y-120273313D01*
X134194532Y-120499998D01*
X130805468Y-120499998D01*
X130785635Y-120273308D01*
X130726739Y-120053504D01*
X130630568Y-119847266D01*
X130500047Y-119660861D01*
X130500045Y-119660858D01*
X130339141Y-119499954D01*
X130152734Y-119369432D01*
X130152732Y-119369431D01*
X129946497Y-119273261D01*
X129946488Y-119273258D01*
X129726697Y-119214366D01*
X129726693Y-119214365D01*
X129726692Y-119214365D01*
X129726691Y-119214364D01*
X129726686Y-119214364D01*
X129500002Y-119194532D01*
X129499998Y-119194532D01*
X129273313Y-119214364D01*
X129273302Y-119214366D01*
X129053511Y-119273258D01*
X129053502Y-119273261D01*
X128847267Y-119369431D01*
X128847265Y-119369432D01*
X128660858Y-119499954D01*
X128499954Y-119660858D01*
X128369432Y-119847265D01*
X128369431Y-119847267D01*
X128273261Y-120053502D01*
X128273258Y-120053511D01*
X128214366Y-120273302D01*
X128214364Y-120273313D01*
X128194532Y-120499998D01*
X126500500Y-120499998D01*
X126500500Y-113499999D01*
X128564341Y-113499999D01*
X128564341Y-113500000D01*
X128584936Y-113735403D01*
X128584938Y-113735413D01*
X128646094Y-113963655D01*
X128646096Y-113963659D01*
X128646097Y-113963663D01*
X128666430Y-114007267D01*
X128745965Y-114177830D01*
X128745967Y-114177834D01*
X128770944Y-114213504D01*
X128881505Y-114371401D01*
X129048599Y-114538495D01*
X129125135Y-114592086D01*
X129242165Y-114674032D01*
X129242167Y-114674033D01*
X129242170Y-114674035D01*
X129456337Y-114773903D01*
X129684592Y-114835063D01*
X129855319Y-114850000D01*
X129919999Y-114855659D01*
X129920000Y-114855659D01*
X129920001Y-114855659D01*
X129984681Y-114850000D01*
X130155408Y-114835063D01*
X130383663Y-114773903D01*
X130597830Y-114674035D01*
X130791401Y-114538495D01*
X130958495Y-114371401D01*
X131088425Y-114185842D01*
X131143002Y-114142217D01*
X131212500Y-114135023D01*
X131274855Y-114166546D01*
X131291575Y-114185842D01*
X131421500Y-114371395D01*
X131421505Y-114371401D01*
X131588599Y-114538495D01*
X131665135Y-114592086D01*
X131782165Y-114674032D01*
X131782167Y-114674033D01*
X131782170Y-114674035D01*
X131996337Y-114773903D01*
X132224592Y-114835063D01*
X132395319Y-114850000D01*
X132459999Y-114855659D01*
X132460000Y-114855659D01*
X132460001Y-114855659D01*
X132524681Y-114850000D01*
X132695408Y-114835063D01*
X132923663Y-114773903D01*
X133137830Y-114674035D01*
X133331401Y-114538495D01*
X133453717Y-114416178D01*
X133515036Y-114382696D01*
X133584728Y-114387680D01*
X133640662Y-114429551D01*
X133657577Y-114460528D01*
X133706646Y-114592088D01*
X133706649Y-114592093D01*
X133792809Y-114707187D01*
X133792812Y-114707190D01*
X133907906Y-114793350D01*
X133907913Y-114793354D01*
X134042620Y-114843596D01*
X134042627Y-114843598D01*
X134102155Y-114849999D01*
X134102172Y-114850000D01*
X134750000Y-114850000D01*
X134750000Y-113933012D01*
X134807007Y-113965925D01*
X134934174Y-114000000D01*
X135065826Y-114000000D01*
X135192993Y-113965925D01*
X135250000Y-113933012D01*
X135250000Y-114850000D01*
X135897828Y-114850000D01*
X135897844Y-114849999D01*
X135957372Y-114843598D01*
X135957379Y-114843596D01*
X136092086Y-114793354D01*
X136092093Y-114793350D01*
X136207187Y-114707190D01*
X136207190Y-114707187D01*
X136293350Y-114592093D01*
X136293354Y-114592086D01*
X136343596Y-114457379D01*
X136343598Y-114457372D01*
X136349999Y-114397844D01*
X136350000Y-114397827D01*
X136350000Y-113750000D01*
X135433012Y-113750000D01*
X135465925Y-113692993D01*
X135500000Y-113565826D01*
X135500000Y-113434174D01*
X135465925Y-113307007D01*
X135433012Y-113250000D01*
X136350000Y-113250000D01*
X136350000Y-112602172D01*
X136349999Y-112602155D01*
X136343598Y-112542627D01*
X136343596Y-112542620D01*
X136293354Y-112407913D01*
X136293350Y-112407906D01*
X136207190Y-112292812D01*
X136207187Y-112292809D01*
X136092093Y-112206649D01*
X136092086Y-112206645D01*
X135957379Y-112156403D01*
X135957372Y-112156401D01*
X135897844Y-112150000D01*
X135250000Y-112150000D01*
X135250000Y-113066988D01*
X135192993Y-113034075D01*
X135065826Y-113000000D01*
X134934174Y-113000000D01*
X134807007Y-113034075D01*
X134750000Y-113066988D01*
X134750000Y-112150000D01*
X134102155Y-112150000D01*
X134042627Y-112156401D01*
X134042620Y-112156403D01*
X133907913Y-112206645D01*
X133907906Y-112206649D01*
X133792812Y-112292809D01*
X133792809Y-112292812D01*
X133706649Y-112407906D01*
X133706645Y-112407913D01*
X133657578Y-112539470D01*
X133615707Y-112595404D01*
X133550242Y-112619821D01*
X133481969Y-112604969D01*
X133453715Y-112583819D01*
X133409366Y-112539470D01*
X133331401Y-112461505D01*
X133331397Y-112461502D01*
X133331396Y-112461501D01*
X133137834Y-112325967D01*
X133137830Y-112325965D01*
X133066727Y-112292809D01*
X132923663Y-112226097D01*
X132923659Y-112226096D01*
X132923655Y-112226094D01*
X132695413Y-112164938D01*
X132695403Y-112164936D01*
X132460001Y-112144341D01*
X132459996Y-112144341D01*
X132393408Y-112150166D01*
X132324908Y-112136399D01*
X132274726Y-112087783D01*
X132258793Y-112019754D01*
X132282169Y-111953911D01*
X132294914Y-111938964D01*
X134448515Y-109785365D01*
X134524281Y-109654135D01*
X134563500Y-109507766D01*
X134563500Y-109356233D01*
X134563500Y-106474000D01*
X134583185Y-106406961D01*
X134635989Y-106361206D01*
X134687500Y-106350000D01*
X134790000Y-106350000D01*
X134790000Y-105433012D01*
X134847007Y-105465925D01*
X134974174Y-105500000D01*
X135105826Y-105500000D01*
X135232993Y-105465925D01*
X135290000Y-105433012D01*
X135290000Y-106350000D01*
X135937828Y-106350000D01*
X135937844Y-106349999D01*
X135997372Y-106343598D01*
X135997379Y-106343596D01*
X136132086Y-106293354D01*
X136132093Y-106293350D01*
X136247187Y-106207190D01*
X136247190Y-106207187D01*
X136333350Y-106092093D01*
X136333354Y-106092086D01*
X136383596Y-105957379D01*
X136383598Y-105957372D01*
X136389999Y-105897844D01*
X136390000Y-105897827D01*
X136390000Y-105250000D01*
X135473012Y-105250000D01*
X135505925Y-105192993D01*
X135540000Y-105065826D01*
X135540000Y-104934174D01*
X135505925Y-104807007D01*
X135473012Y-104750000D01*
X136390000Y-104750000D01*
X136390000Y-104102172D01*
X136389999Y-104102155D01*
X136383598Y-104042627D01*
X136383596Y-104042620D01*
X136333354Y-103907913D01*
X136333350Y-103907906D01*
X136247190Y-103792812D01*
X136247187Y-103792809D01*
X136132093Y-103706649D01*
X136132086Y-103706645D01*
X135997379Y-103656403D01*
X135997372Y-103656401D01*
X135937844Y-103650000D01*
X135399242Y-103650000D01*
X135332203Y-103630315D01*
X135286448Y-103577511D01*
X135276504Y-103508353D01*
X135305529Y-103444797D01*
X135311561Y-103438319D01*
X138718061Y-100031819D01*
X138779384Y-99998334D01*
X138805742Y-99995500D01*
X139254421Y-99995500D01*
X139321460Y-100015185D01*
X139366802Y-100067095D01*
X139369431Y-100072732D01*
X139369432Y-100072734D01*
X139499954Y-100259141D01*
X139660858Y-100420045D01*
X139660861Y-100420047D01*
X139847266Y-100550568D01*
X139905275Y-100577618D01*
X139957714Y-100623791D01*
X139976866Y-100690984D01*
X139956650Y-100757865D01*
X139905275Y-100802382D01*
X139847267Y-100829431D01*
X139847265Y-100829432D01*
X139660858Y-100959954D01*
X139499954Y-101120858D01*
X139369432Y-101307265D01*
X139369431Y-101307267D01*
X139273261Y-101513502D01*
X139273258Y-101513511D01*
X139214366Y-101733302D01*
X139214364Y-101733313D01*
X139194532Y-101959998D01*
X139194532Y-101960001D01*
X139214364Y-102186686D01*
X139214366Y-102186697D01*
X139273258Y-102406488D01*
X139273261Y-102406497D01*
X139369431Y-102612732D01*
X139369432Y-102612734D01*
X139499954Y-102799141D01*
X139660858Y-102960045D01*
X139660861Y-102960047D01*
X139847266Y-103090568D01*
X139905275Y-103117618D01*
X139957714Y-103163791D01*
X139976866Y-103230984D01*
X139956650Y-103297865D01*
X139905275Y-103342382D01*
X139847267Y-103369431D01*
X139847265Y-103369432D01*
X139660858Y-103499954D01*
X139499954Y-103660858D01*
X139369432Y-103847265D01*
X139369431Y-103847267D01*
X139273261Y-104053502D01*
X139273258Y-104053511D01*
X139214366Y-104273302D01*
X139214364Y-104273313D01*
X139194532Y-104499998D01*
X139194532Y-104500001D01*
X139214364Y-104726686D01*
X139214366Y-104726697D01*
X139273258Y-104946488D01*
X139273261Y-104946497D01*
X139369431Y-105152732D01*
X139369432Y-105152734D01*
X139499954Y-105339141D01*
X139660858Y-105500045D01*
X139660861Y-105500047D01*
X139847266Y-105630568D01*
X139905275Y-105657618D01*
X139957714Y-105703791D01*
X139976866Y-105770984D01*
X139956650Y-105837865D01*
X139905275Y-105882382D01*
X139847267Y-105909431D01*
X139847265Y-105909432D01*
X139660858Y-106039954D01*
X139499954Y-106200858D01*
X139369432Y-106387265D01*
X139369431Y-106387267D01*
X139273261Y-106593502D01*
X139273258Y-106593511D01*
X139214366Y-106813302D01*
X139214364Y-106813313D01*
X139194532Y-107039998D01*
X139194532Y-107040001D01*
X139214364Y-107266686D01*
X139214366Y-107266697D01*
X139273258Y-107486488D01*
X139273261Y-107486497D01*
X139369431Y-107692732D01*
X139369432Y-107692734D01*
X139499954Y-107879141D01*
X139660858Y-108040045D01*
X139660861Y-108040047D01*
X139847266Y-108170568D01*
X139905275Y-108197618D01*
X139957714Y-108243791D01*
X139976866Y-108310984D01*
X139956650Y-108377865D01*
X139905275Y-108422382D01*
X139847267Y-108449431D01*
X139847265Y-108449432D01*
X139660858Y-108579954D01*
X139499954Y-108740858D01*
X139369432Y-108927265D01*
X139369431Y-108927267D01*
X139273261Y-109133502D01*
X139273258Y-109133511D01*
X139214366Y-109353302D01*
X139214364Y-109353313D01*
X139194532Y-109579998D01*
X139194532Y-109580001D01*
X139214364Y-109806686D01*
X139214366Y-109806697D01*
X139273258Y-110026488D01*
X139273261Y-110026497D01*
X139369431Y-110232732D01*
X139369432Y-110232734D01*
X139499954Y-110419141D01*
X139660858Y-110580045D01*
X139660861Y-110580047D01*
X139847266Y-110710568D01*
X139905275Y-110737618D01*
X139957714Y-110783791D01*
X139976866Y-110850984D01*
X139956650Y-110917865D01*
X139905275Y-110962382D01*
X139847267Y-110989431D01*
X139847265Y-110989432D01*
X139660858Y-111119954D01*
X139499954Y-111280858D01*
X139369432Y-111467265D01*
X139369431Y-111467267D01*
X139273261Y-111673502D01*
X139273258Y-111673511D01*
X139214366Y-111893302D01*
X139214364Y-111893313D01*
X139194532Y-112119998D01*
X139194532Y-112120001D01*
X139214364Y-112346686D01*
X139214366Y-112346697D01*
X139273258Y-112566488D01*
X139273261Y-112566497D01*
X139369431Y-112772732D01*
X139369432Y-112772734D01*
X139499954Y-112959141D01*
X139660858Y-113120045D01*
X139660861Y-113120047D01*
X139847266Y-113250568D01*
X139905275Y-113277618D01*
X139957714Y-113323791D01*
X139976866Y-113390984D01*
X139956650Y-113457865D01*
X139905275Y-113502382D01*
X139847267Y-113529431D01*
X139847265Y-113529432D01*
X139660858Y-113659954D01*
X139499954Y-113820858D01*
X139369432Y-114007265D01*
X139369431Y-114007267D01*
X139273261Y-114213502D01*
X139273258Y-114213511D01*
X139214366Y-114433302D01*
X139214364Y-114433313D01*
X139194532Y-114659998D01*
X139194532Y-114660001D01*
X139214364Y-114886686D01*
X139214366Y-114886697D01*
X139273258Y-115106488D01*
X139273261Y-115106497D01*
X139369431Y-115312732D01*
X139369432Y-115312734D01*
X139499954Y-115499141D01*
X139660858Y-115660045D01*
X139660861Y-115660047D01*
X139847266Y-115790568D01*
X139905275Y-115817618D01*
X139957714Y-115863791D01*
X139976866Y-115930984D01*
X139956650Y-115997865D01*
X139905275Y-116042382D01*
X139847267Y-116069431D01*
X139847265Y-116069432D01*
X139660858Y-116199954D01*
X139499954Y-116360858D01*
X139369432Y-116547265D01*
X139369431Y-116547267D01*
X139273261Y-116753502D01*
X139273258Y-116753511D01*
X139214366Y-116973302D01*
X139214364Y-116973313D01*
X139194532Y-117199998D01*
X139194532Y-117200001D01*
X139214364Y-117426686D01*
X139214366Y-117426697D01*
X139273258Y-117646488D01*
X139273261Y-117646497D01*
X139369431Y-117852732D01*
X139369432Y-117852734D01*
X139499954Y-118039141D01*
X139660858Y-118200045D01*
X139660861Y-118200047D01*
X139847266Y-118330568D01*
X140053504Y-118426739D01*
X140273308Y-118485635D01*
X140435230Y-118499801D01*
X140499998Y-118505468D01*
X140500000Y-118505468D01*
X140500002Y-118505468D01*
X140556673Y-118500509D01*
X140726692Y-118485635D01*
X140946496Y-118426739D01*
X141152734Y-118330568D01*
X141339139Y-118200047D01*
X141500047Y-118039139D01*
X141630568Y-117852734D01*
X141726739Y-117646496D01*
X141785635Y-117426692D01*
X141805468Y-117200000D01*
X141785635Y-116973308D01*
X141726739Y-116753504D01*
X141630568Y-116547266D01*
X141500047Y-116360861D01*
X141500045Y-116360858D01*
X141339141Y-116199954D01*
X141152734Y-116069432D01*
X141152728Y-116069429D01*
X141094725Y-116042382D01*
X141042285Y-115996210D01*
X141023133Y-115929017D01*
X141043348Y-115862135D01*
X141094725Y-115817618D01*
X141152734Y-115790568D01*
X141339139Y-115660047D01*
X141500047Y-115499139D01*
X141630568Y-115312734D01*
X141726739Y-115106496D01*
X141785635Y-114886692D01*
X141805468Y-114660000D01*
X141785635Y-114433308D01*
X141726739Y-114213504D01*
X141630568Y-114007266D01*
X141500047Y-113820861D01*
X141500045Y-113820858D01*
X141339141Y-113659954D01*
X141152734Y-113529432D01*
X141152728Y-113529429D01*
X141094725Y-113502382D01*
X141042285Y-113456210D01*
X141023133Y-113389017D01*
X141043348Y-113322135D01*
X141094725Y-113277618D01*
X141152734Y-113250568D01*
X141339139Y-113120047D01*
X141500047Y-112959139D01*
X141630568Y-112772734D01*
X141726739Y-112566496D01*
X141785635Y-112346692D01*
X141805468Y-112120000D01*
X141785635Y-111893308D01*
X141726739Y-111673504D01*
X141630568Y-111467266D01*
X141500047Y-111280861D01*
X141500045Y-111280858D01*
X141339141Y-111119954D01*
X141152734Y-110989432D01*
X141152728Y-110989429D01*
X141094725Y-110962382D01*
X141042285Y-110916210D01*
X141023133Y-110849017D01*
X141043348Y-110782135D01*
X141094725Y-110737618D01*
X141152734Y-110710568D01*
X141339139Y-110580047D01*
X141500047Y-110419139D01*
X141630568Y-110232734D01*
X141726739Y-110026496D01*
X141785635Y-109806692D01*
X141805468Y-109580000D01*
X141785635Y-109353308D01*
X141726739Y-109133504D01*
X141630568Y-108927266D01*
X141500047Y-108740861D01*
X141500045Y-108740858D01*
X141339141Y-108579954D01*
X141152734Y-108449432D01*
X141152728Y-108449429D01*
X141094725Y-108422382D01*
X141042285Y-108376210D01*
X141023133Y-108309017D01*
X141043348Y-108242135D01*
X141094725Y-108197618D01*
X141152734Y-108170568D01*
X141339139Y-108040047D01*
X141500047Y-107879139D01*
X141630568Y-107692734D01*
X141726739Y-107486496D01*
X141785635Y-107266692D01*
X141805468Y-107040000D01*
X141785635Y-106813308D01*
X141726739Y-106593504D01*
X141630568Y-106387266D01*
X141504479Y-106207190D01*
X141500045Y-106200858D01*
X141339141Y-106039954D01*
X141152734Y-105909432D01*
X141152728Y-105909429D01*
X141094725Y-105882382D01*
X141042285Y-105836210D01*
X141023133Y-105769017D01*
X141043348Y-105702135D01*
X141094725Y-105657618D01*
X141152734Y-105630568D01*
X141339139Y-105500047D01*
X141500047Y-105339139D01*
X141630568Y-105152734D01*
X141726739Y-104946496D01*
X141785635Y-104726692D01*
X141805468Y-104500000D01*
X141785635Y-104273308D01*
X141726739Y-104053504D01*
X141630568Y-103847266D01*
X141500047Y-103660861D01*
X141500045Y-103660858D01*
X141339141Y-103499954D01*
X141152734Y-103369432D01*
X141152728Y-103369429D01*
X141094725Y-103342382D01*
X141042285Y-103296210D01*
X141023133Y-103229017D01*
X141043348Y-103162135D01*
X141094725Y-103117618D01*
X141152734Y-103090568D01*
X141339139Y-102960047D01*
X141500047Y-102799139D01*
X141630568Y-102612734D01*
X141726739Y-102406496D01*
X141785635Y-102186692D01*
X141805468Y-101960000D01*
X141785635Y-101733308D01*
X141726739Y-101513504D01*
X141630568Y-101307266D01*
X141500047Y-101120861D01*
X141500045Y-101120858D01*
X141339141Y-100959954D01*
X141152734Y-100829432D01*
X141152728Y-100829429D01*
X141094725Y-100802382D01*
X141042285Y-100756210D01*
X141023133Y-100689017D01*
X141043348Y-100622135D01*
X141094725Y-100577618D01*
X141152734Y-100550568D01*
X141339139Y-100420047D01*
X141500047Y-100259139D01*
X141630568Y-100072734D01*
X141726739Y-99866496D01*
X141785635Y-99646692D01*
X141805468Y-99420000D01*
X141785635Y-99193308D01*
X141726739Y-98973504D01*
X141630568Y-98767266D01*
X141500047Y-98580861D01*
X141500045Y-98580858D01*
X141339141Y-98419954D01*
X141152734Y-98289432D01*
X141152728Y-98289429D01*
X141094725Y-98262382D01*
X141042285Y-98216210D01*
X141023133Y-98149017D01*
X141043348Y-98082135D01*
X141094725Y-98037618D01*
X141152734Y-98010568D01*
X141339139Y-97880047D01*
X141500047Y-97719139D01*
X141630568Y-97532734D01*
X141726739Y-97326496D01*
X141785635Y-97106692D01*
X141805468Y-96880000D01*
X141785635Y-96653308D01*
X141726739Y-96433504D01*
X141630568Y-96227266D01*
X141500047Y-96040861D01*
X141500045Y-96040858D01*
X141339141Y-95879954D01*
X141152734Y-95749432D01*
X141152728Y-95749429D01*
X141094725Y-95722382D01*
X141042285Y-95676210D01*
X141023133Y-95609017D01*
X141043348Y-95542135D01*
X141094725Y-95497618D01*
X141152734Y-95470568D01*
X141339139Y-95340047D01*
X141500047Y-95179139D01*
X141630568Y-94992734D01*
X141726739Y-94786496D01*
X141785635Y-94566692D01*
X141805468Y-94340000D01*
X141785635Y-94113308D01*
X141726739Y-93893504D01*
X141630568Y-93687266D01*
X141500047Y-93500861D01*
X141500045Y-93500858D01*
X141339141Y-93339954D01*
X141152734Y-93209432D01*
X141152728Y-93209429D01*
X141094725Y-93182382D01*
X141042285Y-93136210D01*
X141023133Y-93069017D01*
X141043348Y-93002135D01*
X141094725Y-92957618D01*
X141152734Y-92930568D01*
X141339139Y-92800047D01*
X141500047Y-92639139D01*
X141630568Y-92452734D01*
X141726739Y-92246496D01*
X141785635Y-92026692D01*
X141805468Y-91800000D01*
X141785635Y-91573308D01*
X141726739Y-91353504D01*
X141630568Y-91147266D01*
X141500047Y-90960861D01*
X141500045Y-90960858D01*
X141339141Y-90799954D01*
X141152734Y-90669432D01*
X141152732Y-90669431D01*
X141094725Y-90642382D01*
X141094132Y-90642105D01*
X141041694Y-90595934D01*
X141022542Y-90528740D01*
X141042758Y-90461859D01*
X141094134Y-90417341D01*
X141152484Y-90390132D01*
X141338820Y-90259657D01*
X141499657Y-90098820D01*
X141630134Y-89912482D01*
X141726265Y-89706326D01*
X141726269Y-89706317D01*
X141778872Y-89510000D01*
X140933012Y-89510000D01*
X140965925Y-89452993D01*
X141000000Y-89325826D01*
X141000000Y-89194174D01*
X140965925Y-89067007D01*
X140933012Y-89010000D01*
X141778872Y-89010000D01*
X141778872Y-89009999D01*
X141726269Y-88813682D01*
X141726265Y-88813673D01*
X141630134Y-88607517D01*
X141499657Y-88421179D01*
X141338820Y-88260342D01*
X141152482Y-88129865D01*
X141094133Y-88102657D01*
X141041694Y-88056484D01*
X141022542Y-87989291D01*
X141042758Y-87922410D01*
X141094129Y-87877895D01*
X141152734Y-87850568D01*
X141339139Y-87720047D01*
X141500047Y-87559139D01*
X141630568Y-87372734D01*
X141726739Y-87166496D01*
X141785635Y-86946692D01*
X141805468Y-86720000D01*
X141804300Y-86706655D01*
X141793454Y-86582684D01*
X141785635Y-86493308D01*
X141726739Y-86273504D01*
X141630568Y-86067266D01*
X141500047Y-85880861D01*
X141500045Y-85880858D01*
X141339141Y-85719954D01*
X141152734Y-85589432D01*
X141152728Y-85589429D01*
X141094725Y-85562382D01*
X141042285Y-85516210D01*
X141023133Y-85449017D01*
X141043348Y-85382135D01*
X141094725Y-85337618D01*
X141095319Y-85337341D01*
X141152734Y-85310568D01*
X141339139Y-85180047D01*
X141500047Y-85019139D01*
X141630568Y-84832734D01*
X141726739Y-84626496D01*
X141785635Y-84406692D01*
X141805468Y-84180000D01*
X141785635Y-83953308D01*
X141726739Y-83733504D01*
X141630568Y-83527266D01*
X141500047Y-83340861D01*
X141500045Y-83340858D01*
X141339143Y-83179956D01*
X141314536Y-83162726D01*
X141270912Y-83108149D01*
X141263719Y-83038650D01*
X141295241Y-82976296D01*
X141355471Y-82940882D01*
X141372404Y-82937861D01*
X141407483Y-82934091D01*
X141542331Y-82883796D01*
X141657546Y-82797546D01*
X141743796Y-82682331D01*
X141794091Y-82547483D01*
X141800500Y-82487873D01*
X141800499Y-80792128D01*
X141794091Y-80732517D01*
X141759567Y-80639954D01*
X141743797Y-80597671D01*
X141743793Y-80597664D01*
X141657547Y-80482455D01*
X141657544Y-80482452D01*
X141542335Y-80396206D01*
X141542328Y-80396202D01*
X141407482Y-80345908D01*
X141407483Y-80345908D01*
X141347883Y-80339501D01*
X141347881Y-80339500D01*
X141347873Y-80339500D01*
X141347864Y-80339500D01*
X139652129Y-80339500D01*
X139652123Y-80339501D01*
X139592516Y-80345908D01*
X139457671Y-80396202D01*
X139457664Y-80396206D01*
X139342455Y-80482452D01*
X139342452Y-80482455D01*
X139256206Y-80597664D01*
X139256202Y-80597671D01*
X139205908Y-80732517D01*
X139199501Y-80792116D01*
X139199501Y-80792123D01*
X139199500Y-80792135D01*
X139199500Y-82487870D01*
X139199501Y-82487876D01*
X139205908Y-82547483D01*
X139256202Y-82682328D01*
X139256206Y-82682335D01*
X139342452Y-82797544D01*
X139342455Y-82797547D01*
X139457664Y-82883793D01*
X139457671Y-82883797D01*
X139502618Y-82900561D01*
X139592517Y-82934091D01*
X139627596Y-82937862D01*
X139692144Y-82964599D01*
X139731993Y-83021991D01*
X139734488Y-83091816D01*
X139698836Y-83151905D01*
X139685464Y-83162725D01*
X139660858Y-83179954D01*
X139499954Y-83340858D01*
X139369432Y-83527265D01*
X139369431Y-83527267D01*
X139273261Y-83733502D01*
X139273258Y-83733511D01*
X139214366Y-83953302D01*
X139214364Y-83953313D01*
X139194532Y-84179998D01*
X139194532Y-84180001D01*
X139214364Y-84406686D01*
X139214366Y-84406697D01*
X139273258Y-84626488D01*
X139273261Y-84626497D01*
X139369431Y-84832732D01*
X139369432Y-84832734D01*
X139499954Y-85019141D01*
X139660858Y-85180045D01*
X139660861Y-85180047D01*
X139847266Y-85310568D01*
X139904681Y-85337341D01*
X139905275Y-85337618D01*
X139957714Y-85383791D01*
X139976866Y-85450984D01*
X139956650Y-85517865D01*
X139905275Y-85562382D01*
X139847267Y-85589431D01*
X139847265Y-85589432D01*
X139660858Y-85719954D01*
X139499954Y-85880858D01*
X139369432Y-86067265D01*
X139369431Y-86067267D01*
X139273261Y-86273502D01*
X139273258Y-86273511D01*
X139214366Y-86493302D01*
X139214364Y-86493313D01*
X139194532Y-86719998D01*
X139194532Y-86720001D01*
X139214364Y-86946686D01*
X139214366Y-86946697D01*
X139273258Y-87166488D01*
X139273261Y-87166497D01*
X139369431Y-87372732D01*
X139369432Y-87372734D01*
X139499954Y-87559141D01*
X139660858Y-87720045D01*
X139660861Y-87720047D01*
X139847266Y-87850568D01*
X139905865Y-87877893D01*
X139958305Y-87924065D01*
X139977457Y-87991258D01*
X139957242Y-88058139D01*
X139905867Y-88102657D01*
X139847515Y-88129867D01*
X139661179Y-88260342D01*
X139500342Y-88421179D01*
X139369865Y-88607517D01*
X139273734Y-88813673D01*
X139273730Y-88813682D01*
X139221127Y-89009999D01*
X139221128Y-89010000D01*
X140066988Y-89010000D01*
X140034075Y-89067007D01*
X140000000Y-89194174D01*
X140000000Y-89325826D01*
X140034075Y-89452993D01*
X140066988Y-89510000D01*
X139221128Y-89510000D01*
X139273730Y-89706317D01*
X139273734Y-89706326D01*
X139369865Y-89912482D01*
X139500342Y-90098820D01*
X139661179Y-90259657D01*
X139847518Y-90390134D01*
X139847520Y-90390135D01*
X139905865Y-90417342D01*
X139958305Y-90463514D01*
X139977457Y-90530707D01*
X139957242Y-90597589D01*
X139905867Y-90642105D01*
X139847268Y-90669431D01*
X139847264Y-90669433D01*
X139660858Y-90799954D01*
X139499954Y-90960858D01*
X139369432Y-91147265D01*
X139368272Y-91149752D01*
X139366802Y-91152904D01*
X139320633Y-91205343D01*
X139254421Y-91224500D01*
X134589742Y-91224500D01*
X134522703Y-91204815D01*
X134502061Y-91188181D01*
X133111819Y-89797939D01*
X133078334Y-89736616D01*
X133075500Y-89710258D01*
X133075500Y-89323456D01*
X133095185Y-89256417D01*
X133143205Y-89212971D01*
X133207816Y-89180051D01*
X133379792Y-89055104D01*
X133518967Y-88915928D01*
X133580286Y-88882446D01*
X133649978Y-88887430D01*
X133705912Y-88929301D01*
X133712184Y-88938515D01*
X133807684Y-89093345D01*
X133931654Y-89217315D01*
X134080875Y-89309356D01*
X134080880Y-89309358D01*
X134247302Y-89364505D01*
X134247309Y-89364506D01*
X134350019Y-89374999D01*
X134749999Y-89374999D01*
X134750000Y-89374998D01*
X134750000Y-88304145D01*
X134816657Y-88342630D01*
X134937465Y-88375000D01*
X135062535Y-88375000D01*
X135183343Y-88342630D01*
X135250000Y-88304145D01*
X135250000Y-89374999D01*
X135649972Y-89374999D01*
X135649986Y-89374998D01*
X135752697Y-89364505D01*
X135919119Y-89309358D01*
X135919124Y-89309356D01*
X136068345Y-89217315D01*
X136192315Y-89093345D01*
X136284356Y-88944124D01*
X136284358Y-88944119D01*
X136339505Y-88777697D01*
X136339506Y-88777690D01*
X136349999Y-88674986D01*
X136350000Y-88674973D01*
X136350000Y-88150000D01*
X135404146Y-88150000D01*
X135442630Y-88083343D01*
X135475000Y-87962535D01*
X135475000Y-87837465D01*
X135442630Y-87716657D01*
X135404146Y-87650000D01*
X136349999Y-87650000D01*
X136349999Y-87125028D01*
X136349998Y-87125013D01*
X136339505Y-87022302D01*
X136284358Y-86855880D01*
X136284356Y-86855875D01*
X136192315Y-86706654D01*
X136068345Y-86582684D01*
X135919124Y-86490643D01*
X135919119Y-86490641D01*
X135752697Y-86435494D01*
X135752690Y-86435493D01*
X135649986Y-86425000D01*
X135250000Y-86425000D01*
X135250000Y-87495854D01*
X135183343Y-87457370D01*
X135062535Y-87425000D01*
X134937465Y-87425000D01*
X134816657Y-87457370D01*
X134750000Y-87495854D01*
X134750000Y-86425000D01*
X134350028Y-86425000D01*
X134350012Y-86425001D01*
X134247302Y-86435494D01*
X134080880Y-86490641D01*
X134080875Y-86490643D01*
X133931654Y-86582684D01*
X133807683Y-86706655D01*
X133807680Y-86706659D01*
X133712183Y-86861484D01*
X133660235Y-86908209D01*
X133591273Y-86919430D01*
X133527191Y-86891587D01*
X133518964Y-86884068D01*
X133379786Y-86744890D01*
X133207820Y-86619951D01*
X133018414Y-86523444D01*
X133018413Y-86523443D01*
X133018412Y-86523443D01*
X132816243Y-86457754D01*
X132816241Y-86457753D01*
X132816240Y-86457753D01*
X132654957Y-86432208D01*
X132606287Y-86424500D01*
X132393713Y-86424500D01*
X132345042Y-86432208D01*
X132183760Y-86457753D01*
X131981585Y-86523444D01*
X131792179Y-86619951D01*
X131620213Y-86744890D01*
X131469894Y-86895209D01*
X131469890Y-86895214D01*
X131350318Y-87059793D01*
X131294989Y-87102459D01*
X131225375Y-87108438D01*
X131163580Y-87075833D01*
X131149682Y-87059793D01*
X131030109Y-86895214D01*
X131030105Y-86895209D01*
X130879786Y-86744890D01*
X130707820Y-86619951D01*
X130518414Y-86523444D01*
X130518413Y-86523443D01*
X130518412Y-86523443D01*
X130316243Y-86457754D01*
X130316241Y-86457753D01*
X130316240Y-86457753D01*
X130154957Y-86432208D01*
X130106287Y-86424500D01*
X129893713Y-86424500D01*
X129845042Y-86432208D01*
X129683760Y-86457753D01*
X129481585Y-86523444D01*
X129292179Y-86619951D01*
X129120213Y-86744890D01*
X128969890Y-86895213D01*
X128844951Y-87067179D01*
X128748444Y-87256585D01*
X128682753Y-87458760D01*
X128659062Y-87608343D01*
X128649500Y-87668713D01*
X128649500Y-88131287D01*
X128682754Y-88341243D01*
X128693722Y-88375000D01*
X128748444Y-88543414D01*
X128844951Y-88732820D01*
X128969890Y-88904786D01*
X129120213Y-89055109D01*
X129292179Y-89180048D01*
X129292181Y-89180049D01*
X129292184Y-89180051D01*
X129481588Y-89276557D01*
X129683757Y-89342246D01*
X129893713Y-89375500D01*
X129893714Y-89375500D01*
X130106286Y-89375500D01*
X130106287Y-89375500D01*
X130316243Y-89342246D01*
X130518412Y-89276557D01*
X130707816Y-89180051D01*
X130729789Y-89164086D01*
X130879786Y-89055109D01*
X130879788Y-89055106D01*
X130879792Y-89055104D01*
X131030104Y-88904792D01*
X131149683Y-88740204D01*
X131205011Y-88697540D01*
X131274624Y-88691561D01*
X131336420Y-88724166D01*
X131350313Y-88740199D01*
X131437281Y-88859901D01*
X131469896Y-88904792D01*
X131620213Y-89055109D01*
X131792182Y-89180050D01*
X131792184Y-89180051D01*
X131856794Y-89212971D01*
X131907590Y-89260945D01*
X131924500Y-89323456D01*
X131924500Y-90075765D01*
X131963719Y-90222136D01*
X132001602Y-90287750D01*
X132039485Y-90353365D01*
X133839485Y-92153365D01*
X133946635Y-92260515D01*
X133969843Y-92273914D01*
X134077865Y-92336281D01*
X134224233Y-92375500D01*
X134224234Y-92375500D01*
X139254421Y-92375500D01*
X139321460Y-92395185D01*
X139366802Y-92447095D01*
X139369431Y-92452732D01*
X139369432Y-92452734D01*
X139499954Y-92639141D01*
X139660858Y-92800045D01*
X139660861Y-92800047D01*
X139847266Y-92930568D01*
X139905275Y-92957618D01*
X139957714Y-93003791D01*
X139976866Y-93070984D01*
X139956650Y-93137865D01*
X139905275Y-93182382D01*
X139847267Y-93209431D01*
X139847265Y-93209432D01*
X139660858Y-93339954D01*
X139499954Y-93500858D01*
X139369432Y-93687265D01*
X139368272Y-93689752D01*
X139366802Y-93692904D01*
X139320633Y-93745343D01*
X139254421Y-93764500D01*
X133084234Y-93764500D01*
X132937863Y-93803719D01*
X132806635Y-93879485D01*
X132806632Y-93879487D01*
X132039487Y-94646632D01*
X132039485Y-94646635D01*
X131963719Y-94777863D01*
X131924500Y-94924234D01*
X131924500Y-95176542D01*
X131904815Y-95243581D01*
X131856796Y-95287026D01*
X131792182Y-95319949D01*
X131620213Y-95444890D01*
X131469894Y-95595209D01*
X131469890Y-95595214D01*
X131350318Y-95759793D01*
X131294989Y-95802459D01*
X131225375Y-95808438D01*
X131163580Y-95775833D01*
X131149682Y-95759793D01*
X131030109Y-95595214D01*
X131030105Y-95595209D01*
X130879786Y-95444890D01*
X130707820Y-95319951D01*
X130518414Y-95223444D01*
X130518413Y-95223443D01*
X130518412Y-95223443D01*
X130316243Y-95157754D01*
X130316241Y-95157753D01*
X130316240Y-95157753D01*
X130154957Y-95132208D01*
X130106287Y-95124500D01*
X129893713Y-95124500D01*
X129845042Y-95132208D01*
X129683760Y-95157753D01*
X129481585Y-95223444D01*
X129292179Y-95319951D01*
X129120213Y-95444890D01*
X128969890Y-95595213D01*
X128844951Y-95767179D01*
X128748444Y-95956585D01*
X128682753Y-96158760D01*
X128659670Y-96304500D01*
X128649500Y-96368713D01*
X128649500Y-96831287D01*
X128682754Y-97041243D01*
X128704021Y-97106697D01*
X128748444Y-97243414D01*
X128844951Y-97432820D01*
X128969890Y-97604786D01*
X129120213Y-97755109D01*
X129292179Y-97880048D01*
X129292181Y-97880049D01*
X129292184Y-97880051D01*
X129481588Y-97976557D01*
X129683757Y-98042246D01*
X129893713Y-98075500D01*
X129893714Y-98075500D01*
X130106286Y-98075500D01*
X130106287Y-98075500D01*
X130316243Y-98042246D01*
X130518412Y-97976557D01*
X130707816Y-97880051D01*
X130729789Y-97864086D01*
X130879786Y-97755109D01*
X130879788Y-97755106D01*
X130879792Y-97755104D01*
X131030104Y-97604792D01*
X131149683Y-97440204D01*
X131205011Y-97397540D01*
X131274624Y-97391561D01*
X131336420Y-97424166D01*
X131350313Y-97440199D01*
X131431407Y-97551816D01*
X131469896Y-97604792D01*
X131620213Y-97755109D01*
X131792179Y-97880048D01*
X131792181Y-97880049D01*
X131792184Y-97880051D01*
X131981588Y-97976557D01*
X132183757Y-98042246D01*
X132393713Y-98075500D01*
X132393714Y-98075500D01*
X132606286Y-98075500D01*
X132606287Y-98075500D01*
X132816243Y-98042246D01*
X133018412Y-97976557D01*
X133207816Y-97880051D01*
X133265141Y-97838402D01*
X133379784Y-97755110D01*
X133379784Y-97755109D01*
X133379792Y-97755104D01*
X133518967Y-97615928D01*
X133580286Y-97582446D01*
X133649978Y-97587430D01*
X133705912Y-97629301D01*
X133712184Y-97638515D01*
X133807684Y-97793345D01*
X133931654Y-97917315D01*
X134080875Y-98009356D01*
X134080880Y-98009358D01*
X134247302Y-98064505D01*
X134247309Y-98064506D01*
X134350019Y-98074999D01*
X134749999Y-98074999D01*
X134750000Y-98074998D01*
X134750000Y-97004145D01*
X134816657Y-97042630D01*
X134937465Y-97075000D01*
X135062535Y-97075000D01*
X135183343Y-97042630D01*
X135250000Y-97004145D01*
X135250000Y-98074999D01*
X135649972Y-98074999D01*
X135649986Y-98074998D01*
X135752697Y-98064505D01*
X135919119Y-98009358D01*
X135919124Y-98009356D01*
X136068345Y-97917315D01*
X136192315Y-97793345D01*
X136284356Y-97644124D01*
X136284358Y-97644119D01*
X136339505Y-97477697D01*
X136339506Y-97477690D01*
X136349999Y-97374986D01*
X136350000Y-97374973D01*
X136350000Y-96850000D01*
X135404146Y-96850000D01*
X135442630Y-96783343D01*
X135475000Y-96662535D01*
X135475000Y-96537465D01*
X135442630Y-96416657D01*
X135404146Y-96350000D01*
X136349999Y-96350000D01*
X136349999Y-95825028D01*
X136349998Y-95825013D01*
X136339505Y-95722302D01*
X136284358Y-95555880D01*
X136284356Y-95555875D01*
X136192315Y-95406654D01*
X136068345Y-95282684D01*
X135919124Y-95190643D01*
X135919119Y-95190641D01*
X135818217Y-95157206D01*
X135760772Y-95117434D01*
X135733949Y-95052918D01*
X135746264Y-94984142D01*
X135793807Y-94932942D01*
X135857221Y-94915500D01*
X139254421Y-94915500D01*
X139321460Y-94935185D01*
X139366802Y-94987095D01*
X139369431Y-94992732D01*
X139369432Y-94992734D01*
X139499954Y-95179141D01*
X139660858Y-95340045D01*
X139660861Y-95340047D01*
X139847266Y-95470568D01*
X139905275Y-95497618D01*
X139957714Y-95543791D01*
X139976866Y-95610984D01*
X139956650Y-95677865D01*
X139905275Y-95722382D01*
X139847267Y-95749431D01*
X139847265Y-95749432D01*
X139660858Y-95879954D01*
X139499954Y-96040858D01*
X139369432Y-96227265D01*
X139368272Y-96229752D01*
X139366802Y-96232904D01*
X139320633Y-96285343D01*
X139254421Y-96304500D01*
X139044233Y-96304500D01*
X138897863Y-96343719D01*
X138766635Y-96419485D01*
X138766632Y-96419487D01*
X131115688Y-104070430D01*
X131054365Y-104103915D01*
X130984673Y-104098931D01*
X130940326Y-104070430D01*
X130831402Y-103961506D01*
X130831395Y-103961501D01*
X130637834Y-103825967D01*
X130637830Y-103825965D01*
X130566727Y-103792809D01*
X130423663Y-103726097D01*
X130423659Y-103726096D01*
X130423655Y-103726094D01*
X130195413Y-103664938D01*
X130195403Y-103664936D01*
X129960001Y-103644341D01*
X129959999Y-103644341D01*
X129724596Y-103664936D01*
X129724586Y-103664938D01*
X129496344Y-103726094D01*
X129496335Y-103726098D01*
X129282171Y-103825964D01*
X129282169Y-103825965D01*
X129088597Y-103961505D01*
X128921505Y-104128597D01*
X128785965Y-104322169D01*
X128785964Y-104322171D01*
X128686098Y-104536335D01*
X128686094Y-104536344D01*
X128624938Y-104764586D01*
X128624936Y-104764596D01*
X128604341Y-104999999D01*
X128604341Y-105000000D01*
X128624936Y-105235403D01*
X128624938Y-105235413D01*
X128686094Y-105463655D01*
X128686096Y-105463659D01*
X128686097Y-105463663D01*
X128723114Y-105543046D01*
X128785965Y-105677830D01*
X128785967Y-105677834D01*
X128820211Y-105726739D01*
X128921505Y-105871401D01*
X129088599Y-106038495D01*
X129090683Y-106039954D01*
X129282165Y-106174032D01*
X129282167Y-106174033D01*
X129282170Y-106174035D01*
X129496337Y-106273903D01*
X129724592Y-106335063D01*
X129895319Y-106350000D01*
X129959999Y-106355659D01*
X129960000Y-106355659D01*
X129960001Y-106355659D01*
X130024681Y-106350000D01*
X130195408Y-106335063D01*
X130423663Y-106273903D01*
X130637830Y-106174035D01*
X130831401Y-106038495D01*
X130998495Y-105871401D01*
X131128425Y-105685842D01*
X131183002Y-105642217D01*
X131252500Y-105635023D01*
X131314855Y-105666546D01*
X131331575Y-105685842D01*
X131461500Y-105871395D01*
X131461505Y-105871401D01*
X131628599Y-106038495D01*
X131630683Y-106039954D01*
X131822165Y-106174032D01*
X131822167Y-106174033D01*
X131822170Y-106174035D01*
X132036337Y-106273903D01*
X132264592Y-106335063D01*
X132435319Y-106350000D01*
X132499999Y-106355659D01*
X132500000Y-106355659D01*
X132500001Y-106355659D01*
X132564681Y-106350000D01*
X132735408Y-106335063D01*
X132963663Y-106273903D01*
X133177830Y-106174035D01*
X133217377Y-106146343D01*
X133283582Y-106124017D01*
X133351350Y-106141027D01*
X133399163Y-106191975D01*
X133412500Y-106247919D01*
X133412500Y-109142257D01*
X133392815Y-109209296D01*
X133376181Y-109229938D01*
X130431414Y-112174704D01*
X130370091Y-112208189D01*
X130311640Y-112206798D01*
X130155413Y-112164938D01*
X130155403Y-112164936D01*
X129920001Y-112144341D01*
X129919999Y-112144341D01*
X129684596Y-112164936D01*
X129684586Y-112164938D01*
X129456344Y-112226094D01*
X129456335Y-112226098D01*
X129242171Y-112325964D01*
X129242169Y-112325965D01*
X129048597Y-112461505D01*
X128881505Y-112628597D01*
X128745965Y-112822169D01*
X128745964Y-112822171D01*
X128646098Y-113036335D01*
X128646094Y-113036344D01*
X128584938Y-113264586D01*
X128584936Y-113264596D01*
X128564341Y-113499999D01*
X126500500Y-113499999D01*
X126500500Y-79002135D01*
X127949500Y-79002135D01*
X127949500Y-80797870D01*
X127949501Y-80797876D01*
X127955908Y-80857483D01*
X128006202Y-80992328D01*
X128006206Y-80992335D01*
X128092452Y-81107544D01*
X128092455Y-81107547D01*
X128207664Y-81193793D01*
X128207671Y-81193797D01*
X128342517Y-81244091D01*
X128342516Y-81244091D01*
X128349444Y-81244835D01*
X128402127Y-81250500D01*
X130197872Y-81250499D01*
X130257483Y-81244091D01*
X130392331Y-81193796D01*
X130507546Y-81107546D01*
X130593796Y-80992331D01*
X130644091Y-80857483D01*
X130650500Y-80797873D01*
X130650499Y-79002128D01*
X130644091Y-78942517D01*
X130593796Y-78807669D01*
X130593795Y-78807668D01*
X130593793Y-78807664D01*
X130507547Y-78692455D01*
X130507544Y-78692452D01*
X130392335Y-78606206D01*
X130392328Y-78606202D01*
X130260401Y-78556997D01*
X130204467Y-78515126D01*
X130180050Y-78449662D01*
X130194902Y-78381389D01*
X130216053Y-78353133D01*
X130338108Y-78231078D01*
X130473600Y-78037578D01*
X130513442Y-77952135D01*
X133099500Y-77952135D01*
X133099500Y-79647870D01*
X133099501Y-79647876D01*
X133105908Y-79707483D01*
X133156202Y-79842328D01*
X133156206Y-79842335D01*
X133242452Y-79957544D01*
X133242455Y-79957547D01*
X133357664Y-80043793D01*
X133357671Y-80043797D01*
X133492517Y-80094091D01*
X133492516Y-80094091D01*
X133499444Y-80094835D01*
X133552127Y-80100500D01*
X135247872Y-80100499D01*
X135307483Y-80094091D01*
X135442331Y-80043796D01*
X135557546Y-79957546D01*
X135564350Y-79948455D01*
X135620280Y-79906584D01*
X135689971Y-79901597D01*
X135734740Y-79921188D01*
X135747512Y-79930130D01*
X135747518Y-79930134D01*
X135953673Y-80026265D01*
X135953682Y-80026269D01*
X136173389Y-80085139D01*
X136173400Y-80085141D01*
X136399998Y-80104966D01*
X136400002Y-80104966D01*
X136626599Y-80085141D01*
X136626610Y-80085139D01*
X136846317Y-80026269D01*
X136846331Y-80026264D01*
X137052478Y-79930136D01*
X137125471Y-79879024D01*
X136446447Y-79200000D01*
X136452661Y-79200000D01*
X136554394Y-79172741D01*
X136645606Y-79120080D01*
X136720080Y-79045606D01*
X136772741Y-78954394D01*
X136800000Y-78852661D01*
X136800000Y-78846447D01*
X137479024Y-79525471D01*
X137530136Y-79452478D01*
X137626264Y-79246331D01*
X137626269Y-79246317D01*
X137685139Y-79026610D01*
X137685141Y-79026599D01*
X137704966Y-78800002D01*
X137704966Y-78799997D01*
X137685141Y-78573400D01*
X137685139Y-78573389D01*
X137626269Y-78353682D01*
X137626264Y-78353668D01*
X137530136Y-78147521D01*
X137530132Y-78147513D01*
X137479025Y-78074526D01*
X136800000Y-78753551D01*
X136800000Y-78747339D01*
X136772741Y-78645606D01*
X136720080Y-78554394D01*
X136645606Y-78479920D01*
X136554394Y-78427259D01*
X136452661Y-78400000D01*
X136446447Y-78400000D01*
X137125472Y-77720974D01*
X137052478Y-77669863D01*
X136846331Y-77573735D01*
X136846317Y-77573730D01*
X136626610Y-77514860D01*
X136626599Y-77514858D01*
X136400002Y-77495034D01*
X136399998Y-77495034D01*
X136173400Y-77514858D01*
X136173389Y-77514860D01*
X135953682Y-77573730D01*
X135953673Y-77573734D01*
X135747512Y-77669868D01*
X135747507Y-77669871D01*
X135734736Y-77678813D01*
X135668529Y-77701138D01*
X135600763Y-77684124D01*
X135564352Y-77651546D01*
X135557546Y-77642454D01*
X135557544Y-77642453D01*
X135557544Y-77642452D01*
X135442335Y-77556206D01*
X135442328Y-77556202D01*
X135307486Y-77505910D01*
X135307485Y-77505909D01*
X135307483Y-77505909D01*
X135273765Y-77502283D01*
X135209217Y-77475546D01*
X135169369Y-77418154D01*
X135166875Y-77348329D01*
X135199341Y-77291315D01*
X135253839Y-77236818D01*
X135315162Y-77203334D01*
X135341519Y-77200500D01*
X142638481Y-77200500D01*
X142705520Y-77220185D01*
X142726162Y-77236819D01*
X154418972Y-88929629D01*
X154452457Y-88990952D01*
X154454819Y-89028117D01*
X154434532Y-89259998D01*
X154434532Y-89260001D01*
X154454364Y-89486686D01*
X154454366Y-89486697D01*
X154513258Y-89706488D01*
X154513261Y-89706497D01*
X154609431Y-89912732D01*
X154609432Y-89912734D01*
X154739954Y-90099141D01*
X154900858Y-90260045D01*
X154900861Y-90260047D01*
X155087266Y-90390568D01*
X155144681Y-90417341D01*
X155145275Y-90417618D01*
X155197714Y-90463791D01*
X155216866Y-90530984D01*
X155196650Y-90597865D01*
X155145275Y-90642382D01*
X155087267Y-90669431D01*
X155087265Y-90669432D01*
X154900858Y-90799954D01*
X154739954Y-90960858D01*
X154609432Y-91147265D01*
X154609431Y-91147267D01*
X154513261Y-91353502D01*
X154513258Y-91353511D01*
X154454366Y-91573302D01*
X154454364Y-91573313D01*
X154434532Y-91799998D01*
X154434532Y-91800001D01*
X154454364Y-92026686D01*
X154454366Y-92026697D01*
X154513258Y-92246488D01*
X154513261Y-92246497D01*
X154609431Y-92452732D01*
X154609432Y-92452734D01*
X154739954Y-92639141D01*
X154900858Y-92800045D01*
X154900861Y-92800047D01*
X155087266Y-92930568D01*
X155145275Y-92957618D01*
X155197714Y-93003791D01*
X155216866Y-93070984D01*
X155196650Y-93137865D01*
X155145275Y-93182382D01*
X155087267Y-93209431D01*
X155087265Y-93209432D01*
X154900858Y-93339954D01*
X154739954Y-93500858D01*
X154609432Y-93687265D01*
X154609431Y-93687267D01*
X154513261Y-93893502D01*
X154513258Y-93893511D01*
X154454366Y-94113302D01*
X154454364Y-94113313D01*
X154434532Y-94339998D01*
X154434532Y-94340001D01*
X154454364Y-94566686D01*
X154454366Y-94566697D01*
X154513258Y-94786488D01*
X154513261Y-94786497D01*
X154609431Y-94992732D01*
X154609432Y-94992734D01*
X154739954Y-95179141D01*
X154900858Y-95340045D01*
X154900861Y-95340047D01*
X155087266Y-95470568D01*
X155145275Y-95497618D01*
X155197714Y-95543791D01*
X155216866Y-95610984D01*
X155196650Y-95677865D01*
X155145275Y-95722382D01*
X155087267Y-95749431D01*
X155087265Y-95749432D01*
X154900858Y-95879954D01*
X154739954Y-96040858D01*
X154609432Y-96227265D01*
X154609431Y-96227267D01*
X154513261Y-96433502D01*
X154513258Y-96433511D01*
X154454366Y-96653302D01*
X154454364Y-96653313D01*
X154434532Y-96879998D01*
X154434532Y-96880001D01*
X154454364Y-97106686D01*
X154454366Y-97106697D01*
X154513258Y-97326488D01*
X154513261Y-97326497D01*
X154609431Y-97532732D01*
X154609432Y-97532734D01*
X154739954Y-97719141D01*
X154900858Y-97880045D01*
X154900861Y-97880047D01*
X155087266Y-98010568D01*
X155145275Y-98037618D01*
X155197714Y-98083791D01*
X155216866Y-98150984D01*
X155196650Y-98217865D01*
X155145275Y-98262382D01*
X155087267Y-98289431D01*
X155087265Y-98289432D01*
X154900858Y-98419954D01*
X154739954Y-98580858D01*
X154609432Y-98767265D01*
X154609431Y-98767267D01*
X154513261Y-98973502D01*
X154513258Y-98973511D01*
X154454366Y-99193302D01*
X154454364Y-99193313D01*
X154434532Y-99419998D01*
X154434532Y-99420001D01*
X154454364Y-99646686D01*
X154454366Y-99646697D01*
X154513258Y-99866488D01*
X154513261Y-99866497D01*
X154609431Y-100072732D01*
X154609432Y-100072734D01*
X154739954Y-100259141D01*
X154900858Y-100420045D01*
X154900861Y-100420047D01*
X155087266Y-100550568D01*
X155145275Y-100577618D01*
X155197714Y-100623791D01*
X155216866Y-100690984D01*
X155196650Y-100757865D01*
X155145275Y-100802382D01*
X155087267Y-100829431D01*
X155087265Y-100829432D01*
X154900858Y-100959954D01*
X154739954Y-101120858D01*
X154609432Y-101307265D01*
X154609431Y-101307267D01*
X154513261Y-101513502D01*
X154513258Y-101513511D01*
X154454366Y-101733302D01*
X154454364Y-101733313D01*
X154434532Y-101959998D01*
X154434532Y-101960001D01*
X154454364Y-102186686D01*
X154454366Y-102186697D01*
X154513258Y-102406488D01*
X154513261Y-102406497D01*
X154609431Y-102612732D01*
X154609432Y-102612734D01*
X154739954Y-102799141D01*
X154900858Y-102960045D01*
X154900861Y-102960047D01*
X155087266Y-103090568D01*
X155145275Y-103117618D01*
X155197714Y-103163791D01*
X155216866Y-103230984D01*
X155196650Y-103297865D01*
X155145275Y-103342382D01*
X155087267Y-103369431D01*
X155087265Y-103369432D01*
X154900858Y-103499954D01*
X154739954Y-103660858D01*
X154609432Y-103847265D01*
X154609431Y-103847267D01*
X154513261Y-104053502D01*
X154513258Y-104053511D01*
X154454366Y-104273302D01*
X154454364Y-104273313D01*
X154434532Y-104499998D01*
X154434532Y-104500001D01*
X154454364Y-104726686D01*
X154454366Y-104726697D01*
X154513258Y-104946488D01*
X154513261Y-104946497D01*
X154609431Y-105152732D01*
X154609432Y-105152734D01*
X154739954Y-105339141D01*
X154900858Y-105500045D01*
X154900861Y-105500047D01*
X155087266Y-105630568D01*
X155145275Y-105657618D01*
X155197714Y-105703791D01*
X155216866Y-105770984D01*
X155196650Y-105837865D01*
X155145275Y-105882382D01*
X155087267Y-105909431D01*
X155087265Y-105909432D01*
X154900858Y-106039954D01*
X154739954Y-106200858D01*
X154609432Y-106387265D01*
X154609431Y-106387267D01*
X154513261Y-106593502D01*
X154513258Y-106593511D01*
X154454366Y-106813302D01*
X154454364Y-106813313D01*
X154434532Y-107039998D01*
X154434532Y-107040001D01*
X154454364Y-107266686D01*
X154454366Y-107266697D01*
X154513258Y-107486488D01*
X154513261Y-107486497D01*
X154609431Y-107692732D01*
X154609432Y-107692734D01*
X154739954Y-107879141D01*
X154900858Y-108040045D01*
X154900861Y-108040047D01*
X155087266Y-108170568D01*
X155145275Y-108197618D01*
X155197714Y-108243791D01*
X155216866Y-108310984D01*
X155196650Y-108377865D01*
X155145275Y-108422382D01*
X155087267Y-108449431D01*
X155087265Y-108449432D01*
X154900858Y-108579954D01*
X154739954Y-108740858D01*
X154609432Y-108927265D01*
X154609431Y-108927267D01*
X154513261Y-109133502D01*
X154513258Y-109133511D01*
X154454366Y-109353302D01*
X154454364Y-109353313D01*
X154434532Y-109579998D01*
X154434532Y-109580001D01*
X154454364Y-109806686D01*
X154454366Y-109806697D01*
X154513258Y-110026488D01*
X154513261Y-110026497D01*
X154609431Y-110232732D01*
X154609432Y-110232734D01*
X154739954Y-110419141D01*
X154900858Y-110580045D01*
X154900861Y-110580047D01*
X155087266Y-110710568D01*
X155145275Y-110737618D01*
X155197714Y-110783791D01*
X155216866Y-110850984D01*
X155196650Y-110917865D01*
X155145275Y-110962382D01*
X155087267Y-110989431D01*
X155087265Y-110989432D01*
X154900858Y-111119954D01*
X154739954Y-111280858D01*
X154609432Y-111467265D01*
X154609431Y-111467267D01*
X154513261Y-111673502D01*
X154513258Y-111673511D01*
X154454366Y-111893302D01*
X154454364Y-111893313D01*
X154434532Y-112119998D01*
X154434532Y-112120001D01*
X154454364Y-112346686D01*
X154454366Y-112346697D01*
X154513258Y-112566488D01*
X154513261Y-112566497D01*
X154609431Y-112772732D01*
X154609432Y-112772734D01*
X154739954Y-112959141D01*
X154900858Y-113120045D01*
X154900861Y-113120047D01*
X155087266Y-113250568D01*
X155145275Y-113277618D01*
X155197714Y-113323791D01*
X155216866Y-113390984D01*
X155196650Y-113457865D01*
X155145275Y-113502382D01*
X155087267Y-113529431D01*
X155087265Y-113529432D01*
X154900858Y-113659954D01*
X154739954Y-113820858D01*
X154609432Y-114007265D01*
X154609431Y-114007267D01*
X154513261Y-114213502D01*
X154513258Y-114213511D01*
X154454366Y-114433302D01*
X154454364Y-114433313D01*
X154434532Y-114659998D01*
X154434532Y-114660001D01*
X154454364Y-114886686D01*
X154454366Y-114886697D01*
X154513258Y-115106488D01*
X154513261Y-115106497D01*
X154609431Y-115312732D01*
X154609432Y-115312734D01*
X154739954Y-115499141D01*
X154900858Y-115660045D01*
X154900861Y-115660047D01*
X155087266Y-115790568D01*
X155145275Y-115817618D01*
X155197714Y-115863791D01*
X155216866Y-115930984D01*
X155196650Y-115997865D01*
X155145275Y-116042382D01*
X155087267Y-116069431D01*
X155087265Y-116069432D01*
X154900858Y-116199954D01*
X154739954Y-116360858D01*
X154609432Y-116547265D01*
X154609431Y-116547267D01*
X154513261Y-116753502D01*
X154513258Y-116753511D01*
X154454366Y-116973302D01*
X154454364Y-116973313D01*
X154434532Y-117199998D01*
X154434532Y-117200001D01*
X154454364Y-117426686D01*
X154454366Y-117426697D01*
X154513258Y-117646488D01*
X154513261Y-117646497D01*
X154609431Y-117852732D01*
X154609432Y-117852734D01*
X154739954Y-118039141D01*
X154900858Y-118200045D01*
X154900861Y-118200047D01*
X155087266Y-118330568D01*
X155293504Y-118426739D01*
X155513308Y-118485635D01*
X155675230Y-118499801D01*
X155739998Y-118505468D01*
X155740000Y-118505468D01*
X155740002Y-118505468D01*
X155796673Y-118500509D01*
X155966692Y-118485635D01*
X156186496Y-118426739D01*
X156392734Y-118330568D01*
X156579139Y-118200047D01*
X156740047Y-118039139D01*
X156870568Y-117852734D01*
X156966739Y-117646496D01*
X157025635Y-117426692D01*
X157045468Y-117200000D01*
X157025635Y-116973308D01*
X156966739Y-116753504D01*
X156870568Y-116547266D01*
X156740047Y-116360861D01*
X156740045Y-116360858D01*
X156579141Y-116199954D01*
X156392734Y-116069432D01*
X156392728Y-116069429D01*
X156334725Y-116042382D01*
X156282285Y-115996210D01*
X156263133Y-115929017D01*
X156283348Y-115862135D01*
X156334725Y-115817618D01*
X156392734Y-115790568D01*
X156579139Y-115660047D01*
X156740047Y-115499139D01*
X156870568Y-115312734D01*
X156966739Y-115106496D01*
X157025635Y-114886692D01*
X157045468Y-114660000D01*
X157025635Y-114433308D01*
X156966739Y-114213504D01*
X156870568Y-114007266D01*
X156740047Y-113820861D01*
X156740045Y-113820858D01*
X156579141Y-113659954D01*
X156392734Y-113529432D01*
X156392728Y-113529429D01*
X156334725Y-113502382D01*
X156282285Y-113456210D01*
X156263133Y-113389017D01*
X156283348Y-113322135D01*
X156334725Y-113277618D01*
X156392734Y-113250568D01*
X156579139Y-113120047D01*
X156740047Y-112959139D01*
X156870568Y-112772734D01*
X156966739Y-112566496D01*
X157025635Y-112346692D01*
X157045468Y-112120000D01*
X157025635Y-111893308D01*
X156966739Y-111673504D01*
X156870568Y-111467266D01*
X156740047Y-111280861D01*
X156740045Y-111280858D01*
X156579141Y-111119954D01*
X156392734Y-110989432D01*
X156392728Y-110989429D01*
X156334725Y-110962382D01*
X156282285Y-110916210D01*
X156263133Y-110849017D01*
X156283348Y-110782135D01*
X156334725Y-110737618D01*
X156392734Y-110710568D01*
X156579139Y-110580047D01*
X156740047Y-110419139D01*
X156870568Y-110232734D01*
X156966739Y-110026496D01*
X157025635Y-109806692D01*
X157045468Y-109580000D01*
X157025635Y-109353308D01*
X156966739Y-109133504D01*
X156870568Y-108927266D01*
X156740047Y-108740861D01*
X156740045Y-108740858D01*
X156579141Y-108579954D01*
X156392734Y-108449432D01*
X156392728Y-108449429D01*
X156334725Y-108422382D01*
X156282285Y-108376210D01*
X156263133Y-108309017D01*
X156283348Y-108242135D01*
X156334725Y-108197618D01*
X156392734Y-108170568D01*
X156579139Y-108040047D01*
X156740047Y-107879139D01*
X156870568Y-107692734D01*
X156966739Y-107486496D01*
X157025635Y-107266692D01*
X157045468Y-107040000D01*
X157025635Y-106813308D01*
X156966739Y-106593504D01*
X156870568Y-106387266D01*
X156744479Y-106207190D01*
X156740045Y-106200858D01*
X156579141Y-106039954D01*
X156392734Y-105909432D01*
X156392728Y-105909429D01*
X156334725Y-105882382D01*
X156282285Y-105836210D01*
X156263133Y-105769017D01*
X156283348Y-105702135D01*
X156334725Y-105657618D01*
X156392734Y-105630568D01*
X156579139Y-105500047D01*
X156740047Y-105339139D01*
X156870568Y-105152734D01*
X156966739Y-104946496D01*
X157025635Y-104726692D01*
X157045468Y-104500000D01*
X157025635Y-104273308D01*
X156966739Y-104053504D01*
X156870568Y-103847266D01*
X156740047Y-103660861D01*
X156740045Y-103660858D01*
X156579141Y-103499954D01*
X156392734Y-103369432D01*
X156392728Y-103369429D01*
X156334725Y-103342382D01*
X156282285Y-103296210D01*
X156263133Y-103229017D01*
X156283348Y-103162135D01*
X156334725Y-103117618D01*
X156392734Y-103090568D01*
X156579139Y-102960047D01*
X156740047Y-102799139D01*
X156870568Y-102612734D01*
X156966739Y-102406496D01*
X157025635Y-102186692D01*
X157045468Y-101960000D01*
X157025635Y-101733308D01*
X156966739Y-101513504D01*
X156870568Y-101307266D01*
X156740047Y-101120861D01*
X156740045Y-101120858D01*
X156579141Y-100959954D01*
X156392734Y-100829432D01*
X156392728Y-100829429D01*
X156334725Y-100802382D01*
X156282285Y-100756210D01*
X156263133Y-100689017D01*
X156283348Y-100622135D01*
X156334725Y-100577618D01*
X156392734Y-100550568D01*
X156579139Y-100420047D01*
X156740047Y-100259139D01*
X156870568Y-100072734D01*
X156966739Y-99866496D01*
X157025635Y-99646692D01*
X157045468Y-99420000D01*
X157025635Y-99193308D01*
X156966739Y-98973504D01*
X156870568Y-98767266D01*
X156740047Y-98580861D01*
X156740045Y-98580858D01*
X156579141Y-98419954D01*
X156392734Y-98289432D01*
X156392728Y-98289429D01*
X156334725Y-98262382D01*
X156282285Y-98216210D01*
X156263133Y-98149017D01*
X156283348Y-98082135D01*
X156334725Y-98037618D01*
X156392734Y-98010568D01*
X156579139Y-97880047D01*
X156740047Y-97719139D01*
X156870568Y-97532734D01*
X156966739Y-97326496D01*
X157025635Y-97106692D01*
X157045468Y-96880000D01*
X157025635Y-96653308D01*
X156966739Y-96433504D01*
X156870568Y-96227266D01*
X156740047Y-96040861D01*
X156740045Y-96040858D01*
X156579141Y-95879954D01*
X156392734Y-95749432D01*
X156392728Y-95749429D01*
X156334725Y-95722382D01*
X156282285Y-95676210D01*
X156263133Y-95609017D01*
X156283348Y-95542135D01*
X156334725Y-95497618D01*
X156392734Y-95470568D01*
X156579139Y-95340047D01*
X156740047Y-95179139D01*
X156870568Y-94992734D01*
X156966739Y-94786496D01*
X157025635Y-94566692D01*
X157045468Y-94340000D01*
X157025635Y-94113308D01*
X156966739Y-93893504D01*
X156870568Y-93687266D01*
X156740047Y-93500861D01*
X156740045Y-93500858D01*
X156579141Y-93339954D01*
X156392734Y-93209432D01*
X156392728Y-93209429D01*
X156334725Y-93182382D01*
X156282285Y-93136210D01*
X156263133Y-93069017D01*
X156283348Y-93002135D01*
X156334725Y-92957618D01*
X156392734Y-92930568D01*
X156579139Y-92800047D01*
X156740047Y-92639139D01*
X156870568Y-92452734D01*
X156966739Y-92246496D01*
X157025635Y-92026692D01*
X157045468Y-91800000D01*
X157025635Y-91573308D01*
X156966739Y-91353504D01*
X156870568Y-91147266D01*
X156740047Y-90960861D01*
X156740045Y-90960858D01*
X156579141Y-90799954D01*
X156392734Y-90669432D01*
X156392728Y-90669429D01*
X156334725Y-90642382D01*
X156282285Y-90596210D01*
X156263133Y-90529017D01*
X156283348Y-90462135D01*
X156334725Y-90417618D01*
X156335319Y-90417341D01*
X156392734Y-90390568D01*
X156579139Y-90260047D01*
X156740047Y-90099139D01*
X156870568Y-89912734D01*
X156966739Y-89706496D01*
X157025635Y-89486692D01*
X157045468Y-89260000D01*
X157041353Y-89212971D01*
X157038473Y-89180048D01*
X157025635Y-89033308D01*
X156966739Y-88813504D01*
X156870568Y-88607266D01*
X156740047Y-88420861D01*
X156740045Y-88420858D01*
X156579141Y-88259954D01*
X156392734Y-88129432D01*
X156392728Y-88129429D01*
X156334725Y-88102382D01*
X156282285Y-88056210D01*
X156263133Y-87989017D01*
X156283348Y-87922135D01*
X156334725Y-87877618D01*
X156392734Y-87850568D01*
X156579139Y-87720047D01*
X156740047Y-87559139D01*
X156870568Y-87372734D01*
X156966739Y-87166496D01*
X157025635Y-86946692D01*
X157045468Y-86720000D01*
X157044300Y-86706655D01*
X157033454Y-86582684D01*
X157025635Y-86493308D01*
X156966739Y-86273504D01*
X156870568Y-86067266D01*
X156740047Y-85880861D01*
X156740045Y-85880858D01*
X156579141Y-85719954D01*
X156392734Y-85589432D01*
X156392732Y-85589431D01*
X156334725Y-85562382D01*
X156334132Y-85562105D01*
X156281694Y-85515934D01*
X156262542Y-85448740D01*
X156282758Y-85381859D01*
X156334134Y-85337341D01*
X156392484Y-85310132D01*
X156578820Y-85179657D01*
X156739657Y-85018820D01*
X156870134Y-84832482D01*
X156966265Y-84626326D01*
X156966269Y-84626317D01*
X157018872Y-84430000D01*
X156173012Y-84430000D01*
X156205925Y-84372993D01*
X156240000Y-84245826D01*
X156240000Y-84114174D01*
X156205925Y-83987007D01*
X156173012Y-83930000D01*
X157018872Y-83930000D01*
X157018872Y-83929999D01*
X156966269Y-83733682D01*
X156966265Y-83733673D01*
X156870134Y-83527517D01*
X156739657Y-83341179D01*
X156578820Y-83180342D01*
X156392482Y-83049865D01*
X156334133Y-83022657D01*
X156281694Y-82976484D01*
X156262542Y-82909291D01*
X156282758Y-82842410D01*
X156334129Y-82797895D01*
X156392734Y-82770568D01*
X156579139Y-82640047D01*
X156740047Y-82479139D01*
X156870568Y-82292734D01*
X156966739Y-82086496D01*
X157025635Y-81866692D01*
X157045468Y-81640000D01*
X157025635Y-81413308D01*
X156966817Y-81193796D01*
X156966741Y-81193511D01*
X156966738Y-81193502D01*
X156926655Y-81107544D01*
X156870568Y-80987266D01*
X156740047Y-80800861D01*
X156740045Y-80800858D01*
X156579141Y-80639954D01*
X156392734Y-80509432D01*
X156392732Y-80509431D01*
X156186497Y-80413261D01*
X156186488Y-80413258D01*
X155966697Y-80354366D01*
X155966693Y-80354365D01*
X155966692Y-80354365D01*
X155966691Y-80354364D01*
X155966686Y-80354364D01*
X155740002Y-80334532D01*
X155739998Y-80334532D01*
X155513313Y-80354364D01*
X155513302Y-80354366D01*
X155293511Y-80413258D01*
X155293502Y-80413261D01*
X155087267Y-80509431D01*
X155087265Y-80509432D01*
X154900858Y-80639954D01*
X154739954Y-80800858D01*
X154609432Y-80987265D01*
X154609431Y-80987267D01*
X154513261Y-81193502D01*
X154513258Y-81193511D01*
X154454366Y-81413302D01*
X154454364Y-81413313D01*
X154434532Y-81639998D01*
X154434532Y-81640001D01*
X154454364Y-81866686D01*
X154454366Y-81866697D01*
X154513258Y-82086488D01*
X154513261Y-82086497D01*
X154609431Y-82292732D01*
X154609432Y-82292734D01*
X154739954Y-82479141D01*
X154900858Y-82640045D01*
X154900861Y-82640047D01*
X155087266Y-82770568D01*
X155145865Y-82797893D01*
X155198305Y-82844065D01*
X155217457Y-82911258D01*
X155197242Y-82978139D01*
X155145867Y-83022657D01*
X155087515Y-83049867D01*
X154901179Y-83180342D01*
X154740342Y-83341179D01*
X154609865Y-83527517D01*
X154513734Y-83733673D01*
X154513730Y-83733682D01*
X154461127Y-83929999D01*
X154461128Y-83930000D01*
X155306988Y-83930000D01*
X155274075Y-83987007D01*
X155240000Y-84114174D01*
X155240000Y-84245826D01*
X155274075Y-84372993D01*
X155306988Y-84430000D01*
X154461128Y-84430000D01*
X154513730Y-84626317D01*
X154513734Y-84626326D01*
X154609865Y-84832482D01*
X154740342Y-85018820D01*
X154901179Y-85179657D01*
X155087518Y-85310134D01*
X155087520Y-85310135D01*
X155145865Y-85337342D01*
X155198305Y-85383514D01*
X155217457Y-85450707D01*
X155197242Y-85517589D01*
X155145867Y-85562105D01*
X155087268Y-85589431D01*
X155087264Y-85589433D01*
X154900858Y-85719954D01*
X154739954Y-85880858D01*
X154609432Y-86067265D01*
X154609431Y-86067267D01*
X154513261Y-86273502D01*
X154513258Y-86273511D01*
X154454366Y-86493302D01*
X154454364Y-86493312D01*
X154438088Y-86679349D01*
X154412635Y-86744417D01*
X154356044Y-86785396D01*
X154286282Y-86789274D01*
X154226879Y-86756222D01*
X143426546Y-75955888D01*
X143426545Y-75955887D01*
X143311807Y-75879222D01*
X143184332Y-75826421D01*
X143184322Y-75826418D01*
X143048996Y-75799500D01*
X143048994Y-75799500D01*
X143048993Y-75799500D01*
X134931007Y-75799500D01*
X134931003Y-75799500D01*
X134822590Y-75821065D01*
X134822589Y-75821065D01*
X134795681Y-75826418D01*
X134795671Y-75826420D01*
X134668190Y-75879224D01*
X134553454Y-75955887D01*
X133855890Y-76653451D01*
X133855884Y-76653458D01*
X133821895Y-76704328D01*
X133821895Y-76704329D01*
X133800560Y-76736259D01*
X133779225Y-76768188D01*
X133779221Y-76768195D01*
X133726421Y-76895667D01*
X133726418Y-76895677D01*
X133699500Y-77031004D01*
X133699500Y-77375500D01*
X133679815Y-77442539D01*
X133627011Y-77488294D01*
X133575505Y-77499500D01*
X133552132Y-77499500D01*
X133552123Y-77499501D01*
X133492516Y-77505908D01*
X133357671Y-77556202D01*
X133357664Y-77556206D01*
X133242455Y-77642452D01*
X133242452Y-77642455D01*
X133156206Y-77757664D01*
X133156202Y-77757671D01*
X133105908Y-77892517D01*
X133099501Y-77952116D01*
X133099500Y-77952135D01*
X130513442Y-77952135D01*
X130573429Y-77823492D01*
X130573432Y-77823486D01*
X130630636Y-77610000D01*
X129733012Y-77610000D01*
X129765925Y-77552993D01*
X129800000Y-77425826D01*
X129800000Y-77294174D01*
X129765925Y-77167007D01*
X129733012Y-77110000D01*
X130630636Y-77110000D01*
X130630635Y-77109999D01*
X130573432Y-76896513D01*
X130573429Y-76896507D01*
X130473600Y-76682422D01*
X130473599Y-76682420D01*
X130338113Y-76488926D01*
X130338108Y-76488920D01*
X130171082Y-76321894D01*
X129977578Y-76186399D01*
X129763492Y-76086570D01*
X129763486Y-76086567D01*
X129550000Y-76029364D01*
X129550000Y-76926988D01*
X129492993Y-76894075D01*
X129365826Y-76860000D01*
X129234174Y-76860000D01*
X129107007Y-76894075D01*
X129050000Y-76926988D01*
X129050000Y-76029364D01*
X129049999Y-76029364D01*
X128836513Y-76086567D01*
X128836507Y-76086570D01*
X128622422Y-76186399D01*
X128622420Y-76186400D01*
X128428926Y-76321886D01*
X128428920Y-76321891D01*
X128261891Y-76488920D01*
X128261886Y-76488926D01*
X128126400Y-76682420D01*
X128126399Y-76682422D01*
X128026570Y-76896507D01*
X128026567Y-76896513D01*
X127969364Y-77109999D01*
X127969364Y-77110000D01*
X128866988Y-77110000D01*
X128834075Y-77167007D01*
X128800000Y-77294174D01*
X128800000Y-77425826D01*
X128834075Y-77552993D01*
X128866988Y-77610000D01*
X127969364Y-77610000D01*
X128026567Y-77823486D01*
X128026570Y-77823492D01*
X128126399Y-78037578D01*
X128261894Y-78231082D01*
X128383946Y-78353134D01*
X128417431Y-78414457D01*
X128412447Y-78484149D01*
X128370575Y-78540082D01*
X128339598Y-78556997D01*
X128207671Y-78606202D01*
X128207664Y-78606206D01*
X128092455Y-78692452D01*
X128092452Y-78692455D01*
X128006206Y-78807664D01*
X128006202Y-78807671D01*
X127955908Y-78942517D01*
X127949501Y-79002116D01*
X127949501Y-79002123D01*
X127949500Y-79002135D01*
X126500500Y-79002135D01*
X126500500Y-75624500D01*
X126520185Y-75557461D01*
X126572989Y-75511706D01*
X126624500Y-75500500D01*
X158375500Y-75500500D01*
X158442539Y-75520185D01*
G37*
G04 #@! TD.AperFunction*
M02*
