G04 #@! TF.GenerationSoftware,KiCad,Pcbnew,8.0.4*
G04 #@! TF.CreationDate,2024-11-12T14:35:11-08:00*
G04 #@! TF.ProjectId,Engine Control Unit,456e6769-6e65-4204-936f-6e74726f6c20,rev?*
G04 #@! TF.SameCoordinates,Original*
G04 #@! TF.FileFunction,Soldermask,Bot*
G04 #@! TF.FilePolarity,Negative*
%FSLAX46Y46*%
G04 Gerber Fmt 4.6, Leading zero omitted, Abs format (unit mm)*
G04 Created by KiCad (PCBNEW 8.0.4) date 2024-11-12 14:35:11*
%MOMM*%
%LPD*%
G01*
G04 APERTURE LIST*
G04 APERTURE END LIST*
G36*
X129541811Y-124704711D02*
G01*
X129583588Y-124704711D01*
X129630718Y-124714728D01*
X129678017Y-124720058D01*
X129712408Y-124732092D01*
X129747110Y-124739468D01*
X129797117Y-124761733D01*
X129847107Y-124779225D01*
X129873128Y-124795575D01*
X129899835Y-124807466D01*
X129949633Y-124843646D01*
X129998792Y-124874535D01*
X130016444Y-124892187D01*
X130035084Y-124905730D01*
X130081165Y-124956908D01*
X130125465Y-125001208D01*
X130135654Y-125017424D01*
X130146946Y-125029965D01*
X130185573Y-125096870D01*
X130220775Y-125152893D01*
X130225170Y-125165453D01*
X130230535Y-125174746D01*
X130258010Y-125259305D01*
X130279942Y-125321983D01*
X130280773Y-125329363D01*
X130282195Y-125333738D01*
X130295076Y-125456306D01*
X130300000Y-125500000D01*
X130295076Y-125543697D01*
X130282195Y-125666261D01*
X130280773Y-125670635D01*
X130279942Y-125678017D01*
X130258005Y-125740707D01*
X130230535Y-125825253D01*
X130225171Y-125834543D01*
X130220775Y-125847107D01*
X130185566Y-125903140D01*
X130146946Y-125970034D01*
X130135656Y-125982572D01*
X130125465Y-125998792D01*
X130081155Y-126043101D01*
X130035084Y-126094269D01*
X130016448Y-126107808D01*
X129998792Y-126125465D01*
X129949623Y-126156359D01*
X129899835Y-126192533D01*
X129873134Y-126204421D01*
X129847107Y-126220775D01*
X129797107Y-126238270D01*
X129747110Y-126260531D01*
X129712414Y-126267905D01*
X129678017Y-126279942D01*
X129630715Y-126285271D01*
X129583588Y-126295289D01*
X129541811Y-126295289D01*
X129500000Y-126300000D01*
X129458189Y-126295289D01*
X129416412Y-126295289D01*
X129369284Y-126285271D01*
X129321983Y-126279942D01*
X129287586Y-126267906D01*
X129252889Y-126260531D01*
X129202887Y-126238268D01*
X129152893Y-126220775D01*
X129126868Y-126204422D01*
X129100164Y-126192533D01*
X129050369Y-126156355D01*
X129001208Y-126125465D01*
X128983554Y-126107811D01*
X128964915Y-126094269D01*
X128918833Y-126043090D01*
X128874535Y-125998792D01*
X128864345Y-125982575D01*
X128853053Y-125970034D01*
X128814420Y-125903120D01*
X128779225Y-125847107D01*
X128774830Y-125834547D01*
X128769464Y-125825253D01*
X128741980Y-125740667D01*
X128720058Y-125678017D01*
X128719226Y-125670639D01*
X128717804Y-125666261D01*
X128704908Y-125543565D01*
X128700000Y-125500000D01*
X128704908Y-125456438D01*
X128717804Y-125333738D01*
X128719226Y-125329358D01*
X128720058Y-125321983D01*
X128741975Y-125259345D01*
X128769464Y-125174746D01*
X128774831Y-125165449D01*
X128779225Y-125152893D01*
X128814413Y-125096890D01*
X128853053Y-125029965D01*
X128864347Y-125017421D01*
X128874535Y-125001208D01*
X128918826Y-124956916D01*
X128964917Y-124905728D01*
X128983559Y-124892183D01*
X129001208Y-124874535D01*
X129050354Y-124843654D01*
X129100162Y-124807467D01*
X129126873Y-124795574D01*
X129152893Y-124779225D01*
X129202877Y-124761734D01*
X129252889Y-124739468D01*
X129287592Y-124732091D01*
X129321983Y-124720058D01*
X129369281Y-124714728D01*
X129416412Y-124704711D01*
X129458189Y-124704711D01*
X129500000Y-124700000D01*
X129541811Y-124704711D01*
G37*
G36*
X135541811Y-124704711D02*
G01*
X135583588Y-124704711D01*
X135630718Y-124714728D01*
X135678017Y-124720058D01*
X135712408Y-124732092D01*
X135747110Y-124739468D01*
X135797117Y-124761733D01*
X135847107Y-124779225D01*
X135873128Y-124795575D01*
X135899835Y-124807466D01*
X135949633Y-124843646D01*
X135998792Y-124874535D01*
X136016444Y-124892187D01*
X136035084Y-124905730D01*
X136081165Y-124956908D01*
X136125465Y-125001208D01*
X136135654Y-125017424D01*
X136146946Y-125029965D01*
X136185573Y-125096870D01*
X136220775Y-125152893D01*
X136225170Y-125165453D01*
X136230535Y-125174746D01*
X136258010Y-125259305D01*
X136279942Y-125321983D01*
X136280773Y-125329363D01*
X136282195Y-125333738D01*
X136295076Y-125456306D01*
X136300000Y-125500000D01*
X136295076Y-125543697D01*
X136282195Y-125666261D01*
X136280773Y-125670635D01*
X136279942Y-125678017D01*
X136258005Y-125740707D01*
X136230535Y-125825253D01*
X136225171Y-125834543D01*
X136220775Y-125847107D01*
X136185566Y-125903140D01*
X136146946Y-125970034D01*
X136135656Y-125982572D01*
X136125465Y-125998792D01*
X136081155Y-126043101D01*
X136035084Y-126094269D01*
X136016448Y-126107808D01*
X135998792Y-126125465D01*
X135949623Y-126156359D01*
X135899835Y-126192533D01*
X135873134Y-126204421D01*
X135847107Y-126220775D01*
X135797107Y-126238270D01*
X135747110Y-126260531D01*
X135712414Y-126267905D01*
X135678017Y-126279942D01*
X135630715Y-126285271D01*
X135583588Y-126295289D01*
X135541811Y-126295289D01*
X135500000Y-126300000D01*
X135458189Y-126295289D01*
X135416412Y-126295289D01*
X135369284Y-126285271D01*
X135321983Y-126279942D01*
X135287586Y-126267906D01*
X135252889Y-126260531D01*
X135202887Y-126238268D01*
X135152893Y-126220775D01*
X135126868Y-126204422D01*
X135100164Y-126192533D01*
X135050369Y-126156355D01*
X135001208Y-126125465D01*
X134983554Y-126107811D01*
X134964915Y-126094269D01*
X134918833Y-126043090D01*
X134874535Y-125998792D01*
X134864345Y-125982575D01*
X134853053Y-125970034D01*
X134814420Y-125903120D01*
X134779225Y-125847107D01*
X134774830Y-125834547D01*
X134769464Y-125825253D01*
X134741980Y-125740667D01*
X134720058Y-125678017D01*
X134719226Y-125670639D01*
X134717804Y-125666261D01*
X134704908Y-125543565D01*
X134700000Y-125500000D01*
X134704908Y-125456438D01*
X134717804Y-125333738D01*
X134719226Y-125329358D01*
X134720058Y-125321983D01*
X134741975Y-125259345D01*
X134769464Y-125174746D01*
X134774831Y-125165449D01*
X134779225Y-125152893D01*
X134814413Y-125096890D01*
X134853053Y-125029965D01*
X134864347Y-125017421D01*
X134874535Y-125001208D01*
X134918826Y-124956916D01*
X134964917Y-124905728D01*
X134983559Y-124892183D01*
X135001208Y-124874535D01*
X135050354Y-124843654D01*
X135100162Y-124807467D01*
X135126873Y-124795574D01*
X135152893Y-124779225D01*
X135202877Y-124761734D01*
X135252889Y-124739468D01*
X135287592Y-124732091D01*
X135321983Y-124720058D01*
X135369281Y-124714728D01*
X135416412Y-124704711D01*
X135458189Y-124704711D01*
X135500000Y-124700000D01*
X135541811Y-124704711D01*
G37*
G36*
X129541811Y-119704711D02*
G01*
X129583588Y-119704711D01*
X129630718Y-119714728D01*
X129678017Y-119720058D01*
X129712408Y-119732092D01*
X129747110Y-119739468D01*
X129797117Y-119761733D01*
X129847107Y-119779225D01*
X129873128Y-119795575D01*
X129899835Y-119807466D01*
X129949633Y-119843646D01*
X129998792Y-119874535D01*
X130016444Y-119892187D01*
X130035084Y-119905730D01*
X130081165Y-119956908D01*
X130125465Y-120001208D01*
X130135654Y-120017424D01*
X130146946Y-120029965D01*
X130185573Y-120096870D01*
X130220775Y-120152893D01*
X130225170Y-120165453D01*
X130230535Y-120174746D01*
X130258010Y-120259305D01*
X130279942Y-120321983D01*
X130280773Y-120329363D01*
X130282195Y-120333738D01*
X130295076Y-120456306D01*
X130300000Y-120500000D01*
X130295076Y-120543697D01*
X130282195Y-120666261D01*
X130280773Y-120670635D01*
X130279942Y-120678017D01*
X130258005Y-120740707D01*
X130230535Y-120825253D01*
X130225171Y-120834543D01*
X130220775Y-120847107D01*
X130185566Y-120903140D01*
X130146946Y-120970034D01*
X130135656Y-120982572D01*
X130125465Y-120998792D01*
X130081155Y-121043101D01*
X130035084Y-121094269D01*
X130016448Y-121107808D01*
X129998792Y-121125465D01*
X129949623Y-121156359D01*
X129899835Y-121192533D01*
X129873134Y-121204421D01*
X129847107Y-121220775D01*
X129797107Y-121238270D01*
X129747110Y-121260531D01*
X129712414Y-121267905D01*
X129678017Y-121279942D01*
X129630715Y-121285271D01*
X129583588Y-121295289D01*
X129541811Y-121295289D01*
X129500000Y-121300000D01*
X129458189Y-121295289D01*
X129416412Y-121295289D01*
X129369284Y-121285271D01*
X129321983Y-121279942D01*
X129287586Y-121267906D01*
X129252889Y-121260531D01*
X129202887Y-121238268D01*
X129152893Y-121220775D01*
X129126868Y-121204422D01*
X129100164Y-121192533D01*
X129050369Y-121156355D01*
X129001208Y-121125465D01*
X128983554Y-121107811D01*
X128964915Y-121094269D01*
X128918833Y-121043090D01*
X128874535Y-120998792D01*
X128864345Y-120982575D01*
X128853053Y-120970034D01*
X128814420Y-120903120D01*
X128779225Y-120847107D01*
X128774830Y-120834547D01*
X128769464Y-120825253D01*
X128741980Y-120740667D01*
X128720058Y-120678017D01*
X128719226Y-120670639D01*
X128717804Y-120666261D01*
X128704908Y-120543565D01*
X128700000Y-120500000D01*
X128704908Y-120456438D01*
X128717804Y-120333738D01*
X128719226Y-120329358D01*
X128720058Y-120321983D01*
X128741975Y-120259345D01*
X128769464Y-120174746D01*
X128774831Y-120165449D01*
X128779225Y-120152893D01*
X128814413Y-120096890D01*
X128853053Y-120029965D01*
X128864347Y-120017421D01*
X128874535Y-120001208D01*
X128918826Y-119956916D01*
X128964917Y-119905728D01*
X128983559Y-119892183D01*
X129001208Y-119874535D01*
X129050354Y-119843654D01*
X129100162Y-119807467D01*
X129126873Y-119795574D01*
X129152893Y-119779225D01*
X129202877Y-119761734D01*
X129252889Y-119739468D01*
X129287592Y-119732091D01*
X129321983Y-119720058D01*
X129369281Y-119714728D01*
X129416412Y-119704711D01*
X129458189Y-119704711D01*
X129500000Y-119700000D01*
X129541811Y-119704711D01*
G37*
G36*
X135541811Y-119704711D02*
G01*
X135583588Y-119704711D01*
X135630718Y-119714728D01*
X135678017Y-119720058D01*
X135712408Y-119732092D01*
X135747110Y-119739468D01*
X135797117Y-119761733D01*
X135847107Y-119779225D01*
X135873128Y-119795575D01*
X135899835Y-119807466D01*
X135949633Y-119843646D01*
X135998792Y-119874535D01*
X136016444Y-119892187D01*
X136035084Y-119905730D01*
X136081165Y-119956908D01*
X136125465Y-120001208D01*
X136135654Y-120017424D01*
X136146946Y-120029965D01*
X136185573Y-120096870D01*
X136220775Y-120152893D01*
X136225170Y-120165453D01*
X136230535Y-120174746D01*
X136258010Y-120259305D01*
X136279942Y-120321983D01*
X136280773Y-120329363D01*
X136282195Y-120333738D01*
X136295076Y-120456306D01*
X136300000Y-120500000D01*
X136295076Y-120543697D01*
X136282195Y-120666261D01*
X136280773Y-120670635D01*
X136279942Y-120678017D01*
X136258005Y-120740707D01*
X136230535Y-120825253D01*
X136225171Y-120834543D01*
X136220775Y-120847107D01*
X136185566Y-120903140D01*
X136146946Y-120970034D01*
X136135656Y-120982572D01*
X136125465Y-120998792D01*
X136081155Y-121043101D01*
X136035084Y-121094269D01*
X136016448Y-121107808D01*
X135998792Y-121125465D01*
X135949623Y-121156359D01*
X135899835Y-121192533D01*
X135873134Y-121204421D01*
X135847107Y-121220775D01*
X135797107Y-121238270D01*
X135747110Y-121260531D01*
X135712414Y-121267905D01*
X135678017Y-121279942D01*
X135630715Y-121285271D01*
X135583588Y-121295289D01*
X135541811Y-121295289D01*
X135500000Y-121300000D01*
X135458189Y-121295289D01*
X135416412Y-121295289D01*
X135369284Y-121285271D01*
X135321983Y-121279942D01*
X135287586Y-121267906D01*
X135252889Y-121260531D01*
X135202887Y-121238268D01*
X135152893Y-121220775D01*
X135126868Y-121204422D01*
X135100164Y-121192533D01*
X135050369Y-121156355D01*
X135001208Y-121125465D01*
X134983554Y-121107811D01*
X134964915Y-121094269D01*
X134918833Y-121043090D01*
X134874535Y-120998792D01*
X134864345Y-120982575D01*
X134853053Y-120970034D01*
X134814420Y-120903120D01*
X134779225Y-120847107D01*
X134774830Y-120834547D01*
X134769464Y-120825253D01*
X134741980Y-120740667D01*
X134720058Y-120678017D01*
X134719226Y-120670639D01*
X134717804Y-120666261D01*
X134704908Y-120543565D01*
X134700000Y-120500000D01*
X134704908Y-120456438D01*
X134717804Y-120333738D01*
X134719226Y-120329358D01*
X134720058Y-120321983D01*
X134741975Y-120259345D01*
X134769464Y-120174746D01*
X134774831Y-120165449D01*
X134779225Y-120152893D01*
X134814413Y-120096890D01*
X134853053Y-120029965D01*
X134864347Y-120017421D01*
X134874535Y-120001208D01*
X134918826Y-119956916D01*
X134964917Y-119905728D01*
X134983559Y-119892183D01*
X135001208Y-119874535D01*
X135050354Y-119843654D01*
X135100162Y-119807467D01*
X135126873Y-119795574D01*
X135152893Y-119779225D01*
X135202877Y-119761734D01*
X135252889Y-119739468D01*
X135287592Y-119732091D01*
X135321983Y-119720058D01*
X135369281Y-119714728D01*
X135416412Y-119704711D01*
X135458189Y-119704711D01*
X135500000Y-119700000D01*
X135541811Y-119704711D01*
G37*
G36*
X140541811Y-116404711D02*
G01*
X140583588Y-116404711D01*
X140630718Y-116414728D01*
X140678017Y-116420058D01*
X140712408Y-116432092D01*
X140747110Y-116439468D01*
X140797117Y-116461733D01*
X140847107Y-116479225D01*
X140873128Y-116495575D01*
X140899835Y-116507466D01*
X140949633Y-116543646D01*
X140998792Y-116574535D01*
X141016444Y-116592187D01*
X141035084Y-116605730D01*
X141081165Y-116656908D01*
X141125465Y-116701208D01*
X141135654Y-116717424D01*
X141146946Y-116729965D01*
X141185573Y-116796870D01*
X141220775Y-116852893D01*
X141225170Y-116865453D01*
X141230535Y-116874746D01*
X141258010Y-116959305D01*
X141279942Y-117021983D01*
X141280773Y-117029363D01*
X141282195Y-117033738D01*
X141295076Y-117156306D01*
X141300000Y-117200000D01*
X141295076Y-117243697D01*
X141282195Y-117366261D01*
X141280773Y-117370635D01*
X141279942Y-117378017D01*
X141258005Y-117440707D01*
X141230535Y-117525253D01*
X141225171Y-117534543D01*
X141220775Y-117547107D01*
X141185566Y-117603140D01*
X141146946Y-117670034D01*
X141135656Y-117682572D01*
X141125465Y-117698792D01*
X141081155Y-117743101D01*
X141035084Y-117794269D01*
X141016448Y-117807808D01*
X140998792Y-117825465D01*
X140949623Y-117856359D01*
X140899835Y-117892533D01*
X140873134Y-117904421D01*
X140847107Y-117920775D01*
X140797107Y-117938270D01*
X140747110Y-117960531D01*
X140712414Y-117967905D01*
X140678017Y-117979942D01*
X140630715Y-117985271D01*
X140583588Y-117995289D01*
X140541811Y-117995289D01*
X140500000Y-118000000D01*
X140458189Y-117995289D01*
X140416412Y-117995289D01*
X140369284Y-117985271D01*
X140321983Y-117979942D01*
X140287586Y-117967906D01*
X140252889Y-117960531D01*
X140202887Y-117938268D01*
X140152893Y-117920775D01*
X140126868Y-117904422D01*
X140100164Y-117892533D01*
X140050369Y-117856355D01*
X140001208Y-117825465D01*
X139983554Y-117807811D01*
X139964915Y-117794269D01*
X139918833Y-117743090D01*
X139874535Y-117698792D01*
X139864345Y-117682575D01*
X139853053Y-117670034D01*
X139814420Y-117603120D01*
X139779225Y-117547107D01*
X139774830Y-117534547D01*
X139769464Y-117525253D01*
X139741980Y-117440667D01*
X139720058Y-117378017D01*
X139719226Y-117370639D01*
X139717804Y-117366261D01*
X139704908Y-117243565D01*
X139700000Y-117200000D01*
X139704908Y-117156438D01*
X139717804Y-117033738D01*
X139719226Y-117029358D01*
X139720058Y-117021983D01*
X139741975Y-116959345D01*
X139769464Y-116874746D01*
X139774831Y-116865449D01*
X139779225Y-116852893D01*
X139814413Y-116796890D01*
X139853053Y-116729965D01*
X139864347Y-116717421D01*
X139874535Y-116701208D01*
X139918826Y-116656916D01*
X139964917Y-116605728D01*
X139983559Y-116592183D01*
X140001208Y-116574535D01*
X140050354Y-116543654D01*
X140100162Y-116507467D01*
X140126873Y-116495574D01*
X140152893Y-116479225D01*
X140202877Y-116461734D01*
X140252889Y-116439468D01*
X140287592Y-116432091D01*
X140321983Y-116420058D01*
X140369281Y-116414728D01*
X140416412Y-116404711D01*
X140458189Y-116404711D01*
X140500000Y-116400000D01*
X140541811Y-116404711D01*
G37*
G36*
X155781811Y-116404711D02*
G01*
X155823588Y-116404711D01*
X155870718Y-116414728D01*
X155918017Y-116420058D01*
X155952408Y-116432092D01*
X155987110Y-116439468D01*
X156037117Y-116461733D01*
X156087107Y-116479225D01*
X156113128Y-116495575D01*
X156139835Y-116507466D01*
X156189633Y-116543646D01*
X156238792Y-116574535D01*
X156256444Y-116592187D01*
X156275084Y-116605730D01*
X156321165Y-116656908D01*
X156365465Y-116701208D01*
X156375654Y-116717424D01*
X156386946Y-116729965D01*
X156425573Y-116796870D01*
X156460775Y-116852893D01*
X156465170Y-116865453D01*
X156470535Y-116874746D01*
X156498010Y-116959305D01*
X156519942Y-117021983D01*
X156520773Y-117029363D01*
X156522195Y-117033738D01*
X156535076Y-117156306D01*
X156540000Y-117200000D01*
X156535076Y-117243697D01*
X156522195Y-117366261D01*
X156520773Y-117370635D01*
X156519942Y-117378017D01*
X156498005Y-117440707D01*
X156470535Y-117525253D01*
X156465171Y-117534543D01*
X156460775Y-117547107D01*
X156425566Y-117603140D01*
X156386946Y-117670034D01*
X156375656Y-117682572D01*
X156365465Y-117698792D01*
X156321155Y-117743101D01*
X156275084Y-117794269D01*
X156256448Y-117807808D01*
X156238792Y-117825465D01*
X156189623Y-117856359D01*
X156139835Y-117892533D01*
X156113134Y-117904421D01*
X156087107Y-117920775D01*
X156037107Y-117938270D01*
X155987110Y-117960531D01*
X155952414Y-117967905D01*
X155918017Y-117979942D01*
X155870715Y-117985271D01*
X155823588Y-117995289D01*
X155781811Y-117995289D01*
X155740000Y-118000000D01*
X155698189Y-117995289D01*
X155656412Y-117995289D01*
X155609284Y-117985271D01*
X155561983Y-117979942D01*
X155527586Y-117967906D01*
X155492889Y-117960531D01*
X155442887Y-117938268D01*
X155392893Y-117920775D01*
X155366868Y-117904422D01*
X155340164Y-117892533D01*
X155290369Y-117856355D01*
X155241208Y-117825465D01*
X155223554Y-117807811D01*
X155204915Y-117794269D01*
X155158833Y-117743090D01*
X155114535Y-117698792D01*
X155104345Y-117682575D01*
X155093053Y-117670034D01*
X155054420Y-117603120D01*
X155019225Y-117547107D01*
X155014830Y-117534547D01*
X155009464Y-117525253D01*
X154981980Y-117440667D01*
X154960058Y-117378017D01*
X154959226Y-117370639D01*
X154957804Y-117366261D01*
X154944908Y-117243565D01*
X154940000Y-117200000D01*
X154944908Y-117156438D01*
X154957804Y-117033738D01*
X154959226Y-117029358D01*
X154960058Y-117021983D01*
X154981975Y-116959345D01*
X155009464Y-116874746D01*
X155014831Y-116865449D01*
X155019225Y-116852893D01*
X155054413Y-116796890D01*
X155093053Y-116729965D01*
X155104347Y-116717421D01*
X155114535Y-116701208D01*
X155158826Y-116656916D01*
X155204917Y-116605728D01*
X155223559Y-116592183D01*
X155241208Y-116574535D01*
X155290354Y-116543654D01*
X155340162Y-116507467D01*
X155366873Y-116495574D01*
X155392893Y-116479225D01*
X155442877Y-116461734D01*
X155492889Y-116439468D01*
X155527592Y-116432091D01*
X155561983Y-116420058D01*
X155609281Y-116414728D01*
X155656412Y-116404711D01*
X155698189Y-116404711D01*
X155740000Y-116400000D01*
X155781811Y-116404711D01*
G37*
G36*
X140541811Y-113864711D02*
G01*
X140583588Y-113864711D01*
X140630718Y-113874728D01*
X140678017Y-113880058D01*
X140712408Y-113892092D01*
X140747110Y-113899468D01*
X140797117Y-113921733D01*
X140847107Y-113939225D01*
X140873128Y-113955575D01*
X140899835Y-113967466D01*
X140949633Y-114003646D01*
X140998792Y-114034535D01*
X141016444Y-114052187D01*
X141035084Y-114065730D01*
X141081165Y-114116908D01*
X141125465Y-114161208D01*
X141135654Y-114177424D01*
X141146946Y-114189965D01*
X141185573Y-114256870D01*
X141220775Y-114312893D01*
X141225170Y-114325453D01*
X141230535Y-114334746D01*
X141258010Y-114419305D01*
X141279942Y-114481983D01*
X141280773Y-114489363D01*
X141282195Y-114493738D01*
X141295076Y-114616306D01*
X141300000Y-114660000D01*
X141295076Y-114703697D01*
X141282195Y-114826261D01*
X141280773Y-114830635D01*
X141279942Y-114838017D01*
X141258005Y-114900707D01*
X141230535Y-114985253D01*
X141225171Y-114994543D01*
X141220775Y-115007107D01*
X141185566Y-115063140D01*
X141146946Y-115130034D01*
X141135656Y-115142572D01*
X141125465Y-115158792D01*
X141081155Y-115203101D01*
X141035084Y-115254269D01*
X141016448Y-115267808D01*
X140998792Y-115285465D01*
X140949623Y-115316359D01*
X140899835Y-115352533D01*
X140873134Y-115364421D01*
X140847107Y-115380775D01*
X140797107Y-115398270D01*
X140747110Y-115420531D01*
X140712414Y-115427905D01*
X140678017Y-115439942D01*
X140630715Y-115445271D01*
X140583588Y-115455289D01*
X140541811Y-115455289D01*
X140500000Y-115460000D01*
X140458189Y-115455289D01*
X140416412Y-115455289D01*
X140369284Y-115445271D01*
X140321983Y-115439942D01*
X140287586Y-115427906D01*
X140252889Y-115420531D01*
X140202887Y-115398268D01*
X140152893Y-115380775D01*
X140126868Y-115364422D01*
X140100164Y-115352533D01*
X140050369Y-115316355D01*
X140001208Y-115285465D01*
X139983554Y-115267811D01*
X139964915Y-115254269D01*
X139918833Y-115203090D01*
X139874535Y-115158792D01*
X139864345Y-115142575D01*
X139853053Y-115130034D01*
X139814420Y-115063120D01*
X139779225Y-115007107D01*
X139774830Y-114994547D01*
X139769464Y-114985253D01*
X139741980Y-114900667D01*
X139720058Y-114838017D01*
X139719226Y-114830639D01*
X139717804Y-114826261D01*
X139704908Y-114703565D01*
X139700000Y-114660000D01*
X139704908Y-114616438D01*
X139717804Y-114493738D01*
X139719226Y-114489358D01*
X139720058Y-114481983D01*
X139741975Y-114419345D01*
X139769464Y-114334746D01*
X139774831Y-114325449D01*
X139779225Y-114312893D01*
X139814413Y-114256890D01*
X139853053Y-114189965D01*
X139864347Y-114177421D01*
X139874535Y-114161208D01*
X139918826Y-114116916D01*
X139964917Y-114065728D01*
X139983559Y-114052183D01*
X140001208Y-114034535D01*
X140050354Y-114003654D01*
X140100162Y-113967467D01*
X140126873Y-113955574D01*
X140152893Y-113939225D01*
X140202877Y-113921734D01*
X140252889Y-113899468D01*
X140287592Y-113892091D01*
X140321983Y-113880058D01*
X140369281Y-113874728D01*
X140416412Y-113864711D01*
X140458189Y-113864711D01*
X140500000Y-113860000D01*
X140541811Y-113864711D01*
G37*
G36*
X155781811Y-113864711D02*
G01*
X155823588Y-113864711D01*
X155870718Y-113874728D01*
X155918017Y-113880058D01*
X155952408Y-113892092D01*
X155987110Y-113899468D01*
X156037117Y-113921733D01*
X156087107Y-113939225D01*
X156113128Y-113955575D01*
X156139835Y-113967466D01*
X156189633Y-114003646D01*
X156238792Y-114034535D01*
X156256444Y-114052187D01*
X156275084Y-114065730D01*
X156321165Y-114116908D01*
X156365465Y-114161208D01*
X156375654Y-114177424D01*
X156386946Y-114189965D01*
X156425573Y-114256870D01*
X156460775Y-114312893D01*
X156465170Y-114325453D01*
X156470535Y-114334746D01*
X156498010Y-114419305D01*
X156519942Y-114481983D01*
X156520773Y-114489363D01*
X156522195Y-114493738D01*
X156535076Y-114616306D01*
X156540000Y-114660000D01*
X156535076Y-114703697D01*
X156522195Y-114826261D01*
X156520773Y-114830635D01*
X156519942Y-114838017D01*
X156498005Y-114900707D01*
X156470535Y-114985253D01*
X156465171Y-114994543D01*
X156460775Y-115007107D01*
X156425566Y-115063140D01*
X156386946Y-115130034D01*
X156375656Y-115142572D01*
X156365465Y-115158792D01*
X156321155Y-115203101D01*
X156275084Y-115254269D01*
X156256448Y-115267808D01*
X156238792Y-115285465D01*
X156189623Y-115316359D01*
X156139835Y-115352533D01*
X156113134Y-115364421D01*
X156087107Y-115380775D01*
X156037107Y-115398270D01*
X155987110Y-115420531D01*
X155952414Y-115427905D01*
X155918017Y-115439942D01*
X155870715Y-115445271D01*
X155823588Y-115455289D01*
X155781811Y-115455289D01*
X155740000Y-115460000D01*
X155698189Y-115455289D01*
X155656412Y-115455289D01*
X155609284Y-115445271D01*
X155561983Y-115439942D01*
X155527586Y-115427906D01*
X155492889Y-115420531D01*
X155442887Y-115398268D01*
X155392893Y-115380775D01*
X155366868Y-115364422D01*
X155340164Y-115352533D01*
X155290369Y-115316355D01*
X155241208Y-115285465D01*
X155223554Y-115267811D01*
X155204915Y-115254269D01*
X155158833Y-115203090D01*
X155114535Y-115158792D01*
X155104345Y-115142575D01*
X155093053Y-115130034D01*
X155054420Y-115063120D01*
X155019225Y-115007107D01*
X155014830Y-114994547D01*
X155009464Y-114985253D01*
X154981980Y-114900667D01*
X154960058Y-114838017D01*
X154959226Y-114830639D01*
X154957804Y-114826261D01*
X154944908Y-114703565D01*
X154940000Y-114660000D01*
X154944908Y-114616438D01*
X154957804Y-114493738D01*
X154959226Y-114489358D01*
X154960058Y-114481983D01*
X154981975Y-114419345D01*
X155009464Y-114334746D01*
X155014831Y-114325449D01*
X155019225Y-114312893D01*
X155054413Y-114256890D01*
X155093053Y-114189965D01*
X155104347Y-114177421D01*
X155114535Y-114161208D01*
X155158826Y-114116916D01*
X155204917Y-114065728D01*
X155223559Y-114052183D01*
X155241208Y-114034535D01*
X155290354Y-114003654D01*
X155340162Y-113967467D01*
X155366873Y-113955574D01*
X155392893Y-113939225D01*
X155442877Y-113921734D01*
X155492889Y-113899468D01*
X155527592Y-113892091D01*
X155561983Y-113880058D01*
X155609281Y-113874728D01*
X155656412Y-113864711D01*
X155698189Y-113864711D01*
X155740000Y-113860000D01*
X155781811Y-113864711D01*
G37*
G36*
X135850000Y-114350000D02*
G01*
X134150000Y-114350000D01*
X134150000Y-112650000D01*
X135850000Y-112650000D01*
X135850000Y-114350000D01*
G37*
G36*
X130182664Y-112691602D02*
G01*
X130345000Y-112763878D01*
X130488761Y-112868327D01*
X130607664Y-113000383D01*
X130696514Y-113154274D01*
X130751425Y-113323275D01*
X130770000Y-113500000D01*
X130751425Y-113676725D01*
X130696514Y-113845726D01*
X130607664Y-113999617D01*
X130488761Y-114131673D01*
X130345000Y-114236122D01*
X130182664Y-114308398D01*
X130008849Y-114345344D01*
X129831151Y-114345344D01*
X129657336Y-114308398D01*
X129495000Y-114236122D01*
X129351239Y-114131673D01*
X129232336Y-113999617D01*
X129143486Y-113845726D01*
X129088575Y-113676725D01*
X129070000Y-113500000D01*
X129088575Y-113323275D01*
X129143486Y-113154274D01*
X129232336Y-113000383D01*
X129351239Y-112868327D01*
X129495000Y-112763878D01*
X129657336Y-112691602D01*
X129831151Y-112654656D01*
X130008849Y-112654656D01*
X130182664Y-112691602D01*
G37*
G36*
X132722664Y-112691602D02*
G01*
X132885000Y-112763878D01*
X133028761Y-112868327D01*
X133147664Y-113000383D01*
X133236514Y-113154274D01*
X133291425Y-113323275D01*
X133310000Y-113500000D01*
X133291425Y-113676725D01*
X133236514Y-113845726D01*
X133147664Y-113999617D01*
X133028761Y-114131673D01*
X132885000Y-114236122D01*
X132722664Y-114308398D01*
X132548849Y-114345344D01*
X132371151Y-114345344D01*
X132197336Y-114308398D01*
X132035000Y-114236122D01*
X131891239Y-114131673D01*
X131772336Y-113999617D01*
X131683486Y-113845726D01*
X131628575Y-113676725D01*
X131610000Y-113500000D01*
X131628575Y-113323275D01*
X131683486Y-113154274D01*
X131772336Y-113000383D01*
X131891239Y-112868327D01*
X132035000Y-112763878D01*
X132197336Y-112691602D01*
X132371151Y-112654656D01*
X132548849Y-112654656D01*
X132722664Y-112691602D01*
G37*
G36*
X140541811Y-111324711D02*
G01*
X140583588Y-111324711D01*
X140630718Y-111334728D01*
X140678017Y-111340058D01*
X140712408Y-111352092D01*
X140747110Y-111359468D01*
X140797117Y-111381733D01*
X140847107Y-111399225D01*
X140873128Y-111415575D01*
X140899835Y-111427466D01*
X140949633Y-111463646D01*
X140998792Y-111494535D01*
X141016444Y-111512187D01*
X141035084Y-111525730D01*
X141081165Y-111576908D01*
X141125465Y-111621208D01*
X141135654Y-111637424D01*
X141146946Y-111649965D01*
X141185573Y-111716870D01*
X141220775Y-111772893D01*
X141225170Y-111785453D01*
X141230535Y-111794746D01*
X141258010Y-111879305D01*
X141279942Y-111941983D01*
X141280773Y-111949363D01*
X141282195Y-111953738D01*
X141295076Y-112076306D01*
X141300000Y-112120000D01*
X141295076Y-112163697D01*
X141282195Y-112286261D01*
X141280773Y-112290635D01*
X141279942Y-112298017D01*
X141258005Y-112360707D01*
X141230535Y-112445253D01*
X141225171Y-112454543D01*
X141220775Y-112467107D01*
X141185566Y-112523140D01*
X141146946Y-112590034D01*
X141135656Y-112602572D01*
X141125465Y-112618792D01*
X141081155Y-112663101D01*
X141035084Y-112714269D01*
X141016448Y-112727808D01*
X140998792Y-112745465D01*
X140949623Y-112776359D01*
X140899835Y-112812533D01*
X140873134Y-112824421D01*
X140847107Y-112840775D01*
X140797107Y-112858270D01*
X140747110Y-112880531D01*
X140712414Y-112887905D01*
X140678017Y-112899942D01*
X140630715Y-112905271D01*
X140583588Y-112915289D01*
X140541811Y-112915289D01*
X140500000Y-112920000D01*
X140458189Y-112915289D01*
X140416412Y-112915289D01*
X140369284Y-112905271D01*
X140321983Y-112899942D01*
X140287586Y-112887906D01*
X140252889Y-112880531D01*
X140202887Y-112858268D01*
X140152893Y-112840775D01*
X140126868Y-112824422D01*
X140100164Y-112812533D01*
X140050369Y-112776355D01*
X140001208Y-112745465D01*
X139983554Y-112727811D01*
X139964915Y-112714269D01*
X139918833Y-112663090D01*
X139874535Y-112618792D01*
X139864345Y-112602575D01*
X139853053Y-112590034D01*
X139814420Y-112523120D01*
X139779225Y-112467107D01*
X139774830Y-112454547D01*
X139769464Y-112445253D01*
X139741980Y-112360667D01*
X139720058Y-112298017D01*
X139719226Y-112290639D01*
X139717804Y-112286261D01*
X139704908Y-112163565D01*
X139700000Y-112120000D01*
X139704908Y-112076438D01*
X139717804Y-111953738D01*
X139719226Y-111949358D01*
X139720058Y-111941983D01*
X139741975Y-111879345D01*
X139769464Y-111794746D01*
X139774831Y-111785449D01*
X139779225Y-111772893D01*
X139814413Y-111716890D01*
X139853053Y-111649965D01*
X139864347Y-111637421D01*
X139874535Y-111621208D01*
X139918826Y-111576916D01*
X139964917Y-111525728D01*
X139983559Y-111512183D01*
X140001208Y-111494535D01*
X140050354Y-111463654D01*
X140100162Y-111427467D01*
X140126873Y-111415574D01*
X140152893Y-111399225D01*
X140202877Y-111381734D01*
X140252889Y-111359468D01*
X140287592Y-111352091D01*
X140321983Y-111340058D01*
X140369281Y-111334728D01*
X140416412Y-111324711D01*
X140458189Y-111324711D01*
X140500000Y-111320000D01*
X140541811Y-111324711D01*
G37*
G36*
X155781811Y-111324711D02*
G01*
X155823588Y-111324711D01*
X155870718Y-111334728D01*
X155918017Y-111340058D01*
X155952408Y-111352092D01*
X155987110Y-111359468D01*
X156037117Y-111381733D01*
X156087107Y-111399225D01*
X156113128Y-111415575D01*
X156139835Y-111427466D01*
X156189633Y-111463646D01*
X156238792Y-111494535D01*
X156256444Y-111512187D01*
X156275084Y-111525730D01*
X156321165Y-111576908D01*
X156365465Y-111621208D01*
X156375654Y-111637424D01*
X156386946Y-111649965D01*
X156425573Y-111716870D01*
X156460775Y-111772893D01*
X156465170Y-111785453D01*
X156470535Y-111794746D01*
X156498010Y-111879305D01*
X156519942Y-111941983D01*
X156520773Y-111949363D01*
X156522195Y-111953738D01*
X156535076Y-112076306D01*
X156540000Y-112120000D01*
X156535076Y-112163697D01*
X156522195Y-112286261D01*
X156520773Y-112290635D01*
X156519942Y-112298017D01*
X156498005Y-112360707D01*
X156470535Y-112445253D01*
X156465171Y-112454543D01*
X156460775Y-112467107D01*
X156425566Y-112523140D01*
X156386946Y-112590034D01*
X156375656Y-112602572D01*
X156365465Y-112618792D01*
X156321155Y-112663101D01*
X156275084Y-112714269D01*
X156256448Y-112727808D01*
X156238792Y-112745465D01*
X156189623Y-112776359D01*
X156139835Y-112812533D01*
X156113134Y-112824421D01*
X156087107Y-112840775D01*
X156037107Y-112858270D01*
X155987110Y-112880531D01*
X155952414Y-112887905D01*
X155918017Y-112899942D01*
X155870715Y-112905271D01*
X155823588Y-112915289D01*
X155781811Y-112915289D01*
X155740000Y-112920000D01*
X155698189Y-112915289D01*
X155656412Y-112915289D01*
X155609284Y-112905271D01*
X155561983Y-112899942D01*
X155527586Y-112887906D01*
X155492889Y-112880531D01*
X155442887Y-112858268D01*
X155392893Y-112840775D01*
X155366868Y-112824422D01*
X155340164Y-112812533D01*
X155290369Y-112776355D01*
X155241208Y-112745465D01*
X155223554Y-112727811D01*
X155204915Y-112714269D01*
X155158833Y-112663090D01*
X155114535Y-112618792D01*
X155104345Y-112602575D01*
X155093053Y-112590034D01*
X155054420Y-112523120D01*
X155019225Y-112467107D01*
X155014830Y-112454547D01*
X155009464Y-112445253D01*
X154981980Y-112360667D01*
X154960058Y-112298017D01*
X154959226Y-112290639D01*
X154957804Y-112286261D01*
X154944908Y-112163565D01*
X154940000Y-112120000D01*
X154944908Y-112076438D01*
X154957804Y-111953738D01*
X154959226Y-111949358D01*
X154960058Y-111941983D01*
X154981975Y-111879345D01*
X155009464Y-111794746D01*
X155014831Y-111785449D01*
X155019225Y-111772893D01*
X155054413Y-111716890D01*
X155093053Y-111649965D01*
X155104347Y-111637421D01*
X155114535Y-111621208D01*
X155158826Y-111576916D01*
X155204917Y-111525728D01*
X155223559Y-111512183D01*
X155241208Y-111494535D01*
X155290354Y-111463654D01*
X155340162Y-111427467D01*
X155366873Y-111415574D01*
X155392893Y-111399225D01*
X155442877Y-111381734D01*
X155492889Y-111359468D01*
X155527592Y-111352091D01*
X155561983Y-111340058D01*
X155609281Y-111334728D01*
X155656412Y-111324711D01*
X155698189Y-111324711D01*
X155740000Y-111320000D01*
X155781811Y-111324711D01*
G37*
G36*
X140541811Y-108784711D02*
G01*
X140583588Y-108784711D01*
X140630718Y-108794728D01*
X140678017Y-108800058D01*
X140712408Y-108812092D01*
X140747110Y-108819468D01*
X140797117Y-108841733D01*
X140847107Y-108859225D01*
X140873128Y-108875575D01*
X140899835Y-108887466D01*
X140949633Y-108923646D01*
X140998792Y-108954535D01*
X141016444Y-108972187D01*
X141035084Y-108985730D01*
X141081165Y-109036908D01*
X141125465Y-109081208D01*
X141135654Y-109097424D01*
X141146946Y-109109965D01*
X141185573Y-109176870D01*
X141220775Y-109232893D01*
X141225170Y-109245453D01*
X141230535Y-109254746D01*
X141258010Y-109339305D01*
X141279942Y-109401983D01*
X141280773Y-109409363D01*
X141282195Y-109413738D01*
X141295076Y-109536306D01*
X141300000Y-109580000D01*
X141295076Y-109623697D01*
X141282195Y-109746261D01*
X141280773Y-109750635D01*
X141279942Y-109758017D01*
X141258005Y-109820707D01*
X141230535Y-109905253D01*
X141225171Y-109914543D01*
X141220775Y-109927107D01*
X141185566Y-109983140D01*
X141146946Y-110050034D01*
X141135656Y-110062572D01*
X141125465Y-110078792D01*
X141081155Y-110123101D01*
X141035084Y-110174269D01*
X141016448Y-110187808D01*
X140998792Y-110205465D01*
X140949623Y-110236359D01*
X140899835Y-110272533D01*
X140873134Y-110284421D01*
X140847107Y-110300775D01*
X140797107Y-110318270D01*
X140747110Y-110340531D01*
X140712414Y-110347905D01*
X140678017Y-110359942D01*
X140630715Y-110365271D01*
X140583588Y-110375289D01*
X140541811Y-110375289D01*
X140500000Y-110380000D01*
X140458189Y-110375289D01*
X140416412Y-110375289D01*
X140369284Y-110365271D01*
X140321983Y-110359942D01*
X140287586Y-110347906D01*
X140252889Y-110340531D01*
X140202887Y-110318268D01*
X140152893Y-110300775D01*
X140126868Y-110284422D01*
X140100164Y-110272533D01*
X140050369Y-110236355D01*
X140001208Y-110205465D01*
X139983554Y-110187811D01*
X139964915Y-110174269D01*
X139918833Y-110123090D01*
X139874535Y-110078792D01*
X139864345Y-110062575D01*
X139853053Y-110050034D01*
X139814420Y-109983120D01*
X139779225Y-109927107D01*
X139774830Y-109914547D01*
X139769464Y-109905253D01*
X139741980Y-109820667D01*
X139720058Y-109758017D01*
X139719226Y-109750639D01*
X139717804Y-109746261D01*
X139704908Y-109623565D01*
X139700000Y-109580000D01*
X139704908Y-109536438D01*
X139717804Y-109413738D01*
X139719226Y-109409358D01*
X139720058Y-109401983D01*
X139741975Y-109339345D01*
X139769464Y-109254746D01*
X139774831Y-109245449D01*
X139779225Y-109232893D01*
X139814413Y-109176890D01*
X139853053Y-109109965D01*
X139864347Y-109097421D01*
X139874535Y-109081208D01*
X139918826Y-109036916D01*
X139964917Y-108985728D01*
X139983559Y-108972183D01*
X140001208Y-108954535D01*
X140050354Y-108923654D01*
X140100162Y-108887467D01*
X140126873Y-108875574D01*
X140152893Y-108859225D01*
X140202877Y-108841734D01*
X140252889Y-108819468D01*
X140287592Y-108812091D01*
X140321983Y-108800058D01*
X140369281Y-108794728D01*
X140416412Y-108784711D01*
X140458189Y-108784711D01*
X140500000Y-108780000D01*
X140541811Y-108784711D01*
G37*
G36*
X155781811Y-108784711D02*
G01*
X155823588Y-108784711D01*
X155870718Y-108794728D01*
X155918017Y-108800058D01*
X155952408Y-108812092D01*
X155987110Y-108819468D01*
X156037117Y-108841733D01*
X156087107Y-108859225D01*
X156113128Y-108875575D01*
X156139835Y-108887466D01*
X156189633Y-108923646D01*
X156238792Y-108954535D01*
X156256444Y-108972187D01*
X156275084Y-108985730D01*
X156321165Y-109036908D01*
X156365465Y-109081208D01*
X156375654Y-109097424D01*
X156386946Y-109109965D01*
X156425573Y-109176870D01*
X156460775Y-109232893D01*
X156465170Y-109245453D01*
X156470535Y-109254746D01*
X156498010Y-109339305D01*
X156519942Y-109401983D01*
X156520773Y-109409363D01*
X156522195Y-109413738D01*
X156535076Y-109536306D01*
X156540000Y-109580000D01*
X156535076Y-109623697D01*
X156522195Y-109746261D01*
X156520773Y-109750635D01*
X156519942Y-109758017D01*
X156498005Y-109820707D01*
X156470535Y-109905253D01*
X156465171Y-109914543D01*
X156460775Y-109927107D01*
X156425566Y-109983140D01*
X156386946Y-110050034D01*
X156375656Y-110062572D01*
X156365465Y-110078792D01*
X156321155Y-110123101D01*
X156275084Y-110174269D01*
X156256448Y-110187808D01*
X156238792Y-110205465D01*
X156189623Y-110236359D01*
X156139835Y-110272533D01*
X156113134Y-110284421D01*
X156087107Y-110300775D01*
X156037107Y-110318270D01*
X155987110Y-110340531D01*
X155952414Y-110347905D01*
X155918017Y-110359942D01*
X155870715Y-110365271D01*
X155823588Y-110375289D01*
X155781811Y-110375289D01*
X155740000Y-110380000D01*
X155698189Y-110375289D01*
X155656412Y-110375289D01*
X155609284Y-110365271D01*
X155561983Y-110359942D01*
X155527586Y-110347906D01*
X155492889Y-110340531D01*
X155442887Y-110318268D01*
X155392893Y-110300775D01*
X155366868Y-110284422D01*
X155340164Y-110272533D01*
X155290369Y-110236355D01*
X155241208Y-110205465D01*
X155223554Y-110187811D01*
X155204915Y-110174269D01*
X155158833Y-110123090D01*
X155114535Y-110078792D01*
X155104345Y-110062575D01*
X155093053Y-110050034D01*
X155054420Y-109983120D01*
X155019225Y-109927107D01*
X155014830Y-109914547D01*
X155009464Y-109905253D01*
X154981980Y-109820667D01*
X154960058Y-109758017D01*
X154959226Y-109750639D01*
X154957804Y-109746261D01*
X154944908Y-109623565D01*
X154940000Y-109580000D01*
X154944908Y-109536438D01*
X154957804Y-109413738D01*
X154959226Y-109409358D01*
X154960058Y-109401983D01*
X154981975Y-109339345D01*
X155009464Y-109254746D01*
X155014831Y-109245449D01*
X155019225Y-109232893D01*
X155054413Y-109176890D01*
X155093053Y-109109965D01*
X155104347Y-109097421D01*
X155114535Y-109081208D01*
X155158826Y-109036916D01*
X155204917Y-108985728D01*
X155223559Y-108972183D01*
X155241208Y-108954535D01*
X155290354Y-108923654D01*
X155340162Y-108887467D01*
X155366873Y-108875574D01*
X155392893Y-108859225D01*
X155442877Y-108841734D01*
X155492889Y-108819468D01*
X155527592Y-108812091D01*
X155561983Y-108800058D01*
X155609281Y-108794728D01*
X155656412Y-108784711D01*
X155698189Y-108784711D01*
X155740000Y-108780000D01*
X155781811Y-108784711D01*
G37*
G36*
X140541811Y-106244711D02*
G01*
X140583588Y-106244711D01*
X140630718Y-106254728D01*
X140678017Y-106260058D01*
X140712408Y-106272092D01*
X140747110Y-106279468D01*
X140797117Y-106301733D01*
X140847107Y-106319225D01*
X140873128Y-106335575D01*
X140899835Y-106347466D01*
X140949633Y-106383646D01*
X140998792Y-106414535D01*
X141016444Y-106432187D01*
X141035084Y-106445730D01*
X141081165Y-106496908D01*
X141125465Y-106541208D01*
X141135654Y-106557424D01*
X141146946Y-106569965D01*
X141185573Y-106636870D01*
X141220775Y-106692893D01*
X141225170Y-106705453D01*
X141230535Y-106714746D01*
X141258010Y-106799305D01*
X141279942Y-106861983D01*
X141280773Y-106869363D01*
X141282195Y-106873738D01*
X141295076Y-106996306D01*
X141300000Y-107040000D01*
X141295076Y-107083697D01*
X141282195Y-107206261D01*
X141280773Y-107210635D01*
X141279942Y-107218017D01*
X141258005Y-107280707D01*
X141230535Y-107365253D01*
X141225171Y-107374543D01*
X141220775Y-107387107D01*
X141185566Y-107443140D01*
X141146946Y-107510034D01*
X141135656Y-107522572D01*
X141125465Y-107538792D01*
X141081155Y-107583101D01*
X141035084Y-107634269D01*
X141016448Y-107647808D01*
X140998792Y-107665465D01*
X140949623Y-107696359D01*
X140899835Y-107732533D01*
X140873134Y-107744421D01*
X140847107Y-107760775D01*
X140797107Y-107778270D01*
X140747110Y-107800531D01*
X140712414Y-107807905D01*
X140678017Y-107819942D01*
X140630715Y-107825271D01*
X140583588Y-107835289D01*
X140541811Y-107835289D01*
X140500000Y-107840000D01*
X140458189Y-107835289D01*
X140416412Y-107835289D01*
X140369284Y-107825271D01*
X140321983Y-107819942D01*
X140287586Y-107807906D01*
X140252889Y-107800531D01*
X140202887Y-107778268D01*
X140152893Y-107760775D01*
X140126868Y-107744422D01*
X140100164Y-107732533D01*
X140050369Y-107696355D01*
X140001208Y-107665465D01*
X139983554Y-107647811D01*
X139964915Y-107634269D01*
X139918833Y-107583090D01*
X139874535Y-107538792D01*
X139864345Y-107522575D01*
X139853053Y-107510034D01*
X139814420Y-107443120D01*
X139779225Y-107387107D01*
X139774830Y-107374547D01*
X139769464Y-107365253D01*
X139741980Y-107280667D01*
X139720058Y-107218017D01*
X139719226Y-107210639D01*
X139717804Y-107206261D01*
X139704908Y-107083565D01*
X139700000Y-107040000D01*
X139704908Y-106996438D01*
X139717804Y-106873738D01*
X139719226Y-106869358D01*
X139720058Y-106861983D01*
X139741975Y-106799345D01*
X139769464Y-106714746D01*
X139774831Y-106705449D01*
X139779225Y-106692893D01*
X139814413Y-106636890D01*
X139853053Y-106569965D01*
X139864347Y-106557421D01*
X139874535Y-106541208D01*
X139918826Y-106496916D01*
X139964917Y-106445728D01*
X139983559Y-106432183D01*
X140001208Y-106414535D01*
X140050354Y-106383654D01*
X140100162Y-106347467D01*
X140126873Y-106335574D01*
X140152893Y-106319225D01*
X140202877Y-106301734D01*
X140252889Y-106279468D01*
X140287592Y-106272091D01*
X140321983Y-106260058D01*
X140369281Y-106254728D01*
X140416412Y-106244711D01*
X140458189Y-106244711D01*
X140500000Y-106240000D01*
X140541811Y-106244711D01*
G37*
G36*
X155781811Y-106244711D02*
G01*
X155823588Y-106244711D01*
X155870718Y-106254728D01*
X155918017Y-106260058D01*
X155952408Y-106272092D01*
X155987110Y-106279468D01*
X156037117Y-106301733D01*
X156087107Y-106319225D01*
X156113128Y-106335575D01*
X156139835Y-106347466D01*
X156189633Y-106383646D01*
X156238792Y-106414535D01*
X156256444Y-106432187D01*
X156275084Y-106445730D01*
X156321165Y-106496908D01*
X156365465Y-106541208D01*
X156375654Y-106557424D01*
X156386946Y-106569965D01*
X156425573Y-106636870D01*
X156460775Y-106692893D01*
X156465170Y-106705453D01*
X156470535Y-106714746D01*
X156498010Y-106799305D01*
X156519942Y-106861983D01*
X156520773Y-106869363D01*
X156522195Y-106873738D01*
X156535076Y-106996306D01*
X156540000Y-107040000D01*
X156535076Y-107083697D01*
X156522195Y-107206261D01*
X156520773Y-107210635D01*
X156519942Y-107218017D01*
X156498005Y-107280707D01*
X156470535Y-107365253D01*
X156465171Y-107374543D01*
X156460775Y-107387107D01*
X156425566Y-107443140D01*
X156386946Y-107510034D01*
X156375656Y-107522572D01*
X156365465Y-107538792D01*
X156321155Y-107583101D01*
X156275084Y-107634269D01*
X156256448Y-107647808D01*
X156238792Y-107665465D01*
X156189623Y-107696359D01*
X156139835Y-107732533D01*
X156113134Y-107744421D01*
X156087107Y-107760775D01*
X156037107Y-107778270D01*
X155987110Y-107800531D01*
X155952414Y-107807905D01*
X155918017Y-107819942D01*
X155870715Y-107825271D01*
X155823588Y-107835289D01*
X155781811Y-107835289D01*
X155740000Y-107840000D01*
X155698189Y-107835289D01*
X155656412Y-107835289D01*
X155609284Y-107825271D01*
X155561983Y-107819942D01*
X155527586Y-107807906D01*
X155492889Y-107800531D01*
X155442887Y-107778268D01*
X155392893Y-107760775D01*
X155366868Y-107744422D01*
X155340164Y-107732533D01*
X155290369Y-107696355D01*
X155241208Y-107665465D01*
X155223554Y-107647811D01*
X155204915Y-107634269D01*
X155158833Y-107583090D01*
X155114535Y-107538792D01*
X155104345Y-107522575D01*
X155093053Y-107510034D01*
X155054420Y-107443120D01*
X155019225Y-107387107D01*
X155014830Y-107374547D01*
X155009464Y-107365253D01*
X154981980Y-107280667D01*
X154960058Y-107218017D01*
X154959226Y-107210639D01*
X154957804Y-107206261D01*
X154944908Y-107083565D01*
X154940000Y-107040000D01*
X154944908Y-106996438D01*
X154957804Y-106873738D01*
X154959226Y-106869358D01*
X154960058Y-106861983D01*
X154981975Y-106799345D01*
X155009464Y-106714746D01*
X155014831Y-106705449D01*
X155019225Y-106692893D01*
X155054413Y-106636890D01*
X155093053Y-106569965D01*
X155104347Y-106557421D01*
X155114535Y-106541208D01*
X155158826Y-106496916D01*
X155204917Y-106445728D01*
X155223559Y-106432183D01*
X155241208Y-106414535D01*
X155290354Y-106383654D01*
X155340162Y-106347467D01*
X155366873Y-106335574D01*
X155392893Y-106319225D01*
X155442877Y-106301734D01*
X155492889Y-106279468D01*
X155527592Y-106272091D01*
X155561983Y-106260058D01*
X155609281Y-106254728D01*
X155656412Y-106244711D01*
X155698189Y-106244711D01*
X155740000Y-106240000D01*
X155781811Y-106244711D01*
G37*
G36*
X135890000Y-105850000D02*
G01*
X134190000Y-105850000D01*
X134190000Y-104150000D01*
X135890000Y-104150000D01*
X135890000Y-105850000D01*
G37*
G36*
X130222664Y-104191602D02*
G01*
X130385000Y-104263878D01*
X130528761Y-104368327D01*
X130647664Y-104500383D01*
X130736514Y-104654274D01*
X130791425Y-104823275D01*
X130810000Y-105000000D01*
X130791425Y-105176725D01*
X130736514Y-105345726D01*
X130647664Y-105499617D01*
X130528761Y-105631673D01*
X130385000Y-105736122D01*
X130222664Y-105808398D01*
X130048849Y-105845344D01*
X129871151Y-105845344D01*
X129697336Y-105808398D01*
X129535000Y-105736122D01*
X129391239Y-105631673D01*
X129272336Y-105499617D01*
X129183486Y-105345726D01*
X129128575Y-105176725D01*
X129110000Y-105000000D01*
X129128575Y-104823275D01*
X129183486Y-104654274D01*
X129272336Y-104500383D01*
X129391239Y-104368327D01*
X129535000Y-104263878D01*
X129697336Y-104191602D01*
X129871151Y-104154656D01*
X130048849Y-104154656D01*
X130222664Y-104191602D01*
G37*
G36*
X132762664Y-104191602D02*
G01*
X132925000Y-104263878D01*
X133068761Y-104368327D01*
X133187664Y-104500383D01*
X133276514Y-104654274D01*
X133331425Y-104823275D01*
X133350000Y-105000000D01*
X133331425Y-105176725D01*
X133276514Y-105345726D01*
X133187664Y-105499617D01*
X133068761Y-105631673D01*
X132925000Y-105736122D01*
X132762664Y-105808398D01*
X132588849Y-105845344D01*
X132411151Y-105845344D01*
X132237336Y-105808398D01*
X132075000Y-105736122D01*
X131931239Y-105631673D01*
X131812336Y-105499617D01*
X131723486Y-105345726D01*
X131668575Y-105176725D01*
X131650000Y-105000000D01*
X131668575Y-104823275D01*
X131723486Y-104654274D01*
X131812336Y-104500383D01*
X131931239Y-104368327D01*
X132075000Y-104263878D01*
X132237336Y-104191602D01*
X132411151Y-104154656D01*
X132588849Y-104154656D01*
X132762664Y-104191602D01*
G37*
G36*
X140541811Y-103704711D02*
G01*
X140583588Y-103704711D01*
X140630718Y-103714728D01*
X140678017Y-103720058D01*
X140712408Y-103732092D01*
X140747110Y-103739468D01*
X140797117Y-103761733D01*
X140847107Y-103779225D01*
X140873128Y-103795575D01*
X140899835Y-103807466D01*
X140949633Y-103843646D01*
X140998792Y-103874535D01*
X141016444Y-103892187D01*
X141035084Y-103905730D01*
X141081165Y-103956908D01*
X141125465Y-104001208D01*
X141135654Y-104017424D01*
X141146946Y-104029965D01*
X141185573Y-104096870D01*
X141220775Y-104152893D01*
X141225170Y-104165453D01*
X141230535Y-104174746D01*
X141258010Y-104259305D01*
X141279942Y-104321983D01*
X141280773Y-104329363D01*
X141282195Y-104333738D01*
X141295076Y-104456306D01*
X141300000Y-104500000D01*
X141295076Y-104543697D01*
X141282195Y-104666261D01*
X141280773Y-104670635D01*
X141279942Y-104678017D01*
X141258005Y-104740707D01*
X141230535Y-104825253D01*
X141225171Y-104834543D01*
X141220775Y-104847107D01*
X141185566Y-104903140D01*
X141146946Y-104970034D01*
X141135656Y-104982572D01*
X141125465Y-104998792D01*
X141081155Y-105043101D01*
X141035084Y-105094269D01*
X141016448Y-105107808D01*
X140998792Y-105125465D01*
X140949623Y-105156359D01*
X140899835Y-105192533D01*
X140873134Y-105204421D01*
X140847107Y-105220775D01*
X140797107Y-105238270D01*
X140747110Y-105260531D01*
X140712414Y-105267905D01*
X140678017Y-105279942D01*
X140630715Y-105285271D01*
X140583588Y-105295289D01*
X140541811Y-105295289D01*
X140500000Y-105300000D01*
X140458189Y-105295289D01*
X140416412Y-105295289D01*
X140369284Y-105285271D01*
X140321983Y-105279942D01*
X140287586Y-105267906D01*
X140252889Y-105260531D01*
X140202887Y-105238268D01*
X140152893Y-105220775D01*
X140126868Y-105204422D01*
X140100164Y-105192533D01*
X140050369Y-105156355D01*
X140001208Y-105125465D01*
X139983554Y-105107811D01*
X139964915Y-105094269D01*
X139918833Y-105043090D01*
X139874535Y-104998792D01*
X139864345Y-104982575D01*
X139853053Y-104970034D01*
X139814420Y-104903120D01*
X139779225Y-104847107D01*
X139774830Y-104834547D01*
X139769464Y-104825253D01*
X139741980Y-104740667D01*
X139720058Y-104678017D01*
X139719226Y-104670639D01*
X139717804Y-104666261D01*
X139704908Y-104543565D01*
X139700000Y-104500000D01*
X139704908Y-104456438D01*
X139717804Y-104333738D01*
X139719226Y-104329358D01*
X139720058Y-104321983D01*
X139741975Y-104259345D01*
X139769464Y-104174746D01*
X139774831Y-104165449D01*
X139779225Y-104152893D01*
X139814413Y-104096890D01*
X139853053Y-104029965D01*
X139864347Y-104017421D01*
X139874535Y-104001208D01*
X139918826Y-103956916D01*
X139964917Y-103905728D01*
X139983559Y-103892183D01*
X140001208Y-103874535D01*
X140050354Y-103843654D01*
X140100162Y-103807467D01*
X140126873Y-103795574D01*
X140152893Y-103779225D01*
X140202877Y-103761734D01*
X140252889Y-103739468D01*
X140287592Y-103732091D01*
X140321983Y-103720058D01*
X140369281Y-103714728D01*
X140416412Y-103704711D01*
X140458189Y-103704711D01*
X140500000Y-103700000D01*
X140541811Y-103704711D01*
G37*
G36*
X155781811Y-103704711D02*
G01*
X155823588Y-103704711D01*
X155870718Y-103714728D01*
X155918017Y-103720058D01*
X155952408Y-103732092D01*
X155987110Y-103739468D01*
X156037117Y-103761733D01*
X156087107Y-103779225D01*
X156113128Y-103795575D01*
X156139835Y-103807466D01*
X156189633Y-103843646D01*
X156238792Y-103874535D01*
X156256444Y-103892187D01*
X156275084Y-103905730D01*
X156321165Y-103956908D01*
X156365465Y-104001208D01*
X156375654Y-104017424D01*
X156386946Y-104029965D01*
X156425573Y-104096870D01*
X156460775Y-104152893D01*
X156465170Y-104165453D01*
X156470535Y-104174746D01*
X156498010Y-104259305D01*
X156519942Y-104321983D01*
X156520773Y-104329363D01*
X156522195Y-104333738D01*
X156535076Y-104456306D01*
X156540000Y-104500000D01*
X156535076Y-104543697D01*
X156522195Y-104666261D01*
X156520773Y-104670635D01*
X156519942Y-104678017D01*
X156498005Y-104740707D01*
X156470535Y-104825253D01*
X156465171Y-104834543D01*
X156460775Y-104847107D01*
X156425566Y-104903140D01*
X156386946Y-104970034D01*
X156375656Y-104982572D01*
X156365465Y-104998792D01*
X156321155Y-105043101D01*
X156275084Y-105094269D01*
X156256448Y-105107808D01*
X156238792Y-105125465D01*
X156189623Y-105156359D01*
X156139835Y-105192533D01*
X156113134Y-105204421D01*
X156087107Y-105220775D01*
X156037107Y-105238270D01*
X155987110Y-105260531D01*
X155952414Y-105267905D01*
X155918017Y-105279942D01*
X155870715Y-105285271D01*
X155823588Y-105295289D01*
X155781811Y-105295289D01*
X155740000Y-105300000D01*
X155698189Y-105295289D01*
X155656412Y-105295289D01*
X155609284Y-105285271D01*
X155561983Y-105279942D01*
X155527586Y-105267906D01*
X155492889Y-105260531D01*
X155442887Y-105238268D01*
X155392893Y-105220775D01*
X155366868Y-105204422D01*
X155340164Y-105192533D01*
X155290369Y-105156355D01*
X155241208Y-105125465D01*
X155223554Y-105107811D01*
X155204915Y-105094269D01*
X155158833Y-105043090D01*
X155114535Y-104998792D01*
X155104345Y-104982575D01*
X155093053Y-104970034D01*
X155054420Y-104903120D01*
X155019225Y-104847107D01*
X155014830Y-104834547D01*
X155009464Y-104825253D01*
X154981980Y-104740667D01*
X154960058Y-104678017D01*
X154959226Y-104670639D01*
X154957804Y-104666261D01*
X154944908Y-104543565D01*
X154940000Y-104500000D01*
X154944908Y-104456438D01*
X154957804Y-104333738D01*
X154959226Y-104329358D01*
X154960058Y-104321983D01*
X154981975Y-104259345D01*
X155009464Y-104174746D01*
X155014831Y-104165449D01*
X155019225Y-104152893D01*
X155054413Y-104096890D01*
X155093053Y-104029965D01*
X155104347Y-104017421D01*
X155114535Y-104001208D01*
X155158826Y-103956916D01*
X155204917Y-103905728D01*
X155223559Y-103892183D01*
X155241208Y-103874535D01*
X155290354Y-103843654D01*
X155340162Y-103807467D01*
X155366873Y-103795574D01*
X155392893Y-103779225D01*
X155442877Y-103761734D01*
X155492889Y-103739468D01*
X155527592Y-103732091D01*
X155561983Y-103720058D01*
X155609281Y-103714728D01*
X155656412Y-103704711D01*
X155698189Y-103704711D01*
X155740000Y-103700000D01*
X155781811Y-103704711D01*
G37*
G36*
X140541811Y-101164711D02*
G01*
X140583588Y-101164711D01*
X140630718Y-101174728D01*
X140678017Y-101180058D01*
X140712408Y-101192092D01*
X140747110Y-101199468D01*
X140797117Y-101221733D01*
X140847107Y-101239225D01*
X140873128Y-101255575D01*
X140899835Y-101267466D01*
X140949633Y-101303646D01*
X140998792Y-101334535D01*
X141016444Y-101352187D01*
X141035084Y-101365730D01*
X141081165Y-101416908D01*
X141125465Y-101461208D01*
X141135654Y-101477424D01*
X141146946Y-101489965D01*
X141185573Y-101556870D01*
X141220775Y-101612893D01*
X141225170Y-101625453D01*
X141230535Y-101634746D01*
X141258010Y-101719305D01*
X141279942Y-101781983D01*
X141280773Y-101789363D01*
X141282195Y-101793738D01*
X141295076Y-101916306D01*
X141300000Y-101960000D01*
X141295076Y-102003697D01*
X141282195Y-102126261D01*
X141280773Y-102130635D01*
X141279942Y-102138017D01*
X141258005Y-102200707D01*
X141230535Y-102285253D01*
X141225171Y-102294543D01*
X141220775Y-102307107D01*
X141185566Y-102363140D01*
X141146946Y-102430034D01*
X141135656Y-102442572D01*
X141125465Y-102458792D01*
X141081155Y-102503101D01*
X141035084Y-102554269D01*
X141016448Y-102567808D01*
X140998792Y-102585465D01*
X140949623Y-102616359D01*
X140899835Y-102652533D01*
X140873134Y-102664421D01*
X140847107Y-102680775D01*
X140797107Y-102698270D01*
X140747110Y-102720531D01*
X140712414Y-102727905D01*
X140678017Y-102739942D01*
X140630715Y-102745271D01*
X140583588Y-102755289D01*
X140541811Y-102755289D01*
X140500000Y-102760000D01*
X140458189Y-102755289D01*
X140416412Y-102755289D01*
X140369284Y-102745271D01*
X140321983Y-102739942D01*
X140287586Y-102727906D01*
X140252889Y-102720531D01*
X140202887Y-102698268D01*
X140152893Y-102680775D01*
X140126868Y-102664422D01*
X140100164Y-102652533D01*
X140050369Y-102616355D01*
X140001208Y-102585465D01*
X139983554Y-102567811D01*
X139964915Y-102554269D01*
X139918833Y-102503090D01*
X139874535Y-102458792D01*
X139864345Y-102442575D01*
X139853053Y-102430034D01*
X139814420Y-102363120D01*
X139779225Y-102307107D01*
X139774830Y-102294547D01*
X139769464Y-102285253D01*
X139741980Y-102200667D01*
X139720058Y-102138017D01*
X139719226Y-102130639D01*
X139717804Y-102126261D01*
X139704908Y-102003565D01*
X139700000Y-101960000D01*
X139704908Y-101916438D01*
X139717804Y-101793738D01*
X139719226Y-101789358D01*
X139720058Y-101781983D01*
X139741975Y-101719345D01*
X139769464Y-101634746D01*
X139774831Y-101625449D01*
X139779225Y-101612893D01*
X139814413Y-101556890D01*
X139853053Y-101489965D01*
X139864347Y-101477421D01*
X139874535Y-101461208D01*
X139918826Y-101416916D01*
X139964917Y-101365728D01*
X139983559Y-101352183D01*
X140001208Y-101334535D01*
X140050354Y-101303654D01*
X140100162Y-101267467D01*
X140126873Y-101255574D01*
X140152893Y-101239225D01*
X140202877Y-101221734D01*
X140252889Y-101199468D01*
X140287592Y-101192091D01*
X140321983Y-101180058D01*
X140369281Y-101174728D01*
X140416412Y-101164711D01*
X140458189Y-101164711D01*
X140500000Y-101160000D01*
X140541811Y-101164711D01*
G37*
G36*
X155781811Y-101164711D02*
G01*
X155823588Y-101164711D01*
X155870718Y-101174728D01*
X155918017Y-101180058D01*
X155952408Y-101192092D01*
X155987110Y-101199468D01*
X156037117Y-101221733D01*
X156087107Y-101239225D01*
X156113128Y-101255575D01*
X156139835Y-101267466D01*
X156189633Y-101303646D01*
X156238792Y-101334535D01*
X156256444Y-101352187D01*
X156275084Y-101365730D01*
X156321165Y-101416908D01*
X156365465Y-101461208D01*
X156375654Y-101477424D01*
X156386946Y-101489965D01*
X156425573Y-101556870D01*
X156460775Y-101612893D01*
X156465170Y-101625453D01*
X156470535Y-101634746D01*
X156498010Y-101719305D01*
X156519942Y-101781983D01*
X156520773Y-101789363D01*
X156522195Y-101793738D01*
X156535076Y-101916306D01*
X156540000Y-101960000D01*
X156535076Y-102003697D01*
X156522195Y-102126261D01*
X156520773Y-102130635D01*
X156519942Y-102138017D01*
X156498005Y-102200707D01*
X156470535Y-102285253D01*
X156465171Y-102294543D01*
X156460775Y-102307107D01*
X156425566Y-102363140D01*
X156386946Y-102430034D01*
X156375656Y-102442572D01*
X156365465Y-102458792D01*
X156321155Y-102503101D01*
X156275084Y-102554269D01*
X156256448Y-102567808D01*
X156238792Y-102585465D01*
X156189623Y-102616359D01*
X156139835Y-102652533D01*
X156113134Y-102664421D01*
X156087107Y-102680775D01*
X156037107Y-102698270D01*
X155987110Y-102720531D01*
X155952414Y-102727905D01*
X155918017Y-102739942D01*
X155870715Y-102745271D01*
X155823588Y-102755289D01*
X155781811Y-102755289D01*
X155740000Y-102760000D01*
X155698189Y-102755289D01*
X155656412Y-102755289D01*
X155609284Y-102745271D01*
X155561983Y-102739942D01*
X155527586Y-102727906D01*
X155492889Y-102720531D01*
X155442887Y-102698268D01*
X155392893Y-102680775D01*
X155366868Y-102664422D01*
X155340164Y-102652533D01*
X155290369Y-102616355D01*
X155241208Y-102585465D01*
X155223554Y-102567811D01*
X155204915Y-102554269D01*
X155158833Y-102503090D01*
X155114535Y-102458792D01*
X155104345Y-102442575D01*
X155093053Y-102430034D01*
X155054420Y-102363120D01*
X155019225Y-102307107D01*
X155014830Y-102294547D01*
X155009464Y-102285253D01*
X154981980Y-102200667D01*
X154960058Y-102138017D01*
X154959226Y-102130639D01*
X154957804Y-102126261D01*
X154944908Y-102003565D01*
X154940000Y-101960000D01*
X154944908Y-101916438D01*
X154957804Y-101793738D01*
X154959226Y-101789358D01*
X154960058Y-101781983D01*
X154981975Y-101719345D01*
X155009464Y-101634746D01*
X155014831Y-101625449D01*
X155019225Y-101612893D01*
X155054413Y-101556890D01*
X155093053Y-101489965D01*
X155104347Y-101477421D01*
X155114535Y-101461208D01*
X155158826Y-101416916D01*
X155204917Y-101365728D01*
X155223559Y-101352183D01*
X155241208Y-101334535D01*
X155290354Y-101303654D01*
X155340162Y-101267467D01*
X155366873Y-101255574D01*
X155392893Y-101239225D01*
X155442877Y-101221734D01*
X155492889Y-101199468D01*
X155527592Y-101192091D01*
X155561983Y-101180058D01*
X155609281Y-101174728D01*
X155656412Y-101164711D01*
X155698189Y-101164711D01*
X155740000Y-101160000D01*
X155781811Y-101164711D01*
G37*
G36*
X140541811Y-98624711D02*
G01*
X140583588Y-98624711D01*
X140630718Y-98634728D01*
X140678017Y-98640058D01*
X140712408Y-98652092D01*
X140747110Y-98659468D01*
X140797117Y-98681733D01*
X140847107Y-98699225D01*
X140873128Y-98715575D01*
X140899835Y-98727466D01*
X140949633Y-98763646D01*
X140998792Y-98794535D01*
X141016444Y-98812187D01*
X141035084Y-98825730D01*
X141081165Y-98876908D01*
X141125465Y-98921208D01*
X141135654Y-98937424D01*
X141146946Y-98949965D01*
X141185573Y-99016870D01*
X141220775Y-99072893D01*
X141225170Y-99085453D01*
X141230535Y-99094746D01*
X141258010Y-99179305D01*
X141279942Y-99241983D01*
X141280773Y-99249363D01*
X141282195Y-99253738D01*
X141295076Y-99376306D01*
X141300000Y-99420000D01*
X141295076Y-99463697D01*
X141282195Y-99586261D01*
X141280773Y-99590635D01*
X141279942Y-99598017D01*
X141258005Y-99660707D01*
X141230535Y-99745253D01*
X141225171Y-99754543D01*
X141220775Y-99767107D01*
X141185566Y-99823140D01*
X141146946Y-99890034D01*
X141135656Y-99902572D01*
X141125465Y-99918792D01*
X141081155Y-99963101D01*
X141035084Y-100014269D01*
X141016448Y-100027808D01*
X140998792Y-100045465D01*
X140949623Y-100076359D01*
X140899835Y-100112533D01*
X140873134Y-100124421D01*
X140847107Y-100140775D01*
X140797107Y-100158270D01*
X140747110Y-100180531D01*
X140712414Y-100187905D01*
X140678017Y-100199942D01*
X140630715Y-100205271D01*
X140583588Y-100215289D01*
X140541811Y-100215289D01*
X140500000Y-100220000D01*
X140458189Y-100215289D01*
X140416412Y-100215289D01*
X140369284Y-100205271D01*
X140321983Y-100199942D01*
X140287586Y-100187906D01*
X140252889Y-100180531D01*
X140202887Y-100158268D01*
X140152893Y-100140775D01*
X140126868Y-100124422D01*
X140100164Y-100112533D01*
X140050369Y-100076355D01*
X140001208Y-100045465D01*
X139983554Y-100027811D01*
X139964915Y-100014269D01*
X139918833Y-99963090D01*
X139874535Y-99918792D01*
X139864345Y-99902575D01*
X139853053Y-99890034D01*
X139814420Y-99823120D01*
X139779225Y-99767107D01*
X139774830Y-99754547D01*
X139769464Y-99745253D01*
X139741980Y-99660667D01*
X139720058Y-99598017D01*
X139719226Y-99590639D01*
X139717804Y-99586261D01*
X139704908Y-99463565D01*
X139700000Y-99420000D01*
X139704908Y-99376438D01*
X139717804Y-99253738D01*
X139719226Y-99249358D01*
X139720058Y-99241983D01*
X139741975Y-99179345D01*
X139769464Y-99094746D01*
X139774831Y-99085449D01*
X139779225Y-99072893D01*
X139814413Y-99016890D01*
X139853053Y-98949965D01*
X139864347Y-98937421D01*
X139874535Y-98921208D01*
X139918826Y-98876916D01*
X139964917Y-98825728D01*
X139983559Y-98812183D01*
X140001208Y-98794535D01*
X140050354Y-98763654D01*
X140100162Y-98727467D01*
X140126873Y-98715574D01*
X140152893Y-98699225D01*
X140202877Y-98681734D01*
X140252889Y-98659468D01*
X140287592Y-98652091D01*
X140321983Y-98640058D01*
X140369281Y-98634728D01*
X140416412Y-98624711D01*
X140458189Y-98624711D01*
X140500000Y-98620000D01*
X140541811Y-98624711D01*
G37*
G36*
X155781811Y-98624711D02*
G01*
X155823588Y-98624711D01*
X155870718Y-98634728D01*
X155918017Y-98640058D01*
X155952408Y-98652092D01*
X155987110Y-98659468D01*
X156037117Y-98681733D01*
X156087107Y-98699225D01*
X156113128Y-98715575D01*
X156139835Y-98727466D01*
X156189633Y-98763646D01*
X156238792Y-98794535D01*
X156256444Y-98812187D01*
X156275084Y-98825730D01*
X156321165Y-98876908D01*
X156365465Y-98921208D01*
X156375654Y-98937424D01*
X156386946Y-98949965D01*
X156425573Y-99016870D01*
X156460775Y-99072893D01*
X156465170Y-99085453D01*
X156470535Y-99094746D01*
X156498010Y-99179305D01*
X156519942Y-99241983D01*
X156520773Y-99249363D01*
X156522195Y-99253738D01*
X156535076Y-99376306D01*
X156540000Y-99420000D01*
X156535076Y-99463697D01*
X156522195Y-99586261D01*
X156520773Y-99590635D01*
X156519942Y-99598017D01*
X156498005Y-99660707D01*
X156470535Y-99745253D01*
X156465171Y-99754543D01*
X156460775Y-99767107D01*
X156425566Y-99823140D01*
X156386946Y-99890034D01*
X156375656Y-99902572D01*
X156365465Y-99918792D01*
X156321155Y-99963101D01*
X156275084Y-100014269D01*
X156256448Y-100027808D01*
X156238792Y-100045465D01*
X156189623Y-100076359D01*
X156139835Y-100112533D01*
X156113134Y-100124421D01*
X156087107Y-100140775D01*
X156037107Y-100158270D01*
X155987110Y-100180531D01*
X155952414Y-100187905D01*
X155918017Y-100199942D01*
X155870715Y-100205271D01*
X155823588Y-100215289D01*
X155781811Y-100215289D01*
X155740000Y-100220000D01*
X155698189Y-100215289D01*
X155656412Y-100215289D01*
X155609284Y-100205271D01*
X155561983Y-100199942D01*
X155527586Y-100187906D01*
X155492889Y-100180531D01*
X155442887Y-100158268D01*
X155392893Y-100140775D01*
X155366868Y-100124422D01*
X155340164Y-100112533D01*
X155290369Y-100076355D01*
X155241208Y-100045465D01*
X155223554Y-100027811D01*
X155204915Y-100014269D01*
X155158833Y-99963090D01*
X155114535Y-99918792D01*
X155104345Y-99902575D01*
X155093053Y-99890034D01*
X155054420Y-99823120D01*
X155019225Y-99767107D01*
X155014830Y-99754547D01*
X155009464Y-99745253D01*
X154981980Y-99660667D01*
X154960058Y-99598017D01*
X154959226Y-99590639D01*
X154957804Y-99586261D01*
X154944908Y-99463565D01*
X154940000Y-99420000D01*
X154944908Y-99376438D01*
X154957804Y-99253738D01*
X154959226Y-99249358D01*
X154960058Y-99241983D01*
X154981975Y-99179345D01*
X155009464Y-99094746D01*
X155014831Y-99085449D01*
X155019225Y-99072893D01*
X155054413Y-99016890D01*
X155093053Y-98949965D01*
X155104347Y-98937421D01*
X155114535Y-98921208D01*
X155158826Y-98876916D01*
X155204917Y-98825728D01*
X155223559Y-98812183D01*
X155241208Y-98794535D01*
X155290354Y-98763654D01*
X155340162Y-98727467D01*
X155366873Y-98715574D01*
X155392893Y-98699225D01*
X155442877Y-98681734D01*
X155492889Y-98659468D01*
X155527592Y-98652091D01*
X155561983Y-98640058D01*
X155609281Y-98634728D01*
X155656412Y-98624711D01*
X155698189Y-98624711D01*
X155740000Y-98620000D01*
X155781811Y-98624711D01*
G37*
G36*
X140541811Y-96084711D02*
G01*
X140583588Y-96084711D01*
X140630718Y-96094728D01*
X140678017Y-96100058D01*
X140712408Y-96112092D01*
X140747110Y-96119468D01*
X140797117Y-96141733D01*
X140847107Y-96159225D01*
X140873128Y-96175575D01*
X140899835Y-96187466D01*
X140949633Y-96223646D01*
X140998792Y-96254535D01*
X141016444Y-96272187D01*
X141035084Y-96285730D01*
X141081165Y-96336908D01*
X141125465Y-96381208D01*
X141135654Y-96397424D01*
X141146946Y-96409965D01*
X141185573Y-96476870D01*
X141220775Y-96532893D01*
X141225170Y-96545453D01*
X141230535Y-96554746D01*
X141258010Y-96639305D01*
X141279942Y-96701983D01*
X141280773Y-96709363D01*
X141282195Y-96713738D01*
X141295076Y-96836306D01*
X141300000Y-96880000D01*
X141295076Y-96923697D01*
X141282195Y-97046261D01*
X141280773Y-97050635D01*
X141279942Y-97058017D01*
X141258005Y-97120707D01*
X141230535Y-97205253D01*
X141225171Y-97214543D01*
X141220775Y-97227107D01*
X141185566Y-97283140D01*
X141146946Y-97350034D01*
X141135656Y-97362572D01*
X141125465Y-97378792D01*
X141081155Y-97423101D01*
X141035084Y-97474269D01*
X141016448Y-97487808D01*
X140998792Y-97505465D01*
X140949623Y-97536359D01*
X140899835Y-97572533D01*
X140873134Y-97584421D01*
X140847107Y-97600775D01*
X140797107Y-97618270D01*
X140747110Y-97640531D01*
X140712414Y-97647905D01*
X140678017Y-97659942D01*
X140630715Y-97665271D01*
X140583588Y-97675289D01*
X140541811Y-97675289D01*
X140500000Y-97680000D01*
X140458189Y-97675289D01*
X140416412Y-97675289D01*
X140369284Y-97665271D01*
X140321983Y-97659942D01*
X140287586Y-97647906D01*
X140252889Y-97640531D01*
X140202887Y-97618268D01*
X140152893Y-97600775D01*
X140126868Y-97584422D01*
X140100164Y-97572533D01*
X140050369Y-97536355D01*
X140001208Y-97505465D01*
X139983554Y-97487811D01*
X139964915Y-97474269D01*
X139918833Y-97423090D01*
X139874535Y-97378792D01*
X139864345Y-97362575D01*
X139853053Y-97350034D01*
X139814420Y-97283120D01*
X139779225Y-97227107D01*
X139774830Y-97214547D01*
X139769464Y-97205253D01*
X139741980Y-97120667D01*
X139720058Y-97058017D01*
X139719226Y-97050639D01*
X139717804Y-97046261D01*
X139704908Y-96923565D01*
X139700000Y-96880000D01*
X139704908Y-96836438D01*
X139717804Y-96713738D01*
X139719226Y-96709358D01*
X139720058Y-96701983D01*
X139741975Y-96639345D01*
X139769464Y-96554746D01*
X139774831Y-96545449D01*
X139779225Y-96532893D01*
X139814413Y-96476890D01*
X139853053Y-96409965D01*
X139864347Y-96397421D01*
X139874535Y-96381208D01*
X139918826Y-96336916D01*
X139964917Y-96285728D01*
X139983559Y-96272183D01*
X140001208Y-96254535D01*
X140050354Y-96223654D01*
X140100162Y-96187467D01*
X140126873Y-96175574D01*
X140152893Y-96159225D01*
X140202877Y-96141734D01*
X140252889Y-96119468D01*
X140287592Y-96112091D01*
X140321983Y-96100058D01*
X140369281Y-96094728D01*
X140416412Y-96084711D01*
X140458189Y-96084711D01*
X140500000Y-96080000D01*
X140541811Y-96084711D01*
G37*
G36*
X155781811Y-96084711D02*
G01*
X155823588Y-96084711D01*
X155870718Y-96094728D01*
X155918017Y-96100058D01*
X155952408Y-96112092D01*
X155987110Y-96119468D01*
X156037117Y-96141733D01*
X156087107Y-96159225D01*
X156113128Y-96175575D01*
X156139835Y-96187466D01*
X156189633Y-96223646D01*
X156238792Y-96254535D01*
X156256444Y-96272187D01*
X156275084Y-96285730D01*
X156321165Y-96336908D01*
X156365465Y-96381208D01*
X156375654Y-96397424D01*
X156386946Y-96409965D01*
X156425573Y-96476870D01*
X156460775Y-96532893D01*
X156465170Y-96545453D01*
X156470535Y-96554746D01*
X156498010Y-96639305D01*
X156519942Y-96701983D01*
X156520773Y-96709363D01*
X156522195Y-96713738D01*
X156535076Y-96836306D01*
X156540000Y-96880000D01*
X156535076Y-96923697D01*
X156522195Y-97046261D01*
X156520773Y-97050635D01*
X156519942Y-97058017D01*
X156498005Y-97120707D01*
X156470535Y-97205253D01*
X156465171Y-97214543D01*
X156460775Y-97227107D01*
X156425566Y-97283140D01*
X156386946Y-97350034D01*
X156375656Y-97362572D01*
X156365465Y-97378792D01*
X156321155Y-97423101D01*
X156275084Y-97474269D01*
X156256448Y-97487808D01*
X156238792Y-97505465D01*
X156189623Y-97536359D01*
X156139835Y-97572533D01*
X156113134Y-97584421D01*
X156087107Y-97600775D01*
X156037107Y-97618270D01*
X155987110Y-97640531D01*
X155952414Y-97647905D01*
X155918017Y-97659942D01*
X155870715Y-97665271D01*
X155823588Y-97675289D01*
X155781811Y-97675289D01*
X155740000Y-97680000D01*
X155698189Y-97675289D01*
X155656412Y-97675289D01*
X155609284Y-97665271D01*
X155561983Y-97659942D01*
X155527586Y-97647906D01*
X155492889Y-97640531D01*
X155442887Y-97618268D01*
X155392893Y-97600775D01*
X155366868Y-97584422D01*
X155340164Y-97572533D01*
X155290369Y-97536355D01*
X155241208Y-97505465D01*
X155223554Y-97487811D01*
X155204915Y-97474269D01*
X155158833Y-97423090D01*
X155114535Y-97378792D01*
X155104345Y-97362575D01*
X155093053Y-97350034D01*
X155054420Y-97283120D01*
X155019225Y-97227107D01*
X155014830Y-97214547D01*
X155009464Y-97205253D01*
X154981980Y-97120667D01*
X154960058Y-97058017D01*
X154959226Y-97050639D01*
X154957804Y-97046261D01*
X154944908Y-96923565D01*
X154940000Y-96880000D01*
X154944908Y-96836438D01*
X154957804Y-96713738D01*
X154959226Y-96709358D01*
X154960058Y-96701983D01*
X154981975Y-96639345D01*
X155009464Y-96554746D01*
X155014831Y-96545449D01*
X155019225Y-96532893D01*
X155054413Y-96476890D01*
X155093053Y-96409965D01*
X155104347Y-96397421D01*
X155114535Y-96381208D01*
X155158826Y-96336916D01*
X155204917Y-96285728D01*
X155223559Y-96272183D01*
X155241208Y-96254535D01*
X155290354Y-96223654D01*
X155340162Y-96187467D01*
X155366873Y-96175574D01*
X155392893Y-96159225D01*
X155442877Y-96141734D01*
X155492889Y-96119468D01*
X155527592Y-96112091D01*
X155561983Y-96100058D01*
X155609281Y-96094728D01*
X155656412Y-96084711D01*
X155698189Y-96084711D01*
X155740000Y-96080000D01*
X155781811Y-96084711D01*
G37*
G36*
X135604850Y-95625964D02*
G01*
X135655040Y-95631787D01*
X135672189Y-95639359D01*
X135695671Y-95644030D01*
X135720810Y-95660827D01*
X135740696Y-95669608D01*
X135754277Y-95683189D01*
X135776777Y-95698223D01*
X135791810Y-95720722D01*
X135805391Y-95734303D01*
X135814170Y-95754186D01*
X135830970Y-95779329D01*
X135835641Y-95802812D01*
X135843212Y-95819959D01*
X135849033Y-95870139D01*
X135850000Y-95875000D01*
X135850000Y-97325000D01*
X135849032Y-97329863D01*
X135843212Y-97380040D01*
X135835641Y-97397185D01*
X135830970Y-97420671D01*
X135814169Y-97445815D01*
X135805391Y-97465696D01*
X135791812Y-97479274D01*
X135776777Y-97501777D01*
X135754274Y-97516812D01*
X135740696Y-97530391D01*
X135720815Y-97539169D01*
X135695671Y-97555970D01*
X135672185Y-97560641D01*
X135655040Y-97568212D01*
X135604861Y-97574032D01*
X135600000Y-97575000D01*
X134400000Y-97575000D01*
X134395138Y-97574032D01*
X134344959Y-97568212D01*
X134327812Y-97560641D01*
X134304329Y-97555970D01*
X134279186Y-97539170D01*
X134259303Y-97530391D01*
X134245722Y-97516810D01*
X134223223Y-97501777D01*
X134208189Y-97479277D01*
X134194608Y-97465696D01*
X134185827Y-97445810D01*
X134169030Y-97420671D01*
X134164359Y-97397189D01*
X134156787Y-97380040D01*
X134150964Y-97329849D01*
X134150000Y-97325000D01*
X134150000Y-95875000D01*
X134150964Y-95870150D01*
X134156787Y-95819959D01*
X134164359Y-95802808D01*
X134169030Y-95779329D01*
X134185826Y-95754191D01*
X134194608Y-95734303D01*
X134208191Y-95720719D01*
X134223223Y-95698223D01*
X134245719Y-95683191D01*
X134259303Y-95669608D01*
X134279191Y-95660826D01*
X134304329Y-95644030D01*
X134327808Y-95639359D01*
X134344959Y-95631787D01*
X134395151Y-95625964D01*
X134400000Y-95625000D01*
X135600000Y-95625000D01*
X135604850Y-95625964D01*
G37*
G36*
X130246742Y-95661601D02*
G01*
X130400687Y-95725367D01*
X130539234Y-95817941D01*
X130657059Y-95935766D01*
X130749633Y-96074313D01*
X130813399Y-96228258D01*
X130845907Y-96391685D01*
X130850000Y-96475000D01*
X130850000Y-96725000D01*
X130845907Y-96808315D01*
X130813399Y-96971742D01*
X130749633Y-97125687D01*
X130657059Y-97264234D01*
X130539234Y-97382059D01*
X130400687Y-97474633D01*
X130246742Y-97538399D01*
X130083315Y-97570907D01*
X129916685Y-97570907D01*
X129753258Y-97538399D01*
X129599313Y-97474633D01*
X129460766Y-97382059D01*
X129342941Y-97264234D01*
X129250367Y-97125687D01*
X129186601Y-96971742D01*
X129154093Y-96808315D01*
X129150000Y-96725000D01*
X129150000Y-96475000D01*
X129154093Y-96391685D01*
X129186601Y-96228258D01*
X129250367Y-96074313D01*
X129342941Y-95935766D01*
X129460766Y-95817941D01*
X129599313Y-95725367D01*
X129753258Y-95661601D01*
X129916685Y-95629093D01*
X130083315Y-95629093D01*
X130246742Y-95661601D01*
G37*
G36*
X132746742Y-95661601D02*
G01*
X132900687Y-95725367D01*
X133039234Y-95817941D01*
X133157059Y-95935766D01*
X133249633Y-96074313D01*
X133313399Y-96228258D01*
X133345907Y-96391685D01*
X133350000Y-96475000D01*
X133350000Y-96725000D01*
X133345907Y-96808315D01*
X133313399Y-96971742D01*
X133249633Y-97125687D01*
X133157059Y-97264234D01*
X133039234Y-97382059D01*
X132900687Y-97474633D01*
X132746742Y-97538399D01*
X132583315Y-97570907D01*
X132416685Y-97570907D01*
X132253258Y-97538399D01*
X132099313Y-97474633D01*
X131960766Y-97382059D01*
X131842941Y-97264234D01*
X131750367Y-97125687D01*
X131686601Y-96971742D01*
X131654093Y-96808315D01*
X131650000Y-96725000D01*
X131650000Y-96475000D01*
X131654093Y-96391685D01*
X131686601Y-96228258D01*
X131750367Y-96074313D01*
X131842941Y-95935766D01*
X131960766Y-95817941D01*
X132099313Y-95725367D01*
X132253258Y-95661601D01*
X132416685Y-95629093D01*
X132583315Y-95629093D01*
X132746742Y-95661601D01*
G37*
G36*
X140541811Y-93544711D02*
G01*
X140583588Y-93544711D01*
X140630718Y-93554728D01*
X140678017Y-93560058D01*
X140712408Y-93572092D01*
X140747110Y-93579468D01*
X140797117Y-93601733D01*
X140847107Y-93619225D01*
X140873128Y-93635575D01*
X140899835Y-93647466D01*
X140949633Y-93683646D01*
X140998792Y-93714535D01*
X141016444Y-93732187D01*
X141035084Y-93745730D01*
X141081165Y-93796908D01*
X141125465Y-93841208D01*
X141135654Y-93857424D01*
X141146946Y-93869965D01*
X141185573Y-93936870D01*
X141220775Y-93992893D01*
X141225170Y-94005453D01*
X141230535Y-94014746D01*
X141258010Y-94099305D01*
X141279942Y-94161983D01*
X141280773Y-94169363D01*
X141282195Y-94173738D01*
X141295076Y-94296306D01*
X141300000Y-94340000D01*
X141295076Y-94383697D01*
X141282195Y-94506261D01*
X141280773Y-94510635D01*
X141279942Y-94518017D01*
X141258005Y-94580707D01*
X141230535Y-94665253D01*
X141225171Y-94674543D01*
X141220775Y-94687107D01*
X141185566Y-94743140D01*
X141146946Y-94810034D01*
X141135656Y-94822572D01*
X141125465Y-94838792D01*
X141081155Y-94883101D01*
X141035084Y-94934269D01*
X141016448Y-94947808D01*
X140998792Y-94965465D01*
X140949623Y-94996359D01*
X140899835Y-95032533D01*
X140873134Y-95044421D01*
X140847107Y-95060775D01*
X140797107Y-95078270D01*
X140747110Y-95100531D01*
X140712414Y-95107905D01*
X140678017Y-95119942D01*
X140630715Y-95125271D01*
X140583588Y-95135289D01*
X140541811Y-95135289D01*
X140500000Y-95140000D01*
X140458189Y-95135289D01*
X140416412Y-95135289D01*
X140369284Y-95125271D01*
X140321983Y-95119942D01*
X140287586Y-95107906D01*
X140252889Y-95100531D01*
X140202887Y-95078268D01*
X140152893Y-95060775D01*
X140126868Y-95044422D01*
X140100164Y-95032533D01*
X140050369Y-94996355D01*
X140001208Y-94965465D01*
X139983554Y-94947811D01*
X139964915Y-94934269D01*
X139918833Y-94883090D01*
X139874535Y-94838792D01*
X139864345Y-94822575D01*
X139853053Y-94810034D01*
X139814420Y-94743120D01*
X139779225Y-94687107D01*
X139774830Y-94674547D01*
X139769464Y-94665253D01*
X139741980Y-94580667D01*
X139720058Y-94518017D01*
X139719226Y-94510639D01*
X139717804Y-94506261D01*
X139704908Y-94383565D01*
X139700000Y-94340000D01*
X139704908Y-94296438D01*
X139717804Y-94173738D01*
X139719226Y-94169358D01*
X139720058Y-94161983D01*
X139741975Y-94099345D01*
X139769464Y-94014746D01*
X139774831Y-94005449D01*
X139779225Y-93992893D01*
X139814413Y-93936890D01*
X139853053Y-93869965D01*
X139864347Y-93857421D01*
X139874535Y-93841208D01*
X139918826Y-93796916D01*
X139964917Y-93745728D01*
X139983559Y-93732183D01*
X140001208Y-93714535D01*
X140050354Y-93683654D01*
X140100162Y-93647467D01*
X140126873Y-93635574D01*
X140152893Y-93619225D01*
X140202877Y-93601734D01*
X140252889Y-93579468D01*
X140287592Y-93572091D01*
X140321983Y-93560058D01*
X140369281Y-93554728D01*
X140416412Y-93544711D01*
X140458189Y-93544711D01*
X140500000Y-93540000D01*
X140541811Y-93544711D01*
G37*
G36*
X155781811Y-93544711D02*
G01*
X155823588Y-93544711D01*
X155870718Y-93554728D01*
X155918017Y-93560058D01*
X155952408Y-93572092D01*
X155987110Y-93579468D01*
X156037117Y-93601733D01*
X156087107Y-93619225D01*
X156113128Y-93635575D01*
X156139835Y-93647466D01*
X156189633Y-93683646D01*
X156238792Y-93714535D01*
X156256444Y-93732187D01*
X156275084Y-93745730D01*
X156321165Y-93796908D01*
X156365465Y-93841208D01*
X156375654Y-93857424D01*
X156386946Y-93869965D01*
X156425573Y-93936870D01*
X156460775Y-93992893D01*
X156465170Y-94005453D01*
X156470535Y-94014746D01*
X156498010Y-94099305D01*
X156519942Y-94161983D01*
X156520773Y-94169363D01*
X156522195Y-94173738D01*
X156535076Y-94296306D01*
X156540000Y-94340000D01*
X156535076Y-94383697D01*
X156522195Y-94506261D01*
X156520773Y-94510635D01*
X156519942Y-94518017D01*
X156498005Y-94580707D01*
X156470535Y-94665253D01*
X156465171Y-94674543D01*
X156460775Y-94687107D01*
X156425566Y-94743140D01*
X156386946Y-94810034D01*
X156375656Y-94822572D01*
X156365465Y-94838792D01*
X156321155Y-94883101D01*
X156275084Y-94934269D01*
X156256448Y-94947808D01*
X156238792Y-94965465D01*
X156189623Y-94996359D01*
X156139835Y-95032533D01*
X156113134Y-95044421D01*
X156087107Y-95060775D01*
X156037107Y-95078270D01*
X155987110Y-95100531D01*
X155952414Y-95107905D01*
X155918017Y-95119942D01*
X155870715Y-95125271D01*
X155823588Y-95135289D01*
X155781811Y-95135289D01*
X155740000Y-95140000D01*
X155698189Y-95135289D01*
X155656412Y-95135289D01*
X155609284Y-95125271D01*
X155561983Y-95119942D01*
X155527586Y-95107906D01*
X155492889Y-95100531D01*
X155442887Y-95078268D01*
X155392893Y-95060775D01*
X155366868Y-95044422D01*
X155340164Y-95032533D01*
X155290369Y-94996355D01*
X155241208Y-94965465D01*
X155223554Y-94947811D01*
X155204915Y-94934269D01*
X155158833Y-94883090D01*
X155114535Y-94838792D01*
X155104345Y-94822575D01*
X155093053Y-94810034D01*
X155054420Y-94743120D01*
X155019225Y-94687107D01*
X155014830Y-94674547D01*
X155009464Y-94665253D01*
X154981980Y-94580667D01*
X154960058Y-94518017D01*
X154959226Y-94510639D01*
X154957804Y-94506261D01*
X154944908Y-94383565D01*
X154940000Y-94340000D01*
X154944908Y-94296438D01*
X154957804Y-94173738D01*
X154959226Y-94169358D01*
X154960058Y-94161983D01*
X154981975Y-94099345D01*
X155009464Y-94014746D01*
X155014831Y-94005449D01*
X155019225Y-93992893D01*
X155054413Y-93936890D01*
X155093053Y-93869965D01*
X155104347Y-93857421D01*
X155114535Y-93841208D01*
X155158826Y-93796916D01*
X155204917Y-93745728D01*
X155223559Y-93732183D01*
X155241208Y-93714535D01*
X155290354Y-93683654D01*
X155340162Y-93647467D01*
X155366873Y-93635574D01*
X155392893Y-93619225D01*
X155442877Y-93601734D01*
X155492889Y-93579468D01*
X155527592Y-93572091D01*
X155561983Y-93560058D01*
X155609281Y-93554728D01*
X155656412Y-93544711D01*
X155698189Y-93544711D01*
X155740000Y-93540000D01*
X155781811Y-93544711D01*
G37*
G36*
X140541811Y-91004711D02*
G01*
X140583588Y-91004711D01*
X140630718Y-91014728D01*
X140678017Y-91020058D01*
X140712408Y-91032092D01*
X140747110Y-91039468D01*
X140797117Y-91061733D01*
X140847107Y-91079225D01*
X140873128Y-91095575D01*
X140899835Y-91107466D01*
X140949633Y-91143646D01*
X140998792Y-91174535D01*
X141016444Y-91192187D01*
X141035084Y-91205730D01*
X141081165Y-91256908D01*
X141125465Y-91301208D01*
X141135654Y-91317424D01*
X141146946Y-91329965D01*
X141185573Y-91396870D01*
X141220775Y-91452893D01*
X141225170Y-91465453D01*
X141230535Y-91474746D01*
X141258010Y-91559305D01*
X141279942Y-91621983D01*
X141280773Y-91629363D01*
X141282195Y-91633738D01*
X141295076Y-91756306D01*
X141300000Y-91800000D01*
X141295076Y-91843697D01*
X141282195Y-91966261D01*
X141280773Y-91970635D01*
X141279942Y-91978017D01*
X141258005Y-92040707D01*
X141230535Y-92125253D01*
X141225171Y-92134543D01*
X141220775Y-92147107D01*
X141185566Y-92203140D01*
X141146946Y-92270034D01*
X141135656Y-92282572D01*
X141125465Y-92298792D01*
X141081155Y-92343101D01*
X141035084Y-92394269D01*
X141016448Y-92407808D01*
X140998792Y-92425465D01*
X140949623Y-92456359D01*
X140899835Y-92492533D01*
X140873134Y-92504421D01*
X140847107Y-92520775D01*
X140797107Y-92538270D01*
X140747110Y-92560531D01*
X140712414Y-92567905D01*
X140678017Y-92579942D01*
X140630715Y-92585271D01*
X140583588Y-92595289D01*
X140541811Y-92595289D01*
X140500000Y-92600000D01*
X140458189Y-92595289D01*
X140416412Y-92595289D01*
X140369284Y-92585271D01*
X140321983Y-92579942D01*
X140287586Y-92567906D01*
X140252889Y-92560531D01*
X140202887Y-92538268D01*
X140152893Y-92520775D01*
X140126868Y-92504422D01*
X140100164Y-92492533D01*
X140050369Y-92456355D01*
X140001208Y-92425465D01*
X139983554Y-92407811D01*
X139964915Y-92394269D01*
X139918833Y-92343090D01*
X139874535Y-92298792D01*
X139864345Y-92282575D01*
X139853053Y-92270034D01*
X139814420Y-92203120D01*
X139779225Y-92147107D01*
X139774830Y-92134547D01*
X139769464Y-92125253D01*
X139741980Y-92040667D01*
X139720058Y-91978017D01*
X139719226Y-91970639D01*
X139717804Y-91966261D01*
X139704908Y-91843565D01*
X139700000Y-91800000D01*
X139704908Y-91756438D01*
X139717804Y-91633738D01*
X139719226Y-91629358D01*
X139720058Y-91621983D01*
X139741975Y-91559345D01*
X139769464Y-91474746D01*
X139774831Y-91465449D01*
X139779225Y-91452893D01*
X139814413Y-91396890D01*
X139853053Y-91329965D01*
X139864347Y-91317421D01*
X139874535Y-91301208D01*
X139918826Y-91256916D01*
X139964917Y-91205728D01*
X139983559Y-91192183D01*
X140001208Y-91174535D01*
X140050354Y-91143654D01*
X140100162Y-91107467D01*
X140126873Y-91095574D01*
X140152893Y-91079225D01*
X140202877Y-91061734D01*
X140252889Y-91039468D01*
X140287592Y-91032091D01*
X140321983Y-91020058D01*
X140369281Y-91014728D01*
X140416412Y-91004711D01*
X140458189Y-91004711D01*
X140500000Y-91000000D01*
X140541811Y-91004711D01*
G37*
G36*
X155781811Y-91004711D02*
G01*
X155823588Y-91004711D01*
X155870718Y-91014728D01*
X155918017Y-91020058D01*
X155952408Y-91032092D01*
X155987110Y-91039468D01*
X156037117Y-91061733D01*
X156087107Y-91079225D01*
X156113128Y-91095575D01*
X156139835Y-91107466D01*
X156189633Y-91143646D01*
X156238792Y-91174535D01*
X156256444Y-91192187D01*
X156275084Y-91205730D01*
X156321165Y-91256908D01*
X156365465Y-91301208D01*
X156375654Y-91317424D01*
X156386946Y-91329965D01*
X156425573Y-91396870D01*
X156460775Y-91452893D01*
X156465170Y-91465453D01*
X156470535Y-91474746D01*
X156498010Y-91559305D01*
X156519942Y-91621983D01*
X156520773Y-91629363D01*
X156522195Y-91633738D01*
X156535076Y-91756306D01*
X156540000Y-91800000D01*
X156535076Y-91843697D01*
X156522195Y-91966261D01*
X156520773Y-91970635D01*
X156519942Y-91978017D01*
X156498005Y-92040707D01*
X156470535Y-92125253D01*
X156465171Y-92134543D01*
X156460775Y-92147107D01*
X156425566Y-92203140D01*
X156386946Y-92270034D01*
X156375656Y-92282572D01*
X156365465Y-92298792D01*
X156321155Y-92343101D01*
X156275084Y-92394269D01*
X156256448Y-92407808D01*
X156238792Y-92425465D01*
X156189623Y-92456359D01*
X156139835Y-92492533D01*
X156113134Y-92504421D01*
X156087107Y-92520775D01*
X156037107Y-92538270D01*
X155987110Y-92560531D01*
X155952414Y-92567905D01*
X155918017Y-92579942D01*
X155870715Y-92585271D01*
X155823588Y-92595289D01*
X155781811Y-92595289D01*
X155740000Y-92600000D01*
X155698189Y-92595289D01*
X155656412Y-92595289D01*
X155609284Y-92585271D01*
X155561983Y-92579942D01*
X155527586Y-92567906D01*
X155492889Y-92560531D01*
X155442887Y-92538268D01*
X155392893Y-92520775D01*
X155366868Y-92504422D01*
X155340164Y-92492533D01*
X155290369Y-92456355D01*
X155241208Y-92425465D01*
X155223554Y-92407811D01*
X155204915Y-92394269D01*
X155158833Y-92343090D01*
X155114535Y-92298792D01*
X155104345Y-92282575D01*
X155093053Y-92270034D01*
X155054420Y-92203120D01*
X155019225Y-92147107D01*
X155014830Y-92134547D01*
X155009464Y-92125253D01*
X154981980Y-92040667D01*
X154960058Y-91978017D01*
X154959226Y-91970639D01*
X154957804Y-91966261D01*
X154944908Y-91843565D01*
X154940000Y-91800000D01*
X154944908Y-91756438D01*
X154957804Y-91633738D01*
X154959226Y-91629358D01*
X154960058Y-91621983D01*
X154981975Y-91559345D01*
X155009464Y-91474746D01*
X155014831Y-91465449D01*
X155019225Y-91452893D01*
X155054413Y-91396890D01*
X155093053Y-91329965D01*
X155104347Y-91317421D01*
X155114535Y-91301208D01*
X155158826Y-91256916D01*
X155204917Y-91205728D01*
X155223559Y-91192183D01*
X155241208Y-91174535D01*
X155290354Y-91143654D01*
X155340162Y-91107467D01*
X155366873Y-91095574D01*
X155392893Y-91079225D01*
X155442877Y-91061734D01*
X155492889Y-91039468D01*
X155527592Y-91032091D01*
X155561983Y-91020058D01*
X155609281Y-91014728D01*
X155656412Y-91004711D01*
X155698189Y-91004711D01*
X155740000Y-91000000D01*
X155781811Y-91004711D01*
G37*
G36*
X140541811Y-88464711D02*
G01*
X140583588Y-88464711D01*
X140630718Y-88474728D01*
X140678017Y-88480058D01*
X140712408Y-88492092D01*
X140747110Y-88499468D01*
X140797117Y-88521733D01*
X140847107Y-88539225D01*
X140873128Y-88555575D01*
X140899835Y-88567466D01*
X140949633Y-88603646D01*
X140998792Y-88634535D01*
X141016444Y-88652187D01*
X141035084Y-88665730D01*
X141081165Y-88716908D01*
X141125465Y-88761208D01*
X141135654Y-88777424D01*
X141146946Y-88789965D01*
X141185573Y-88856870D01*
X141220775Y-88912893D01*
X141225170Y-88925453D01*
X141230535Y-88934746D01*
X141258010Y-89019305D01*
X141279942Y-89081983D01*
X141280773Y-89089363D01*
X141282195Y-89093738D01*
X141295076Y-89216306D01*
X141300000Y-89260000D01*
X141295076Y-89303697D01*
X141282195Y-89426261D01*
X141280773Y-89430635D01*
X141279942Y-89438017D01*
X141258005Y-89500707D01*
X141230535Y-89585253D01*
X141225171Y-89594543D01*
X141220775Y-89607107D01*
X141185566Y-89663140D01*
X141146946Y-89730034D01*
X141135656Y-89742572D01*
X141125465Y-89758792D01*
X141081155Y-89803101D01*
X141035084Y-89854269D01*
X141016448Y-89867808D01*
X140998792Y-89885465D01*
X140949623Y-89916359D01*
X140899835Y-89952533D01*
X140873134Y-89964421D01*
X140847107Y-89980775D01*
X140797107Y-89998270D01*
X140747110Y-90020531D01*
X140712414Y-90027905D01*
X140678017Y-90039942D01*
X140630715Y-90045271D01*
X140583588Y-90055289D01*
X140541811Y-90055289D01*
X140500000Y-90060000D01*
X140458189Y-90055289D01*
X140416412Y-90055289D01*
X140369284Y-90045271D01*
X140321983Y-90039942D01*
X140287586Y-90027906D01*
X140252889Y-90020531D01*
X140202887Y-89998268D01*
X140152893Y-89980775D01*
X140126868Y-89964422D01*
X140100164Y-89952533D01*
X140050369Y-89916355D01*
X140001208Y-89885465D01*
X139983554Y-89867811D01*
X139964915Y-89854269D01*
X139918833Y-89803090D01*
X139874535Y-89758792D01*
X139864345Y-89742575D01*
X139853053Y-89730034D01*
X139814420Y-89663120D01*
X139779225Y-89607107D01*
X139774830Y-89594547D01*
X139769464Y-89585253D01*
X139741980Y-89500667D01*
X139720058Y-89438017D01*
X139719226Y-89430639D01*
X139717804Y-89426261D01*
X139704908Y-89303565D01*
X139700000Y-89260000D01*
X139704908Y-89216438D01*
X139717804Y-89093738D01*
X139719226Y-89089358D01*
X139720058Y-89081983D01*
X139741975Y-89019345D01*
X139769464Y-88934746D01*
X139774831Y-88925449D01*
X139779225Y-88912893D01*
X139814413Y-88856890D01*
X139853053Y-88789965D01*
X139864347Y-88777421D01*
X139874535Y-88761208D01*
X139918826Y-88716916D01*
X139964917Y-88665728D01*
X139983559Y-88652183D01*
X140001208Y-88634535D01*
X140050354Y-88603654D01*
X140100162Y-88567467D01*
X140126873Y-88555574D01*
X140152893Y-88539225D01*
X140202877Y-88521734D01*
X140252889Y-88499468D01*
X140287592Y-88492091D01*
X140321983Y-88480058D01*
X140369281Y-88474728D01*
X140416412Y-88464711D01*
X140458189Y-88464711D01*
X140500000Y-88460000D01*
X140541811Y-88464711D01*
G37*
G36*
X155781811Y-88464711D02*
G01*
X155823588Y-88464711D01*
X155870718Y-88474728D01*
X155918017Y-88480058D01*
X155952408Y-88492092D01*
X155987110Y-88499468D01*
X156037117Y-88521733D01*
X156087107Y-88539225D01*
X156113128Y-88555575D01*
X156139835Y-88567466D01*
X156189633Y-88603646D01*
X156238792Y-88634535D01*
X156256444Y-88652187D01*
X156275084Y-88665730D01*
X156321165Y-88716908D01*
X156365465Y-88761208D01*
X156375654Y-88777424D01*
X156386946Y-88789965D01*
X156425573Y-88856870D01*
X156460775Y-88912893D01*
X156465170Y-88925453D01*
X156470535Y-88934746D01*
X156498010Y-89019305D01*
X156519942Y-89081983D01*
X156520773Y-89089363D01*
X156522195Y-89093738D01*
X156535076Y-89216306D01*
X156540000Y-89260000D01*
X156535076Y-89303697D01*
X156522195Y-89426261D01*
X156520773Y-89430635D01*
X156519942Y-89438017D01*
X156498005Y-89500707D01*
X156470535Y-89585253D01*
X156465171Y-89594543D01*
X156460775Y-89607107D01*
X156425566Y-89663140D01*
X156386946Y-89730034D01*
X156375656Y-89742572D01*
X156365465Y-89758792D01*
X156321155Y-89803101D01*
X156275084Y-89854269D01*
X156256448Y-89867808D01*
X156238792Y-89885465D01*
X156189623Y-89916359D01*
X156139835Y-89952533D01*
X156113134Y-89964421D01*
X156087107Y-89980775D01*
X156037107Y-89998270D01*
X155987110Y-90020531D01*
X155952414Y-90027905D01*
X155918017Y-90039942D01*
X155870715Y-90045271D01*
X155823588Y-90055289D01*
X155781811Y-90055289D01*
X155740000Y-90060000D01*
X155698189Y-90055289D01*
X155656412Y-90055289D01*
X155609284Y-90045271D01*
X155561983Y-90039942D01*
X155527586Y-90027906D01*
X155492889Y-90020531D01*
X155442887Y-89998268D01*
X155392893Y-89980775D01*
X155366868Y-89964422D01*
X155340164Y-89952533D01*
X155290369Y-89916355D01*
X155241208Y-89885465D01*
X155223554Y-89867811D01*
X155204915Y-89854269D01*
X155158833Y-89803090D01*
X155114535Y-89758792D01*
X155104345Y-89742575D01*
X155093053Y-89730034D01*
X155054420Y-89663120D01*
X155019225Y-89607107D01*
X155014830Y-89594547D01*
X155009464Y-89585253D01*
X154981980Y-89500667D01*
X154960058Y-89438017D01*
X154959226Y-89430639D01*
X154957804Y-89426261D01*
X154944908Y-89303565D01*
X154940000Y-89260000D01*
X154944908Y-89216438D01*
X154957804Y-89093738D01*
X154959226Y-89089358D01*
X154960058Y-89081983D01*
X154981975Y-89019345D01*
X155009464Y-88934746D01*
X155014831Y-88925449D01*
X155019225Y-88912893D01*
X155054413Y-88856890D01*
X155093053Y-88789965D01*
X155104347Y-88777421D01*
X155114535Y-88761208D01*
X155158826Y-88716916D01*
X155204917Y-88665728D01*
X155223559Y-88652183D01*
X155241208Y-88634535D01*
X155290354Y-88603654D01*
X155340162Y-88567467D01*
X155366873Y-88555574D01*
X155392893Y-88539225D01*
X155442877Y-88521734D01*
X155492889Y-88499468D01*
X155527592Y-88492091D01*
X155561983Y-88480058D01*
X155609281Y-88474728D01*
X155656412Y-88464711D01*
X155698189Y-88464711D01*
X155740000Y-88460000D01*
X155781811Y-88464711D01*
G37*
G36*
X135604850Y-86925964D02*
G01*
X135655040Y-86931787D01*
X135672189Y-86939359D01*
X135695671Y-86944030D01*
X135720810Y-86960827D01*
X135740696Y-86969608D01*
X135754277Y-86983189D01*
X135776777Y-86998223D01*
X135791810Y-87020722D01*
X135805391Y-87034303D01*
X135814170Y-87054186D01*
X135830970Y-87079329D01*
X135835641Y-87102812D01*
X135843212Y-87119959D01*
X135849033Y-87170139D01*
X135850000Y-87175000D01*
X135850000Y-88625000D01*
X135849032Y-88629863D01*
X135843212Y-88680040D01*
X135835641Y-88697185D01*
X135830970Y-88720671D01*
X135814169Y-88745815D01*
X135805391Y-88765696D01*
X135791812Y-88779274D01*
X135776777Y-88801777D01*
X135754274Y-88816812D01*
X135740696Y-88830391D01*
X135720815Y-88839169D01*
X135695671Y-88855970D01*
X135672185Y-88860641D01*
X135655040Y-88868212D01*
X135604861Y-88874032D01*
X135600000Y-88875000D01*
X134400000Y-88875000D01*
X134395138Y-88874032D01*
X134344959Y-88868212D01*
X134327812Y-88860641D01*
X134304329Y-88855970D01*
X134279186Y-88839170D01*
X134259303Y-88830391D01*
X134245722Y-88816810D01*
X134223223Y-88801777D01*
X134208189Y-88779277D01*
X134194608Y-88765696D01*
X134185827Y-88745810D01*
X134169030Y-88720671D01*
X134164359Y-88697189D01*
X134156787Y-88680040D01*
X134150964Y-88629849D01*
X134150000Y-88625000D01*
X134150000Y-87175000D01*
X134150964Y-87170150D01*
X134156787Y-87119959D01*
X134164359Y-87102808D01*
X134169030Y-87079329D01*
X134185826Y-87054191D01*
X134194608Y-87034303D01*
X134208191Y-87020719D01*
X134223223Y-86998223D01*
X134245719Y-86983191D01*
X134259303Y-86969608D01*
X134279191Y-86960826D01*
X134304329Y-86944030D01*
X134327808Y-86939359D01*
X134344959Y-86931787D01*
X134395151Y-86925964D01*
X134400000Y-86925000D01*
X135600000Y-86925000D01*
X135604850Y-86925964D01*
G37*
G36*
X130246742Y-86961601D02*
G01*
X130400687Y-87025367D01*
X130539234Y-87117941D01*
X130657059Y-87235766D01*
X130749633Y-87374313D01*
X130813399Y-87528258D01*
X130845907Y-87691685D01*
X130850000Y-87775000D01*
X130850000Y-88025000D01*
X130845907Y-88108315D01*
X130813399Y-88271742D01*
X130749633Y-88425687D01*
X130657059Y-88564234D01*
X130539234Y-88682059D01*
X130400687Y-88774633D01*
X130246742Y-88838399D01*
X130083315Y-88870907D01*
X129916685Y-88870907D01*
X129753258Y-88838399D01*
X129599313Y-88774633D01*
X129460766Y-88682059D01*
X129342941Y-88564234D01*
X129250367Y-88425687D01*
X129186601Y-88271742D01*
X129154093Y-88108315D01*
X129150000Y-88025000D01*
X129150000Y-87775000D01*
X129154093Y-87691685D01*
X129186601Y-87528258D01*
X129250367Y-87374313D01*
X129342941Y-87235766D01*
X129460766Y-87117941D01*
X129599313Y-87025367D01*
X129753258Y-86961601D01*
X129916685Y-86929093D01*
X130083315Y-86929093D01*
X130246742Y-86961601D01*
G37*
G36*
X132746742Y-86961601D02*
G01*
X132900687Y-87025367D01*
X133039234Y-87117941D01*
X133157059Y-87235766D01*
X133249633Y-87374313D01*
X133313399Y-87528258D01*
X133345907Y-87691685D01*
X133350000Y-87775000D01*
X133350000Y-88025000D01*
X133345907Y-88108315D01*
X133313399Y-88271742D01*
X133249633Y-88425687D01*
X133157059Y-88564234D01*
X133039234Y-88682059D01*
X132900687Y-88774633D01*
X132746742Y-88838399D01*
X132583315Y-88870907D01*
X132416685Y-88870907D01*
X132253258Y-88838399D01*
X132099313Y-88774633D01*
X131960766Y-88682059D01*
X131842941Y-88564234D01*
X131750367Y-88425687D01*
X131686601Y-88271742D01*
X131654093Y-88108315D01*
X131650000Y-88025000D01*
X131650000Y-87775000D01*
X131654093Y-87691685D01*
X131686601Y-87528258D01*
X131750367Y-87374313D01*
X131842941Y-87235766D01*
X131960766Y-87117941D01*
X132099313Y-87025367D01*
X132253258Y-86961601D01*
X132416685Y-86929093D01*
X132583315Y-86929093D01*
X132746742Y-86961601D01*
G37*
G36*
X140541811Y-85924711D02*
G01*
X140583588Y-85924711D01*
X140630718Y-85934728D01*
X140678017Y-85940058D01*
X140712408Y-85952092D01*
X140747110Y-85959468D01*
X140797117Y-85981733D01*
X140847107Y-85999225D01*
X140873128Y-86015575D01*
X140899835Y-86027466D01*
X140949633Y-86063646D01*
X140998792Y-86094535D01*
X141016444Y-86112187D01*
X141035084Y-86125730D01*
X141081165Y-86176908D01*
X141125465Y-86221208D01*
X141135654Y-86237424D01*
X141146946Y-86249965D01*
X141185573Y-86316870D01*
X141220775Y-86372893D01*
X141225170Y-86385453D01*
X141230535Y-86394746D01*
X141258010Y-86479305D01*
X141279942Y-86541983D01*
X141280773Y-86549363D01*
X141282195Y-86553738D01*
X141295076Y-86676306D01*
X141300000Y-86720000D01*
X141295076Y-86763697D01*
X141282195Y-86886261D01*
X141280773Y-86890635D01*
X141279942Y-86898017D01*
X141258005Y-86960707D01*
X141230535Y-87045253D01*
X141225171Y-87054543D01*
X141220775Y-87067107D01*
X141185566Y-87123140D01*
X141146946Y-87190034D01*
X141135656Y-87202572D01*
X141125465Y-87218792D01*
X141081155Y-87263101D01*
X141035084Y-87314269D01*
X141016448Y-87327808D01*
X140998792Y-87345465D01*
X140949623Y-87376359D01*
X140899835Y-87412533D01*
X140873134Y-87424421D01*
X140847107Y-87440775D01*
X140797107Y-87458270D01*
X140747110Y-87480531D01*
X140712414Y-87487905D01*
X140678017Y-87499942D01*
X140630715Y-87505271D01*
X140583588Y-87515289D01*
X140541811Y-87515289D01*
X140500000Y-87520000D01*
X140458189Y-87515289D01*
X140416412Y-87515289D01*
X140369284Y-87505271D01*
X140321983Y-87499942D01*
X140287586Y-87487906D01*
X140252889Y-87480531D01*
X140202887Y-87458268D01*
X140152893Y-87440775D01*
X140126868Y-87424422D01*
X140100164Y-87412533D01*
X140050369Y-87376355D01*
X140001208Y-87345465D01*
X139983554Y-87327811D01*
X139964915Y-87314269D01*
X139918833Y-87263090D01*
X139874535Y-87218792D01*
X139864345Y-87202575D01*
X139853053Y-87190034D01*
X139814420Y-87123120D01*
X139779225Y-87067107D01*
X139774830Y-87054547D01*
X139769464Y-87045253D01*
X139741980Y-86960667D01*
X139720058Y-86898017D01*
X139719226Y-86890639D01*
X139717804Y-86886261D01*
X139704908Y-86763565D01*
X139700000Y-86720000D01*
X139704908Y-86676438D01*
X139717804Y-86553738D01*
X139719226Y-86549358D01*
X139720058Y-86541983D01*
X139741975Y-86479345D01*
X139769464Y-86394746D01*
X139774831Y-86385449D01*
X139779225Y-86372893D01*
X139814413Y-86316890D01*
X139853053Y-86249965D01*
X139864347Y-86237421D01*
X139874535Y-86221208D01*
X139918826Y-86176916D01*
X139964917Y-86125728D01*
X139983559Y-86112183D01*
X140001208Y-86094535D01*
X140050354Y-86063654D01*
X140100162Y-86027467D01*
X140126873Y-86015574D01*
X140152893Y-85999225D01*
X140202877Y-85981734D01*
X140252889Y-85959468D01*
X140287592Y-85952091D01*
X140321983Y-85940058D01*
X140369281Y-85934728D01*
X140416412Y-85924711D01*
X140458189Y-85924711D01*
X140500000Y-85920000D01*
X140541811Y-85924711D01*
G37*
G36*
X155781811Y-85924711D02*
G01*
X155823588Y-85924711D01*
X155870718Y-85934728D01*
X155918017Y-85940058D01*
X155952408Y-85952092D01*
X155987110Y-85959468D01*
X156037117Y-85981733D01*
X156087107Y-85999225D01*
X156113128Y-86015575D01*
X156139835Y-86027466D01*
X156189633Y-86063646D01*
X156238792Y-86094535D01*
X156256444Y-86112187D01*
X156275084Y-86125730D01*
X156321165Y-86176908D01*
X156365465Y-86221208D01*
X156375654Y-86237424D01*
X156386946Y-86249965D01*
X156425573Y-86316870D01*
X156460775Y-86372893D01*
X156465170Y-86385453D01*
X156470535Y-86394746D01*
X156498010Y-86479305D01*
X156519942Y-86541983D01*
X156520773Y-86549363D01*
X156522195Y-86553738D01*
X156535076Y-86676306D01*
X156540000Y-86720000D01*
X156535076Y-86763697D01*
X156522195Y-86886261D01*
X156520773Y-86890635D01*
X156519942Y-86898017D01*
X156498005Y-86960707D01*
X156470535Y-87045253D01*
X156465171Y-87054543D01*
X156460775Y-87067107D01*
X156425566Y-87123140D01*
X156386946Y-87190034D01*
X156375656Y-87202572D01*
X156365465Y-87218792D01*
X156321155Y-87263101D01*
X156275084Y-87314269D01*
X156256448Y-87327808D01*
X156238792Y-87345465D01*
X156189623Y-87376359D01*
X156139835Y-87412533D01*
X156113134Y-87424421D01*
X156087107Y-87440775D01*
X156037107Y-87458270D01*
X155987110Y-87480531D01*
X155952414Y-87487905D01*
X155918017Y-87499942D01*
X155870715Y-87505271D01*
X155823588Y-87515289D01*
X155781811Y-87515289D01*
X155740000Y-87520000D01*
X155698189Y-87515289D01*
X155656412Y-87515289D01*
X155609284Y-87505271D01*
X155561983Y-87499942D01*
X155527586Y-87487906D01*
X155492889Y-87480531D01*
X155442887Y-87458268D01*
X155392893Y-87440775D01*
X155366868Y-87424422D01*
X155340164Y-87412533D01*
X155290369Y-87376355D01*
X155241208Y-87345465D01*
X155223554Y-87327811D01*
X155204915Y-87314269D01*
X155158833Y-87263090D01*
X155114535Y-87218792D01*
X155104345Y-87202575D01*
X155093053Y-87190034D01*
X155054420Y-87123120D01*
X155019225Y-87067107D01*
X155014830Y-87054547D01*
X155009464Y-87045253D01*
X154981980Y-86960667D01*
X154960058Y-86898017D01*
X154959226Y-86890639D01*
X154957804Y-86886261D01*
X154944908Y-86763565D01*
X154940000Y-86720000D01*
X154944908Y-86676438D01*
X154957804Y-86553738D01*
X154959226Y-86549358D01*
X154960058Y-86541983D01*
X154981975Y-86479345D01*
X155009464Y-86394746D01*
X155014831Y-86385449D01*
X155019225Y-86372893D01*
X155054413Y-86316890D01*
X155093053Y-86249965D01*
X155104347Y-86237421D01*
X155114535Y-86221208D01*
X155158826Y-86176916D01*
X155204917Y-86125728D01*
X155223559Y-86112183D01*
X155241208Y-86094535D01*
X155290354Y-86063654D01*
X155340162Y-86027467D01*
X155366873Y-86015574D01*
X155392893Y-85999225D01*
X155442877Y-85981734D01*
X155492889Y-85959468D01*
X155527592Y-85952091D01*
X155561983Y-85940058D01*
X155609281Y-85934728D01*
X155656412Y-85924711D01*
X155698189Y-85924711D01*
X155740000Y-85920000D01*
X155781811Y-85924711D01*
G37*
G36*
X140541811Y-83384711D02*
G01*
X140583588Y-83384711D01*
X140630718Y-83394728D01*
X140678017Y-83400058D01*
X140712408Y-83412092D01*
X140747110Y-83419468D01*
X140797117Y-83441733D01*
X140847107Y-83459225D01*
X140873128Y-83475575D01*
X140899835Y-83487466D01*
X140949633Y-83523646D01*
X140998792Y-83554535D01*
X141016444Y-83572187D01*
X141035084Y-83585730D01*
X141081165Y-83636908D01*
X141125465Y-83681208D01*
X141135654Y-83697424D01*
X141146946Y-83709965D01*
X141185573Y-83776870D01*
X141220775Y-83832893D01*
X141225170Y-83845453D01*
X141230535Y-83854746D01*
X141258010Y-83939305D01*
X141279942Y-84001983D01*
X141280773Y-84009363D01*
X141282195Y-84013738D01*
X141295076Y-84136306D01*
X141300000Y-84180000D01*
X141295076Y-84223697D01*
X141282195Y-84346261D01*
X141280773Y-84350635D01*
X141279942Y-84358017D01*
X141258005Y-84420707D01*
X141230535Y-84505253D01*
X141225171Y-84514543D01*
X141220775Y-84527107D01*
X141185566Y-84583140D01*
X141146946Y-84650034D01*
X141135656Y-84662572D01*
X141125465Y-84678792D01*
X141081155Y-84723101D01*
X141035084Y-84774269D01*
X141016448Y-84787808D01*
X140998792Y-84805465D01*
X140949623Y-84836359D01*
X140899835Y-84872533D01*
X140873134Y-84884421D01*
X140847107Y-84900775D01*
X140797107Y-84918270D01*
X140747110Y-84940531D01*
X140712414Y-84947905D01*
X140678017Y-84959942D01*
X140630715Y-84965271D01*
X140583588Y-84975289D01*
X140541811Y-84975289D01*
X140500000Y-84980000D01*
X140458189Y-84975289D01*
X140416412Y-84975289D01*
X140369284Y-84965271D01*
X140321983Y-84959942D01*
X140287586Y-84947906D01*
X140252889Y-84940531D01*
X140202887Y-84918268D01*
X140152893Y-84900775D01*
X140126868Y-84884422D01*
X140100164Y-84872533D01*
X140050369Y-84836355D01*
X140001208Y-84805465D01*
X139983554Y-84787811D01*
X139964915Y-84774269D01*
X139918833Y-84723090D01*
X139874535Y-84678792D01*
X139864345Y-84662575D01*
X139853053Y-84650034D01*
X139814420Y-84583120D01*
X139779225Y-84527107D01*
X139774830Y-84514547D01*
X139769464Y-84505253D01*
X139741980Y-84420667D01*
X139720058Y-84358017D01*
X139719226Y-84350639D01*
X139717804Y-84346261D01*
X139704908Y-84223565D01*
X139700000Y-84180000D01*
X139704908Y-84136438D01*
X139717804Y-84013738D01*
X139719226Y-84009358D01*
X139720058Y-84001983D01*
X139741975Y-83939345D01*
X139769464Y-83854746D01*
X139774831Y-83845449D01*
X139779225Y-83832893D01*
X139814413Y-83776890D01*
X139853053Y-83709965D01*
X139864347Y-83697421D01*
X139874535Y-83681208D01*
X139918826Y-83636916D01*
X139964917Y-83585728D01*
X139983559Y-83572183D01*
X140001208Y-83554535D01*
X140050354Y-83523654D01*
X140100162Y-83487467D01*
X140126873Y-83475574D01*
X140152893Y-83459225D01*
X140202877Y-83441734D01*
X140252889Y-83419468D01*
X140287592Y-83412091D01*
X140321983Y-83400058D01*
X140369281Y-83394728D01*
X140416412Y-83384711D01*
X140458189Y-83384711D01*
X140500000Y-83380000D01*
X140541811Y-83384711D01*
G37*
G36*
X155781811Y-83384711D02*
G01*
X155823588Y-83384711D01*
X155870718Y-83394728D01*
X155918017Y-83400058D01*
X155952408Y-83412092D01*
X155987110Y-83419468D01*
X156037117Y-83441733D01*
X156087107Y-83459225D01*
X156113128Y-83475575D01*
X156139835Y-83487466D01*
X156189633Y-83523646D01*
X156238792Y-83554535D01*
X156256444Y-83572187D01*
X156275084Y-83585730D01*
X156321165Y-83636908D01*
X156365465Y-83681208D01*
X156375654Y-83697424D01*
X156386946Y-83709965D01*
X156425573Y-83776870D01*
X156460775Y-83832893D01*
X156465170Y-83845453D01*
X156470535Y-83854746D01*
X156498010Y-83939305D01*
X156519942Y-84001983D01*
X156520773Y-84009363D01*
X156522195Y-84013738D01*
X156535076Y-84136306D01*
X156540000Y-84180000D01*
X156535076Y-84223697D01*
X156522195Y-84346261D01*
X156520773Y-84350635D01*
X156519942Y-84358017D01*
X156498005Y-84420707D01*
X156470535Y-84505253D01*
X156465171Y-84514543D01*
X156460775Y-84527107D01*
X156425566Y-84583140D01*
X156386946Y-84650034D01*
X156375656Y-84662572D01*
X156365465Y-84678792D01*
X156321155Y-84723101D01*
X156275084Y-84774269D01*
X156256448Y-84787808D01*
X156238792Y-84805465D01*
X156189623Y-84836359D01*
X156139835Y-84872533D01*
X156113134Y-84884421D01*
X156087107Y-84900775D01*
X156037107Y-84918270D01*
X155987110Y-84940531D01*
X155952414Y-84947905D01*
X155918017Y-84959942D01*
X155870715Y-84965271D01*
X155823588Y-84975289D01*
X155781811Y-84975289D01*
X155740000Y-84980000D01*
X155698189Y-84975289D01*
X155656412Y-84975289D01*
X155609284Y-84965271D01*
X155561983Y-84959942D01*
X155527586Y-84947906D01*
X155492889Y-84940531D01*
X155442887Y-84918268D01*
X155392893Y-84900775D01*
X155366868Y-84884422D01*
X155340164Y-84872533D01*
X155290369Y-84836355D01*
X155241208Y-84805465D01*
X155223554Y-84787811D01*
X155204915Y-84774269D01*
X155158833Y-84723090D01*
X155114535Y-84678792D01*
X155104345Y-84662575D01*
X155093053Y-84650034D01*
X155054420Y-84583120D01*
X155019225Y-84527107D01*
X155014830Y-84514547D01*
X155009464Y-84505253D01*
X154981980Y-84420667D01*
X154960058Y-84358017D01*
X154959226Y-84350639D01*
X154957804Y-84346261D01*
X154944908Y-84223565D01*
X154940000Y-84180000D01*
X154944908Y-84136438D01*
X154957804Y-84013738D01*
X154959226Y-84009358D01*
X154960058Y-84001983D01*
X154981975Y-83939345D01*
X155009464Y-83854746D01*
X155014831Y-83845449D01*
X155019225Y-83832893D01*
X155054413Y-83776890D01*
X155093053Y-83709965D01*
X155104347Y-83697421D01*
X155114535Y-83681208D01*
X155158826Y-83636916D01*
X155204917Y-83585728D01*
X155223559Y-83572183D01*
X155241208Y-83554535D01*
X155290354Y-83523654D01*
X155340162Y-83487467D01*
X155366873Y-83475574D01*
X155392893Y-83459225D01*
X155442877Y-83441734D01*
X155492889Y-83419468D01*
X155527592Y-83412091D01*
X155561983Y-83400058D01*
X155609281Y-83394728D01*
X155656412Y-83384711D01*
X155698189Y-83384711D01*
X155740000Y-83380000D01*
X155781811Y-83384711D01*
G37*
G36*
X141300000Y-82440000D02*
G01*
X139700000Y-82440000D01*
X139700000Y-80840000D01*
X141300000Y-80840000D01*
X141300000Y-82440000D01*
G37*
G36*
X155781811Y-80844711D02*
G01*
X155823588Y-80844711D01*
X155870718Y-80854728D01*
X155918017Y-80860058D01*
X155952408Y-80872092D01*
X155987110Y-80879468D01*
X156037117Y-80901733D01*
X156087107Y-80919225D01*
X156113128Y-80935575D01*
X156139835Y-80947466D01*
X156189633Y-80983646D01*
X156238792Y-81014535D01*
X156256444Y-81032187D01*
X156275084Y-81045730D01*
X156321165Y-81096908D01*
X156365465Y-81141208D01*
X156375654Y-81157424D01*
X156386946Y-81169965D01*
X156425573Y-81236870D01*
X156460775Y-81292893D01*
X156465170Y-81305453D01*
X156470535Y-81314746D01*
X156498010Y-81399305D01*
X156519942Y-81461983D01*
X156520773Y-81469363D01*
X156522195Y-81473738D01*
X156535076Y-81596306D01*
X156540000Y-81640000D01*
X156535076Y-81683697D01*
X156522195Y-81806261D01*
X156520773Y-81810635D01*
X156519942Y-81818017D01*
X156498005Y-81880707D01*
X156470535Y-81965253D01*
X156465171Y-81974543D01*
X156460775Y-81987107D01*
X156425566Y-82043140D01*
X156386946Y-82110034D01*
X156375656Y-82122572D01*
X156365465Y-82138792D01*
X156321155Y-82183101D01*
X156275084Y-82234269D01*
X156256448Y-82247808D01*
X156238792Y-82265465D01*
X156189623Y-82296359D01*
X156139835Y-82332533D01*
X156113134Y-82344421D01*
X156087107Y-82360775D01*
X156037107Y-82378270D01*
X155987110Y-82400531D01*
X155952414Y-82407905D01*
X155918017Y-82419942D01*
X155870715Y-82425271D01*
X155823588Y-82435289D01*
X155781811Y-82435289D01*
X155740000Y-82440000D01*
X155698189Y-82435289D01*
X155656412Y-82435289D01*
X155609284Y-82425271D01*
X155561983Y-82419942D01*
X155527586Y-82407906D01*
X155492889Y-82400531D01*
X155442887Y-82378268D01*
X155392893Y-82360775D01*
X155366868Y-82344422D01*
X155340164Y-82332533D01*
X155290369Y-82296355D01*
X155241208Y-82265465D01*
X155223554Y-82247811D01*
X155204915Y-82234269D01*
X155158833Y-82183090D01*
X155114535Y-82138792D01*
X155104345Y-82122575D01*
X155093053Y-82110034D01*
X155054420Y-82043120D01*
X155019225Y-81987107D01*
X155014830Y-81974547D01*
X155009464Y-81965253D01*
X154981980Y-81880667D01*
X154960058Y-81818017D01*
X154959226Y-81810639D01*
X154957804Y-81806261D01*
X154944908Y-81683565D01*
X154940000Y-81640000D01*
X154944908Y-81596438D01*
X154957804Y-81473738D01*
X154959226Y-81469358D01*
X154960058Y-81461983D01*
X154981975Y-81399345D01*
X155009464Y-81314746D01*
X155014831Y-81305449D01*
X155019225Y-81292893D01*
X155054413Y-81236890D01*
X155093053Y-81169965D01*
X155104347Y-81157421D01*
X155114535Y-81141208D01*
X155158826Y-81096916D01*
X155204917Y-81045728D01*
X155223559Y-81032183D01*
X155241208Y-81014535D01*
X155290354Y-80983654D01*
X155340162Y-80947467D01*
X155366873Y-80935574D01*
X155392893Y-80919225D01*
X155442877Y-80901734D01*
X155492889Y-80879468D01*
X155527592Y-80872091D01*
X155561983Y-80860058D01*
X155609281Y-80854728D01*
X155656412Y-80844711D01*
X155698189Y-80844711D01*
X155740000Y-80840000D01*
X155781811Y-80844711D01*
G37*
G36*
X130150000Y-80750000D02*
G01*
X128450000Y-80750000D01*
X128450000Y-79050000D01*
X130150000Y-79050000D01*
X130150000Y-80750000D01*
G37*
G36*
X135200000Y-79600000D02*
G01*
X133600000Y-79600000D01*
X133600000Y-78000000D01*
X135200000Y-78000000D01*
X135200000Y-79600000D01*
G37*
G36*
X136441811Y-78004711D02*
G01*
X136483588Y-78004711D01*
X136530718Y-78014728D01*
X136578017Y-78020058D01*
X136612408Y-78032092D01*
X136647110Y-78039468D01*
X136697117Y-78061733D01*
X136747107Y-78079225D01*
X136773128Y-78095575D01*
X136799835Y-78107466D01*
X136849633Y-78143646D01*
X136898792Y-78174535D01*
X136916444Y-78192187D01*
X136935084Y-78205730D01*
X136981165Y-78256908D01*
X137025465Y-78301208D01*
X137035654Y-78317424D01*
X137046946Y-78329965D01*
X137085573Y-78396870D01*
X137120775Y-78452893D01*
X137125170Y-78465453D01*
X137130535Y-78474746D01*
X137158010Y-78559305D01*
X137179942Y-78621983D01*
X137180773Y-78629363D01*
X137182195Y-78633738D01*
X137195076Y-78756306D01*
X137200000Y-78800000D01*
X137195076Y-78843697D01*
X137182195Y-78966261D01*
X137180773Y-78970635D01*
X137179942Y-78978017D01*
X137158005Y-79040707D01*
X137130535Y-79125253D01*
X137125171Y-79134543D01*
X137120775Y-79147107D01*
X137085566Y-79203140D01*
X137046946Y-79270034D01*
X137035656Y-79282572D01*
X137025465Y-79298792D01*
X136981155Y-79343101D01*
X136935084Y-79394269D01*
X136916448Y-79407808D01*
X136898792Y-79425465D01*
X136849623Y-79456359D01*
X136799835Y-79492533D01*
X136773134Y-79504421D01*
X136747107Y-79520775D01*
X136697107Y-79538270D01*
X136647110Y-79560531D01*
X136612414Y-79567905D01*
X136578017Y-79579942D01*
X136530715Y-79585271D01*
X136483588Y-79595289D01*
X136441811Y-79595289D01*
X136400000Y-79600000D01*
X136358189Y-79595289D01*
X136316412Y-79595289D01*
X136269284Y-79585271D01*
X136221983Y-79579942D01*
X136187586Y-79567906D01*
X136152889Y-79560531D01*
X136102887Y-79538268D01*
X136052893Y-79520775D01*
X136026868Y-79504422D01*
X136000164Y-79492533D01*
X135950369Y-79456355D01*
X135901208Y-79425465D01*
X135883554Y-79407811D01*
X135864915Y-79394269D01*
X135818833Y-79343090D01*
X135774535Y-79298792D01*
X135764345Y-79282575D01*
X135753053Y-79270034D01*
X135714420Y-79203120D01*
X135679225Y-79147107D01*
X135674830Y-79134547D01*
X135669464Y-79125253D01*
X135641980Y-79040667D01*
X135620058Y-78978017D01*
X135619226Y-78970639D01*
X135617804Y-78966261D01*
X135604908Y-78843565D01*
X135600000Y-78800000D01*
X135604908Y-78756438D01*
X135617804Y-78633738D01*
X135619226Y-78629358D01*
X135620058Y-78621983D01*
X135641975Y-78559345D01*
X135669464Y-78474746D01*
X135674831Y-78465449D01*
X135679225Y-78452893D01*
X135714413Y-78396890D01*
X135753053Y-78329965D01*
X135764347Y-78317421D01*
X135774535Y-78301208D01*
X135818826Y-78256916D01*
X135864917Y-78205728D01*
X135883559Y-78192183D01*
X135901208Y-78174535D01*
X135950354Y-78143654D01*
X136000162Y-78107467D01*
X136026873Y-78095574D01*
X136052893Y-78079225D01*
X136102877Y-78061734D01*
X136152889Y-78039468D01*
X136187592Y-78032091D01*
X136221983Y-78020058D01*
X136269281Y-78014728D01*
X136316412Y-78004711D01*
X136358189Y-78004711D01*
X136400000Y-78000000D01*
X136441811Y-78004711D01*
G37*
G36*
X129562664Y-76551602D02*
G01*
X129725000Y-76623878D01*
X129868761Y-76728327D01*
X129987664Y-76860383D01*
X130076514Y-77014274D01*
X130131425Y-77183275D01*
X130150000Y-77360000D01*
X130131425Y-77536725D01*
X130076514Y-77705726D01*
X129987664Y-77859617D01*
X129868761Y-77991673D01*
X129725000Y-78096122D01*
X129562664Y-78168398D01*
X129388849Y-78205344D01*
X129211151Y-78205344D01*
X129037336Y-78168398D01*
X128875000Y-78096122D01*
X128731239Y-77991673D01*
X128612336Y-77859617D01*
X128523486Y-77705726D01*
X128468575Y-77536725D01*
X128450000Y-77360000D01*
X128468575Y-77183275D01*
X128523486Y-77014274D01*
X128612336Y-76860383D01*
X128731239Y-76728327D01*
X128875000Y-76623878D01*
X129037336Y-76551602D01*
X129211151Y-76514656D01*
X129388849Y-76514656D01*
X129562664Y-76551602D01*
G37*
M02*
