%TF.GenerationSoftware,KiCad,Pcbnew,8.0.4*%
%TF.CreationDate,2024-10-22T19:26:34-07:00*%
%TF.ProjectId,Valve,56616c76-652e-46b6-9963-61645f706362,rev?*%
%TF.SameCoordinates,Original*%
%TF.FileFunction,Drillmap*%
%TF.FilePolarity,Positive*%
%FSLAX45Y45*%
G04 Gerber Fmt 4.5, Leading zero omitted, Abs format (unit mm)*
G04 Created by KiCad (PCBNEW 8.0.4) date 2024-10-22 19:26:34*
%MOMM*%
%LPD*%
G01*
G04 APERTURE LIST*
%ADD10C,0.038100*%
%ADD11C,0.200000*%
%ADD12C,0.100000*%
G04 APERTURE END LIST*
D10*
X12600000Y-7500000D02*
X16100000Y-7500000D01*
X12600000Y-12600000D02*
X12600000Y-7500000D01*
X16100000Y-12600000D02*
X12600000Y-12600000D01*
X16100000Y-7500000D02*
X16100000Y-12600000D01*
D11*
D12*
X12860000Y-10760000D02*
X12940000Y-10840000D01*
X12940000Y-10760000D02*
X12860000Y-10840000D01*
X12860000Y-11260000D02*
X12940000Y-11340000D01*
X12940000Y-11260000D02*
X12860000Y-11340000D01*
X13060000Y-8660000D02*
X13140000Y-8740000D01*
X13140000Y-8660000D02*
X13060000Y-8740000D01*
X13260000Y-8660000D02*
X13340000Y-8740000D01*
X13340000Y-8660000D02*
X13260000Y-8740000D01*
X13460000Y-10760000D02*
X13540000Y-10840000D01*
X13540000Y-10760000D02*
X13460000Y-10840000D01*
X13460000Y-11260000D02*
X13540000Y-11340000D01*
X13540000Y-11260000D02*
X13460000Y-11340000D01*
X12950000Y-9600000D02*
G75*
G02*
X12850000Y-9600000I-50000J0D01*
G01*
X12850000Y-9600000D02*
G75*
G02*
X12950000Y-9600000I50000J0D01*
G01*
X12950000Y-9854000D02*
G75*
G02*
X12850000Y-9854000I-50000J0D01*
G01*
X12850000Y-9854000D02*
G75*
G02*
X12950000Y-9854000I50000J0D01*
G01*
X12950000Y-10108000D02*
G75*
G02*
X12850000Y-10108000I-50000J0D01*
G01*
X12850000Y-10108000D02*
G75*
G02*
X12950000Y-10108000I50000J0D01*
G01*
X13250000Y-7900000D02*
G75*
G02*
X13150000Y-7900000I-50000J0D01*
G01*
X13150000Y-7900000D02*
G75*
G02*
X13250000Y-7900000I50000J0D01*
G01*
X13250000Y-8154000D02*
G75*
G02*
X13150000Y-8154000I-50000J0D01*
G01*
X13150000Y-8154000D02*
G75*
G02*
X13250000Y-8154000I50000J0D01*
G01*
X13550000Y-9600000D02*
G75*
G02*
X13450000Y-9600000I-50000J0D01*
G01*
X13450000Y-9600000D02*
G75*
G02*
X13550000Y-9600000I50000J0D01*
G01*
X13550000Y-9854000D02*
G75*
G02*
X13450000Y-9854000I-50000J0D01*
G01*
X13450000Y-9854000D02*
G75*
G02*
X13550000Y-9854000I50000J0D01*
G01*
X13550000Y-10108000D02*
G75*
G02*
X13450000Y-10108000I-50000J0D01*
G01*
X13450000Y-10108000D02*
G75*
G02*
X13550000Y-10108000I50000J0D01*
G01*
X14100000Y-8164000D02*
G75*
G02*
X14000000Y-8164000I-50000J0D01*
G01*
X14000000Y-8164000D02*
G75*
G02*
X14100000Y-8164000I50000J0D01*
G01*
X14100000Y-8418000D02*
G75*
G02*
X14000000Y-8418000I-50000J0D01*
G01*
X14000000Y-8418000D02*
G75*
G02*
X14100000Y-8418000I50000J0D01*
G01*
X14100000Y-8672000D02*
G75*
G02*
X14000000Y-8672000I-50000J0D01*
G01*
X14000000Y-8672000D02*
G75*
G02*
X14100000Y-8672000I50000J0D01*
G01*
X14100000Y-8926000D02*
G75*
G02*
X14000000Y-8926000I-50000J0D01*
G01*
X14000000Y-8926000D02*
G75*
G02*
X14100000Y-8926000I50000J0D01*
G01*
X14100000Y-9180000D02*
G75*
G02*
X14000000Y-9180000I-50000J0D01*
G01*
X14000000Y-9180000D02*
G75*
G02*
X14100000Y-9180000I50000J0D01*
G01*
X14100000Y-9434000D02*
G75*
G02*
X14000000Y-9434000I-50000J0D01*
G01*
X14000000Y-9434000D02*
G75*
G02*
X14100000Y-9434000I50000J0D01*
G01*
X14100000Y-9688000D02*
G75*
G02*
X14000000Y-9688000I-50000J0D01*
G01*
X14000000Y-9688000D02*
G75*
G02*
X14100000Y-9688000I50000J0D01*
G01*
X14100000Y-9942000D02*
G75*
G02*
X14000000Y-9942000I-50000J0D01*
G01*
X14000000Y-9942000D02*
G75*
G02*
X14100000Y-9942000I50000J0D01*
G01*
X14100000Y-10196000D02*
G75*
G02*
X14000000Y-10196000I-50000J0D01*
G01*
X14000000Y-10196000D02*
G75*
G02*
X14100000Y-10196000I50000J0D01*
G01*
X14100000Y-10450000D02*
G75*
G02*
X14000000Y-10450000I-50000J0D01*
G01*
X14000000Y-10450000D02*
G75*
G02*
X14100000Y-10450000I50000J0D01*
G01*
X14100000Y-10704000D02*
G75*
G02*
X14000000Y-10704000I-50000J0D01*
G01*
X14000000Y-10704000D02*
G75*
G02*
X14100000Y-10704000I50000J0D01*
G01*
X14100000Y-10958000D02*
G75*
G02*
X14000000Y-10958000I-50000J0D01*
G01*
X14000000Y-10958000D02*
G75*
G02*
X14100000Y-10958000I50000J0D01*
G01*
X14100000Y-11212000D02*
G75*
G02*
X14000000Y-11212000I-50000J0D01*
G01*
X14000000Y-11212000D02*
G75*
G02*
X14100000Y-11212000I50000J0D01*
G01*
X14100000Y-11466000D02*
G75*
G02*
X14000000Y-11466000I-50000J0D01*
G01*
X14000000Y-11466000D02*
G75*
G02*
X14100000Y-11466000I50000J0D01*
G01*
X14100000Y-11720000D02*
G75*
G02*
X14000000Y-11720000I-50000J0D01*
G01*
X14000000Y-11720000D02*
G75*
G02*
X14100000Y-11720000I50000J0D01*
G01*
X15624000Y-8164000D02*
G75*
G02*
X15524000Y-8164000I-50000J0D01*
G01*
X15524000Y-8164000D02*
G75*
G02*
X15624000Y-8164000I50000J0D01*
G01*
X15624000Y-8418000D02*
G75*
G02*
X15524000Y-8418000I-50000J0D01*
G01*
X15524000Y-8418000D02*
G75*
G02*
X15624000Y-8418000I50000J0D01*
G01*
X15624000Y-8672000D02*
G75*
G02*
X15524000Y-8672000I-50000J0D01*
G01*
X15524000Y-8672000D02*
G75*
G02*
X15624000Y-8672000I50000J0D01*
G01*
X15624000Y-8926000D02*
G75*
G02*
X15524000Y-8926000I-50000J0D01*
G01*
X15524000Y-8926000D02*
G75*
G02*
X15624000Y-8926000I50000J0D01*
G01*
X15624000Y-9180000D02*
G75*
G02*
X15524000Y-9180000I-50000J0D01*
G01*
X15524000Y-9180000D02*
G75*
G02*
X15624000Y-9180000I50000J0D01*
G01*
X15624000Y-9434000D02*
G75*
G02*
X15524000Y-9434000I-50000J0D01*
G01*
X15524000Y-9434000D02*
G75*
G02*
X15624000Y-9434000I50000J0D01*
G01*
X15624000Y-9688000D02*
G75*
G02*
X15524000Y-9688000I-50000J0D01*
G01*
X15524000Y-9688000D02*
G75*
G02*
X15624000Y-9688000I50000J0D01*
G01*
X15624000Y-9942000D02*
G75*
G02*
X15524000Y-9942000I-50000J0D01*
G01*
X15524000Y-9942000D02*
G75*
G02*
X15624000Y-9942000I50000J0D01*
G01*
X15624000Y-10196000D02*
G75*
G02*
X15524000Y-10196000I-50000J0D01*
G01*
X15524000Y-10196000D02*
G75*
G02*
X15624000Y-10196000I50000J0D01*
G01*
X15624000Y-10450000D02*
G75*
G02*
X15524000Y-10450000I-50000J0D01*
G01*
X15524000Y-10450000D02*
G75*
G02*
X15624000Y-10450000I50000J0D01*
G01*
X15624000Y-10704000D02*
G75*
G02*
X15524000Y-10704000I-50000J0D01*
G01*
X15524000Y-10704000D02*
G75*
G02*
X15624000Y-10704000I50000J0D01*
G01*
X15624000Y-10958000D02*
G75*
G02*
X15524000Y-10958000I-50000J0D01*
G01*
X15524000Y-10958000D02*
G75*
G02*
X15624000Y-10958000I50000J0D01*
G01*
X15624000Y-11212000D02*
G75*
G02*
X15524000Y-11212000I-50000J0D01*
G01*
X15524000Y-11212000D02*
G75*
G02*
X15624000Y-11212000I50000J0D01*
G01*
X15624000Y-11466000D02*
G75*
G02*
X15524000Y-11466000I-50000J0D01*
G01*
X15524000Y-11466000D02*
G75*
G02*
X15624000Y-11466000I50000J0D01*
G01*
X15624000Y-11720000D02*
G75*
G02*
X15524000Y-11720000I-50000J0D01*
G01*
X15524000Y-11720000D02*
G75*
G02*
X15624000Y-11720000I50000J0D01*
G01*
D11*
X12858872Y-12913389D02*
X12858872Y-12713389D01*
X12858872Y-12713389D02*
X12906491Y-12713389D01*
X12906491Y-12713389D02*
X12935062Y-12722913D01*
X12935062Y-12722913D02*
X12954110Y-12741960D01*
X12954110Y-12741960D02*
X12963634Y-12761008D01*
X12963634Y-12761008D02*
X12973157Y-12799103D01*
X12973157Y-12799103D02*
X12973157Y-12827674D01*
X12973157Y-12827674D02*
X12963634Y-12865770D01*
X12963634Y-12865770D02*
X12954110Y-12884817D01*
X12954110Y-12884817D02*
X12935062Y-12903865D01*
X12935062Y-12903865D02*
X12906491Y-12913389D01*
X12906491Y-12913389D02*
X12858872Y-12913389D01*
X13058872Y-12913389D02*
X13058872Y-12780055D01*
X13058872Y-12818151D02*
X13068396Y-12799103D01*
X13068396Y-12799103D02*
X13077919Y-12789579D01*
X13077919Y-12789579D02*
X13096967Y-12780055D01*
X13096967Y-12780055D02*
X13116015Y-12780055D01*
X13182681Y-12913389D02*
X13182681Y-12780055D01*
X13182681Y-12713389D02*
X13173157Y-12722913D01*
X13173157Y-12722913D02*
X13182681Y-12732436D01*
X13182681Y-12732436D02*
X13192205Y-12722913D01*
X13192205Y-12722913D02*
X13182681Y-12713389D01*
X13182681Y-12713389D02*
X13182681Y-12732436D01*
X13306491Y-12913389D02*
X13287443Y-12903865D01*
X13287443Y-12903865D02*
X13277919Y-12884817D01*
X13277919Y-12884817D02*
X13277919Y-12713389D01*
X13411253Y-12913389D02*
X13392205Y-12903865D01*
X13392205Y-12903865D02*
X13382681Y-12884817D01*
X13382681Y-12884817D02*
X13382681Y-12713389D01*
X13639824Y-12913389D02*
X13639824Y-12713389D01*
X13639824Y-12713389D02*
X13706491Y-12856246D01*
X13706491Y-12856246D02*
X13773157Y-12713389D01*
X13773157Y-12713389D02*
X13773157Y-12913389D01*
X13954110Y-12913389D02*
X13954110Y-12808627D01*
X13954110Y-12808627D02*
X13944586Y-12789579D01*
X13944586Y-12789579D02*
X13925538Y-12780055D01*
X13925538Y-12780055D02*
X13887443Y-12780055D01*
X13887443Y-12780055D02*
X13868396Y-12789579D01*
X13954110Y-12903865D02*
X13935062Y-12913389D01*
X13935062Y-12913389D02*
X13887443Y-12913389D01*
X13887443Y-12913389D02*
X13868396Y-12903865D01*
X13868396Y-12903865D02*
X13858872Y-12884817D01*
X13858872Y-12884817D02*
X13858872Y-12865770D01*
X13858872Y-12865770D02*
X13868396Y-12846722D01*
X13868396Y-12846722D02*
X13887443Y-12837198D01*
X13887443Y-12837198D02*
X13935062Y-12837198D01*
X13935062Y-12837198D02*
X13954110Y-12827674D01*
X14049348Y-12780055D02*
X14049348Y-12980055D01*
X14049348Y-12789579D02*
X14068396Y-12780055D01*
X14068396Y-12780055D02*
X14106491Y-12780055D01*
X14106491Y-12780055D02*
X14125538Y-12789579D01*
X14125538Y-12789579D02*
X14135062Y-12799103D01*
X14135062Y-12799103D02*
X14144586Y-12818151D01*
X14144586Y-12818151D02*
X14144586Y-12875293D01*
X14144586Y-12875293D02*
X14135062Y-12894341D01*
X14135062Y-12894341D02*
X14125538Y-12903865D01*
X14125538Y-12903865D02*
X14106491Y-12913389D01*
X14106491Y-12913389D02*
X14068396Y-12913389D01*
X14068396Y-12913389D02*
X14049348Y-12903865D01*
X14230300Y-12894341D02*
X14239824Y-12903865D01*
X14239824Y-12903865D02*
X14230300Y-12913389D01*
X14230300Y-12913389D02*
X14220777Y-12903865D01*
X14220777Y-12903865D02*
X14230300Y-12894341D01*
X14230300Y-12894341D02*
X14230300Y-12913389D01*
X14230300Y-12789579D02*
X14239824Y-12799103D01*
X14239824Y-12799103D02*
X14230300Y-12808627D01*
X14230300Y-12808627D02*
X14220777Y-12799103D01*
X14220777Y-12799103D02*
X14230300Y-12789579D01*
X14230300Y-12789579D02*
X14230300Y-12808627D01*
D12*
X12518095Y-13201905D02*
X12598095Y-13281905D01*
X12598095Y-13201905D02*
X12518095Y-13281905D01*
D11*
X12896967Y-13133389D02*
X12916015Y-13133389D01*
X12916015Y-13133389D02*
X12935062Y-13142913D01*
X12935062Y-13142913D02*
X12944586Y-13152436D01*
X12944586Y-13152436D02*
X12954110Y-13171484D01*
X12954110Y-13171484D02*
X12963634Y-13209579D01*
X12963634Y-13209579D02*
X12963634Y-13257198D01*
X12963634Y-13257198D02*
X12954110Y-13295293D01*
X12954110Y-13295293D02*
X12944586Y-13314341D01*
X12944586Y-13314341D02*
X12935062Y-13323865D01*
X12935062Y-13323865D02*
X12916015Y-13333389D01*
X12916015Y-13333389D02*
X12896967Y-13333389D01*
X12896967Y-13333389D02*
X12877919Y-13323865D01*
X12877919Y-13323865D02*
X12868396Y-13314341D01*
X12868396Y-13314341D02*
X12858872Y-13295293D01*
X12858872Y-13295293D02*
X12849348Y-13257198D01*
X12849348Y-13257198D02*
X12849348Y-13209579D01*
X12849348Y-13209579D02*
X12858872Y-13171484D01*
X12858872Y-13171484D02*
X12868396Y-13152436D01*
X12868396Y-13152436D02*
X12877919Y-13142913D01*
X12877919Y-13142913D02*
X12896967Y-13133389D01*
X13049348Y-13314341D02*
X13058872Y-13323865D01*
X13058872Y-13323865D02*
X13049348Y-13333389D01*
X13049348Y-13333389D02*
X13039824Y-13323865D01*
X13039824Y-13323865D02*
X13049348Y-13314341D01*
X13049348Y-13314341D02*
X13049348Y-13333389D01*
X13173157Y-13219103D02*
X13154110Y-13209579D01*
X13154110Y-13209579D02*
X13144586Y-13200055D01*
X13144586Y-13200055D02*
X13135062Y-13181008D01*
X13135062Y-13181008D02*
X13135062Y-13171484D01*
X13135062Y-13171484D02*
X13144586Y-13152436D01*
X13144586Y-13152436D02*
X13154110Y-13142913D01*
X13154110Y-13142913D02*
X13173157Y-13133389D01*
X13173157Y-13133389D02*
X13211253Y-13133389D01*
X13211253Y-13133389D02*
X13230300Y-13142913D01*
X13230300Y-13142913D02*
X13239824Y-13152436D01*
X13239824Y-13152436D02*
X13249348Y-13171484D01*
X13249348Y-13171484D02*
X13249348Y-13181008D01*
X13249348Y-13181008D02*
X13239824Y-13200055D01*
X13239824Y-13200055D02*
X13230300Y-13209579D01*
X13230300Y-13209579D02*
X13211253Y-13219103D01*
X13211253Y-13219103D02*
X13173157Y-13219103D01*
X13173157Y-13219103D02*
X13154110Y-13228627D01*
X13154110Y-13228627D02*
X13144586Y-13238151D01*
X13144586Y-13238151D02*
X13135062Y-13257198D01*
X13135062Y-13257198D02*
X13135062Y-13295293D01*
X13135062Y-13295293D02*
X13144586Y-13314341D01*
X13144586Y-13314341D02*
X13154110Y-13323865D01*
X13154110Y-13323865D02*
X13173157Y-13333389D01*
X13173157Y-13333389D02*
X13211253Y-13333389D01*
X13211253Y-13333389D02*
X13230300Y-13323865D01*
X13230300Y-13323865D02*
X13239824Y-13314341D01*
X13239824Y-13314341D02*
X13249348Y-13295293D01*
X13249348Y-13295293D02*
X13249348Y-13257198D01*
X13249348Y-13257198D02*
X13239824Y-13238151D01*
X13239824Y-13238151D02*
X13230300Y-13228627D01*
X13230300Y-13228627D02*
X13211253Y-13219103D01*
X13373157Y-13133389D02*
X13392205Y-13133389D01*
X13392205Y-13133389D02*
X13411253Y-13142913D01*
X13411253Y-13142913D02*
X13420777Y-13152436D01*
X13420777Y-13152436D02*
X13430300Y-13171484D01*
X13430300Y-13171484D02*
X13439824Y-13209579D01*
X13439824Y-13209579D02*
X13439824Y-13257198D01*
X13439824Y-13257198D02*
X13430300Y-13295293D01*
X13430300Y-13295293D02*
X13420777Y-13314341D01*
X13420777Y-13314341D02*
X13411253Y-13323865D01*
X13411253Y-13323865D02*
X13392205Y-13333389D01*
X13392205Y-13333389D02*
X13373157Y-13333389D01*
X13373157Y-13333389D02*
X13354110Y-13323865D01*
X13354110Y-13323865D02*
X13344586Y-13314341D01*
X13344586Y-13314341D02*
X13335062Y-13295293D01*
X13335062Y-13295293D02*
X13325538Y-13257198D01*
X13325538Y-13257198D02*
X13325538Y-13209579D01*
X13325538Y-13209579D02*
X13335062Y-13171484D01*
X13335062Y-13171484D02*
X13344586Y-13152436D01*
X13344586Y-13152436D02*
X13354110Y-13142913D01*
X13354110Y-13142913D02*
X13373157Y-13133389D01*
X13563634Y-13133389D02*
X13582681Y-13133389D01*
X13582681Y-13133389D02*
X13601729Y-13142913D01*
X13601729Y-13142913D02*
X13611253Y-13152436D01*
X13611253Y-13152436D02*
X13620777Y-13171484D01*
X13620777Y-13171484D02*
X13630300Y-13209579D01*
X13630300Y-13209579D02*
X13630300Y-13257198D01*
X13630300Y-13257198D02*
X13620777Y-13295293D01*
X13620777Y-13295293D02*
X13611253Y-13314341D01*
X13611253Y-13314341D02*
X13601729Y-13323865D01*
X13601729Y-13323865D02*
X13582681Y-13333389D01*
X13582681Y-13333389D02*
X13563634Y-13333389D01*
X13563634Y-13333389D02*
X13544586Y-13323865D01*
X13544586Y-13323865D02*
X13535062Y-13314341D01*
X13535062Y-13314341D02*
X13525538Y-13295293D01*
X13525538Y-13295293D02*
X13516015Y-13257198D01*
X13516015Y-13257198D02*
X13516015Y-13209579D01*
X13516015Y-13209579D02*
X13525538Y-13171484D01*
X13525538Y-13171484D02*
X13535062Y-13152436D01*
X13535062Y-13152436D02*
X13544586Y-13142913D01*
X13544586Y-13142913D02*
X13563634Y-13133389D01*
X13716015Y-13333389D02*
X13716015Y-13200055D01*
X13716015Y-13219103D02*
X13725538Y-13209579D01*
X13725538Y-13209579D02*
X13744586Y-13200055D01*
X13744586Y-13200055D02*
X13773158Y-13200055D01*
X13773158Y-13200055D02*
X13792205Y-13209579D01*
X13792205Y-13209579D02*
X13801729Y-13228627D01*
X13801729Y-13228627D02*
X13801729Y-13333389D01*
X13801729Y-13228627D02*
X13811253Y-13209579D01*
X13811253Y-13209579D02*
X13830300Y-13200055D01*
X13830300Y-13200055D02*
X13858872Y-13200055D01*
X13858872Y-13200055D02*
X13877919Y-13209579D01*
X13877919Y-13209579D02*
X13887443Y-13228627D01*
X13887443Y-13228627D02*
X13887443Y-13333389D01*
X13982681Y-13333389D02*
X13982681Y-13200055D01*
X13982681Y-13219103D02*
X13992205Y-13209579D01*
X13992205Y-13209579D02*
X14011253Y-13200055D01*
X14011253Y-13200055D02*
X14039824Y-13200055D01*
X14039824Y-13200055D02*
X14058872Y-13209579D01*
X14058872Y-13209579D02*
X14068396Y-13228627D01*
X14068396Y-13228627D02*
X14068396Y-13333389D01*
X14068396Y-13228627D02*
X14077919Y-13209579D01*
X14077919Y-13209579D02*
X14096967Y-13200055D01*
X14096967Y-13200055D02*
X14125538Y-13200055D01*
X14125538Y-13200055D02*
X14144586Y-13209579D01*
X14144586Y-13209579D02*
X14154110Y-13228627D01*
X14154110Y-13228627D02*
X14154110Y-13333389D01*
X14544586Y-13123865D02*
X14373158Y-13381008D01*
X14801729Y-13133389D02*
X14820777Y-13133389D01*
X14820777Y-13133389D02*
X14839824Y-13142913D01*
X14839824Y-13142913D02*
X14849348Y-13152436D01*
X14849348Y-13152436D02*
X14858872Y-13171484D01*
X14858872Y-13171484D02*
X14868396Y-13209579D01*
X14868396Y-13209579D02*
X14868396Y-13257198D01*
X14868396Y-13257198D02*
X14858872Y-13295293D01*
X14858872Y-13295293D02*
X14849348Y-13314341D01*
X14849348Y-13314341D02*
X14839824Y-13323865D01*
X14839824Y-13323865D02*
X14820777Y-13333389D01*
X14820777Y-13333389D02*
X14801729Y-13333389D01*
X14801729Y-13333389D02*
X14782681Y-13323865D01*
X14782681Y-13323865D02*
X14773158Y-13314341D01*
X14773158Y-13314341D02*
X14763634Y-13295293D01*
X14763634Y-13295293D02*
X14754110Y-13257198D01*
X14754110Y-13257198D02*
X14754110Y-13209579D01*
X14754110Y-13209579D02*
X14763634Y-13171484D01*
X14763634Y-13171484D02*
X14773158Y-13152436D01*
X14773158Y-13152436D02*
X14782681Y-13142913D01*
X14782681Y-13142913D02*
X14801729Y-13133389D01*
X14954110Y-13314341D02*
X14963634Y-13323865D01*
X14963634Y-13323865D02*
X14954110Y-13333389D01*
X14954110Y-13333389D02*
X14944586Y-13323865D01*
X14944586Y-13323865D02*
X14954110Y-13314341D01*
X14954110Y-13314341D02*
X14954110Y-13333389D01*
X15087443Y-13133389D02*
X15106491Y-13133389D01*
X15106491Y-13133389D02*
X15125539Y-13142913D01*
X15125539Y-13142913D02*
X15135062Y-13152436D01*
X15135062Y-13152436D02*
X15144586Y-13171484D01*
X15144586Y-13171484D02*
X15154110Y-13209579D01*
X15154110Y-13209579D02*
X15154110Y-13257198D01*
X15154110Y-13257198D02*
X15144586Y-13295293D01*
X15144586Y-13295293D02*
X15135062Y-13314341D01*
X15135062Y-13314341D02*
X15125539Y-13323865D01*
X15125539Y-13323865D02*
X15106491Y-13333389D01*
X15106491Y-13333389D02*
X15087443Y-13333389D01*
X15087443Y-13333389D02*
X15068396Y-13323865D01*
X15068396Y-13323865D02*
X15058872Y-13314341D01*
X15058872Y-13314341D02*
X15049348Y-13295293D01*
X15049348Y-13295293D02*
X15039824Y-13257198D01*
X15039824Y-13257198D02*
X15039824Y-13209579D01*
X15039824Y-13209579D02*
X15049348Y-13171484D01*
X15049348Y-13171484D02*
X15058872Y-13152436D01*
X15058872Y-13152436D02*
X15068396Y-13142913D01*
X15068396Y-13142913D02*
X15087443Y-13133389D01*
X15220777Y-13133389D02*
X15344586Y-13133389D01*
X15344586Y-13133389D02*
X15277920Y-13209579D01*
X15277920Y-13209579D02*
X15306491Y-13209579D01*
X15306491Y-13209579D02*
X15325539Y-13219103D01*
X15325539Y-13219103D02*
X15335062Y-13228627D01*
X15335062Y-13228627D02*
X15344586Y-13247674D01*
X15344586Y-13247674D02*
X15344586Y-13295293D01*
X15344586Y-13295293D02*
X15335062Y-13314341D01*
X15335062Y-13314341D02*
X15325539Y-13323865D01*
X15325539Y-13323865D02*
X15306491Y-13333389D01*
X15306491Y-13333389D02*
X15249348Y-13333389D01*
X15249348Y-13333389D02*
X15230301Y-13323865D01*
X15230301Y-13323865D02*
X15220777Y-13314341D01*
X15535062Y-13333389D02*
X15420777Y-13333389D01*
X15477920Y-13333389D02*
X15477920Y-13133389D01*
X15477920Y-13133389D02*
X15458872Y-13161960D01*
X15458872Y-13161960D02*
X15439824Y-13181008D01*
X15439824Y-13181008D02*
X15420777Y-13190532D01*
X15716015Y-13133389D02*
X15620777Y-13133389D01*
X15620777Y-13133389D02*
X15611253Y-13228627D01*
X15611253Y-13228627D02*
X15620777Y-13219103D01*
X15620777Y-13219103D02*
X15639824Y-13209579D01*
X15639824Y-13209579D02*
X15687443Y-13209579D01*
X15687443Y-13209579D02*
X15706491Y-13219103D01*
X15706491Y-13219103D02*
X15716015Y-13228627D01*
X15716015Y-13228627D02*
X15725539Y-13247674D01*
X15725539Y-13247674D02*
X15725539Y-13295293D01*
X15725539Y-13295293D02*
X15716015Y-13314341D01*
X15716015Y-13314341D02*
X15706491Y-13323865D01*
X15706491Y-13323865D02*
X15687443Y-13333389D01*
X15687443Y-13333389D02*
X15639824Y-13333389D01*
X15639824Y-13333389D02*
X15620777Y-13323865D01*
X15620777Y-13323865D02*
X15611253Y-13314341D01*
X15801729Y-13133389D02*
X15801729Y-13171484D01*
X15877920Y-13133389D02*
X15877920Y-13171484D01*
X16173158Y-13409579D02*
X16163634Y-13400055D01*
X16163634Y-13400055D02*
X16144586Y-13371484D01*
X16144586Y-13371484D02*
X16135063Y-13352436D01*
X16135063Y-13352436D02*
X16125539Y-13323865D01*
X16125539Y-13323865D02*
X16116015Y-13276246D01*
X16116015Y-13276246D02*
X16116015Y-13238151D01*
X16116015Y-13238151D02*
X16125539Y-13190532D01*
X16125539Y-13190532D02*
X16135063Y-13161960D01*
X16135063Y-13161960D02*
X16144586Y-13142913D01*
X16144586Y-13142913D02*
X16163634Y-13114341D01*
X16163634Y-13114341D02*
X16173158Y-13104817D01*
X16335063Y-13133389D02*
X16296967Y-13133389D01*
X16296967Y-13133389D02*
X16277920Y-13142913D01*
X16277920Y-13142913D02*
X16268396Y-13152436D01*
X16268396Y-13152436D02*
X16249348Y-13181008D01*
X16249348Y-13181008D02*
X16239824Y-13219103D01*
X16239824Y-13219103D02*
X16239824Y-13295293D01*
X16239824Y-13295293D02*
X16249348Y-13314341D01*
X16249348Y-13314341D02*
X16258872Y-13323865D01*
X16258872Y-13323865D02*
X16277920Y-13333389D01*
X16277920Y-13333389D02*
X16316015Y-13333389D01*
X16316015Y-13333389D02*
X16335063Y-13323865D01*
X16335063Y-13323865D02*
X16344586Y-13314341D01*
X16344586Y-13314341D02*
X16354110Y-13295293D01*
X16354110Y-13295293D02*
X16354110Y-13247674D01*
X16354110Y-13247674D02*
X16344586Y-13228627D01*
X16344586Y-13228627D02*
X16335063Y-13219103D01*
X16335063Y-13219103D02*
X16316015Y-13209579D01*
X16316015Y-13209579D02*
X16277920Y-13209579D01*
X16277920Y-13209579D02*
X16258872Y-13219103D01*
X16258872Y-13219103D02*
X16249348Y-13228627D01*
X16249348Y-13228627D02*
X16239824Y-13247674D01*
X16592205Y-13333389D02*
X16592205Y-13133389D01*
X16677920Y-13333389D02*
X16677920Y-13228627D01*
X16677920Y-13228627D02*
X16668396Y-13209579D01*
X16668396Y-13209579D02*
X16649348Y-13200055D01*
X16649348Y-13200055D02*
X16620777Y-13200055D01*
X16620777Y-13200055D02*
X16601729Y-13209579D01*
X16601729Y-13209579D02*
X16592205Y-13219103D01*
X16801729Y-13333389D02*
X16782682Y-13323865D01*
X16782682Y-13323865D02*
X16773158Y-13314341D01*
X16773158Y-13314341D02*
X16763634Y-13295293D01*
X16763634Y-13295293D02*
X16763634Y-13238151D01*
X16763634Y-13238151D02*
X16773158Y-13219103D01*
X16773158Y-13219103D02*
X16782682Y-13209579D01*
X16782682Y-13209579D02*
X16801729Y-13200055D01*
X16801729Y-13200055D02*
X16830301Y-13200055D01*
X16830301Y-13200055D02*
X16849348Y-13209579D01*
X16849348Y-13209579D02*
X16858872Y-13219103D01*
X16858872Y-13219103D02*
X16868396Y-13238151D01*
X16868396Y-13238151D02*
X16868396Y-13295293D01*
X16868396Y-13295293D02*
X16858872Y-13314341D01*
X16858872Y-13314341D02*
X16849348Y-13323865D01*
X16849348Y-13323865D02*
X16830301Y-13333389D01*
X16830301Y-13333389D02*
X16801729Y-13333389D01*
X16982682Y-13333389D02*
X16963634Y-13323865D01*
X16963634Y-13323865D02*
X16954110Y-13304817D01*
X16954110Y-13304817D02*
X16954110Y-13133389D01*
X17135063Y-13323865D02*
X17116015Y-13333389D01*
X17116015Y-13333389D02*
X17077920Y-13333389D01*
X17077920Y-13333389D02*
X17058872Y-13323865D01*
X17058872Y-13323865D02*
X17049348Y-13304817D01*
X17049348Y-13304817D02*
X17049348Y-13228627D01*
X17049348Y-13228627D02*
X17058872Y-13209579D01*
X17058872Y-13209579D02*
X17077920Y-13200055D01*
X17077920Y-13200055D02*
X17116015Y-13200055D01*
X17116015Y-13200055D02*
X17135063Y-13209579D01*
X17135063Y-13209579D02*
X17144587Y-13228627D01*
X17144587Y-13228627D02*
X17144587Y-13247674D01*
X17144587Y-13247674D02*
X17049348Y-13266722D01*
X17220777Y-13323865D02*
X17239825Y-13333389D01*
X17239825Y-13333389D02*
X17277920Y-13333389D01*
X17277920Y-13333389D02*
X17296968Y-13323865D01*
X17296968Y-13323865D02*
X17306491Y-13304817D01*
X17306491Y-13304817D02*
X17306491Y-13295293D01*
X17306491Y-13295293D02*
X17296968Y-13276246D01*
X17296968Y-13276246D02*
X17277920Y-13266722D01*
X17277920Y-13266722D02*
X17249348Y-13266722D01*
X17249348Y-13266722D02*
X17230301Y-13257198D01*
X17230301Y-13257198D02*
X17220777Y-13238151D01*
X17220777Y-13238151D02*
X17220777Y-13228627D01*
X17220777Y-13228627D02*
X17230301Y-13209579D01*
X17230301Y-13209579D02*
X17249348Y-13200055D01*
X17249348Y-13200055D02*
X17277920Y-13200055D01*
X17277920Y-13200055D02*
X17296968Y-13209579D01*
X17373158Y-13409579D02*
X17382682Y-13400055D01*
X17382682Y-13400055D02*
X17401729Y-13371484D01*
X17401729Y-13371484D02*
X17411253Y-13352436D01*
X17411253Y-13352436D02*
X17420777Y-13323865D01*
X17420777Y-13323865D02*
X17430301Y-13276246D01*
X17430301Y-13276246D02*
X17430301Y-13238151D01*
X17430301Y-13238151D02*
X17420777Y-13190532D01*
X17420777Y-13190532D02*
X17411253Y-13161960D01*
X17411253Y-13161960D02*
X17401729Y-13142913D01*
X17401729Y-13142913D02*
X17382682Y-13114341D01*
X17382682Y-13114341D02*
X17373158Y-13104817D01*
D12*
X12598095Y-13505905D02*
G75*
G02*
X12498095Y-13505905I-50000J0D01*
G01*
X12498095Y-13505905D02*
G75*
G02*
X12598095Y-13505905I50000J0D01*
G01*
D11*
X12963634Y-13597389D02*
X12849348Y-13597389D01*
X12906491Y-13597389D02*
X12906491Y-13397389D01*
X12906491Y-13397389D02*
X12887443Y-13425960D01*
X12887443Y-13425960D02*
X12868396Y-13445008D01*
X12868396Y-13445008D02*
X12849348Y-13454532D01*
X13049348Y-13578341D02*
X13058872Y-13587865D01*
X13058872Y-13587865D02*
X13049348Y-13597389D01*
X13049348Y-13597389D02*
X13039824Y-13587865D01*
X13039824Y-13587865D02*
X13049348Y-13578341D01*
X13049348Y-13578341D02*
X13049348Y-13597389D01*
X13182681Y-13397389D02*
X13201729Y-13397389D01*
X13201729Y-13397389D02*
X13220777Y-13406913D01*
X13220777Y-13406913D02*
X13230300Y-13416436D01*
X13230300Y-13416436D02*
X13239824Y-13435484D01*
X13239824Y-13435484D02*
X13249348Y-13473579D01*
X13249348Y-13473579D02*
X13249348Y-13521198D01*
X13249348Y-13521198D02*
X13239824Y-13559293D01*
X13239824Y-13559293D02*
X13230300Y-13578341D01*
X13230300Y-13578341D02*
X13220777Y-13587865D01*
X13220777Y-13587865D02*
X13201729Y-13597389D01*
X13201729Y-13597389D02*
X13182681Y-13597389D01*
X13182681Y-13597389D02*
X13163634Y-13587865D01*
X13163634Y-13587865D02*
X13154110Y-13578341D01*
X13154110Y-13578341D02*
X13144586Y-13559293D01*
X13144586Y-13559293D02*
X13135062Y-13521198D01*
X13135062Y-13521198D02*
X13135062Y-13473579D01*
X13135062Y-13473579D02*
X13144586Y-13435484D01*
X13144586Y-13435484D02*
X13154110Y-13416436D01*
X13154110Y-13416436D02*
X13163634Y-13406913D01*
X13163634Y-13406913D02*
X13182681Y-13397389D01*
X13373157Y-13397389D02*
X13392205Y-13397389D01*
X13392205Y-13397389D02*
X13411253Y-13406913D01*
X13411253Y-13406913D02*
X13420777Y-13416436D01*
X13420777Y-13416436D02*
X13430300Y-13435484D01*
X13430300Y-13435484D02*
X13439824Y-13473579D01*
X13439824Y-13473579D02*
X13439824Y-13521198D01*
X13439824Y-13521198D02*
X13430300Y-13559293D01*
X13430300Y-13559293D02*
X13420777Y-13578341D01*
X13420777Y-13578341D02*
X13411253Y-13587865D01*
X13411253Y-13587865D02*
X13392205Y-13597389D01*
X13392205Y-13597389D02*
X13373157Y-13597389D01*
X13373157Y-13597389D02*
X13354110Y-13587865D01*
X13354110Y-13587865D02*
X13344586Y-13578341D01*
X13344586Y-13578341D02*
X13335062Y-13559293D01*
X13335062Y-13559293D02*
X13325538Y-13521198D01*
X13325538Y-13521198D02*
X13325538Y-13473579D01*
X13325538Y-13473579D02*
X13335062Y-13435484D01*
X13335062Y-13435484D02*
X13344586Y-13416436D01*
X13344586Y-13416436D02*
X13354110Y-13406913D01*
X13354110Y-13406913D02*
X13373157Y-13397389D01*
X13563634Y-13397389D02*
X13582681Y-13397389D01*
X13582681Y-13397389D02*
X13601729Y-13406913D01*
X13601729Y-13406913D02*
X13611253Y-13416436D01*
X13611253Y-13416436D02*
X13620777Y-13435484D01*
X13620777Y-13435484D02*
X13630300Y-13473579D01*
X13630300Y-13473579D02*
X13630300Y-13521198D01*
X13630300Y-13521198D02*
X13620777Y-13559293D01*
X13620777Y-13559293D02*
X13611253Y-13578341D01*
X13611253Y-13578341D02*
X13601729Y-13587865D01*
X13601729Y-13587865D02*
X13582681Y-13597389D01*
X13582681Y-13597389D02*
X13563634Y-13597389D01*
X13563634Y-13597389D02*
X13544586Y-13587865D01*
X13544586Y-13587865D02*
X13535062Y-13578341D01*
X13535062Y-13578341D02*
X13525538Y-13559293D01*
X13525538Y-13559293D02*
X13516015Y-13521198D01*
X13516015Y-13521198D02*
X13516015Y-13473579D01*
X13516015Y-13473579D02*
X13525538Y-13435484D01*
X13525538Y-13435484D02*
X13535062Y-13416436D01*
X13535062Y-13416436D02*
X13544586Y-13406913D01*
X13544586Y-13406913D02*
X13563634Y-13397389D01*
X13716015Y-13597389D02*
X13716015Y-13464055D01*
X13716015Y-13483103D02*
X13725538Y-13473579D01*
X13725538Y-13473579D02*
X13744586Y-13464055D01*
X13744586Y-13464055D02*
X13773158Y-13464055D01*
X13773158Y-13464055D02*
X13792205Y-13473579D01*
X13792205Y-13473579D02*
X13801729Y-13492627D01*
X13801729Y-13492627D02*
X13801729Y-13597389D01*
X13801729Y-13492627D02*
X13811253Y-13473579D01*
X13811253Y-13473579D02*
X13830300Y-13464055D01*
X13830300Y-13464055D02*
X13858872Y-13464055D01*
X13858872Y-13464055D02*
X13877919Y-13473579D01*
X13877919Y-13473579D02*
X13887443Y-13492627D01*
X13887443Y-13492627D02*
X13887443Y-13597389D01*
X13982681Y-13597389D02*
X13982681Y-13464055D01*
X13982681Y-13483103D02*
X13992205Y-13473579D01*
X13992205Y-13473579D02*
X14011253Y-13464055D01*
X14011253Y-13464055D02*
X14039824Y-13464055D01*
X14039824Y-13464055D02*
X14058872Y-13473579D01*
X14058872Y-13473579D02*
X14068396Y-13492627D01*
X14068396Y-13492627D02*
X14068396Y-13597389D01*
X14068396Y-13492627D02*
X14077919Y-13473579D01*
X14077919Y-13473579D02*
X14096967Y-13464055D01*
X14096967Y-13464055D02*
X14125538Y-13464055D01*
X14125538Y-13464055D02*
X14144586Y-13473579D01*
X14144586Y-13473579D02*
X14154110Y-13492627D01*
X14154110Y-13492627D02*
X14154110Y-13597389D01*
X14544586Y-13387865D02*
X14373158Y-13645008D01*
X14801729Y-13397389D02*
X14820777Y-13397389D01*
X14820777Y-13397389D02*
X14839824Y-13406913D01*
X14839824Y-13406913D02*
X14849348Y-13416436D01*
X14849348Y-13416436D02*
X14858872Y-13435484D01*
X14858872Y-13435484D02*
X14868396Y-13473579D01*
X14868396Y-13473579D02*
X14868396Y-13521198D01*
X14868396Y-13521198D02*
X14858872Y-13559293D01*
X14858872Y-13559293D02*
X14849348Y-13578341D01*
X14849348Y-13578341D02*
X14839824Y-13587865D01*
X14839824Y-13587865D02*
X14820777Y-13597389D01*
X14820777Y-13597389D02*
X14801729Y-13597389D01*
X14801729Y-13597389D02*
X14782681Y-13587865D01*
X14782681Y-13587865D02*
X14773158Y-13578341D01*
X14773158Y-13578341D02*
X14763634Y-13559293D01*
X14763634Y-13559293D02*
X14754110Y-13521198D01*
X14754110Y-13521198D02*
X14754110Y-13473579D01*
X14754110Y-13473579D02*
X14763634Y-13435484D01*
X14763634Y-13435484D02*
X14773158Y-13416436D01*
X14773158Y-13416436D02*
X14782681Y-13406913D01*
X14782681Y-13406913D02*
X14801729Y-13397389D01*
X14954110Y-13578341D02*
X14963634Y-13587865D01*
X14963634Y-13587865D02*
X14954110Y-13597389D01*
X14954110Y-13597389D02*
X14944586Y-13587865D01*
X14944586Y-13587865D02*
X14954110Y-13578341D01*
X14954110Y-13578341D02*
X14954110Y-13597389D01*
X15087443Y-13397389D02*
X15106491Y-13397389D01*
X15106491Y-13397389D02*
X15125539Y-13406913D01*
X15125539Y-13406913D02*
X15135062Y-13416436D01*
X15135062Y-13416436D02*
X15144586Y-13435484D01*
X15144586Y-13435484D02*
X15154110Y-13473579D01*
X15154110Y-13473579D02*
X15154110Y-13521198D01*
X15154110Y-13521198D02*
X15144586Y-13559293D01*
X15144586Y-13559293D02*
X15135062Y-13578341D01*
X15135062Y-13578341D02*
X15125539Y-13587865D01*
X15125539Y-13587865D02*
X15106491Y-13597389D01*
X15106491Y-13597389D02*
X15087443Y-13597389D01*
X15087443Y-13597389D02*
X15068396Y-13587865D01*
X15068396Y-13587865D02*
X15058872Y-13578341D01*
X15058872Y-13578341D02*
X15049348Y-13559293D01*
X15049348Y-13559293D02*
X15039824Y-13521198D01*
X15039824Y-13521198D02*
X15039824Y-13473579D01*
X15039824Y-13473579D02*
X15049348Y-13435484D01*
X15049348Y-13435484D02*
X15058872Y-13416436D01*
X15058872Y-13416436D02*
X15068396Y-13406913D01*
X15068396Y-13406913D02*
X15087443Y-13397389D01*
X15220777Y-13397389D02*
X15344586Y-13397389D01*
X15344586Y-13397389D02*
X15277920Y-13473579D01*
X15277920Y-13473579D02*
X15306491Y-13473579D01*
X15306491Y-13473579D02*
X15325539Y-13483103D01*
X15325539Y-13483103D02*
X15335062Y-13492627D01*
X15335062Y-13492627D02*
X15344586Y-13511674D01*
X15344586Y-13511674D02*
X15344586Y-13559293D01*
X15344586Y-13559293D02*
X15335062Y-13578341D01*
X15335062Y-13578341D02*
X15325539Y-13587865D01*
X15325539Y-13587865D02*
X15306491Y-13597389D01*
X15306491Y-13597389D02*
X15249348Y-13597389D01*
X15249348Y-13597389D02*
X15230301Y-13587865D01*
X15230301Y-13587865D02*
X15220777Y-13578341D01*
X15439824Y-13597389D02*
X15477920Y-13597389D01*
X15477920Y-13597389D02*
X15496967Y-13587865D01*
X15496967Y-13587865D02*
X15506491Y-13578341D01*
X15506491Y-13578341D02*
X15525539Y-13549770D01*
X15525539Y-13549770D02*
X15535062Y-13511674D01*
X15535062Y-13511674D02*
X15535062Y-13435484D01*
X15535062Y-13435484D02*
X15525539Y-13416436D01*
X15525539Y-13416436D02*
X15516015Y-13406913D01*
X15516015Y-13406913D02*
X15496967Y-13397389D01*
X15496967Y-13397389D02*
X15458872Y-13397389D01*
X15458872Y-13397389D02*
X15439824Y-13406913D01*
X15439824Y-13406913D02*
X15430301Y-13416436D01*
X15430301Y-13416436D02*
X15420777Y-13435484D01*
X15420777Y-13435484D02*
X15420777Y-13483103D01*
X15420777Y-13483103D02*
X15430301Y-13502151D01*
X15430301Y-13502151D02*
X15439824Y-13511674D01*
X15439824Y-13511674D02*
X15458872Y-13521198D01*
X15458872Y-13521198D02*
X15496967Y-13521198D01*
X15496967Y-13521198D02*
X15516015Y-13511674D01*
X15516015Y-13511674D02*
X15525539Y-13502151D01*
X15525539Y-13502151D02*
X15535062Y-13483103D01*
X15706491Y-13464055D02*
X15706491Y-13597389D01*
X15658872Y-13387865D02*
X15611253Y-13530722D01*
X15611253Y-13530722D02*
X15735062Y-13530722D01*
X15801729Y-13397389D02*
X15801729Y-13435484D01*
X15877920Y-13397389D02*
X15877920Y-13435484D01*
X16173158Y-13673579D02*
X16163634Y-13664055D01*
X16163634Y-13664055D02*
X16144586Y-13635484D01*
X16144586Y-13635484D02*
X16135063Y-13616436D01*
X16135063Y-13616436D02*
X16125539Y-13587865D01*
X16125539Y-13587865D02*
X16116015Y-13540246D01*
X16116015Y-13540246D02*
X16116015Y-13502151D01*
X16116015Y-13502151D02*
X16125539Y-13454532D01*
X16125539Y-13454532D02*
X16135063Y-13425960D01*
X16135063Y-13425960D02*
X16144586Y-13406913D01*
X16144586Y-13406913D02*
X16163634Y-13378341D01*
X16163634Y-13378341D02*
X16173158Y-13368817D01*
X16230301Y-13397389D02*
X16354110Y-13397389D01*
X16354110Y-13397389D02*
X16287443Y-13473579D01*
X16287443Y-13473579D02*
X16316015Y-13473579D01*
X16316015Y-13473579D02*
X16335063Y-13483103D01*
X16335063Y-13483103D02*
X16344586Y-13492627D01*
X16344586Y-13492627D02*
X16354110Y-13511674D01*
X16354110Y-13511674D02*
X16354110Y-13559293D01*
X16354110Y-13559293D02*
X16344586Y-13578341D01*
X16344586Y-13578341D02*
X16335063Y-13587865D01*
X16335063Y-13587865D02*
X16316015Y-13597389D01*
X16316015Y-13597389D02*
X16258872Y-13597389D01*
X16258872Y-13597389D02*
X16239824Y-13587865D01*
X16239824Y-13587865D02*
X16230301Y-13578341D01*
X16468396Y-13483103D02*
X16449348Y-13473579D01*
X16449348Y-13473579D02*
X16439824Y-13464055D01*
X16439824Y-13464055D02*
X16430301Y-13445008D01*
X16430301Y-13445008D02*
X16430301Y-13435484D01*
X16430301Y-13435484D02*
X16439824Y-13416436D01*
X16439824Y-13416436D02*
X16449348Y-13406913D01*
X16449348Y-13406913D02*
X16468396Y-13397389D01*
X16468396Y-13397389D02*
X16506491Y-13397389D01*
X16506491Y-13397389D02*
X16525539Y-13406913D01*
X16525539Y-13406913D02*
X16535063Y-13416436D01*
X16535063Y-13416436D02*
X16544586Y-13435484D01*
X16544586Y-13435484D02*
X16544586Y-13445008D01*
X16544586Y-13445008D02*
X16535063Y-13464055D01*
X16535063Y-13464055D02*
X16525539Y-13473579D01*
X16525539Y-13473579D02*
X16506491Y-13483103D01*
X16506491Y-13483103D02*
X16468396Y-13483103D01*
X16468396Y-13483103D02*
X16449348Y-13492627D01*
X16449348Y-13492627D02*
X16439824Y-13502151D01*
X16439824Y-13502151D02*
X16430301Y-13521198D01*
X16430301Y-13521198D02*
X16430301Y-13559293D01*
X16430301Y-13559293D02*
X16439824Y-13578341D01*
X16439824Y-13578341D02*
X16449348Y-13587865D01*
X16449348Y-13587865D02*
X16468396Y-13597389D01*
X16468396Y-13597389D02*
X16506491Y-13597389D01*
X16506491Y-13597389D02*
X16525539Y-13587865D01*
X16525539Y-13587865D02*
X16535063Y-13578341D01*
X16535063Y-13578341D02*
X16544586Y-13559293D01*
X16544586Y-13559293D02*
X16544586Y-13521198D01*
X16544586Y-13521198D02*
X16535063Y-13502151D01*
X16535063Y-13502151D02*
X16525539Y-13492627D01*
X16525539Y-13492627D02*
X16506491Y-13483103D01*
X16782682Y-13597389D02*
X16782682Y-13397389D01*
X16868396Y-13597389D02*
X16868396Y-13492627D01*
X16868396Y-13492627D02*
X16858872Y-13473579D01*
X16858872Y-13473579D02*
X16839825Y-13464055D01*
X16839825Y-13464055D02*
X16811253Y-13464055D01*
X16811253Y-13464055D02*
X16792206Y-13473579D01*
X16792206Y-13473579D02*
X16782682Y-13483103D01*
X16992206Y-13597389D02*
X16973158Y-13587865D01*
X16973158Y-13587865D02*
X16963634Y-13578341D01*
X16963634Y-13578341D02*
X16954110Y-13559293D01*
X16954110Y-13559293D02*
X16954110Y-13502151D01*
X16954110Y-13502151D02*
X16963634Y-13483103D01*
X16963634Y-13483103D02*
X16973158Y-13473579D01*
X16973158Y-13473579D02*
X16992206Y-13464055D01*
X16992206Y-13464055D02*
X17020777Y-13464055D01*
X17020777Y-13464055D02*
X17039825Y-13473579D01*
X17039825Y-13473579D02*
X17049348Y-13483103D01*
X17049348Y-13483103D02*
X17058872Y-13502151D01*
X17058872Y-13502151D02*
X17058872Y-13559293D01*
X17058872Y-13559293D02*
X17049348Y-13578341D01*
X17049348Y-13578341D02*
X17039825Y-13587865D01*
X17039825Y-13587865D02*
X17020777Y-13597389D01*
X17020777Y-13597389D02*
X16992206Y-13597389D01*
X17173158Y-13597389D02*
X17154110Y-13587865D01*
X17154110Y-13587865D02*
X17144587Y-13568817D01*
X17144587Y-13568817D02*
X17144587Y-13397389D01*
X17325539Y-13587865D02*
X17306491Y-13597389D01*
X17306491Y-13597389D02*
X17268396Y-13597389D01*
X17268396Y-13597389D02*
X17249348Y-13587865D01*
X17249348Y-13587865D02*
X17239825Y-13568817D01*
X17239825Y-13568817D02*
X17239825Y-13492627D01*
X17239825Y-13492627D02*
X17249348Y-13473579D01*
X17249348Y-13473579D02*
X17268396Y-13464055D01*
X17268396Y-13464055D02*
X17306491Y-13464055D01*
X17306491Y-13464055D02*
X17325539Y-13473579D01*
X17325539Y-13473579D02*
X17335063Y-13492627D01*
X17335063Y-13492627D02*
X17335063Y-13511674D01*
X17335063Y-13511674D02*
X17239825Y-13530722D01*
X17411253Y-13587865D02*
X17430301Y-13597389D01*
X17430301Y-13597389D02*
X17468396Y-13597389D01*
X17468396Y-13597389D02*
X17487444Y-13587865D01*
X17487444Y-13587865D02*
X17496968Y-13568817D01*
X17496968Y-13568817D02*
X17496968Y-13559293D01*
X17496968Y-13559293D02*
X17487444Y-13540246D01*
X17487444Y-13540246D02*
X17468396Y-13530722D01*
X17468396Y-13530722D02*
X17439825Y-13530722D01*
X17439825Y-13530722D02*
X17420777Y-13521198D01*
X17420777Y-13521198D02*
X17411253Y-13502151D01*
X17411253Y-13502151D02*
X17411253Y-13492627D01*
X17411253Y-13492627D02*
X17420777Y-13473579D01*
X17420777Y-13473579D02*
X17439825Y-13464055D01*
X17439825Y-13464055D02*
X17468396Y-13464055D01*
X17468396Y-13464055D02*
X17487444Y-13473579D01*
X17563634Y-13673579D02*
X17573158Y-13664055D01*
X17573158Y-13664055D02*
X17592206Y-13635484D01*
X17592206Y-13635484D02*
X17601729Y-13616436D01*
X17601729Y-13616436D02*
X17611253Y-13587865D01*
X17611253Y-13587865D02*
X17620777Y-13540246D01*
X17620777Y-13540246D02*
X17620777Y-13502151D01*
X17620777Y-13502151D02*
X17611253Y-13454532D01*
X17611253Y-13454532D02*
X17601729Y-13425960D01*
X17601729Y-13425960D02*
X17592206Y-13406913D01*
X17592206Y-13406913D02*
X17573158Y-13378341D01*
X17573158Y-13378341D02*
X17563634Y-13368817D01*
M02*
