G04 #@! TF.GenerationSoftware,KiCad,Pcbnew,8.0.4*
G04 #@! TF.CreationDate,2024-10-22T19:27:37-07:00*
G04 #@! TF.ProjectId,Valve,56616c76-652e-46b6-9963-61645f706362,rev?*
G04 #@! TF.SameCoordinates,Original*
G04 #@! TF.FileFunction,Copper,L1,Top*
G04 #@! TF.FilePolarity,Positive*
%FSLAX46Y46*%
G04 Gerber Fmt 4.6, Leading zero omitted, Abs format (unit mm)*
G04 Created by KiCad (PCBNEW 8.0.4) date 2024-10-22 19:27:37*
%MOMM*%
%LPD*%
G01*
G04 APERTURE LIST*
G04 #@! TA.AperFunction,ComponentPad*
%ADD10R,1.700000X1.700000*%
G04 #@! TD*
G04 #@! TA.AperFunction,ComponentPad*
%ADD11O,1.700000X1.700000*%
G04 #@! TD*
G04 #@! TA.AperFunction,ComponentPad*
%ADD12C,1.600000*%
G04 #@! TD*
G04 #@! TA.AperFunction,ComponentPad*
%ADD13R,1.600000X1.600000*%
G04 #@! TD*
G04 #@! TA.AperFunction,ComponentPad*
%ADD14O,1.600000X1.600000*%
G04 #@! TD*
G04 #@! TA.AperFunction,Conductor*
%ADD15C,0.400000*%
G04 #@! TD*
G04 #@! TA.AperFunction,Conductor*
%ADD16C,0.200000*%
G04 #@! TD*
G04 APERTURE END LIST*
D10*
X129000000Y-101080000D03*
D11*
X129000000Y-98540000D03*
X129000000Y-96000000D03*
D12*
X135000000Y-108000000D03*
X135000000Y-113000000D03*
D13*
X131000000Y-87000000D03*
D12*
X133000000Y-87000000D03*
X129000000Y-108000000D03*
X129000000Y-113000000D03*
D10*
X135000000Y-101080000D03*
D11*
X135000000Y-98540000D03*
X135000000Y-96000000D03*
D14*
X155740000Y-81640000D03*
X155740000Y-84180000D03*
X155740000Y-86720000D03*
X155740000Y-89260000D03*
X155740000Y-91800000D03*
X155740000Y-94340000D03*
X155740000Y-96880000D03*
X155740000Y-99420000D03*
X155740000Y-101960000D03*
X155740000Y-104500000D03*
X155740000Y-107040000D03*
X155740000Y-109580000D03*
X155740000Y-112120000D03*
X155740000Y-114660000D03*
X155740000Y-117200000D03*
X140500000Y-117200000D03*
X140500000Y-114660000D03*
X140500000Y-112120000D03*
X140500000Y-109580000D03*
X140500000Y-107040000D03*
X140500000Y-104500000D03*
X140500000Y-101960000D03*
X140500000Y-99420000D03*
X140500000Y-96880000D03*
X140500000Y-94340000D03*
X140500000Y-91800000D03*
X140500000Y-89260000D03*
X140500000Y-86720000D03*
X140500000Y-84180000D03*
D13*
X140500000Y-81640000D03*
D10*
X132000000Y-81540000D03*
D11*
X132000000Y-79000000D03*
D15*
X133000000Y-87000000D02*
X133847000Y-87847000D01*
X133847000Y-87847000D02*
X154327000Y-87847000D01*
X154327000Y-87847000D02*
X155740000Y-89260000D01*
X155740000Y-89260000D02*
X149247000Y-95753000D01*
X149247000Y-95753000D02*
X137787000Y-95753000D01*
X137787000Y-95753000D02*
X135000000Y-98540000D01*
D16*
X129000000Y-96000000D02*
X133200000Y-91800000D01*
X133200000Y-91800000D02*
X140500000Y-91800000D01*
X135000000Y-96000000D02*
X136660000Y-94340000D01*
X136660000Y-94340000D02*
X140500000Y-94340000D01*
D15*
X129000000Y-98540000D02*
X135000000Y-98540000D01*
G04 #@! TA.AperFunction,Conductor*
G36*
X160442539Y-75520185D02*
G01*
X160488294Y-75572989D01*
X160499500Y-75624500D01*
X160499500Y-125375500D01*
X160479815Y-125442539D01*
X160427011Y-125488294D01*
X160375500Y-125499500D01*
X126624500Y-125499500D01*
X126557461Y-125479815D01*
X126511706Y-125427011D01*
X126500500Y-125375500D01*
X126500500Y-112999997D01*
X127695034Y-112999997D01*
X127695034Y-113000002D01*
X127714858Y-113226599D01*
X127714860Y-113226610D01*
X127773730Y-113446317D01*
X127773735Y-113446331D01*
X127869863Y-113652478D01*
X127920974Y-113725472D01*
X128600000Y-113046446D01*
X128600000Y-113052661D01*
X128627259Y-113154394D01*
X128679920Y-113245606D01*
X128754394Y-113320080D01*
X128845606Y-113372741D01*
X128947339Y-113400000D01*
X128953553Y-113400000D01*
X128274526Y-114079025D01*
X128347513Y-114130132D01*
X128347521Y-114130136D01*
X128553668Y-114226264D01*
X128553682Y-114226269D01*
X128773389Y-114285139D01*
X128773400Y-114285141D01*
X128999998Y-114304966D01*
X129000002Y-114304966D01*
X129226599Y-114285141D01*
X129226610Y-114285139D01*
X129446317Y-114226269D01*
X129446331Y-114226264D01*
X129652478Y-114130136D01*
X129725471Y-114079024D01*
X129046447Y-113400000D01*
X129052661Y-113400000D01*
X129154394Y-113372741D01*
X129245606Y-113320080D01*
X129320080Y-113245606D01*
X129372741Y-113154394D01*
X129400000Y-113052661D01*
X129400000Y-113046447D01*
X130079024Y-113725471D01*
X130130136Y-113652478D01*
X130226264Y-113446331D01*
X130226269Y-113446317D01*
X130285139Y-113226610D01*
X130285141Y-113226599D01*
X130304966Y-113000002D01*
X130304966Y-112999997D01*
X133695034Y-112999997D01*
X133695034Y-113000002D01*
X133714858Y-113226599D01*
X133714860Y-113226610D01*
X133773730Y-113446317D01*
X133773735Y-113446331D01*
X133869863Y-113652478D01*
X133920974Y-113725472D01*
X134600000Y-113046446D01*
X134600000Y-113052661D01*
X134627259Y-113154394D01*
X134679920Y-113245606D01*
X134754394Y-113320080D01*
X134845606Y-113372741D01*
X134947339Y-113400000D01*
X134953553Y-113400000D01*
X134274526Y-114079025D01*
X134347513Y-114130132D01*
X134347521Y-114130136D01*
X134553668Y-114226264D01*
X134553682Y-114226269D01*
X134773389Y-114285139D01*
X134773400Y-114285141D01*
X134999998Y-114304966D01*
X135000002Y-114304966D01*
X135226599Y-114285141D01*
X135226610Y-114285139D01*
X135446317Y-114226269D01*
X135446331Y-114226264D01*
X135652478Y-114130136D01*
X135725471Y-114079024D01*
X135046447Y-113400000D01*
X135052661Y-113400000D01*
X135154394Y-113372741D01*
X135245606Y-113320080D01*
X135320080Y-113245606D01*
X135372741Y-113154394D01*
X135400000Y-113052661D01*
X135400000Y-113046447D01*
X136079024Y-113725471D01*
X136130136Y-113652478D01*
X136226264Y-113446331D01*
X136226269Y-113446317D01*
X136285139Y-113226610D01*
X136285141Y-113226599D01*
X136304966Y-113000002D01*
X136304966Y-112999997D01*
X136285141Y-112773400D01*
X136285139Y-112773389D01*
X136226269Y-112553682D01*
X136226264Y-112553668D01*
X136130136Y-112347521D01*
X136130132Y-112347513D01*
X136079025Y-112274526D01*
X135400000Y-112953551D01*
X135400000Y-112947339D01*
X135372741Y-112845606D01*
X135320080Y-112754394D01*
X135245606Y-112679920D01*
X135154394Y-112627259D01*
X135052661Y-112600000D01*
X135046448Y-112600000D01*
X135725472Y-111920974D01*
X135652478Y-111869863D01*
X135446331Y-111773735D01*
X135446317Y-111773730D01*
X135226610Y-111714860D01*
X135226599Y-111714858D01*
X135000002Y-111695034D01*
X134999998Y-111695034D01*
X134773400Y-111714858D01*
X134773389Y-111714860D01*
X134553682Y-111773730D01*
X134553673Y-111773734D01*
X134347516Y-111869866D01*
X134347512Y-111869868D01*
X134274526Y-111920973D01*
X134274526Y-111920974D01*
X134953553Y-112600000D01*
X134947339Y-112600000D01*
X134845606Y-112627259D01*
X134754394Y-112679920D01*
X134679920Y-112754394D01*
X134627259Y-112845606D01*
X134600000Y-112947339D01*
X134600000Y-112953552D01*
X133920974Y-112274526D01*
X133920973Y-112274526D01*
X133869868Y-112347512D01*
X133869866Y-112347516D01*
X133773734Y-112553673D01*
X133773730Y-112553682D01*
X133714860Y-112773389D01*
X133714858Y-112773400D01*
X133695034Y-112999997D01*
X130304966Y-112999997D01*
X130285141Y-112773400D01*
X130285139Y-112773389D01*
X130226269Y-112553682D01*
X130226264Y-112553668D01*
X130130136Y-112347521D01*
X130130132Y-112347513D01*
X130079025Y-112274526D01*
X129400000Y-112953551D01*
X129400000Y-112947339D01*
X129372741Y-112845606D01*
X129320080Y-112754394D01*
X129245606Y-112679920D01*
X129154394Y-112627259D01*
X129052661Y-112600000D01*
X129046448Y-112600000D01*
X129725472Y-111920974D01*
X129652478Y-111869863D01*
X129446331Y-111773735D01*
X129446317Y-111773730D01*
X129226610Y-111714860D01*
X129226599Y-111714858D01*
X129000002Y-111695034D01*
X128999998Y-111695034D01*
X128773400Y-111714858D01*
X128773389Y-111714860D01*
X128553682Y-111773730D01*
X128553673Y-111773734D01*
X128347516Y-111869866D01*
X128347512Y-111869868D01*
X128274526Y-111920973D01*
X128274526Y-111920974D01*
X128953553Y-112600000D01*
X128947339Y-112600000D01*
X128845606Y-112627259D01*
X128754394Y-112679920D01*
X128679920Y-112754394D01*
X128627259Y-112845606D01*
X128600000Y-112947339D01*
X128600000Y-112953552D01*
X127920974Y-112274526D01*
X127920973Y-112274526D01*
X127869868Y-112347512D01*
X127869866Y-112347516D01*
X127773734Y-112553673D01*
X127773730Y-112553682D01*
X127714860Y-112773389D01*
X127714858Y-112773400D01*
X127695034Y-112999997D01*
X126500500Y-112999997D01*
X126500500Y-107999998D01*
X127694532Y-107999998D01*
X127694532Y-108000001D01*
X127714364Y-108226686D01*
X127714366Y-108226697D01*
X127773258Y-108446488D01*
X127773261Y-108446497D01*
X127869431Y-108652732D01*
X127869432Y-108652734D01*
X127999954Y-108839141D01*
X128160858Y-109000045D01*
X128160861Y-109000047D01*
X128347266Y-109130568D01*
X128553504Y-109226739D01*
X128773308Y-109285635D01*
X128935230Y-109299801D01*
X128999998Y-109305468D01*
X129000000Y-109305468D01*
X129000002Y-109305468D01*
X129056673Y-109300509D01*
X129226692Y-109285635D01*
X129446496Y-109226739D01*
X129652734Y-109130568D01*
X129839139Y-109000047D01*
X130000047Y-108839139D01*
X130130568Y-108652734D01*
X130226739Y-108446496D01*
X130285635Y-108226692D01*
X130305468Y-108000000D01*
X130305468Y-107999998D01*
X133694532Y-107999998D01*
X133694532Y-108000001D01*
X133714364Y-108226686D01*
X133714366Y-108226697D01*
X133773258Y-108446488D01*
X133773261Y-108446497D01*
X133869431Y-108652732D01*
X133869432Y-108652734D01*
X133999954Y-108839141D01*
X134160858Y-109000045D01*
X134160861Y-109000047D01*
X134347266Y-109130568D01*
X134553504Y-109226739D01*
X134773308Y-109285635D01*
X134935230Y-109299801D01*
X134999998Y-109305468D01*
X135000000Y-109305468D01*
X135000002Y-109305468D01*
X135056673Y-109300509D01*
X135226692Y-109285635D01*
X135446496Y-109226739D01*
X135652734Y-109130568D01*
X135839139Y-109000047D01*
X136000047Y-108839139D01*
X136130568Y-108652734D01*
X136226739Y-108446496D01*
X136285635Y-108226692D01*
X136305468Y-108000000D01*
X136285635Y-107773308D01*
X136226739Y-107553504D01*
X136130568Y-107347266D01*
X136000047Y-107160861D01*
X136000045Y-107160858D01*
X135839141Y-106999954D01*
X135652734Y-106869432D01*
X135652732Y-106869431D01*
X135446497Y-106773261D01*
X135446488Y-106773258D01*
X135226697Y-106714366D01*
X135226693Y-106714365D01*
X135226692Y-106714365D01*
X135226691Y-106714364D01*
X135226686Y-106714364D01*
X135000002Y-106694532D01*
X134999998Y-106694532D01*
X134773313Y-106714364D01*
X134773302Y-106714366D01*
X134553511Y-106773258D01*
X134553502Y-106773261D01*
X134347267Y-106869431D01*
X134347265Y-106869432D01*
X134160858Y-106999954D01*
X133999954Y-107160858D01*
X133869432Y-107347265D01*
X133869431Y-107347267D01*
X133773261Y-107553502D01*
X133773258Y-107553511D01*
X133714366Y-107773302D01*
X133714364Y-107773313D01*
X133694532Y-107999998D01*
X130305468Y-107999998D01*
X130285635Y-107773308D01*
X130226739Y-107553504D01*
X130130568Y-107347266D01*
X130000047Y-107160861D01*
X130000045Y-107160858D01*
X129839141Y-106999954D01*
X129652734Y-106869432D01*
X129652732Y-106869431D01*
X129446497Y-106773261D01*
X129446488Y-106773258D01*
X129226697Y-106714366D01*
X129226693Y-106714365D01*
X129226692Y-106714365D01*
X129226691Y-106714364D01*
X129226686Y-106714364D01*
X129000002Y-106694532D01*
X128999998Y-106694532D01*
X128773313Y-106714364D01*
X128773302Y-106714366D01*
X128553511Y-106773258D01*
X128553502Y-106773261D01*
X128347267Y-106869431D01*
X128347265Y-106869432D01*
X128160858Y-106999954D01*
X127999954Y-107160858D01*
X127869432Y-107347265D01*
X127869431Y-107347267D01*
X127773261Y-107553502D01*
X127773258Y-107553511D01*
X127714366Y-107773302D01*
X127714364Y-107773313D01*
X127694532Y-107999998D01*
X126500500Y-107999998D01*
X126500500Y-95999999D01*
X127644341Y-95999999D01*
X127644341Y-96000000D01*
X127664936Y-96235403D01*
X127664938Y-96235413D01*
X127726094Y-96463655D01*
X127726096Y-96463659D01*
X127726097Y-96463663D01*
X127761574Y-96539743D01*
X127825965Y-96677830D01*
X127825967Y-96677834D01*
X127961501Y-96871395D01*
X127961506Y-96871402D01*
X128128597Y-97038493D01*
X128128603Y-97038498D01*
X128314158Y-97168425D01*
X128357783Y-97223002D01*
X128364977Y-97292500D01*
X128333454Y-97354855D01*
X128314158Y-97371575D01*
X128128597Y-97501505D01*
X127961505Y-97668597D01*
X127825965Y-97862169D01*
X127825964Y-97862171D01*
X127726098Y-98076335D01*
X127726094Y-98076344D01*
X127664938Y-98304586D01*
X127664936Y-98304596D01*
X127644341Y-98539999D01*
X127644341Y-98540000D01*
X127664936Y-98775403D01*
X127664938Y-98775413D01*
X127726094Y-99003655D01*
X127726096Y-99003659D01*
X127726097Y-99003663D01*
X127814527Y-99193302D01*
X127825965Y-99217830D01*
X127825967Y-99217834D01*
X127934281Y-99372521D01*
X127961501Y-99411396D01*
X127961506Y-99411402D01*
X128083430Y-99533326D01*
X128116915Y-99594649D01*
X128111931Y-99664341D01*
X128070059Y-99720274D01*
X128039083Y-99737189D01*
X127907669Y-99786203D01*
X127907664Y-99786206D01*
X127792455Y-99872452D01*
X127792452Y-99872455D01*
X127706206Y-99987664D01*
X127706202Y-99987671D01*
X127655908Y-100122517D01*
X127649501Y-100182116D01*
X127649501Y-100182123D01*
X127649500Y-100182135D01*
X127649500Y-101977870D01*
X127649501Y-101977876D01*
X127655908Y-102037483D01*
X127706202Y-102172328D01*
X127706206Y-102172335D01*
X127792452Y-102287544D01*
X127792455Y-102287547D01*
X127907664Y-102373793D01*
X127907671Y-102373797D01*
X128042517Y-102424091D01*
X128042516Y-102424091D01*
X128049444Y-102424835D01*
X128102127Y-102430500D01*
X129897872Y-102430499D01*
X129957483Y-102424091D01*
X130092331Y-102373796D01*
X130207546Y-102287546D01*
X130293796Y-102172331D01*
X130344091Y-102037483D01*
X130350500Y-101977873D01*
X130350499Y-100182128D01*
X130344091Y-100122517D01*
X130325522Y-100072732D01*
X130293797Y-99987671D01*
X130293793Y-99987664D01*
X130207547Y-99872455D01*
X130207544Y-99872452D01*
X130092335Y-99786206D01*
X130092328Y-99786202D01*
X129960917Y-99737189D01*
X129904983Y-99695318D01*
X129880566Y-99629853D01*
X129895418Y-99561580D01*
X129916563Y-99533332D01*
X130038495Y-99411401D01*
X130121136Y-99293376D01*
X130175713Y-99249752D01*
X130222711Y-99240500D01*
X133777289Y-99240500D01*
X133844328Y-99260185D01*
X133878864Y-99293377D01*
X133961503Y-99411399D01*
X133961504Y-99411400D01*
X133961505Y-99411401D01*
X134083431Y-99533327D01*
X134116915Y-99594648D01*
X134111931Y-99664340D01*
X134070060Y-99720274D01*
X134039083Y-99737189D01*
X133907669Y-99786203D01*
X133907664Y-99786206D01*
X133792455Y-99872452D01*
X133792452Y-99872455D01*
X133706206Y-99987664D01*
X133706202Y-99987671D01*
X133655908Y-100122517D01*
X133649501Y-100182116D01*
X133649501Y-100182123D01*
X133649500Y-100182135D01*
X133649500Y-101977870D01*
X133649501Y-101977876D01*
X133655908Y-102037483D01*
X133706202Y-102172328D01*
X133706206Y-102172335D01*
X133792452Y-102287544D01*
X133792455Y-102287547D01*
X133907664Y-102373793D01*
X133907671Y-102373797D01*
X134042517Y-102424091D01*
X134042516Y-102424091D01*
X134049444Y-102424835D01*
X134102127Y-102430500D01*
X135897872Y-102430499D01*
X135957483Y-102424091D01*
X136092331Y-102373796D01*
X136207546Y-102287546D01*
X136293796Y-102172331D01*
X136344091Y-102037483D01*
X136350500Y-101977873D01*
X136350499Y-100182128D01*
X136344091Y-100122517D01*
X136325522Y-100072732D01*
X136293797Y-99987671D01*
X136293793Y-99987664D01*
X136207547Y-99872455D01*
X136207544Y-99872452D01*
X136092335Y-99786206D01*
X136092328Y-99786202D01*
X135960917Y-99737189D01*
X135904983Y-99695318D01*
X135880566Y-99629853D01*
X135895418Y-99561580D01*
X135916563Y-99533332D01*
X136038495Y-99411401D01*
X136174035Y-99217830D01*
X136273903Y-99003663D01*
X136335063Y-98775408D01*
X136355659Y-98540000D01*
X136335063Y-98304592D01*
X136330558Y-98287779D01*
X136332219Y-98217932D01*
X136362649Y-98168006D01*
X138040838Y-96489819D01*
X138102161Y-96456334D01*
X138128519Y-96453500D01*
X139106303Y-96453500D01*
X139173342Y-96473185D01*
X139219097Y-96525989D01*
X139229041Y-96595147D01*
X139226078Y-96609592D01*
X139214367Y-96653299D01*
X139214364Y-96653313D01*
X139194532Y-96879998D01*
X139194532Y-96880001D01*
X139214364Y-97106686D01*
X139214366Y-97106697D01*
X139273258Y-97326488D01*
X139273261Y-97326497D01*
X139369431Y-97532732D01*
X139369432Y-97532734D01*
X139499954Y-97719141D01*
X139660858Y-97880045D01*
X139660861Y-97880047D01*
X139847266Y-98010568D01*
X139905275Y-98037618D01*
X139957714Y-98083791D01*
X139976866Y-98150984D01*
X139956650Y-98217865D01*
X139905275Y-98262382D01*
X139847267Y-98289431D01*
X139847265Y-98289432D01*
X139660858Y-98419954D01*
X139499954Y-98580858D01*
X139369432Y-98767265D01*
X139369431Y-98767267D01*
X139273261Y-98973502D01*
X139273258Y-98973511D01*
X139214366Y-99193302D01*
X139214364Y-99193313D01*
X139194532Y-99419998D01*
X139194532Y-99420001D01*
X139214364Y-99646686D01*
X139214366Y-99646697D01*
X139273258Y-99866488D01*
X139273261Y-99866497D01*
X139369431Y-100072732D01*
X139369432Y-100072734D01*
X139499954Y-100259141D01*
X139660858Y-100420045D01*
X139660861Y-100420047D01*
X139847266Y-100550568D01*
X139905275Y-100577618D01*
X139957714Y-100623791D01*
X139976866Y-100690984D01*
X139956650Y-100757865D01*
X139905275Y-100802382D01*
X139847267Y-100829431D01*
X139847265Y-100829432D01*
X139660858Y-100959954D01*
X139499954Y-101120858D01*
X139369432Y-101307265D01*
X139369431Y-101307267D01*
X139273261Y-101513502D01*
X139273258Y-101513511D01*
X139214366Y-101733302D01*
X139214364Y-101733313D01*
X139194532Y-101959998D01*
X139194532Y-101960001D01*
X139214364Y-102186686D01*
X139214366Y-102186697D01*
X139273258Y-102406488D01*
X139273261Y-102406497D01*
X139369431Y-102612732D01*
X139369432Y-102612734D01*
X139499954Y-102799141D01*
X139660858Y-102960045D01*
X139660861Y-102960047D01*
X139847266Y-103090568D01*
X139905275Y-103117618D01*
X139957714Y-103163791D01*
X139976866Y-103230984D01*
X139956650Y-103297865D01*
X139905275Y-103342382D01*
X139847267Y-103369431D01*
X139847265Y-103369432D01*
X139660858Y-103499954D01*
X139499954Y-103660858D01*
X139369432Y-103847265D01*
X139369431Y-103847267D01*
X139273261Y-104053502D01*
X139273258Y-104053511D01*
X139214366Y-104273302D01*
X139214364Y-104273313D01*
X139194532Y-104499998D01*
X139194532Y-104500001D01*
X139214364Y-104726686D01*
X139214366Y-104726697D01*
X139273258Y-104946488D01*
X139273261Y-104946497D01*
X139369431Y-105152732D01*
X139369432Y-105152734D01*
X139499954Y-105339141D01*
X139660858Y-105500045D01*
X139660861Y-105500047D01*
X139847266Y-105630568D01*
X139905275Y-105657618D01*
X139957714Y-105703791D01*
X139976866Y-105770984D01*
X139956650Y-105837865D01*
X139905275Y-105882382D01*
X139847267Y-105909431D01*
X139847265Y-105909432D01*
X139660858Y-106039954D01*
X139499954Y-106200858D01*
X139369432Y-106387265D01*
X139369431Y-106387267D01*
X139273261Y-106593502D01*
X139273258Y-106593511D01*
X139214366Y-106813302D01*
X139214364Y-106813313D01*
X139194532Y-107039998D01*
X139194532Y-107040001D01*
X139214364Y-107266686D01*
X139214366Y-107266697D01*
X139273258Y-107486488D01*
X139273261Y-107486497D01*
X139369431Y-107692732D01*
X139369432Y-107692734D01*
X139499954Y-107879141D01*
X139660858Y-108040045D01*
X139660861Y-108040047D01*
X139847266Y-108170568D01*
X139905275Y-108197618D01*
X139957714Y-108243791D01*
X139976866Y-108310984D01*
X139956650Y-108377865D01*
X139905275Y-108422382D01*
X139847267Y-108449431D01*
X139847265Y-108449432D01*
X139660858Y-108579954D01*
X139499954Y-108740858D01*
X139369432Y-108927265D01*
X139369431Y-108927267D01*
X139273261Y-109133502D01*
X139273258Y-109133511D01*
X139214366Y-109353302D01*
X139214364Y-109353313D01*
X139194532Y-109579998D01*
X139194532Y-109580001D01*
X139214364Y-109806686D01*
X139214366Y-109806697D01*
X139273258Y-110026488D01*
X139273261Y-110026497D01*
X139369431Y-110232732D01*
X139369432Y-110232734D01*
X139499954Y-110419141D01*
X139660858Y-110580045D01*
X139660861Y-110580047D01*
X139847266Y-110710568D01*
X139905275Y-110737618D01*
X139957714Y-110783791D01*
X139976866Y-110850984D01*
X139956650Y-110917865D01*
X139905275Y-110962382D01*
X139847267Y-110989431D01*
X139847265Y-110989432D01*
X139660858Y-111119954D01*
X139499954Y-111280858D01*
X139369432Y-111467265D01*
X139369431Y-111467267D01*
X139273261Y-111673502D01*
X139273258Y-111673511D01*
X139214366Y-111893302D01*
X139214364Y-111893313D01*
X139194532Y-112119998D01*
X139194532Y-112120001D01*
X139214364Y-112346686D01*
X139214366Y-112346697D01*
X139273258Y-112566488D01*
X139273261Y-112566497D01*
X139369431Y-112772732D01*
X139369432Y-112772734D01*
X139499954Y-112959141D01*
X139660858Y-113120045D01*
X139660861Y-113120047D01*
X139847266Y-113250568D01*
X139905275Y-113277618D01*
X139957714Y-113323791D01*
X139976866Y-113390984D01*
X139956650Y-113457865D01*
X139905275Y-113502382D01*
X139847267Y-113529431D01*
X139847265Y-113529432D01*
X139660858Y-113659954D01*
X139499954Y-113820858D01*
X139369432Y-114007265D01*
X139369431Y-114007267D01*
X139273261Y-114213502D01*
X139273258Y-114213511D01*
X139214366Y-114433302D01*
X139214364Y-114433313D01*
X139194532Y-114659998D01*
X139194532Y-114660001D01*
X139214364Y-114886686D01*
X139214366Y-114886697D01*
X139273258Y-115106488D01*
X139273261Y-115106497D01*
X139369431Y-115312732D01*
X139369432Y-115312734D01*
X139499954Y-115499141D01*
X139660858Y-115660045D01*
X139660861Y-115660047D01*
X139847266Y-115790568D01*
X139905275Y-115817618D01*
X139957714Y-115863791D01*
X139976866Y-115930984D01*
X139956650Y-115997865D01*
X139905275Y-116042382D01*
X139847267Y-116069431D01*
X139847265Y-116069432D01*
X139660858Y-116199954D01*
X139499954Y-116360858D01*
X139369432Y-116547265D01*
X139369431Y-116547267D01*
X139273261Y-116753502D01*
X139273258Y-116753511D01*
X139214366Y-116973302D01*
X139214364Y-116973313D01*
X139194532Y-117199998D01*
X139194532Y-117200001D01*
X139214364Y-117426686D01*
X139214366Y-117426697D01*
X139273258Y-117646488D01*
X139273261Y-117646497D01*
X139369431Y-117852732D01*
X139369432Y-117852734D01*
X139499954Y-118039141D01*
X139660858Y-118200045D01*
X139660861Y-118200047D01*
X139847266Y-118330568D01*
X140053504Y-118426739D01*
X140273308Y-118485635D01*
X140435230Y-118499801D01*
X140499998Y-118505468D01*
X140500000Y-118505468D01*
X140500002Y-118505468D01*
X140556673Y-118500509D01*
X140726692Y-118485635D01*
X140946496Y-118426739D01*
X141152734Y-118330568D01*
X141339139Y-118200047D01*
X141500047Y-118039139D01*
X141630568Y-117852734D01*
X141726739Y-117646496D01*
X141785635Y-117426692D01*
X141805468Y-117200000D01*
X141785635Y-116973308D01*
X141726739Y-116753504D01*
X141630568Y-116547266D01*
X141500047Y-116360861D01*
X141500045Y-116360858D01*
X141339141Y-116199954D01*
X141152734Y-116069432D01*
X141152728Y-116069429D01*
X141094725Y-116042382D01*
X141042285Y-115996210D01*
X141023133Y-115929017D01*
X141043348Y-115862135D01*
X141094725Y-115817618D01*
X141152734Y-115790568D01*
X141339139Y-115660047D01*
X141500047Y-115499139D01*
X141630568Y-115312734D01*
X141726739Y-115106496D01*
X141785635Y-114886692D01*
X141805468Y-114660000D01*
X141785635Y-114433308D01*
X141726739Y-114213504D01*
X141630568Y-114007266D01*
X141500047Y-113820861D01*
X141500045Y-113820858D01*
X141339141Y-113659954D01*
X141152734Y-113529432D01*
X141152728Y-113529429D01*
X141094725Y-113502382D01*
X141042285Y-113456210D01*
X141023133Y-113389017D01*
X141043348Y-113322135D01*
X141094725Y-113277618D01*
X141152734Y-113250568D01*
X141339139Y-113120047D01*
X141500047Y-112959139D01*
X141630568Y-112772734D01*
X141726739Y-112566496D01*
X141785635Y-112346692D01*
X141805468Y-112120000D01*
X141785635Y-111893308D01*
X141726739Y-111673504D01*
X141630568Y-111467266D01*
X141500047Y-111280861D01*
X141500045Y-111280858D01*
X141339141Y-111119954D01*
X141152734Y-110989432D01*
X141152728Y-110989429D01*
X141094725Y-110962382D01*
X141042285Y-110916210D01*
X141023133Y-110849017D01*
X141043348Y-110782135D01*
X141094725Y-110737618D01*
X141152734Y-110710568D01*
X141339139Y-110580047D01*
X141500047Y-110419139D01*
X141630568Y-110232734D01*
X141726739Y-110026496D01*
X141785635Y-109806692D01*
X141805468Y-109580000D01*
X141785635Y-109353308D01*
X141726739Y-109133504D01*
X141630568Y-108927266D01*
X141500047Y-108740861D01*
X141500045Y-108740858D01*
X141339141Y-108579954D01*
X141152734Y-108449432D01*
X141152728Y-108449429D01*
X141094725Y-108422382D01*
X141042285Y-108376210D01*
X141023133Y-108309017D01*
X141043348Y-108242135D01*
X141094725Y-108197618D01*
X141152734Y-108170568D01*
X141339139Y-108040047D01*
X141500047Y-107879139D01*
X141630568Y-107692734D01*
X141726739Y-107486496D01*
X141785635Y-107266692D01*
X141805468Y-107040000D01*
X141785635Y-106813308D01*
X141726739Y-106593504D01*
X141630568Y-106387266D01*
X141500047Y-106200861D01*
X141500045Y-106200858D01*
X141339141Y-106039954D01*
X141152734Y-105909432D01*
X141152728Y-105909429D01*
X141094725Y-105882382D01*
X141042285Y-105836210D01*
X141023133Y-105769017D01*
X141043348Y-105702135D01*
X141094725Y-105657618D01*
X141152734Y-105630568D01*
X141339139Y-105500047D01*
X141500047Y-105339139D01*
X141630568Y-105152734D01*
X141726739Y-104946496D01*
X141785635Y-104726692D01*
X141805468Y-104500000D01*
X141785635Y-104273308D01*
X141726739Y-104053504D01*
X141630568Y-103847266D01*
X141500047Y-103660861D01*
X141500045Y-103660858D01*
X141339141Y-103499954D01*
X141152734Y-103369432D01*
X141152728Y-103369429D01*
X141094725Y-103342382D01*
X141042285Y-103296210D01*
X141023133Y-103229017D01*
X141043348Y-103162135D01*
X141094725Y-103117618D01*
X141152734Y-103090568D01*
X141339139Y-102960047D01*
X141500047Y-102799139D01*
X141630568Y-102612734D01*
X141726739Y-102406496D01*
X141785635Y-102186692D01*
X141805468Y-101960000D01*
X141785635Y-101733308D01*
X141726739Y-101513504D01*
X141630568Y-101307266D01*
X141500047Y-101120861D01*
X141500045Y-101120858D01*
X141339141Y-100959954D01*
X141152734Y-100829432D01*
X141152728Y-100829429D01*
X141094725Y-100802382D01*
X141042285Y-100756210D01*
X141023133Y-100689017D01*
X141043348Y-100622135D01*
X141094725Y-100577618D01*
X141152734Y-100550568D01*
X141339139Y-100420047D01*
X141500047Y-100259139D01*
X141630568Y-100072734D01*
X141726739Y-99866496D01*
X141785635Y-99646692D01*
X141805468Y-99420000D01*
X141785635Y-99193308D01*
X141726739Y-98973504D01*
X141630568Y-98767266D01*
X141500047Y-98580861D01*
X141500045Y-98580858D01*
X141339141Y-98419954D01*
X141152734Y-98289432D01*
X141152728Y-98289429D01*
X141094725Y-98262382D01*
X141042285Y-98216210D01*
X141023133Y-98149017D01*
X141043348Y-98082135D01*
X141094725Y-98037618D01*
X141152734Y-98010568D01*
X141339139Y-97880047D01*
X141500047Y-97719139D01*
X141630568Y-97532734D01*
X141726739Y-97326496D01*
X141785635Y-97106692D01*
X141805468Y-96880000D01*
X141785635Y-96653308D01*
X141779739Y-96631307D01*
X141773922Y-96609592D01*
X141775585Y-96539743D01*
X141814748Y-96481880D01*
X141878977Y-96454377D01*
X141893697Y-96453500D01*
X149315996Y-96453500D01*
X149416529Y-96433502D01*
X149451328Y-96426580D01*
X149515069Y-96400177D01*
X149578807Y-96373777D01*
X149578808Y-96373776D01*
X149578811Y-96373775D01*
X149693543Y-96297114D01*
X154226881Y-91763774D01*
X154288202Y-91730291D01*
X154357894Y-91735275D01*
X154413827Y-91777147D01*
X154438088Y-91840649D01*
X154454364Y-92026687D01*
X154454366Y-92026697D01*
X154513258Y-92246488D01*
X154513261Y-92246497D01*
X154609431Y-92452732D01*
X154609432Y-92452734D01*
X154739954Y-92639141D01*
X154900858Y-92800045D01*
X154900861Y-92800047D01*
X155087266Y-92930568D01*
X155145275Y-92957618D01*
X155197714Y-93003791D01*
X155216866Y-93070984D01*
X155196650Y-93137865D01*
X155145275Y-93182382D01*
X155087267Y-93209431D01*
X155087265Y-93209432D01*
X154900858Y-93339954D01*
X154739954Y-93500858D01*
X154609432Y-93687265D01*
X154609431Y-93687267D01*
X154513261Y-93893502D01*
X154513258Y-93893511D01*
X154454366Y-94113302D01*
X154454364Y-94113313D01*
X154434532Y-94339998D01*
X154434532Y-94340001D01*
X154454364Y-94566686D01*
X154454366Y-94566697D01*
X154513258Y-94786488D01*
X154513261Y-94786497D01*
X154609431Y-94992732D01*
X154609432Y-94992734D01*
X154739954Y-95179141D01*
X154900858Y-95340045D01*
X154900861Y-95340047D01*
X155087266Y-95470568D01*
X155145275Y-95497618D01*
X155197714Y-95543791D01*
X155216866Y-95610984D01*
X155196650Y-95677865D01*
X155145275Y-95722382D01*
X155087267Y-95749431D01*
X155087265Y-95749432D01*
X154900858Y-95879954D01*
X154739954Y-96040858D01*
X154609432Y-96227265D01*
X154609431Y-96227267D01*
X154513261Y-96433502D01*
X154513258Y-96433511D01*
X154454366Y-96653302D01*
X154454364Y-96653313D01*
X154434532Y-96879998D01*
X154434532Y-96880001D01*
X154454364Y-97106686D01*
X154454366Y-97106697D01*
X154513258Y-97326488D01*
X154513261Y-97326497D01*
X154609431Y-97532732D01*
X154609432Y-97532734D01*
X154739954Y-97719141D01*
X154900858Y-97880045D01*
X154900861Y-97880047D01*
X155087266Y-98010568D01*
X155145275Y-98037618D01*
X155197714Y-98083791D01*
X155216866Y-98150984D01*
X155196650Y-98217865D01*
X155145275Y-98262382D01*
X155087267Y-98289431D01*
X155087265Y-98289432D01*
X154900858Y-98419954D01*
X154739954Y-98580858D01*
X154609432Y-98767265D01*
X154609431Y-98767267D01*
X154513261Y-98973502D01*
X154513258Y-98973511D01*
X154454366Y-99193302D01*
X154454364Y-99193313D01*
X154434532Y-99419998D01*
X154434532Y-99420001D01*
X154454364Y-99646686D01*
X154454366Y-99646697D01*
X154513258Y-99866488D01*
X154513261Y-99866497D01*
X154609431Y-100072732D01*
X154609432Y-100072734D01*
X154739954Y-100259141D01*
X154900858Y-100420045D01*
X154900861Y-100420047D01*
X155087266Y-100550568D01*
X155145275Y-100577618D01*
X155197714Y-100623791D01*
X155216866Y-100690984D01*
X155196650Y-100757865D01*
X155145275Y-100802382D01*
X155087267Y-100829431D01*
X155087265Y-100829432D01*
X154900858Y-100959954D01*
X154739954Y-101120858D01*
X154609432Y-101307265D01*
X154609431Y-101307267D01*
X154513261Y-101513502D01*
X154513258Y-101513511D01*
X154454366Y-101733302D01*
X154454364Y-101733313D01*
X154434532Y-101959998D01*
X154434532Y-101960001D01*
X154454364Y-102186686D01*
X154454366Y-102186697D01*
X154513258Y-102406488D01*
X154513261Y-102406497D01*
X154609431Y-102612732D01*
X154609432Y-102612734D01*
X154739954Y-102799141D01*
X154900858Y-102960045D01*
X154900861Y-102960047D01*
X155087266Y-103090568D01*
X155145275Y-103117618D01*
X155197714Y-103163791D01*
X155216866Y-103230984D01*
X155196650Y-103297865D01*
X155145275Y-103342382D01*
X155087267Y-103369431D01*
X155087265Y-103369432D01*
X154900858Y-103499954D01*
X154739954Y-103660858D01*
X154609432Y-103847265D01*
X154609431Y-103847267D01*
X154513261Y-104053502D01*
X154513258Y-104053511D01*
X154454366Y-104273302D01*
X154454364Y-104273313D01*
X154434532Y-104499998D01*
X154434532Y-104500001D01*
X154454364Y-104726686D01*
X154454366Y-104726697D01*
X154513258Y-104946488D01*
X154513261Y-104946497D01*
X154609431Y-105152732D01*
X154609432Y-105152734D01*
X154739954Y-105339141D01*
X154900858Y-105500045D01*
X154900861Y-105500047D01*
X155087266Y-105630568D01*
X155145275Y-105657618D01*
X155197714Y-105703791D01*
X155216866Y-105770984D01*
X155196650Y-105837865D01*
X155145275Y-105882382D01*
X155087267Y-105909431D01*
X155087265Y-105909432D01*
X154900858Y-106039954D01*
X154739954Y-106200858D01*
X154609432Y-106387265D01*
X154609431Y-106387267D01*
X154513261Y-106593502D01*
X154513258Y-106593511D01*
X154454366Y-106813302D01*
X154454364Y-106813313D01*
X154434532Y-107039998D01*
X154434532Y-107040001D01*
X154454364Y-107266686D01*
X154454366Y-107266697D01*
X154513258Y-107486488D01*
X154513261Y-107486497D01*
X154609431Y-107692732D01*
X154609432Y-107692734D01*
X154739954Y-107879141D01*
X154900858Y-108040045D01*
X154900861Y-108040047D01*
X155087266Y-108170568D01*
X155145275Y-108197618D01*
X155197714Y-108243791D01*
X155216866Y-108310984D01*
X155196650Y-108377865D01*
X155145275Y-108422382D01*
X155087267Y-108449431D01*
X155087265Y-108449432D01*
X154900858Y-108579954D01*
X154739954Y-108740858D01*
X154609432Y-108927265D01*
X154609431Y-108927267D01*
X154513261Y-109133502D01*
X154513258Y-109133511D01*
X154454366Y-109353302D01*
X154454364Y-109353313D01*
X154434532Y-109579998D01*
X154434532Y-109580001D01*
X154454364Y-109806686D01*
X154454366Y-109806697D01*
X154513258Y-110026488D01*
X154513261Y-110026497D01*
X154609431Y-110232732D01*
X154609432Y-110232734D01*
X154739954Y-110419141D01*
X154900858Y-110580045D01*
X154900861Y-110580047D01*
X155087266Y-110710568D01*
X155145275Y-110737618D01*
X155197714Y-110783791D01*
X155216866Y-110850984D01*
X155196650Y-110917865D01*
X155145275Y-110962382D01*
X155087267Y-110989431D01*
X155087265Y-110989432D01*
X154900858Y-111119954D01*
X154739954Y-111280858D01*
X154609432Y-111467265D01*
X154609431Y-111467267D01*
X154513261Y-111673502D01*
X154513258Y-111673511D01*
X154454366Y-111893302D01*
X154454364Y-111893313D01*
X154434532Y-112119998D01*
X154434532Y-112120001D01*
X154454364Y-112346686D01*
X154454366Y-112346697D01*
X154513258Y-112566488D01*
X154513261Y-112566497D01*
X154609431Y-112772732D01*
X154609432Y-112772734D01*
X154739954Y-112959141D01*
X154900858Y-113120045D01*
X154900861Y-113120047D01*
X155087266Y-113250568D01*
X155145275Y-113277618D01*
X155197714Y-113323791D01*
X155216866Y-113390984D01*
X155196650Y-113457865D01*
X155145275Y-113502382D01*
X155087267Y-113529431D01*
X155087265Y-113529432D01*
X154900858Y-113659954D01*
X154739954Y-113820858D01*
X154609432Y-114007265D01*
X154609431Y-114007267D01*
X154513261Y-114213502D01*
X154513258Y-114213511D01*
X154454366Y-114433302D01*
X154454364Y-114433313D01*
X154434532Y-114659998D01*
X154434532Y-114660001D01*
X154454364Y-114886686D01*
X154454366Y-114886697D01*
X154513258Y-115106488D01*
X154513261Y-115106497D01*
X154609431Y-115312732D01*
X154609432Y-115312734D01*
X154739954Y-115499141D01*
X154900858Y-115660045D01*
X154900861Y-115660047D01*
X155087266Y-115790568D01*
X155145275Y-115817618D01*
X155197714Y-115863791D01*
X155216866Y-115930984D01*
X155196650Y-115997865D01*
X155145275Y-116042382D01*
X155087267Y-116069431D01*
X155087265Y-116069432D01*
X154900858Y-116199954D01*
X154739954Y-116360858D01*
X154609432Y-116547265D01*
X154609431Y-116547267D01*
X154513261Y-116753502D01*
X154513258Y-116753511D01*
X154454366Y-116973302D01*
X154454364Y-116973313D01*
X154434532Y-117199998D01*
X154434532Y-117200001D01*
X154454364Y-117426686D01*
X154454366Y-117426697D01*
X154513258Y-117646488D01*
X154513261Y-117646497D01*
X154609431Y-117852732D01*
X154609432Y-117852734D01*
X154739954Y-118039141D01*
X154900858Y-118200045D01*
X154900861Y-118200047D01*
X155087266Y-118330568D01*
X155293504Y-118426739D01*
X155513308Y-118485635D01*
X155675230Y-118499801D01*
X155739998Y-118505468D01*
X155740000Y-118505468D01*
X155740002Y-118505468D01*
X155796673Y-118500509D01*
X155966692Y-118485635D01*
X156186496Y-118426739D01*
X156392734Y-118330568D01*
X156579139Y-118200047D01*
X156740047Y-118039139D01*
X156870568Y-117852734D01*
X156966739Y-117646496D01*
X157025635Y-117426692D01*
X157045468Y-117200000D01*
X157025635Y-116973308D01*
X156966739Y-116753504D01*
X156870568Y-116547266D01*
X156740047Y-116360861D01*
X156740045Y-116360858D01*
X156579141Y-116199954D01*
X156392734Y-116069432D01*
X156392728Y-116069429D01*
X156334725Y-116042382D01*
X156282285Y-115996210D01*
X156263133Y-115929017D01*
X156283348Y-115862135D01*
X156334725Y-115817618D01*
X156392734Y-115790568D01*
X156579139Y-115660047D01*
X156740047Y-115499139D01*
X156870568Y-115312734D01*
X156966739Y-115106496D01*
X157025635Y-114886692D01*
X157045468Y-114660000D01*
X157025635Y-114433308D01*
X156966739Y-114213504D01*
X156870568Y-114007266D01*
X156740047Y-113820861D01*
X156740045Y-113820858D01*
X156579141Y-113659954D01*
X156392734Y-113529432D01*
X156392728Y-113529429D01*
X156334725Y-113502382D01*
X156282285Y-113456210D01*
X156263133Y-113389017D01*
X156283348Y-113322135D01*
X156334725Y-113277618D01*
X156392734Y-113250568D01*
X156579139Y-113120047D01*
X156740047Y-112959139D01*
X156870568Y-112772734D01*
X156966739Y-112566496D01*
X157025635Y-112346692D01*
X157045468Y-112120000D01*
X157025635Y-111893308D01*
X156966739Y-111673504D01*
X156870568Y-111467266D01*
X156740047Y-111280861D01*
X156740045Y-111280858D01*
X156579141Y-111119954D01*
X156392734Y-110989432D01*
X156392728Y-110989429D01*
X156334725Y-110962382D01*
X156282285Y-110916210D01*
X156263133Y-110849017D01*
X156283348Y-110782135D01*
X156334725Y-110737618D01*
X156392734Y-110710568D01*
X156579139Y-110580047D01*
X156740047Y-110419139D01*
X156870568Y-110232734D01*
X156966739Y-110026496D01*
X157025635Y-109806692D01*
X157045468Y-109580000D01*
X157025635Y-109353308D01*
X156966739Y-109133504D01*
X156870568Y-108927266D01*
X156740047Y-108740861D01*
X156740045Y-108740858D01*
X156579141Y-108579954D01*
X156392734Y-108449432D01*
X156392728Y-108449429D01*
X156334725Y-108422382D01*
X156282285Y-108376210D01*
X156263133Y-108309017D01*
X156283348Y-108242135D01*
X156334725Y-108197618D01*
X156392734Y-108170568D01*
X156579139Y-108040047D01*
X156740047Y-107879139D01*
X156870568Y-107692734D01*
X156966739Y-107486496D01*
X157025635Y-107266692D01*
X157045468Y-107040000D01*
X157025635Y-106813308D01*
X156966739Y-106593504D01*
X156870568Y-106387266D01*
X156740047Y-106200861D01*
X156740045Y-106200858D01*
X156579141Y-106039954D01*
X156392734Y-105909432D01*
X156392728Y-105909429D01*
X156334725Y-105882382D01*
X156282285Y-105836210D01*
X156263133Y-105769017D01*
X156283348Y-105702135D01*
X156334725Y-105657618D01*
X156392734Y-105630568D01*
X156579139Y-105500047D01*
X156740047Y-105339139D01*
X156870568Y-105152734D01*
X156966739Y-104946496D01*
X157025635Y-104726692D01*
X157045468Y-104500000D01*
X157025635Y-104273308D01*
X156966739Y-104053504D01*
X156870568Y-103847266D01*
X156740047Y-103660861D01*
X156740045Y-103660858D01*
X156579141Y-103499954D01*
X156392734Y-103369432D01*
X156392728Y-103369429D01*
X156334725Y-103342382D01*
X156282285Y-103296210D01*
X156263133Y-103229017D01*
X156283348Y-103162135D01*
X156334725Y-103117618D01*
X156392734Y-103090568D01*
X156579139Y-102960047D01*
X156740047Y-102799139D01*
X156870568Y-102612734D01*
X156966739Y-102406496D01*
X157025635Y-102186692D01*
X157045468Y-101960000D01*
X157025635Y-101733308D01*
X156966739Y-101513504D01*
X156870568Y-101307266D01*
X156740047Y-101120861D01*
X156740045Y-101120858D01*
X156579141Y-100959954D01*
X156392734Y-100829432D01*
X156392728Y-100829429D01*
X156334725Y-100802382D01*
X156282285Y-100756210D01*
X156263133Y-100689017D01*
X156283348Y-100622135D01*
X156334725Y-100577618D01*
X156392734Y-100550568D01*
X156579139Y-100420047D01*
X156740047Y-100259139D01*
X156870568Y-100072734D01*
X156966739Y-99866496D01*
X157025635Y-99646692D01*
X157045468Y-99420000D01*
X157025635Y-99193308D01*
X156966739Y-98973504D01*
X156870568Y-98767266D01*
X156740047Y-98580861D01*
X156740045Y-98580858D01*
X156579141Y-98419954D01*
X156392734Y-98289432D01*
X156392728Y-98289429D01*
X156334725Y-98262382D01*
X156282285Y-98216210D01*
X156263133Y-98149017D01*
X156283348Y-98082135D01*
X156334725Y-98037618D01*
X156392734Y-98010568D01*
X156579139Y-97880047D01*
X156740047Y-97719139D01*
X156870568Y-97532734D01*
X156966739Y-97326496D01*
X157025635Y-97106692D01*
X157045468Y-96880000D01*
X157025635Y-96653308D01*
X156966739Y-96433504D01*
X156870568Y-96227266D01*
X156740047Y-96040861D01*
X156740045Y-96040858D01*
X156579141Y-95879954D01*
X156392734Y-95749432D01*
X156392728Y-95749429D01*
X156334725Y-95722382D01*
X156282285Y-95676210D01*
X156263133Y-95609017D01*
X156283348Y-95542135D01*
X156334725Y-95497618D01*
X156392734Y-95470568D01*
X156579139Y-95340047D01*
X156740047Y-95179139D01*
X156870568Y-94992734D01*
X156966739Y-94786496D01*
X157025635Y-94566692D01*
X157045468Y-94340000D01*
X157025635Y-94113308D01*
X156966739Y-93893504D01*
X156870568Y-93687266D01*
X156740047Y-93500861D01*
X156740045Y-93500858D01*
X156579141Y-93339954D01*
X156392734Y-93209432D01*
X156392728Y-93209429D01*
X156334725Y-93182382D01*
X156282285Y-93136210D01*
X156263133Y-93069017D01*
X156283348Y-93002135D01*
X156334725Y-92957618D01*
X156392734Y-92930568D01*
X156579139Y-92800047D01*
X156740047Y-92639139D01*
X156870568Y-92452734D01*
X156966739Y-92246496D01*
X157025635Y-92026692D01*
X157045468Y-91800000D01*
X157025635Y-91573308D01*
X156966739Y-91353504D01*
X156870568Y-91147266D01*
X156740047Y-90960861D01*
X156740045Y-90960858D01*
X156579141Y-90799954D01*
X156392734Y-90669432D01*
X156392728Y-90669429D01*
X156334725Y-90642382D01*
X156282285Y-90596210D01*
X156263133Y-90529017D01*
X156283348Y-90462135D01*
X156334725Y-90417618D01*
X156392734Y-90390568D01*
X156579139Y-90260047D01*
X156740047Y-90099139D01*
X156870568Y-89912734D01*
X156966739Y-89706496D01*
X157025635Y-89486692D01*
X157045468Y-89260000D01*
X157025635Y-89033308D01*
X156966739Y-88813504D01*
X156870568Y-88607266D01*
X156740047Y-88420861D01*
X156740045Y-88420858D01*
X156579141Y-88259954D01*
X156392734Y-88129432D01*
X156392728Y-88129429D01*
X156334725Y-88102382D01*
X156282285Y-88056210D01*
X156263133Y-87989017D01*
X156283348Y-87922135D01*
X156334725Y-87877618D01*
X156392734Y-87850568D01*
X156579139Y-87720047D01*
X156740047Y-87559139D01*
X156870568Y-87372734D01*
X156966739Y-87166496D01*
X157025635Y-86946692D01*
X157045468Y-86720000D01*
X157025635Y-86493308D01*
X156966739Y-86273504D01*
X156870568Y-86067266D01*
X156740047Y-85880861D01*
X156740045Y-85880858D01*
X156579141Y-85719954D01*
X156392734Y-85589432D01*
X156392732Y-85589431D01*
X156334725Y-85562382D01*
X156334132Y-85562105D01*
X156281694Y-85515934D01*
X156262542Y-85448740D01*
X156282758Y-85381859D01*
X156334134Y-85337341D01*
X156392484Y-85310132D01*
X156578820Y-85179657D01*
X156739657Y-85018820D01*
X156870134Y-84832482D01*
X156966265Y-84626326D01*
X156966269Y-84626317D01*
X157018872Y-84430000D01*
X156173012Y-84430000D01*
X156205925Y-84372993D01*
X156240000Y-84245826D01*
X156240000Y-84114174D01*
X156205925Y-83987007D01*
X156173012Y-83930000D01*
X157018872Y-83930000D01*
X157018872Y-83929999D01*
X156966269Y-83733682D01*
X156966265Y-83733673D01*
X156870134Y-83527517D01*
X156739657Y-83341179D01*
X156578820Y-83180342D01*
X156392482Y-83049865D01*
X156334133Y-83022657D01*
X156281694Y-82976484D01*
X156262542Y-82909291D01*
X156282758Y-82842410D01*
X156334129Y-82797895D01*
X156392734Y-82770568D01*
X156579139Y-82640047D01*
X156740047Y-82479139D01*
X156870568Y-82292734D01*
X156966739Y-82086496D01*
X157025635Y-81866692D01*
X157045468Y-81640000D01*
X157025635Y-81413308D01*
X156966739Y-81193504D01*
X156870568Y-80987266D01*
X156740047Y-80800861D01*
X156740045Y-80800858D01*
X156579141Y-80639954D01*
X156392734Y-80509432D01*
X156392732Y-80509431D01*
X156186497Y-80413261D01*
X156186488Y-80413258D01*
X155966697Y-80354366D01*
X155966693Y-80354365D01*
X155966692Y-80354365D01*
X155966691Y-80354364D01*
X155966686Y-80354364D01*
X155740002Y-80334532D01*
X155739998Y-80334532D01*
X155513313Y-80354364D01*
X155513302Y-80354366D01*
X155293511Y-80413258D01*
X155293502Y-80413261D01*
X155087267Y-80509431D01*
X155087265Y-80509432D01*
X154900858Y-80639954D01*
X154739954Y-80800858D01*
X154609432Y-80987265D01*
X154609431Y-80987267D01*
X154513261Y-81193502D01*
X154513258Y-81193511D01*
X154454366Y-81413302D01*
X154454364Y-81413313D01*
X154434532Y-81639998D01*
X154434532Y-81640001D01*
X154454364Y-81866686D01*
X154454366Y-81866697D01*
X154513258Y-82086488D01*
X154513261Y-82086497D01*
X154609431Y-82292732D01*
X154609432Y-82292734D01*
X154739954Y-82479141D01*
X154900858Y-82640045D01*
X154900861Y-82640047D01*
X155087266Y-82770568D01*
X155145865Y-82797893D01*
X155198305Y-82844065D01*
X155217457Y-82911258D01*
X155197242Y-82978139D01*
X155145867Y-83022657D01*
X155087515Y-83049867D01*
X154901179Y-83180342D01*
X154740342Y-83341179D01*
X154609865Y-83527517D01*
X154513734Y-83733673D01*
X154513730Y-83733682D01*
X154461127Y-83929999D01*
X154461128Y-83930000D01*
X155306988Y-83930000D01*
X155274075Y-83987007D01*
X155240000Y-84114174D01*
X155240000Y-84245826D01*
X155274075Y-84372993D01*
X155306988Y-84430000D01*
X154461128Y-84430000D01*
X154513730Y-84626317D01*
X154513734Y-84626326D01*
X154609865Y-84832482D01*
X154740342Y-85018820D01*
X154901179Y-85179657D01*
X155087518Y-85310134D01*
X155087520Y-85310135D01*
X155145865Y-85337342D01*
X155198305Y-85383514D01*
X155217457Y-85450707D01*
X155197242Y-85517589D01*
X155145867Y-85562105D01*
X155087268Y-85589431D01*
X155087264Y-85589433D01*
X154900858Y-85719954D01*
X154739954Y-85880858D01*
X154609432Y-86067265D01*
X154609431Y-86067267D01*
X154513261Y-86273502D01*
X154513258Y-86273511D01*
X154454366Y-86493302D01*
X154454364Y-86493313D01*
X154434532Y-86719998D01*
X154434532Y-86720001D01*
X154454364Y-86946686D01*
X154454367Y-86946700D01*
X154466078Y-86990408D01*
X154464415Y-87060257D01*
X154425252Y-87118120D01*
X154361023Y-87145623D01*
X154346303Y-87146500D01*
X141893697Y-87146500D01*
X141826658Y-87126815D01*
X141780903Y-87074011D01*
X141770959Y-87004853D01*
X141773922Y-86990408D01*
X141778655Y-86972740D01*
X141785635Y-86946692D01*
X141805468Y-86720000D01*
X141785635Y-86493308D01*
X141726739Y-86273504D01*
X141630568Y-86067266D01*
X141500047Y-85880861D01*
X141500045Y-85880858D01*
X141339141Y-85719954D01*
X141152734Y-85589432D01*
X141152728Y-85589429D01*
X141094725Y-85562382D01*
X141042285Y-85516210D01*
X141023133Y-85449017D01*
X141043348Y-85382135D01*
X141094725Y-85337618D01*
X141095319Y-85337341D01*
X141152734Y-85310568D01*
X141339139Y-85180047D01*
X141500047Y-85019139D01*
X141630568Y-84832734D01*
X141726739Y-84626496D01*
X141785635Y-84406692D01*
X141805468Y-84180000D01*
X141785635Y-83953308D01*
X141726739Y-83733504D01*
X141630568Y-83527266D01*
X141500047Y-83340861D01*
X141500045Y-83340858D01*
X141339143Y-83179956D01*
X141314536Y-83162726D01*
X141270912Y-83108149D01*
X141263719Y-83038650D01*
X141295241Y-82976296D01*
X141355471Y-82940882D01*
X141372404Y-82937861D01*
X141407483Y-82934091D01*
X141542331Y-82883796D01*
X141657546Y-82797546D01*
X141743796Y-82682331D01*
X141794091Y-82547483D01*
X141800500Y-82487873D01*
X141800499Y-80792128D01*
X141794091Y-80732517D01*
X141760378Y-80642129D01*
X141743797Y-80597671D01*
X141743793Y-80597664D01*
X141657547Y-80482455D01*
X141657544Y-80482452D01*
X141542335Y-80396206D01*
X141542328Y-80396202D01*
X141407482Y-80345908D01*
X141407483Y-80345908D01*
X141347883Y-80339501D01*
X141347881Y-80339500D01*
X141347873Y-80339500D01*
X141347864Y-80339500D01*
X139652129Y-80339500D01*
X139652123Y-80339501D01*
X139592516Y-80345908D01*
X139457671Y-80396202D01*
X139457664Y-80396206D01*
X139342455Y-80482452D01*
X139342452Y-80482455D01*
X139256206Y-80597664D01*
X139256202Y-80597671D01*
X139205908Y-80732517D01*
X139199501Y-80792116D01*
X139199501Y-80792123D01*
X139199500Y-80792135D01*
X139199500Y-82487870D01*
X139199501Y-82487876D01*
X139205908Y-82547483D01*
X139256202Y-82682328D01*
X139256206Y-82682335D01*
X139342452Y-82797544D01*
X139342455Y-82797547D01*
X139457664Y-82883793D01*
X139457671Y-82883797D01*
X139475643Y-82890500D01*
X139592517Y-82934091D01*
X139627596Y-82937862D01*
X139692144Y-82964599D01*
X139731993Y-83021991D01*
X139734488Y-83091816D01*
X139698836Y-83151905D01*
X139685464Y-83162725D01*
X139660858Y-83179954D01*
X139499954Y-83340858D01*
X139369432Y-83527265D01*
X139369431Y-83527267D01*
X139273261Y-83733502D01*
X139273258Y-83733511D01*
X139214366Y-83953302D01*
X139214364Y-83953313D01*
X139194532Y-84179998D01*
X139194532Y-84180001D01*
X139214364Y-84406686D01*
X139214366Y-84406697D01*
X139273258Y-84626488D01*
X139273261Y-84626497D01*
X139369431Y-84832732D01*
X139369432Y-84832734D01*
X139499954Y-85019141D01*
X139660858Y-85180045D01*
X139660861Y-85180047D01*
X139847266Y-85310568D01*
X139904681Y-85337341D01*
X139905275Y-85337618D01*
X139957714Y-85383791D01*
X139976866Y-85450984D01*
X139956650Y-85517865D01*
X139905275Y-85562382D01*
X139847267Y-85589431D01*
X139847265Y-85589432D01*
X139660858Y-85719954D01*
X139499954Y-85880858D01*
X139369432Y-86067265D01*
X139369431Y-86067267D01*
X139273261Y-86273502D01*
X139273258Y-86273511D01*
X139214366Y-86493302D01*
X139214364Y-86493313D01*
X139194532Y-86719998D01*
X139194532Y-86720001D01*
X139214364Y-86946686D01*
X139214367Y-86946700D01*
X139226078Y-86990408D01*
X139224415Y-87060257D01*
X139185252Y-87118120D01*
X139121023Y-87145623D01*
X139106303Y-87146500D01*
X134427973Y-87146500D01*
X134360934Y-87126815D01*
X134315179Y-87074011D01*
X134304445Y-87011691D01*
X134305468Y-86999999D01*
X134305468Y-86999998D01*
X134285635Y-86773313D01*
X134285635Y-86773308D01*
X134226739Y-86553504D01*
X134130568Y-86347266D01*
X134000047Y-86160861D01*
X134000045Y-86160858D01*
X133839141Y-85999954D01*
X133652734Y-85869432D01*
X133652732Y-85869431D01*
X133446497Y-85773261D01*
X133446488Y-85773258D01*
X133226697Y-85714366D01*
X133226693Y-85714365D01*
X133226692Y-85714365D01*
X133226691Y-85714364D01*
X133226686Y-85714364D01*
X133000002Y-85694532D01*
X132999998Y-85694532D01*
X132773313Y-85714364D01*
X132773302Y-85714366D01*
X132553511Y-85773258D01*
X132553502Y-85773261D01*
X132347267Y-85869431D01*
X132347262Y-85869434D01*
X132334435Y-85878415D01*
X132268227Y-85900738D01*
X132200461Y-85883722D01*
X132164052Y-85851145D01*
X132157546Y-85842454D01*
X132157545Y-85842453D01*
X132157544Y-85842452D01*
X132042335Y-85756206D01*
X132042328Y-85756202D01*
X131907482Y-85705908D01*
X131907483Y-85705908D01*
X131847883Y-85699501D01*
X131847881Y-85699500D01*
X131847873Y-85699500D01*
X131847864Y-85699500D01*
X130152129Y-85699500D01*
X130152123Y-85699501D01*
X130092516Y-85705908D01*
X129957671Y-85756202D01*
X129957664Y-85756206D01*
X129842455Y-85842452D01*
X129842452Y-85842455D01*
X129756206Y-85957664D01*
X129756202Y-85957671D01*
X129705908Y-86092517D01*
X129699501Y-86152116D01*
X129699500Y-86152127D01*
X129699500Y-86999999D01*
X129699501Y-87847862D01*
X129699501Y-87847876D01*
X129705908Y-87907483D01*
X129756202Y-88042328D01*
X129756206Y-88042335D01*
X129842452Y-88157544D01*
X129842455Y-88157547D01*
X129957664Y-88243793D01*
X129957671Y-88243797D01*
X130092517Y-88294091D01*
X130092516Y-88294091D01*
X130099444Y-88294835D01*
X130152127Y-88300500D01*
X131847872Y-88300499D01*
X131907483Y-88294091D01*
X132042331Y-88243796D01*
X132157546Y-88157546D01*
X132164051Y-88148856D01*
X132219982Y-88106984D01*
X132289673Y-88101997D01*
X132334442Y-88121589D01*
X132347264Y-88130567D01*
X132347266Y-88130568D01*
X132553504Y-88226739D01*
X132773308Y-88285635D01*
X132935230Y-88299801D01*
X132999998Y-88305468D01*
X133000000Y-88305468D01*
X133000001Y-88305468D01*
X133018304Y-88303866D01*
X133226692Y-88285635D01*
X133226697Y-88285633D01*
X133231881Y-88285180D01*
X133300381Y-88298946D01*
X133330367Y-88321024D01*
X133400457Y-88391114D01*
X133515189Y-88467775D01*
X133515192Y-88467777D01*
X133642667Y-88520578D01*
X133642672Y-88520580D01*
X133642676Y-88520580D01*
X133642677Y-88520581D01*
X133778003Y-88547500D01*
X133778006Y-88547500D01*
X133778007Y-88547500D01*
X139202660Y-88547500D01*
X139269699Y-88567185D01*
X139315454Y-88619989D01*
X139325398Y-88689147D01*
X139315042Y-88723905D01*
X139273262Y-88813502D01*
X139273258Y-88813511D01*
X139214366Y-89033302D01*
X139214364Y-89033313D01*
X139194532Y-89259998D01*
X139194532Y-89260001D01*
X139214364Y-89486686D01*
X139214366Y-89486697D01*
X139273258Y-89706488D01*
X139273261Y-89706497D01*
X139369431Y-89912732D01*
X139369432Y-89912734D01*
X139499954Y-90099141D01*
X139660858Y-90260045D01*
X139660861Y-90260047D01*
X139847266Y-90390568D01*
X139905275Y-90417618D01*
X139957714Y-90463791D01*
X139976866Y-90530984D01*
X139956650Y-90597865D01*
X139905275Y-90642382D01*
X139847267Y-90669431D01*
X139847265Y-90669432D01*
X139660858Y-90799954D01*
X139499954Y-90960858D01*
X139423450Y-91070118D01*
X139369881Y-91146624D01*
X139315307Y-91190248D01*
X139268308Y-91199500D01*
X133286669Y-91199500D01*
X133286653Y-91199499D01*
X133279057Y-91199499D01*
X133120943Y-91199499D01*
X133013587Y-91228265D01*
X132968210Y-91240424D01*
X132968209Y-91240425D01*
X132918096Y-91269359D01*
X132918095Y-91269360D01*
X132874689Y-91294420D01*
X132831285Y-91319479D01*
X132831282Y-91319481D01*
X132719478Y-91431286D01*
X129483530Y-94667233D01*
X129422207Y-94700718D01*
X129363756Y-94699327D01*
X129235413Y-94664938D01*
X129235403Y-94664936D01*
X129000001Y-94644341D01*
X128999999Y-94644341D01*
X128764596Y-94664936D01*
X128764586Y-94664938D01*
X128536344Y-94726094D01*
X128536335Y-94726098D01*
X128322171Y-94825964D01*
X128322169Y-94825965D01*
X128128597Y-94961505D01*
X127961505Y-95128597D01*
X127825965Y-95322169D01*
X127825964Y-95322171D01*
X127726098Y-95536335D01*
X127726094Y-95536344D01*
X127664938Y-95764586D01*
X127664936Y-95764596D01*
X127644341Y-95999999D01*
X126500500Y-95999999D01*
X126500500Y-80642135D01*
X130649500Y-80642135D01*
X130649500Y-82437870D01*
X130649501Y-82437876D01*
X130655908Y-82497483D01*
X130706202Y-82632328D01*
X130706206Y-82632335D01*
X130792452Y-82747544D01*
X130792455Y-82747547D01*
X130907664Y-82833793D01*
X130907671Y-82833797D01*
X131042517Y-82884091D01*
X131042516Y-82884091D01*
X131049444Y-82884835D01*
X131102127Y-82890500D01*
X132897872Y-82890499D01*
X132957483Y-82884091D01*
X133092331Y-82833796D01*
X133207546Y-82747546D01*
X133293796Y-82632331D01*
X133344091Y-82497483D01*
X133350500Y-82437873D01*
X133350499Y-80642128D01*
X133344091Y-80582517D01*
X133306770Y-80482455D01*
X133293797Y-80447671D01*
X133293793Y-80447664D01*
X133207547Y-80332455D01*
X133207544Y-80332452D01*
X133092335Y-80246206D01*
X133092328Y-80246202D01*
X132960401Y-80196997D01*
X132904467Y-80155126D01*
X132880050Y-80089662D01*
X132894902Y-80021389D01*
X132916053Y-79993133D01*
X133038108Y-79871078D01*
X133173600Y-79677578D01*
X133273429Y-79463492D01*
X133273432Y-79463486D01*
X133330636Y-79250000D01*
X132433012Y-79250000D01*
X132465925Y-79192993D01*
X132500000Y-79065826D01*
X132500000Y-78934174D01*
X132465925Y-78807007D01*
X132433012Y-78750000D01*
X133330636Y-78750000D01*
X133330635Y-78749999D01*
X133273432Y-78536513D01*
X133273429Y-78536507D01*
X133173600Y-78322422D01*
X133173599Y-78322420D01*
X133038113Y-78128926D01*
X133038108Y-78128920D01*
X132871082Y-77961894D01*
X132677578Y-77826399D01*
X132463492Y-77726570D01*
X132463486Y-77726567D01*
X132250000Y-77669364D01*
X132250000Y-78566988D01*
X132192993Y-78534075D01*
X132065826Y-78500000D01*
X131934174Y-78500000D01*
X131807007Y-78534075D01*
X131750000Y-78566988D01*
X131750000Y-77669364D01*
X131749999Y-77669364D01*
X131536513Y-77726567D01*
X131536507Y-77726570D01*
X131322422Y-77826399D01*
X131322420Y-77826400D01*
X131128926Y-77961886D01*
X131128920Y-77961891D01*
X130961891Y-78128920D01*
X130961886Y-78128926D01*
X130826400Y-78322420D01*
X130826399Y-78322422D01*
X130726570Y-78536507D01*
X130726567Y-78536513D01*
X130669364Y-78749999D01*
X130669364Y-78750000D01*
X131566988Y-78750000D01*
X131534075Y-78807007D01*
X131500000Y-78934174D01*
X131500000Y-79065826D01*
X131534075Y-79192993D01*
X131566988Y-79250000D01*
X130669364Y-79250000D01*
X130726567Y-79463486D01*
X130726570Y-79463492D01*
X130826399Y-79677578D01*
X130961894Y-79871082D01*
X131083946Y-79993134D01*
X131117431Y-80054457D01*
X131112447Y-80124149D01*
X131070575Y-80180082D01*
X131039598Y-80196997D01*
X130907671Y-80246202D01*
X130907664Y-80246206D01*
X130792455Y-80332452D01*
X130792452Y-80332455D01*
X130706206Y-80447664D01*
X130706202Y-80447671D01*
X130655908Y-80582517D01*
X130649501Y-80642116D01*
X130649501Y-80642123D01*
X130649500Y-80642135D01*
X126500500Y-80642135D01*
X126500500Y-75624500D01*
X126520185Y-75557461D01*
X126572989Y-75511706D01*
X126624500Y-75500500D01*
X160375500Y-75500500D01*
X160442539Y-75520185D01*
G37*
G04 #@! TD.AperFunction*
M02*
