M48
; DRILL file {KiCad 8.0.4} date 2024-10-22T19:26:31-0700
; FORMAT={-:-/ absolute / metric / decimal}
; #@! TF.CreationDate,2024-10-22T19:26:31-07:00
; #@! TF.GenerationSoftware,Kicad,Pcbnew,8.0.4
; #@! TF.FileFunction,Plated,1,4,PTH
FMAT,2
METRIC
; #@! TA.AperFunction,Plated,PTH,ComponentDrill
T1C0.800
; #@! TA.AperFunction,Plated,PTH,ComponentDrill
T2C1.000
%
G90
G05
T1
X129.0Y-108.0
X129.0Y-113.0
X131.0Y-87.0
X133.0Y-87.0
X135.0Y-108.0
X135.0Y-113.0
T2
X129.0Y-96.0
X129.0Y-98.54
X129.0Y-101.08
X132.0Y-79.0
X132.0Y-81.54
X135.0Y-96.0
X135.0Y-98.54
X135.0Y-101.08
X140.5Y-81.64
X140.5Y-84.18
X140.5Y-86.72
X140.5Y-89.26
X140.5Y-91.8
X140.5Y-94.34
X140.5Y-96.88
X140.5Y-99.42
X140.5Y-101.96
X140.5Y-104.5
X140.5Y-107.04
X140.5Y-109.58
X140.5Y-112.12
X140.5Y-114.66
X140.5Y-117.2
X155.74Y-81.64
X155.74Y-84.18
X155.74Y-86.72
X155.74Y-89.26
X155.74Y-91.8
X155.74Y-94.34
X155.74Y-96.88
X155.74Y-99.42
X155.74Y-101.96
X155.74Y-104.5
X155.74Y-107.04
X155.74Y-109.58
X155.74Y-112.12
X155.74Y-114.66
X155.74Y-117.2
M30
