G04 #@! TF.GenerationSoftware,KiCad,Pcbnew,8.0.4*
G04 #@! TF.CreationDate,2024-10-30T20:05:23-07:00*
G04 #@! TF.ProjectId,Valve,56616c76-652e-46b6-9963-61645f706362,rev?*
G04 #@! TF.SameCoordinates,Original*
G04 #@! TF.FileFunction,Legend,Top*
G04 #@! TF.FilePolarity,Positive*
%FSLAX46Y46*%
G04 Gerber Fmt 4.6, Leading zero omitted, Abs format (unit mm)*
G04 Created by KiCad (PCBNEW 8.0.4) date 2024-10-30 20:05:23*
%MOMM*%
%LPD*%
G01*
G04 APERTURE LIST*
%ADD10C,0.152400*%
%ADD11C,0.150000*%
%ADD12C,0.120000*%
%ADD13R,1.700000X1.700000*%
%ADD14O,1.700000X1.700000*%
%ADD15C,1.600000*%
%ADD16R,1.600000X1.600000*%
%ADD17O,1.600000X1.600000*%
G04 APERTURE END LIST*
D10*
X129293786Y-79082965D02*
X129913063Y-79082965D01*
X144116377Y-89879803D02*
X144309901Y-90692603D01*
X144309901Y-90692603D02*
X144464720Y-90112032D01*
X144464720Y-90112032D02*
X144619539Y-90692603D01*
X144619539Y-90692603D02*
X144813063Y-89879803D01*
X145471043Y-90692603D02*
X145471043Y-90266851D01*
X145471043Y-90266851D02*
X145432338Y-90189441D01*
X145432338Y-90189441D02*
X145354929Y-90150737D01*
X145354929Y-90150737D02*
X145200110Y-90150737D01*
X145200110Y-90150737D02*
X145122700Y-90189441D01*
X145471043Y-90653899D02*
X145393634Y-90692603D01*
X145393634Y-90692603D02*
X145200110Y-90692603D01*
X145200110Y-90692603D02*
X145122700Y-90653899D01*
X145122700Y-90653899D02*
X145083996Y-90576489D01*
X145083996Y-90576489D02*
X145083996Y-90499079D01*
X145083996Y-90499079D02*
X145122700Y-90421670D01*
X145122700Y-90421670D02*
X145200110Y-90382965D01*
X145200110Y-90382965D02*
X145393634Y-90382965D01*
X145393634Y-90382965D02*
X145471043Y-90344260D01*
X145780681Y-90150737D02*
X145974205Y-90692603D01*
X146167728Y-90150737D02*
X145974205Y-90692603D01*
X145974205Y-90692603D02*
X145896795Y-90886127D01*
X145896795Y-90886127D02*
X145858090Y-90924832D01*
X145858090Y-90924832D02*
X145780681Y-90963537D01*
X146399957Y-89879803D02*
X146593481Y-90692603D01*
X146593481Y-90692603D02*
X146748300Y-90112032D01*
X146748300Y-90112032D02*
X146903119Y-90692603D01*
X146903119Y-90692603D02*
X147096643Y-89879803D01*
X147754623Y-90692603D02*
X147754623Y-90266851D01*
X147754623Y-90266851D02*
X147715918Y-90189441D01*
X147715918Y-90189441D02*
X147638509Y-90150737D01*
X147638509Y-90150737D02*
X147483690Y-90150737D01*
X147483690Y-90150737D02*
X147406280Y-90189441D01*
X147754623Y-90653899D02*
X147677214Y-90692603D01*
X147677214Y-90692603D02*
X147483690Y-90692603D01*
X147483690Y-90692603D02*
X147406280Y-90653899D01*
X147406280Y-90653899D02*
X147367576Y-90576489D01*
X147367576Y-90576489D02*
X147367576Y-90499079D01*
X147367576Y-90499079D02*
X147406280Y-90421670D01*
X147406280Y-90421670D02*
X147483690Y-90382965D01*
X147483690Y-90382965D02*
X147677214Y-90382965D01*
X147677214Y-90382965D02*
X147754623Y-90344260D01*
X148064261Y-90150737D02*
X148257785Y-90692603D01*
X148451308Y-90150737D02*
X148257785Y-90692603D01*
X148257785Y-90692603D02*
X148180375Y-90886127D01*
X148180375Y-90886127D02*
X148141670Y-90924832D01*
X148141670Y-90924832D02*
X148064261Y-90963537D01*
X148683537Y-89879803D02*
X148877061Y-90692603D01*
X148877061Y-90692603D02*
X149031880Y-90112032D01*
X149031880Y-90112032D02*
X149186699Y-90692603D01*
X149186699Y-90692603D02*
X149380223Y-89879803D01*
X150038203Y-90692603D02*
X150038203Y-90266851D01*
X150038203Y-90266851D02*
X149999498Y-90189441D01*
X149999498Y-90189441D02*
X149922089Y-90150737D01*
X149922089Y-90150737D02*
X149767270Y-90150737D01*
X149767270Y-90150737D02*
X149689860Y-90189441D01*
X150038203Y-90653899D02*
X149960794Y-90692603D01*
X149960794Y-90692603D02*
X149767270Y-90692603D01*
X149767270Y-90692603D02*
X149689860Y-90653899D01*
X149689860Y-90653899D02*
X149651156Y-90576489D01*
X149651156Y-90576489D02*
X149651156Y-90499079D01*
X149651156Y-90499079D02*
X149689860Y-90421670D01*
X149689860Y-90421670D02*
X149767270Y-90382965D01*
X149767270Y-90382965D02*
X149960794Y-90382965D01*
X149960794Y-90382965D02*
X150038203Y-90344260D01*
X150347841Y-90150737D02*
X150541365Y-90692603D01*
X150734888Y-90150737D02*
X150541365Y-90692603D01*
X150541365Y-90692603D02*
X150463955Y-90886127D01*
X150463955Y-90886127D02*
X150425250Y-90924832D01*
X150425250Y-90924832D02*
X150347841Y-90963537D01*
X126455082Y-96453899D02*
X126571196Y-96492603D01*
X126571196Y-96492603D02*
X126764720Y-96492603D01*
X126764720Y-96492603D02*
X126842129Y-96453899D01*
X126842129Y-96453899D02*
X126880834Y-96415194D01*
X126880834Y-96415194D02*
X126919539Y-96337784D01*
X126919539Y-96337784D02*
X126919539Y-96260375D01*
X126919539Y-96260375D02*
X126880834Y-96182965D01*
X126880834Y-96182965D02*
X126842129Y-96144260D01*
X126842129Y-96144260D02*
X126764720Y-96105556D01*
X126764720Y-96105556D02*
X126609901Y-96066851D01*
X126609901Y-96066851D02*
X126532491Y-96028146D01*
X126532491Y-96028146D02*
X126493786Y-95989441D01*
X126493786Y-95989441D02*
X126455082Y-95912032D01*
X126455082Y-95912032D02*
X126455082Y-95834622D01*
X126455082Y-95834622D02*
X126493786Y-95757213D01*
X126493786Y-95757213D02*
X126532491Y-95718508D01*
X126532491Y-95718508D02*
X126609901Y-95679803D01*
X126609901Y-95679803D02*
X126803424Y-95679803D01*
X126803424Y-95679803D02*
X126919539Y-95718508D01*
X126393786Y-98482965D02*
X127013063Y-98482965D01*
X126703424Y-98792603D02*
X126703424Y-98173327D01*
X126393786Y-100982965D02*
X127013063Y-100982965D01*
X129293786Y-81582965D02*
X129913063Y-81582965D01*
X129603424Y-81892603D02*
X129603424Y-81273327D01*
X126855082Y-121228213D02*
X126971196Y-121266917D01*
X126971196Y-121266917D02*
X127164720Y-121266917D01*
X127164720Y-121266917D02*
X127242129Y-121228213D01*
X127242129Y-121228213D02*
X127280834Y-121189508D01*
X127280834Y-121189508D02*
X127319539Y-121112098D01*
X127319539Y-121112098D02*
X127319539Y-121034689D01*
X127319539Y-121034689D02*
X127280834Y-120957279D01*
X127280834Y-120957279D02*
X127242129Y-120918574D01*
X127242129Y-120918574D02*
X127164720Y-120879870D01*
X127164720Y-120879870D02*
X127009901Y-120841165D01*
X127009901Y-120841165D02*
X126932491Y-120802460D01*
X126932491Y-120802460D02*
X126893786Y-120763755D01*
X126893786Y-120763755D02*
X126855082Y-120686346D01*
X126855082Y-120686346D02*
X126855082Y-120608936D01*
X126855082Y-120608936D02*
X126893786Y-120531527D01*
X126893786Y-120531527D02*
X126932491Y-120492822D01*
X126932491Y-120492822D02*
X127009901Y-120454117D01*
X127009901Y-120454117D02*
X127203424Y-120454117D01*
X127203424Y-120454117D02*
X127319539Y-120492822D01*
X127667881Y-120841165D02*
X127938815Y-120841165D01*
X128054929Y-121266917D02*
X127667881Y-121266917D01*
X127667881Y-121266917D02*
X127667881Y-120454117D01*
X127667881Y-120454117D02*
X128054929Y-120454117D01*
X128867728Y-121266917D02*
X128596795Y-120879870D01*
X128403271Y-121266917D02*
X128403271Y-120454117D01*
X128403271Y-120454117D02*
X128712909Y-120454117D01*
X128712909Y-120454117D02*
X128790319Y-120492822D01*
X128790319Y-120492822D02*
X128829024Y-120531527D01*
X128829024Y-120531527D02*
X128867728Y-120608936D01*
X128867728Y-120608936D02*
X128867728Y-120725051D01*
X128867728Y-120725051D02*
X128829024Y-120802460D01*
X128829024Y-120802460D02*
X128790319Y-120841165D01*
X128790319Y-120841165D02*
X128712909Y-120879870D01*
X128712909Y-120879870D02*
X128403271Y-120879870D01*
X129099957Y-120454117D02*
X129370890Y-121266917D01*
X129370890Y-121266917D02*
X129641824Y-120454117D01*
X130067576Y-120454117D02*
X130222395Y-120454117D01*
X130222395Y-120454117D02*
X130299805Y-120492822D01*
X130299805Y-120492822D02*
X130377214Y-120570232D01*
X130377214Y-120570232D02*
X130415919Y-120725051D01*
X130415919Y-120725051D02*
X130415919Y-120995984D01*
X130415919Y-120995984D02*
X130377214Y-121150803D01*
X130377214Y-121150803D02*
X130299805Y-121228213D01*
X130299805Y-121228213D02*
X130222395Y-121266917D01*
X130222395Y-121266917D02*
X130067576Y-121266917D01*
X130067576Y-121266917D02*
X129990167Y-121228213D01*
X129990167Y-121228213D02*
X129912757Y-121150803D01*
X129912757Y-121150803D02*
X129874053Y-120995984D01*
X129874053Y-120995984D02*
X129874053Y-120725051D01*
X129874053Y-120725051D02*
X129912757Y-120570232D01*
X129912757Y-120570232D02*
X129990167Y-120492822D01*
X129990167Y-120492822D02*
X130067576Y-120454117D01*
X131344834Y-121034689D02*
X131731881Y-121034689D01*
X131267424Y-121266917D02*
X131538357Y-120454117D01*
X131538357Y-120454117D02*
X131809291Y-121266917D01*
X132544681Y-121189508D02*
X132505977Y-121228213D01*
X132505977Y-121228213D02*
X132389862Y-121266917D01*
X132389862Y-121266917D02*
X132312453Y-121266917D01*
X132312453Y-121266917D02*
X132196339Y-121228213D01*
X132196339Y-121228213D02*
X132118929Y-121150803D01*
X132118929Y-121150803D02*
X132080224Y-121073393D01*
X132080224Y-121073393D02*
X132041520Y-120918574D01*
X132041520Y-120918574D02*
X132041520Y-120802460D01*
X132041520Y-120802460D02*
X132080224Y-120647641D01*
X132080224Y-120647641D02*
X132118929Y-120570232D01*
X132118929Y-120570232D02*
X132196339Y-120492822D01*
X132196339Y-120492822D02*
X132312453Y-120454117D01*
X132312453Y-120454117D02*
X132389862Y-120454117D01*
X132389862Y-120454117D02*
X132505977Y-120492822D01*
X132505977Y-120492822D02*
X132544681Y-120531527D01*
X132776910Y-120454117D02*
X133241367Y-120454117D01*
X133009139Y-121266917D02*
X133009139Y-120454117D01*
X133512300Y-120454117D02*
X133512300Y-121112098D01*
X133512300Y-121112098D02*
X133551005Y-121189508D01*
X133551005Y-121189508D02*
X133589710Y-121228213D01*
X133589710Y-121228213D02*
X133667119Y-121266917D01*
X133667119Y-121266917D02*
X133821938Y-121266917D01*
X133821938Y-121266917D02*
X133899348Y-121228213D01*
X133899348Y-121228213D02*
X133938053Y-121189508D01*
X133938053Y-121189508D02*
X133976757Y-121112098D01*
X133976757Y-121112098D02*
X133976757Y-120454117D01*
X134325101Y-121034689D02*
X134712148Y-121034689D01*
X134247691Y-121266917D02*
X134518624Y-120454117D01*
X134518624Y-120454117D02*
X134789558Y-121266917D01*
X134944377Y-120454117D02*
X135408834Y-120454117D01*
X135176606Y-121266917D02*
X135176606Y-120454117D01*
X135679767Y-120841165D02*
X135950701Y-120841165D01*
X136066815Y-121266917D02*
X135679767Y-121266917D01*
X135679767Y-121266917D02*
X135679767Y-120454117D01*
X135679767Y-120454117D02*
X136066815Y-120454117D01*
X136415157Y-121266917D02*
X136415157Y-120454117D01*
X136415157Y-120454117D02*
X136608681Y-120454117D01*
X136608681Y-120454117D02*
X136724795Y-120492822D01*
X136724795Y-120492822D02*
X136802205Y-120570232D01*
X136802205Y-120570232D02*
X136840910Y-120647641D01*
X136840910Y-120647641D02*
X136879614Y-120802460D01*
X136879614Y-120802460D02*
X136879614Y-120918574D01*
X136879614Y-120918574D02*
X136840910Y-121073393D01*
X136840910Y-121073393D02*
X136802205Y-121150803D01*
X136802205Y-121150803D02*
X136724795Y-121228213D01*
X136724795Y-121228213D02*
X136608681Y-121266917D01*
X136608681Y-121266917D02*
X136415157Y-121266917D01*
X127164720Y-122149727D02*
X127280834Y-122188432D01*
X127280834Y-122188432D02*
X127319539Y-122227136D01*
X127319539Y-122227136D02*
X127358243Y-122304546D01*
X127358243Y-122304546D02*
X127358243Y-122420660D01*
X127358243Y-122420660D02*
X127319539Y-122498070D01*
X127319539Y-122498070D02*
X127280834Y-122536775D01*
X127280834Y-122536775D02*
X127203424Y-122575479D01*
X127203424Y-122575479D02*
X126893786Y-122575479D01*
X126893786Y-122575479D02*
X126893786Y-121762679D01*
X126893786Y-121762679D02*
X127164720Y-121762679D01*
X127164720Y-121762679D02*
X127242129Y-121801384D01*
X127242129Y-121801384D02*
X127280834Y-121840089D01*
X127280834Y-121840089D02*
X127319539Y-121917498D01*
X127319539Y-121917498D02*
X127319539Y-121994908D01*
X127319539Y-121994908D02*
X127280834Y-122072317D01*
X127280834Y-122072317D02*
X127242129Y-122111022D01*
X127242129Y-122111022D02*
X127164720Y-122149727D01*
X127164720Y-122149727D02*
X126893786Y-122149727D01*
X127667882Y-122343251D02*
X128054929Y-122343251D01*
X127590472Y-122575479D02*
X127861405Y-121762679D01*
X127861405Y-121762679D02*
X128132339Y-122575479D01*
X128790320Y-122575479D02*
X128403272Y-122575479D01*
X128403272Y-122575479D02*
X128403272Y-121762679D01*
X129448301Y-122575479D02*
X129061253Y-122575479D01*
X129061253Y-122575479D02*
X129061253Y-121762679D01*
X130222396Y-121762679D02*
X130493329Y-122575479D01*
X130493329Y-122575479D02*
X130764263Y-121762679D01*
X130996492Y-122343251D02*
X131383539Y-122343251D01*
X130919082Y-122575479D02*
X131190015Y-121762679D01*
X131190015Y-121762679D02*
X131460949Y-122575479D01*
X132118930Y-122575479D02*
X131731882Y-122575479D01*
X131731882Y-122575479D02*
X131731882Y-121762679D01*
X132273749Y-121762679D02*
X132544682Y-122575479D01*
X132544682Y-122575479D02*
X132815616Y-121762679D01*
X133086549Y-122149727D02*
X133357483Y-122149727D01*
X133473597Y-122575479D02*
X133086549Y-122575479D01*
X133086549Y-122575479D02*
X133086549Y-121762679D01*
X133086549Y-121762679D02*
X133473597Y-121762679D01*
X134325101Y-121762679D02*
X134596034Y-122575479D01*
X134596034Y-122575479D02*
X134866968Y-121762679D01*
X135099197Y-121840089D02*
X135137901Y-121801384D01*
X135137901Y-121801384D02*
X135215311Y-121762679D01*
X135215311Y-121762679D02*
X135408835Y-121762679D01*
X135408835Y-121762679D02*
X135486244Y-121801384D01*
X135486244Y-121801384D02*
X135524949Y-121840089D01*
X135524949Y-121840089D02*
X135563654Y-121917498D01*
X135563654Y-121917498D02*
X135563654Y-121994908D01*
X135563654Y-121994908D02*
X135524949Y-122111022D01*
X135524949Y-122111022D02*
X135060492Y-122575479D01*
X135060492Y-122575479D02*
X135563654Y-122575479D01*
X127048605Y-123071241D02*
X127203424Y-123071241D01*
X127203424Y-123071241D02*
X127280834Y-123109946D01*
X127280834Y-123109946D02*
X127358243Y-123187356D01*
X127358243Y-123187356D02*
X127396948Y-123342175D01*
X127396948Y-123342175D02*
X127396948Y-123613108D01*
X127396948Y-123613108D02*
X127358243Y-123767927D01*
X127358243Y-123767927D02*
X127280834Y-123845337D01*
X127280834Y-123845337D02*
X127203424Y-123884041D01*
X127203424Y-123884041D02*
X127048605Y-123884041D01*
X127048605Y-123884041D02*
X126971196Y-123845337D01*
X126971196Y-123845337D02*
X126893786Y-123767927D01*
X126893786Y-123767927D02*
X126855082Y-123613108D01*
X126855082Y-123613108D02*
X126855082Y-123342175D01*
X126855082Y-123342175D02*
X126893786Y-123187356D01*
X126893786Y-123187356D02*
X126971196Y-123109946D01*
X126971196Y-123109946D02*
X127048605Y-123071241D01*
X128209748Y-123806632D02*
X128171044Y-123845337D01*
X128171044Y-123845337D02*
X128054929Y-123884041D01*
X128054929Y-123884041D02*
X127977520Y-123884041D01*
X127977520Y-123884041D02*
X127861406Y-123845337D01*
X127861406Y-123845337D02*
X127783996Y-123767927D01*
X127783996Y-123767927D02*
X127745291Y-123690517D01*
X127745291Y-123690517D02*
X127706587Y-123535698D01*
X127706587Y-123535698D02*
X127706587Y-123419584D01*
X127706587Y-123419584D02*
X127745291Y-123264765D01*
X127745291Y-123264765D02*
X127783996Y-123187356D01*
X127783996Y-123187356D02*
X127861406Y-123109946D01*
X127861406Y-123109946D02*
X127977520Y-123071241D01*
X127977520Y-123071241D02*
X128054929Y-123071241D01*
X128054929Y-123071241D02*
X128171044Y-123109946D01*
X128171044Y-123109946D02*
X128209748Y-123148651D01*
X128441977Y-123071241D02*
X128906434Y-123071241D01*
X128674206Y-123884041D02*
X128674206Y-123071241D01*
X129719234Y-123071241D02*
X130222396Y-123071241D01*
X130222396Y-123071241D02*
X129951462Y-123380879D01*
X129951462Y-123380879D02*
X130067577Y-123380879D01*
X130067577Y-123380879D02*
X130144986Y-123419584D01*
X130144986Y-123419584D02*
X130183691Y-123458289D01*
X130183691Y-123458289D02*
X130222396Y-123535698D01*
X130222396Y-123535698D02*
X130222396Y-123729222D01*
X130222396Y-123729222D02*
X130183691Y-123806632D01*
X130183691Y-123806632D02*
X130144986Y-123845337D01*
X130144986Y-123845337D02*
X130067577Y-123884041D01*
X130067577Y-123884041D02*
X129835348Y-123884041D01*
X129835348Y-123884041D02*
X129757939Y-123845337D01*
X129757939Y-123845337D02*
X129719234Y-123806632D01*
X130725557Y-123071241D02*
X130802967Y-123071241D01*
X130802967Y-123071241D02*
X130880376Y-123109946D01*
X130880376Y-123109946D02*
X130919081Y-123148651D01*
X130919081Y-123148651D02*
X130957786Y-123226060D01*
X130957786Y-123226060D02*
X130996491Y-123380879D01*
X130996491Y-123380879D02*
X130996491Y-123574403D01*
X130996491Y-123574403D02*
X130957786Y-123729222D01*
X130957786Y-123729222D02*
X130919081Y-123806632D01*
X130919081Y-123806632D02*
X130880376Y-123845337D01*
X130880376Y-123845337D02*
X130802967Y-123884041D01*
X130802967Y-123884041D02*
X130725557Y-123884041D01*
X130725557Y-123884041D02*
X130648148Y-123845337D01*
X130648148Y-123845337D02*
X130609443Y-123806632D01*
X130609443Y-123806632D02*
X130570738Y-123729222D01*
X130570738Y-123729222D02*
X130532034Y-123574403D01*
X130532034Y-123574403D02*
X130532034Y-123380879D01*
X130532034Y-123380879D02*
X130570738Y-123226060D01*
X130570738Y-123226060D02*
X130609443Y-123148651D01*
X130609443Y-123148651D02*
X130648148Y-123109946D01*
X130648148Y-123109946D02*
X130725557Y-123071241D01*
X131925405Y-123148651D02*
X131964109Y-123109946D01*
X131964109Y-123109946D02*
X132041519Y-123071241D01*
X132041519Y-123071241D02*
X132235043Y-123071241D01*
X132235043Y-123071241D02*
X132312452Y-123109946D01*
X132312452Y-123109946D02*
X132351157Y-123148651D01*
X132351157Y-123148651D02*
X132389862Y-123226060D01*
X132389862Y-123226060D02*
X132389862Y-123303470D01*
X132389862Y-123303470D02*
X132351157Y-123419584D01*
X132351157Y-123419584D02*
X131886700Y-123884041D01*
X131886700Y-123884041D02*
X132389862Y-123884041D01*
X132893023Y-123071241D02*
X132970433Y-123071241D01*
X132970433Y-123071241D02*
X133047842Y-123109946D01*
X133047842Y-123109946D02*
X133086547Y-123148651D01*
X133086547Y-123148651D02*
X133125252Y-123226060D01*
X133125252Y-123226060D02*
X133163957Y-123380879D01*
X133163957Y-123380879D02*
X133163957Y-123574403D01*
X133163957Y-123574403D02*
X133125252Y-123729222D01*
X133125252Y-123729222D02*
X133086547Y-123806632D01*
X133086547Y-123806632D02*
X133047842Y-123845337D01*
X133047842Y-123845337D02*
X132970433Y-123884041D01*
X132970433Y-123884041D02*
X132893023Y-123884041D01*
X132893023Y-123884041D02*
X132815614Y-123845337D01*
X132815614Y-123845337D02*
X132776909Y-123806632D01*
X132776909Y-123806632D02*
X132738204Y-123729222D01*
X132738204Y-123729222D02*
X132699500Y-123574403D01*
X132699500Y-123574403D02*
X132699500Y-123380879D01*
X132699500Y-123380879D02*
X132738204Y-123226060D01*
X132738204Y-123226060D02*
X132776909Y-123148651D01*
X132776909Y-123148651D02*
X132815614Y-123109946D01*
X132815614Y-123109946D02*
X132893023Y-123071241D01*
X133473595Y-123148651D02*
X133512299Y-123109946D01*
X133512299Y-123109946D02*
X133589709Y-123071241D01*
X133589709Y-123071241D02*
X133783233Y-123071241D01*
X133783233Y-123071241D02*
X133860642Y-123109946D01*
X133860642Y-123109946D02*
X133899347Y-123148651D01*
X133899347Y-123148651D02*
X133938052Y-123226060D01*
X133938052Y-123226060D02*
X133938052Y-123303470D01*
X133938052Y-123303470D02*
X133899347Y-123419584D01*
X133899347Y-123419584D02*
X133434890Y-123884041D01*
X133434890Y-123884041D02*
X133938052Y-123884041D01*
X134634737Y-123342175D02*
X134634737Y-123884041D01*
X134441213Y-123032537D02*
X134247690Y-123613108D01*
X134247690Y-123613108D02*
X134750851Y-123613108D01*
X126893786Y-125192603D02*
X126893786Y-124379803D01*
X127358243Y-125192603D02*
X127009901Y-124728146D01*
X127358243Y-124379803D02*
X126893786Y-124844260D01*
X127706586Y-125192603D02*
X127706586Y-124379803D01*
X127706586Y-124766851D02*
X128171043Y-124766851D01*
X128171043Y-125192603D02*
X128171043Y-124379803D01*
X128519387Y-124960375D02*
X128906434Y-124960375D01*
X128441977Y-125192603D02*
X128712910Y-124379803D01*
X128712910Y-124379803D02*
X128983844Y-125192603D01*
X129254777Y-125192603D02*
X129254777Y-124379803D01*
X129254777Y-124379803D02*
X129719234Y-125192603D01*
X129719234Y-125192603D02*
X129719234Y-124379803D01*
X130686854Y-125153899D02*
X130802968Y-125192603D01*
X130802968Y-125192603D02*
X130996492Y-125192603D01*
X130996492Y-125192603D02*
X131073901Y-125153899D01*
X131073901Y-125153899D02*
X131112606Y-125115194D01*
X131112606Y-125115194D02*
X131151311Y-125037784D01*
X131151311Y-125037784D02*
X131151311Y-124960375D01*
X131151311Y-124960375D02*
X131112606Y-124882965D01*
X131112606Y-124882965D02*
X131073901Y-124844260D01*
X131073901Y-124844260D02*
X130996492Y-124805556D01*
X130996492Y-124805556D02*
X130841673Y-124766851D01*
X130841673Y-124766851D02*
X130764263Y-124728146D01*
X130764263Y-124728146D02*
X130725558Y-124689441D01*
X130725558Y-124689441D02*
X130686854Y-124612032D01*
X130686854Y-124612032D02*
X130686854Y-124534622D01*
X130686854Y-124534622D02*
X130725558Y-124457213D01*
X130725558Y-124457213D02*
X130764263Y-124418508D01*
X130764263Y-124418508D02*
X130841673Y-124379803D01*
X130841673Y-124379803D02*
X131035196Y-124379803D01*
X131035196Y-124379803D02*
X131151311Y-124418508D01*
X131499653Y-125192603D02*
X131499653Y-124379803D01*
X131499653Y-124379803D02*
X131809291Y-124379803D01*
X131809291Y-124379803D02*
X131886701Y-124418508D01*
X131886701Y-124418508D02*
X131925406Y-124457213D01*
X131925406Y-124457213D02*
X131964110Y-124534622D01*
X131964110Y-124534622D02*
X131964110Y-124650737D01*
X131964110Y-124650737D02*
X131925406Y-124728146D01*
X131925406Y-124728146D02*
X131886701Y-124766851D01*
X131886701Y-124766851D02*
X131809291Y-124805556D01*
X131809291Y-124805556D02*
X131499653Y-124805556D01*
X132273749Y-124960375D02*
X132660796Y-124960375D01*
X132196339Y-125192603D02*
X132467272Y-124379803D01*
X132467272Y-124379803D02*
X132738206Y-125192603D01*
X133473596Y-125115194D02*
X133434892Y-125153899D01*
X133434892Y-125153899D02*
X133318777Y-125192603D01*
X133318777Y-125192603D02*
X133241368Y-125192603D01*
X133241368Y-125192603D02*
X133125254Y-125153899D01*
X133125254Y-125153899D02*
X133047844Y-125076489D01*
X133047844Y-125076489D02*
X133009139Y-124999079D01*
X133009139Y-124999079D02*
X132970435Y-124844260D01*
X132970435Y-124844260D02*
X132970435Y-124728146D01*
X132970435Y-124728146D02*
X133009139Y-124573327D01*
X133009139Y-124573327D02*
X133047844Y-124495918D01*
X133047844Y-124495918D02*
X133125254Y-124418508D01*
X133125254Y-124418508D02*
X133241368Y-124379803D01*
X133241368Y-124379803D02*
X133318777Y-124379803D01*
X133318777Y-124379803D02*
X133434892Y-124418508D01*
X133434892Y-124418508D02*
X133473596Y-124457213D01*
X133821939Y-124766851D02*
X134092873Y-124766851D01*
X134208987Y-125192603D02*
X133821939Y-125192603D01*
X133821939Y-125192603D02*
X133821939Y-124379803D01*
X133821939Y-124379803D02*
X134208987Y-124379803D01*
X135176605Y-125192603D02*
X135176605Y-124379803D01*
X135563653Y-125192603D02*
X135563653Y-124379803D01*
X135563653Y-124379803D02*
X136028110Y-125192603D01*
X136028110Y-125192603D02*
X136028110Y-124379803D01*
X136415158Y-125192603D02*
X136415158Y-124379803D01*
X136415158Y-124379803D02*
X136608682Y-124379803D01*
X136608682Y-124379803D02*
X136724796Y-124418508D01*
X136724796Y-124418508D02*
X136802206Y-124495918D01*
X136802206Y-124495918D02*
X136840911Y-124573327D01*
X136840911Y-124573327D02*
X136879615Y-124728146D01*
X136879615Y-124728146D02*
X136879615Y-124844260D01*
X136879615Y-124844260D02*
X136840911Y-124999079D01*
X136840911Y-124999079D02*
X136802206Y-125076489D01*
X136802206Y-125076489D02*
X136724796Y-125153899D01*
X136724796Y-125153899D02*
X136608682Y-125192603D01*
X136608682Y-125192603D02*
X136415158Y-125192603D01*
X137227958Y-124379803D02*
X137227958Y-125037784D01*
X137227958Y-125037784D02*
X137266663Y-125115194D01*
X137266663Y-125115194D02*
X137305368Y-125153899D01*
X137305368Y-125153899D02*
X137382777Y-125192603D01*
X137382777Y-125192603D02*
X137537596Y-125192603D01*
X137537596Y-125192603D02*
X137615006Y-125153899D01*
X137615006Y-125153899D02*
X137653711Y-125115194D01*
X137653711Y-125115194D02*
X137692415Y-125037784D01*
X137692415Y-125037784D02*
X137692415Y-124379803D01*
X138040759Y-125153899D02*
X138156873Y-125192603D01*
X138156873Y-125192603D02*
X138350397Y-125192603D01*
X138350397Y-125192603D02*
X138427806Y-125153899D01*
X138427806Y-125153899D02*
X138466511Y-125115194D01*
X138466511Y-125115194D02*
X138505216Y-125037784D01*
X138505216Y-125037784D02*
X138505216Y-124960375D01*
X138505216Y-124960375D02*
X138466511Y-124882965D01*
X138466511Y-124882965D02*
X138427806Y-124844260D01*
X138427806Y-124844260D02*
X138350397Y-124805556D01*
X138350397Y-124805556D02*
X138195578Y-124766851D01*
X138195578Y-124766851D02*
X138118168Y-124728146D01*
X138118168Y-124728146D02*
X138079463Y-124689441D01*
X138079463Y-124689441D02*
X138040759Y-124612032D01*
X138040759Y-124612032D02*
X138040759Y-124534622D01*
X138040759Y-124534622D02*
X138079463Y-124457213D01*
X138079463Y-124457213D02*
X138118168Y-124418508D01*
X138118168Y-124418508D02*
X138195578Y-124379803D01*
X138195578Y-124379803D02*
X138389101Y-124379803D01*
X138389101Y-124379803D02*
X138505216Y-124418508D01*
X138737444Y-124379803D02*
X139201901Y-124379803D01*
X138969673Y-125192603D02*
X138969673Y-124379803D01*
X139937291Y-125192603D02*
X139666358Y-124805556D01*
X139472834Y-125192603D02*
X139472834Y-124379803D01*
X139472834Y-124379803D02*
X139782472Y-124379803D01*
X139782472Y-124379803D02*
X139859882Y-124418508D01*
X139859882Y-124418508D02*
X139898587Y-124457213D01*
X139898587Y-124457213D02*
X139937291Y-124534622D01*
X139937291Y-124534622D02*
X139937291Y-124650737D01*
X139937291Y-124650737D02*
X139898587Y-124728146D01*
X139898587Y-124728146D02*
X139859882Y-124766851D01*
X139859882Y-124766851D02*
X139782472Y-124805556D01*
X139782472Y-124805556D02*
X139472834Y-124805556D01*
X140285634Y-125192603D02*
X140285634Y-124379803D01*
X140672682Y-124766851D02*
X140943616Y-124766851D01*
X141059730Y-125192603D02*
X140672682Y-125192603D01*
X140672682Y-125192603D02*
X140672682Y-124379803D01*
X140672682Y-124379803D02*
X141059730Y-124379803D01*
X141369368Y-125153899D02*
X141485482Y-125192603D01*
X141485482Y-125192603D02*
X141679006Y-125192603D01*
X141679006Y-125192603D02*
X141756415Y-125153899D01*
X141756415Y-125153899D02*
X141795120Y-125115194D01*
X141795120Y-125115194D02*
X141833825Y-125037784D01*
X141833825Y-125037784D02*
X141833825Y-124960375D01*
X141833825Y-124960375D02*
X141795120Y-124882965D01*
X141795120Y-124882965D02*
X141756415Y-124844260D01*
X141756415Y-124844260D02*
X141679006Y-124805556D01*
X141679006Y-124805556D02*
X141524187Y-124766851D01*
X141524187Y-124766851D02*
X141446777Y-124728146D01*
X141446777Y-124728146D02*
X141408072Y-124689441D01*
X141408072Y-124689441D02*
X141369368Y-124612032D01*
X141369368Y-124612032D02*
X141369368Y-124534622D01*
X141369368Y-124534622D02*
X141408072Y-124457213D01*
X141408072Y-124457213D02*
X141446777Y-124418508D01*
X141446777Y-124418508D02*
X141524187Y-124379803D01*
X141524187Y-124379803D02*
X141717710Y-124379803D01*
X141717710Y-124379803D02*
X141833825Y-124418508D01*
D11*
X131454819Y-99033333D02*
X132169104Y-99033333D01*
X132169104Y-99033333D02*
X132311961Y-99080952D01*
X132311961Y-99080952D02*
X132407200Y-99176190D01*
X132407200Y-99176190D02*
X132454819Y-99319047D01*
X132454819Y-99319047D02*
X132454819Y-99414285D01*
X132454819Y-98033333D02*
X132454819Y-98604761D01*
X132454819Y-98319047D02*
X131454819Y-98319047D01*
X131454819Y-98319047D02*
X131597676Y-98414285D01*
X131597676Y-98414285D02*
X131692914Y-98509523D01*
X131692914Y-98509523D02*
X131740533Y-98604761D01*
X134833333Y-116359580D02*
X134785714Y-116407200D01*
X134785714Y-116407200D02*
X134642857Y-116454819D01*
X134642857Y-116454819D02*
X134547619Y-116454819D01*
X134547619Y-116454819D02*
X134404762Y-116407200D01*
X134404762Y-116407200D02*
X134309524Y-116311961D01*
X134309524Y-116311961D02*
X134261905Y-116216723D01*
X134261905Y-116216723D02*
X134214286Y-116026247D01*
X134214286Y-116026247D02*
X134214286Y-115883390D01*
X134214286Y-115883390D02*
X134261905Y-115692914D01*
X134261905Y-115692914D02*
X134309524Y-115597676D01*
X134309524Y-115597676D02*
X134404762Y-115502438D01*
X134404762Y-115502438D02*
X134547619Y-115454819D01*
X134547619Y-115454819D02*
X134642857Y-115454819D01*
X134642857Y-115454819D02*
X134785714Y-115502438D01*
X134785714Y-115502438D02*
X134833333Y-115550057D01*
X135166667Y-115454819D02*
X135785714Y-115454819D01*
X135785714Y-115454819D02*
X135452381Y-115835771D01*
X135452381Y-115835771D02*
X135595238Y-115835771D01*
X135595238Y-115835771D02*
X135690476Y-115883390D01*
X135690476Y-115883390D02*
X135738095Y-115931009D01*
X135738095Y-115931009D02*
X135785714Y-116026247D01*
X135785714Y-116026247D02*
X135785714Y-116264342D01*
X135785714Y-116264342D02*
X135738095Y-116359580D01*
X135738095Y-116359580D02*
X135690476Y-116407200D01*
X135690476Y-116407200D02*
X135595238Y-116454819D01*
X135595238Y-116454819D02*
X135309524Y-116454819D01*
X135309524Y-116454819D02*
X135214286Y-116407200D01*
X135214286Y-116407200D02*
X135166667Y-116359580D01*
X131833333Y-91659580D02*
X131785714Y-91707200D01*
X131785714Y-91707200D02*
X131642857Y-91754819D01*
X131642857Y-91754819D02*
X131547619Y-91754819D01*
X131547619Y-91754819D02*
X131404762Y-91707200D01*
X131404762Y-91707200D02*
X131309524Y-91611961D01*
X131309524Y-91611961D02*
X131261905Y-91516723D01*
X131261905Y-91516723D02*
X131214286Y-91326247D01*
X131214286Y-91326247D02*
X131214286Y-91183390D01*
X131214286Y-91183390D02*
X131261905Y-90992914D01*
X131261905Y-90992914D02*
X131309524Y-90897676D01*
X131309524Y-90897676D02*
X131404762Y-90802438D01*
X131404762Y-90802438D02*
X131547619Y-90754819D01*
X131547619Y-90754819D02*
X131642857Y-90754819D01*
X131642857Y-90754819D02*
X131785714Y-90802438D01*
X131785714Y-90802438D02*
X131833333Y-90850057D01*
X132785714Y-91754819D02*
X132214286Y-91754819D01*
X132500000Y-91754819D02*
X132500000Y-90754819D01*
X132500000Y-90754819D02*
X132404762Y-90897676D01*
X132404762Y-90897676D02*
X132309524Y-90992914D01*
X132309524Y-90992914D02*
X132214286Y-91040533D01*
X128833333Y-116359580D02*
X128785714Y-116407200D01*
X128785714Y-116407200D02*
X128642857Y-116454819D01*
X128642857Y-116454819D02*
X128547619Y-116454819D01*
X128547619Y-116454819D02*
X128404762Y-116407200D01*
X128404762Y-116407200D02*
X128309524Y-116311961D01*
X128309524Y-116311961D02*
X128261905Y-116216723D01*
X128261905Y-116216723D02*
X128214286Y-116026247D01*
X128214286Y-116026247D02*
X128214286Y-115883390D01*
X128214286Y-115883390D02*
X128261905Y-115692914D01*
X128261905Y-115692914D02*
X128309524Y-115597676D01*
X128309524Y-115597676D02*
X128404762Y-115502438D01*
X128404762Y-115502438D02*
X128547619Y-115454819D01*
X128547619Y-115454819D02*
X128642857Y-115454819D01*
X128642857Y-115454819D02*
X128785714Y-115502438D01*
X128785714Y-115502438D02*
X128833333Y-115550057D01*
X129214286Y-115550057D02*
X129261905Y-115502438D01*
X129261905Y-115502438D02*
X129357143Y-115454819D01*
X129357143Y-115454819D02*
X129595238Y-115454819D01*
X129595238Y-115454819D02*
X129690476Y-115502438D01*
X129690476Y-115502438D02*
X129738095Y-115550057D01*
X129738095Y-115550057D02*
X129785714Y-115645295D01*
X129785714Y-115645295D02*
X129785714Y-115740533D01*
X129785714Y-115740533D02*
X129738095Y-115883390D01*
X129738095Y-115883390D02*
X129166667Y-116454819D01*
X129166667Y-116454819D02*
X129785714Y-116454819D01*
X137254819Y-99033333D02*
X137969104Y-99033333D01*
X137969104Y-99033333D02*
X138111961Y-99080952D01*
X138111961Y-99080952D02*
X138207200Y-99176190D01*
X138207200Y-99176190D02*
X138254819Y-99319047D01*
X138254819Y-99319047D02*
X138254819Y-99414285D01*
X137350057Y-98604761D02*
X137302438Y-98557142D01*
X137302438Y-98557142D02*
X137254819Y-98461904D01*
X137254819Y-98461904D02*
X137254819Y-98223809D01*
X137254819Y-98223809D02*
X137302438Y-98128571D01*
X137302438Y-98128571D02*
X137350057Y-98080952D01*
X137350057Y-98080952D02*
X137445295Y-98033333D01*
X137445295Y-98033333D02*
X137540533Y-98033333D01*
X137540533Y-98033333D02*
X137683390Y-98080952D01*
X137683390Y-98080952D02*
X138254819Y-98652380D01*
X138254819Y-98652380D02*
X138254819Y-98033333D01*
X147405714Y-76729104D02*
X147881904Y-76729104D01*
X147310476Y-77014819D02*
X147643809Y-76014819D01*
X147643809Y-76014819D02*
X147977142Y-77014819D01*
X148834285Y-77014819D02*
X148262857Y-77014819D01*
X148548571Y-77014819D02*
X148548571Y-76014819D01*
X148548571Y-76014819D02*
X148453333Y-76157676D01*
X148453333Y-76157676D02*
X148358095Y-76252914D01*
X148358095Y-76252914D02*
X148262857Y-76300533D01*
X146858095Y-116654819D02*
X146858095Y-117464342D01*
X146858095Y-117464342D02*
X146905714Y-117559580D01*
X146905714Y-117559580D02*
X146953333Y-117607200D01*
X146953333Y-117607200D02*
X147048571Y-117654819D01*
X147048571Y-117654819D02*
X147239047Y-117654819D01*
X147239047Y-117654819D02*
X147334285Y-117607200D01*
X147334285Y-117607200D02*
X147381904Y-117559580D01*
X147381904Y-117559580D02*
X147429523Y-117464342D01*
X147429523Y-117464342D02*
X147429523Y-116654819D01*
X147858095Y-117607200D02*
X148000952Y-117654819D01*
X148000952Y-117654819D02*
X148239047Y-117654819D01*
X148239047Y-117654819D02*
X148334285Y-117607200D01*
X148334285Y-117607200D02*
X148381904Y-117559580D01*
X148381904Y-117559580D02*
X148429523Y-117464342D01*
X148429523Y-117464342D02*
X148429523Y-117369104D01*
X148429523Y-117369104D02*
X148381904Y-117273866D01*
X148381904Y-117273866D02*
X148334285Y-117226247D01*
X148334285Y-117226247D02*
X148239047Y-117178628D01*
X148239047Y-117178628D02*
X148048571Y-117131009D01*
X148048571Y-117131009D02*
X147953333Y-117083390D01*
X147953333Y-117083390D02*
X147905714Y-117035771D01*
X147905714Y-117035771D02*
X147858095Y-116940533D01*
X147858095Y-116940533D02*
X147858095Y-116845295D01*
X147858095Y-116845295D02*
X147905714Y-116750057D01*
X147905714Y-116750057D02*
X147953333Y-116702438D01*
X147953333Y-116702438D02*
X148048571Y-116654819D01*
X148048571Y-116654819D02*
X148286666Y-116654819D01*
X148286666Y-116654819D02*
X148429523Y-116702438D01*
X149191428Y-117131009D02*
X149334285Y-117178628D01*
X149334285Y-117178628D02*
X149381904Y-117226247D01*
X149381904Y-117226247D02*
X149429523Y-117321485D01*
X149429523Y-117321485D02*
X149429523Y-117464342D01*
X149429523Y-117464342D02*
X149381904Y-117559580D01*
X149381904Y-117559580D02*
X149334285Y-117607200D01*
X149334285Y-117607200D02*
X149239047Y-117654819D01*
X149239047Y-117654819D02*
X148858095Y-117654819D01*
X148858095Y-117654819D02*
X148858095Y-116654819D01*
X148858095Y-116654819D02*
X149191428Y-116654819D01*
X149191428Y-116654819D02*
X149286666Y-116702438D01*
X149286666Y-116702438D02*
X149334285Y-116750057D01*
X149334285Y-116750057D02*
X149381904Y-116845295D01*
X149381904Y-116845295D02*
X149381904Y-116940533D01*
X149381904Y-116940533D02*
X149334285Y-117035771D01*
X149334285Y-117035771D02*
X149286666Y-117083390D01*
X149286666Y-117083390D02*
X149191428Y-117131009D01*
X149191428Y-117131009D02*
X148858095Y-117131009D01*
X131666666Y-75454819D02*
X131666666Y-76169104D01*
X131666666Y-76169104D02*
X131619047Y-76311961D01*
X131619047Y-76311961D02*
X131523809Y-76407200D01*
X131523809Y-76407200D02*
X131380952Y-76454819D01*
X131380952Y-76454819D02*
X131285714Y-76454819D01*
X132047619Y-75454819D02*
X132666666Y-75454819D01*
X132666666Y-75454819D02*
X132333333Y-75835771D01*
X132333333Y-75835771D02*
X132476190Y-75835771D01*
X132476190Y-75835771D02*
X132571428Y-75883390D01*
X132571428Y-75883390D02*
X132619047Y-75931009D01*
X132619047Y-75931009D02*
X132666666Y-76026247D01*
X132666666Y-76026247D02*
X132666666Y-76264342D01*
X132666666Y-76264342D02*
X132619047Y-76359580D01*
X132619047Y-76359580D02*
X132571428Y-76407200D01*
X132571428Y-76407200D02*
X132476190Y-76454819D01*
X132476190Y-76454819D02*
X132190476Y-76454819D01*
X132190476Y-76454819D02*
X132095238Y-76407200D01*
X132095238Y-76407200D02*
X132047619Y-76359580D01*
D12*
X127670000Y-99810000D02*
X127670000Y-94670000D01*
X130330000Y-94670000D02*
X127670000Y-94670000D01*
X130330000Y-99810000D02*
X127670000Y-99810000D01*
X130330000Y-99810000D02*
X130330000Y-94670000D01*
X130330000Y-101080000D02*
X130330000Y-102410000D01*
X130330000Y-102410000D02*
X129000000Y-102410000D01*
X133279000Y-107830000D02*
X133945000Y-107830000D01*
X133279000Y-113170000D02*
X133279000Y-107830000D01*
X133279000Y-113170000D02*
X133945000Y-113170000D01*
X136055000Y-107830000D02*
X136721000Y-107830000D01*
X136055000Y-113170000D02*
X136721000Y-113170000D01*
X136721000Y-113170000D02*
X136721000Y-107830000D01*
X129195225Y-85525000D02*
X129695225Y-85525000D01*
X129445225Y-85275000D02*
X129445225Y-85775000D01*
X132000000Y-84420000D02*
X132000000Y-85960000D01*
X132000000Y-88040000D02*
X132000000Y-89580000D01*
X132040000Y-84420000D02*
X132040000Y-85960000D01*
X132040000Y-88040000D02*
X132040000Y-89580000D01*
X132080000Y-84421000D02*
X132080000Y-85960000D01*
X132080000Y-88040000D02*
X132080000Y-89579000D01*
X132120000Y-84422000D02*
X132120000Y-85960000D01*
X132120000Y-88040000D02*
X132120000Y-89578000D01*
X132160000Y-84424000D02*
X132160000Y-85960000D01*
X132160000Y-88040000D02*
X132160000Y-89576000D01*
X132200000Y-84427000D02*
X132200000Y-85960000D01*
X132200000Y-88040000D02*
X132200000Y-89573000D01*
X132240000Y-84431000D02*
X132240000Y-85960000D01*
X132240000Y-88040000D02*
X132240000Y-89569000D01*
X132280000Y-84435000D02*
X132280000Y-85960000D01*
X132280000Y-88040000D02*
X132280000Y-89565000D01*
X132320000Y-84439000D02*
X132320000Y-85960000D01*
X132320000Y-88040000D02*
X132320000Y-89561000D01*
X132360000Y-84444000D02*
X132360000Y-85960000D01*
X132360000Y-88040000D02*
X132360000Y-89556000D01*
X132400000Y-84450000D02*
X132400000Y-85960000D01*
X132400000Y-88040000D02*
X132400000Y-89550000D01*
X132440000Y-84457000D02*
X132440000Y-85960000D01*
X132440000Y-88040000D02*
X132440000Y-89543000D01*
X132480000Y-84464000D02*
X132480000Y-85960000D01*
X132480000Y-88040000D02*
X132480000Y-89536000D01*
X132520000Y-84472000D02*
X132520000Y-85960000D01*
X132520000Y-88040000D02*
X132520000Y-89528000D01*
X132560000Y-84480000D02*
X132560000Y-85960000D01*
X132560000Y-88040000D02*
X132560000Y-89520000D01*
X132600000Y-84489000D02*
X132600000Y-85960000D01*
X132600000Y-88040000D02*
X132600000Y-89511000D01*
X132640000Y-84499000D02*
X132640000Y-85960000D01*
X132640000Y-88040000D02*
X132640000Y-89501000D01*
X132680000Y-84509000D02*
X132680000Y-85960000D01*
X132680000Y-88040000D02*
X132680000Y-89491000D01*
X132721000Y-84520000D02*
X132721000Y-85960000D01*
X132721000Y-88040000D02*
X132721000Y-89480000D01*
X132761000Y-84532000D02*
X132761000Y-85960000D01*
X132761000Y-88040000D02*
X132761000Y-89468000D01*
X132801000Y-84545000D02*
X132801000Y-85960000D01*
X132801000Y-88040000D02*
X132801000Y-89455000D01*
X132841000Y-84558000D02*
X132841000Y-85960000D01*
X132841000Y-88040000D02*
X132841000Y-89442000D01*
X132881000Y-84572000D02*
X132881000Y-85960000D01*
X132881000Y-88040000D02*
X132881000Y-89428000D01*
X132921000Y-84586000D02*
X132921000Y-85960000D01*
X132921000Y-88040000D02*
X132921000Y-89414000D01*
X132961000Y-84602000D02*
X132961000Y-85960000D01*
X132961000Y-88040000D02*
X132961000Y-89398000D01*
X133001000Y-84618000D02*
X133001000Y-85960000D01*
X133001000Y-88040000D02*
X133001000Y-89382000D01*
X133041000Y-84635000D02*
X133041000Y-85960000D01*
X133041000Y-88040000D02*
X133041000Y-89365000D01*
X133081000Y-84652000D02*
X133081000Y-85960000D01*
X133081000Y-88040000D02*
X133081000Y-89348000D01*
X133121000Y-84671000D02*
X133121000Y-85960000D01*
X133121000Y-88040000D02*
X133121000Y-89329000D01*
X133161000Y-84690000D02*
X133161000Y-85960000D01*
X133161000Y-88040000D02*
X133161000Y-89310000D01*
X133201000Y-84710000D02*
X133201000Y-85960000D01*
X133201000Y-88040000D02*
X133201000Y-89290000D01*
X133241000Y-84732000D02*
X133241000Y-85960000D01*
X133241000Y-88040000D02*
X133241000Y-89268000D01*
X133281000Y-84753000D02*
X133281000Y-85960000D01*
X133281000Y-88040000D02*
X133281000Y-89247000D01*
X133321000Y-84776000D02*
X133321000Y-85960000D01*
X133321000Y-88040000D02*
X133321000Y-89224000D01*
X133361000Y-84800000D02*
X133361000Y-85960000D01*
X133361000Y-88040000D02*
X133361000Y-89200000D01*
X133401000Y-84825000D02*
X133401000Y-85960000D01*
X133401000Y-88040000D02*
X133401000Y-89175000D01*
X133441000Y-84851000D02*
X133441000Y-85960000D01*
X133441000Y-88040000D02*
X133441000Y-89149000D01*
X133481000Y-84878000D02*
X133481000Y-85960000D01*
X133481000Y-88040000D02*
X133481000Y-89122000D01*
X133521000Y-84905000D02*
X133521000Y-85960000D01*
X133521000Y-88040000D02*
X133521000Y-89095000D01*
X133561000Y-84935000D02*
X133561000Y-85960000D01*
X133561000Y-88040000D02*
X133561000Y-89065000D01*
X133601000Y-84965000D02*
X133601000Y-85960000D01*
X133601000Y-88040000D02*
X133601000Y-89035000D01*
X133641000Y-84996000D02*
X133641000Y-85960000D01*
X133641000Y-88040000D02*
X133641000Y-89004000D01*
X133681000Y-85029000D02*
X133681000Y-85960000D01*
X133681000Y-88040000D02*
X133681000Y-88971000D01*
X133721000Y-85063000D02*
X133721000Y-85960000D01*
X133721000Y-88040000D02*
X133721000Y-88937000D01*
X133761000Y-85099000D02*
X133761000Y-85960000D01*
X133761000Y-88040000D02*
X133761000Y-88901000D01*
X133801000Y-85136000D02*
X133801000Y-85960000D01*
X133801000Y-88040000D02*
X133801000Y-88864000D01*
X133841000Y-85174000D02*
X133841000Y-85960000D01*
X133841000Y-88040000D02*
X133841000Y-88826000D01*
X133881000Y-85215000D02*
X133881000Y-85960000D01*
X133881000Y-88040000D02*
X133881000Y-88785000D01*
X133921000Y-85257000D02*
X133921000Y-85960000D01*
X133921000Y-88040000D02*
X133921000Y-88743000D01*
X133961000Y-85301000D02*
X133961000Y-85960000D01*
X133961000Y-88040000D02*
X133961000Y-88699000D01*
X134001000Y-85347000D02*
X134001000Y-85960000D01*
X134001000Y-88040000D02*
X134001000Y-88653000D01*
X134041000Y-85395000D02*
X134041000Y-88605000D01*
X134081000Y-85446000D02*
X134081000Y-88554000D01*
X134121000Y-85500000D02*
X134121000Y-88500000D01*
X134161000Y-85557000D02*
X134161000Y-88443000D01*
X134201000Y-85617000D02*
X134201000Y-88383000D01*
X134241000Y-85681000D02*
X134241000Y-88319000D01*
X134281000Y-85749000D02*
X134281000Y-88251000D01*
X134321000Y-85822000D02*
X134321000Y-88178000D01*
X134361000Y-85902000D02*
X134361000Y-88098000D01*
X134401000Y-85989000D02*
X134401000Y-88011000D01*
X134441000Y-86085000D02*
X134441000Y-87915000D01*
X134481000Y-86195000D02*
X134481000Y-87805000D01*
X134521000Y-86323000D02*
X134521000Y-87677000D01*
X134561000Y-86482000D02*
X134561000Y-87518000D01*
X134601000Y-86716000D02*
X134601000Y-87284000D01*
X134620000Y-87000000D02*
G75*
G02*
X129380000Y-87000000I-2620000J0D01*
G01*
X129380000Y-87000000D02*
G75*
G02*
X134620000Y-87000000I2620000J0D01*
G01*
X127279000Y-107830000D02*
X127945000Y-107830000D01*
X127279000Y-113170000D02*
X127279000Y-107830000D01*
X127279000Y-113170000D02*
X127945000Y-113170000D01*
X130055000Y-107830000D02*
X130721000Y-107830000D01*
X130055000Y-113170000D02*
X130721000Y-113170000D01*
X130721000Y-113170000D02*
X130721000Y-107830000D01*
X133670000Y-99810000D02*
X133670000Y-94670000D01*
X136330000Y-94670000D02*
X133670000Y-94670000D01*
X136330000Y-99810000D02*
X133670000Y-99810000D01*
X136330000Y-99810000D02*
X136330000Y-94670000D01*
X136330000Y-101080000D02*
X136330000Y-102410000D01*
X136330000Y-102410000D02*
X135000000Y-102410000D01*
X139100000Y-77700000D02*
X139100000Y-80370000D01*
X139100000Y-82910000D02*
X139100000Y-121140000D01*
X139100000Y-121140000D02*
X144180000Y-121140000D01*
X141770000Y-80370000D02*
X139100000Y-80370000D01*
X141770000Y-82910000D02*
X139100000Y-82910000D01*
X141770000Y-82910000D02*
X141770000Y-80370000D01*
X141770000Y-82910000D02*
X141770000Y-118470000D01*
X141770000Y-118470000D02*
X139100000Y-118470000D01*
X144180000Y-113260000D02*
X152060000Y-113260000D01*
X144180000Y-123680000D02*
X144180000Y-113260000D01*
X152060000Y-113260000D02*
X152060000Y-123680000D01*
X152060000Y-123680000D02*
X144180000Y-123680000D01*
X154470000Y-80370000D02*
X154470000Y-118470000D01*
X154470000Y-80370000D02*
X157140000Y-80370000D01*
X154470000Y-118470000D02*
X157140000Y-118470000D01*
X157140000Y-77700000D02*
X139100000Y-77700000D01*
X157140000Y-121140000D02*
X152060000Y-121140000D01*
X157140000Y-121140000D02*
X157140000Y-77700000D01*
X130670000Y-80270000D02*
X130670000Y-77670000D01*
X130670000Y-82870000D02*
X130670000Y-81540000D01*
X132000000Y-82870000D02*
X130670000Y-82870000D01*
X133330000Y-77670000D02*
X130670000Y-77670000D01*
X133330000Y-80270000D02*
X130670000Y-80270000D01*
X133330000Y-80270000D02*
X133330000Y-77670000D01*
%LPC*%
D13*
X129000000Y-101080000D03*
D14*
X129000000Y-98540000D03*
X129000000Y-96000000D03*
D15*
X135000000Y-113000000D03*
X135000000Y-108000000D03*
D16*
X131000000Y-87000000D03*
D15*
X133000000Y-87000000D03*
X129000000Y-113000000D03*
X129000000Y-108000000D03*
D13*
X135000000Y-101080000D03*
D14*
X135000000Y-98540000D03*
X135000000Y-96000000D03*
D16*
X140500000Y-81640000D03*
D17*
X140500000Y-84180000D03*
X140500000Y-86720000D03*
X140500000Y-89260000D03*
X140500000Y-91800000D03*
X140500000Y-94340000D03*
X140500000Y-96880000D03*
X140500000Y-99420000D03*
X140500000Y-101960000D03*
X140500000Y-104500000D03*
X140500000Y-107040000D03*
X140500000Y-109580000D03*
X140500000Y-112120000D03*
X140500000Y-114660000D03*
X140500000Y-117200000D03*
X155740000Y-117200000D03*
X155740000Y-114660000D03*
X155740000Y-112120000D03*
X155740000Y-109580000D03*
X155740000Y-107040000D03*
X155740000Y-104500000D03*
X155740000Y-101960000D03*
X155740000Y-99420000D03*
X155740000Y-96880000D03*
X155740000Y-94340000D03*
X155740000Y-91800000D03*
X155740000Y-89260000D03*
X155740000Y-86720000D03*
X155740000Y-84180000D03*
X155740000Y-81640000D03*
D13*
X132000000Y-81540000D03*
D14*
X132000000Y-79000000D03*
%LPD*%
M02*
